<?xml version="1.0" encoding="utf-8"?>
<!-- Generator: Adobe Illustrator 21.1.0, SVG Export Plug-In . SVG Version: 6.00 Build 0)  -->
<svg version="1.1" xmlns="http://www.w3.org/2000/svg" xmlns:xlink="http://www.w3.org/1999/xlink" x="0px" y="0px"
	 viewBox="0 0 234 340" style="enable-background:new 0 0 234 340;" xml:space="preserve">
<style type="text/css">
	.st0{fill:#7E2517;}
	.st1{fill:none;stroke:#FFFFFF;stroke-width:3;}
</style>
<g id="Layer_2">
	<rect x="-226.5" y="-58.7" class="st0" width="698.9" height="457.2"/>
</g>
<g id="Layer_1">
	<g id="Group">
		<path class="st1" d="M7.6,183.4c1.2,10.5,0.7,20.7,3.1,30.5c2.1,8.3,8.4,13.9,11.4,21.6c2.4,5.9,6.4,10.7,9.2,16.1
			c5.6,10.7,26.2,85.7,26.2,85.7h76c0,0,27.8-22.2,40-29.8c9.7-6,25-23.7,25-23.7s8.6-37.5,16.1-53.6c3.3-7.1,5.9-17.1,7.9-28.5
			c0-0.1,0.6-0.6,0.8-0.7c0.4-0.4,0.7-0.7,1.1-1.4c0.6-0.9,1.1-1.8,1.5-2.7c0.3-0.6,0.6-1.3,0.8-1.8c0.4-0.8,0.9-2.4,1.1-3.1
			c0.4-1.4,0.7-2.1,0.8-3c0-0.2,1.4-5.5,2.2-12c0.4-2.9,0.6-6,0.8-9c0.1-1.3,0.1-2.6,0.2-3.8c0.2-2.3,0.1-4.9,0.1-7.2
			c0-5.1-0.4-10-0.8-14.4c-1-9.2-2.5-15.9-2.5-15.9s0.1-5.2,0.1-7.6c0-9.1-3.9-20.4-4.8-28.3c-4.9-44-15.8-62.4-44.4-73.9
			c-15-6-39.4-14.4-60.7-14.4c-38.3,0-81.3,20.8-104.4,54.4c-8.6,12.5-7.8,26.5-10.9,42c-3.7,18.5,0,39,0,60.1
			C3.5,167.7,6.6,175.1,7.6,183.4z"/>
		<ellipse class="st1" cx="220.4" cy="158.3" rx="11.6" ry="44"/>
		<ellipse class="st1" cx="223.7" cy="159.2" rx="8.3" ry="35.4"/>
		<path class="st1" d="M205.4,257.3l-1.1-5.3c-0.8-3.9-2.6-10-4-13.7l-13.7-36.2l-18.7,41.3L152.2,275l-2.2,5.2l-16.7,16.3
			l-16.9-10.6l-59.3,0.4l-3.8,1.6l-1.9,5.8l-10.3-13.4"/>
		<path class="st1" d="M194.7,182.1l-8.1,19.8l-8.9,12.1l-13.3,16.8c-2.4,3.1-5.9,8.5-7.6,12l-3.1,6.1c-1.8,3.5-3.5,9.6-3.7,13.5
			l-1,13.4l-16,15l-11.8-10.4L51,281.9l-2.6,8.1"/>
		<path class="st1" d="M52.2,318.1l7-7.6l14.4-0.6l1.8-4.8l18.6-0.6l1.2,5.2h17.1l29.5,9.2l36.7-34.9l-15.1,10.7l-13.5-14.7"/>
		
			<ellipse transform="matrix(0.2419 -0.9703 0.9703 0.2419 -109.1089 386.9521)" class="st1" cx="193.1" cy="263.3" rx="5.1" ry="2.7"/>
		<path class="st1" d="M174.5,14.9l-4.5,4.6c-2.7,2.8-6.7,7.8-8.7,11.2l-3.3,5.4l8.6,4.6c3.5,1.9,8.8,5.4,11.8,7.9l6,4.9l-0.1,6.3
			c-0.1,3.9-0.6,10.3-1.2,14.2l-2.7,18.3l-2.3,15.9c-0.6,3.9-1.6,10.2-2.4,14.1l-3.3,17.1l9.1,15.6l7.5-41.7
			c0.7-3.9,2.2-10.1,3.4-13.8l1.6-5c1.2-3.8,3.4-9.8,4.9-13.4l14.5-34.7"/>
		<path class="st1" d="M142.1,5l-6.4,7.1l-7,8.3l-2.8,4.9l20.5,6.3l11.9,4.5"/>
		<path class="st1" d="M12.5,60l18.7-15.1l7.3-13.5"/>
		<path class="st1" d="M31.3,44.7l8.2-4.7c3.4-2,9.2-4.6,13-5.8l6-2l0.9-2.5c1.3-3.7,3.9-9.5,6-12.9l1.6-2.7"/>
		<path class="st1" d="M58.6,32l-3,8.8l-1.4,7.7c0,0,17.2-6.2,27.4-6.9c10.2-0.6,33.9,3,33.9,3l10.1-19.2"/>
		<path class="st1" d="M54.2,48.3l-3.4,16.9c-0.8,3.9-1.6,10.2-2,14.1L47,103.8c0,0,15.6,2.7,23.7,2.3c8.1-0.4,24.9-4.8,24.9-4.8
			l7.7-25l5.3-15c1.3-3.7,3.7-9.6,5.4-13.2l1.5-3.1"/>
		<path class="st1" d="M62.4,45.7l-6.9,24.1l-5.2,21.1l-3.2,12.8"/>
		<path class="st1" d="M194.7,182.3l-0.9-3.8L181.4,155l-11.7,13.8l-25.5,14.8c-3.4,2-9.4,3.6-13.3,3.7l-23.8,0.4
			c-3.9,0.1-9.7-1.3-9.7-1.3l0,0l-1.3-8.3l-44,2.4l-2.6,9.1l-5.7,0.8c-3.9,0.5-10.3,0.8-14.2,0.6l-4.9-0.2
			c-3.9-0.2-9.5-2.5-12.4-5.2l-4.9-4.6"/>
		<path class="st1" d="M4.1,165.9l8.4,4.7l15.9,3.1l18.6,3l4.8,3.8l44.3-2.3l7.1-5l22.5-6.2l20.4-6.8l8.1-2.7l8.3,10.6l7.5,0.3"/>
		<path class="st1" d="M194.7,182l-2.9,4.2c-2.2,3.2-6.4,8.1-9.3,10.8l-7.1,6.6l-11.9,11.6l-8.4,9c-2.7,2.9-6.7,7.8-9,11L131.4,256
			c-2.3,3.2-5.1,8.9-6.4,12.6l-3.9,11.7"/>
		<path class="st1" d="M20.3,231.9l11,17.1l9.9,15.1l6.4,12.6l3.5,5.6"/>
		<path class="st1" d="M184.4,53.5c0,0,3.7-7.5,6.4-10.4c2.8-3,4-3.4,4-3.4c3.3-2.2,8.7-2.4,12.1-0.5l3.4,1.9"/>
		<path class="st1" d="M98.7,176.6l0.5,1.3c1.4,3.7,5.8,6.3,9.7,5.8l22.1-2.5c3.9-0.4,9.9-2.2,13.5-4l17.9-9"/>
		<path class="st1" d="M12.5,170.8l1.6,6.7c0.9,3.8,4.9,7.1,8.8,7.2l27.6,0.9"/>
	</g>
</g>
</svg>
