<svg xmlns="http://www.w3.org/2000/svg" viewBox="0 0 698.91 457.23"><defs><style>.cls-1{fill:#7e2517;}.cls-2{fill:none;stroke:#fff;stroke-width:3px;}</style></defs><title>maskWithBG</title><g id="Layer_2" data-name="Layer 2"><rect class="cls-1" width="698.91" height="457.23"/></g><g id="Layer_1" data-name="Layer 1"><g id="Group"><path class="cls-2" d="M7.57,183.43c1.16,10.54.68,20.74,3.12,30.5,2.09,8.34,8.36,13.95,11.42,21.56,2.37,5.89,6.42,10.68,9.23,16.12,5.55,10.74,26.2,85.68,26.2,85.68h76s27.76-22.24,40-29.8c9.65-6,25-23.74,25-23.74s8.59-37.53,16.08-53.56c3.31-7.08,5.9-17.09,7.9-28.55,0-.13.63-.58.8-.74a7.77,7.77,0,0,0,1.13-1.37,17.46,17.46,0,0,0,1.52-2.67c.26-.59.56-1.32.79-1.77a25.2,25.2,0,0,0,1.08-3.1,26.63,26.63,0,0,0,.82-3c0-.18,1.37-5.52,2.21-12,.38-2.89.65-6,.8-9,.07-1.31.12-2.56.2-3.79.16-2.31.09-4.9.09-7.22a139.84,139.84,0,0,0-.85-14.43,154.77,154.77,0,0,0-2.51-15.86s.06-5.2.06-7.61c0-9.06-3.9-20.45-4.78-28.3-4.91-44-15.75-62.42-44.42-73.93-15-6-39.36-14.43-60.71-14.43-38.26,0-81.31,20.84-104.36,54.4C5.85,69.3,6.6,83.34,3.48,98.84c-3.72,18.48,0,39,0,60.05C3.48,167.66,6.65,175.05,7.57,183.43Z" transform="translate(226.49 58.75)"/><ellipse class="cls-2" cx="446.91" cy="217.05" rx="11.59" ry="44.02"/><ellipse class="cls-2" cx="450.18" cy="217.94" rx="8.32" ry="35.4"/><path class="cls-2" d="M205.41,257.32l-1.13-5.3a112.34,112.34,0,0,0-4-13.66l-13.7-36.19-18.7,41.31L152.23,275,150,280.19l-16.66,16.29-16.86-10.57-59.31.4-3.82,1.61-1.93,5.81L41.13,280.32" transform="translate(226.49 58.75)"/><path class="cls-2" d="M194.67,182.13l-8.09,19.8-8.9,12.1-13.27,16.82a85.25,85.25,0,0,0-7.64,12l-3.07,6.09a42.58,42.58,0,0,0-3.74,13.5l-1,13.36-16,15-11.81-10.44L51,281.94,48.45,290" transform="translate(226.49 58.75)"/><path class="cls-2" d="M52.22,318.15l7-7.57L73.61,310l1.81-4.81L94,304.61l1.21,5.24h17.06L141.85,319l36.72-34.88-15.13,10.7-13.51-14.71" transform="translate(226.49 58.75)"/><ellipse class="cls-2" cx="193.08" cy="263.3" rx="5.06" ry="2.67" transform="translate(117.38 445.7) rotate(-76)"/><path class="cls-2" d="M174.53,14.94,170,19.58a78.71,78.71,0,0,0-8.72,11.2L158,36.18l8.59,4.62a91.58,91.58,0,0,1,11.84,7.87l6,4.86-.14,6.35a136.48,136.48,0,0,1-1.22,14.2l-2.75,18.34L178,108.29c-.56,3.91-1.63,10.2-2.39,14.08l-3.34,17.12,9.09,15.58,7.53-41.7a138.2,138.2,0,0,1,3.4-13.84l1.57-5c1.18-3.76,3.36-9.76,4.88-13.39l14.47-34.69" transform="translate(226.49 58.75)"/><path class="cls-2" d="M142.07,5l-6.44,7.08-7,8.34-2.84,4.91,20.48,6.31,11.93,4.54" transform="translate(226.49 58.75)"/><path class="cls-2" d="M12.47,60l18.7-15.11,7.29-13.5" transform="translate(226.49 58.75)"/><path class="cls-2" d="M31.3,44.72,39.52,40a84,84,0,0,1,13-5.8l6-2,.86-2.54a77.67,77.67,0,0,1,6-12.87L67,14.14" transform="translate(226.49 58.75)"/><path class="cls-2" d="M58.55,32l-3,8.81L54.17,48.6s17.19-6.25,27.42-6.9,33.95,3,33.95,3l10.11-19.17" transform="translate(226.49 58.75)"/><path class="cls-2" d="M54.25,48.3,50.89,65.21c-.77,3.86-1.64,10.18-2,14.12L47,103.79s15.61,2.69,23.71,2.26,24.92-4.85,24.92-4.85l7.69-25,5.28-15c1.31-3.72,3.72-9.63,5.38-13.2l1.45-3.11" transform="translate(226.49 58.75)"/><path class="cls-2" d="M62.4,45.72l-6.91,24.1L50.33,90.91l-3.22,12.76" transform="translate(226.49 58.75)"/><path class="cls-2" d="M194.68,182.27l-.85-3.83L181.39,155,169.66,168.8l-25.49,14.78a32.62,32.62,0,0,1-13.33,3.72l-23.82.44a50.61,50.61,0,0,1-9.74-1.26h0L96,178.18l-44,2.35-2.57,9.15-5.73.76a97.12,97.12,0,0,1-14.21.61l-4.89-.22a22.69,22.69,0,0,1-12.38-5.16L7.2,181.09" transform="translate(226.49 58.75)"/><path class="cls-2" d="M4.06,165.86l8.4,4.71L28.4,173.7l18.61,3,4.83,3.84,44.26-2.34,7.1-5L125.67,167l20.44-6.8,8.12-2.74,8.27,10.62,7.52.29" transform="translate(226.49 58.75)"/><path class="cls-2" d="M194.72,182l-2.91,4.23A80.07,80.07,0,0,1,182.55,197l-7.07,6.63-11.94,11.58-8.37,9a131.87,131.87,0,0,0-9,11L131.43,256a56.4,56.4,0,0,0-6.38,12.6l-3.85,11.71" transform="translate(226.49 58.75)"/><path class="cls-2" d="M20.33,231.87l11,17.13,9.93,15.09,6.37,12.56,3.48,5.6" transform="translate(226.49 58.75)"/><path class="cls-2" d="M184.38,53.47s3.75-7.48,6.45-10.42,4-3.4,4-3.4a12.59,12.59,0,0,1,12.13-.46l3.36,1.91" transform="translate(226.49 58.75)"/><path class="cls-2" d="M98.71,176.55l.51,1.29a9.82,9.82,0,0,0,9.71,5.83l22.1-2.51a47.68,47.68,0,0,0,13.47-4l17.89-9" transform="translate(226.49 58.75)"/><path class="cls-2" d="M12.52,170.76l1.6,6.67a9.89,9.89,0,0,0,8.8,7.19l27.62.92" transform="translate(226.49 58.75)"/></g></g></svg>