<?xml version="1.0" standalone="no"?>
<!DOCTYPE svg PUBLIC "-//W3C//DTD SVG 1.1//EN" "http://www.w3.org/Graphics/SVG/1.1/DTD/svg11.dtd" >
<svg xmlns="http://www.w3.org/2000/svg">
<metadata>
Created by FontPrep 20130207 at Mon Nov 28 16:17:01 2016
 By LatinoType 3
Copyright (c) 2013 by Rick Banks. All rights reserved.
</metadata>
<defs>
<font id="bb8d7a6ec0d5deda275935ab00ad83ba" horiz-adv-x='1024' >
  <font-face 
    font-family="F37Ginger-BoldItalic"
    font-weight="400"
    font-style="italic"
    font-stretch="normal"
    units-per-em="2048"
    panose-1="0 0 5 0 0 0 0 0 0 0"
    ascent="1638"
    descent="-410"
    x-height="973"
    cap-height="1516"
    bbox="-313 -537 2705 2068"
    underline-thickness="102"
    underline-position="-102"
    slope="-10"
    unicode-range="U+0020-FB02"
  />
<missing-glyph horiz-adv-x="1492" 
d="M1249 1245h-567l-172 -975h567zM205 0l266 1516h1083l-266 -1516h-1083z" />
    <glyph glyph-name="fi" unicode="fi" horiz-adv-x="1245" 
d="M1356 1310q0 -68 -58 -126q-58 -56 -126 -56t-106 37t-38 107t57 126t127 56t107 -38t37 -106zM773 1278q-54 0 -89 -29t-47 -102l-31 -174h654l-170 -973h-252l127 731h-402l-127 -731h-252l127 731h-143l43 242h143l41 227q57 315 357 316q113 0 184 -25l-39 -223
q-70 10 -124 10z" />
    <glyph glyph-name="fl" unicode="fl" 
d="M877 186q0 35 6 74l82 471h-402l-127 -731h-252l127 731h-143l43 242h143l41 227q55 315 357 316q113 0 184 -25l-39 -223q-70 10 -124 10t-89 -29t-47 -102l-31 -174h402l96 543h252l-211 -1199q-4 -29 -4 -36q0 -70 92 -70q25 0 39 2l-39 -223q-61 -16 -119 -17
q-115 -1 -176 55t-61 158z" />
    <glyph glyph-name=".notdef" horiz-adv-x="1492" 
d="M1249 1245h-567l-172 -975h567zM205 0l266 1516h1083l-266 -1516h-1083z" />
    <glyph glyph-name=".null" horiz-adv-x="0" 
 />
    <glyph glyph-name="nonmarkingreturn" horiz-adv-x="681" 
 />
    <glyph glyph-name="space" unicode=" " horiz-adv-x="552" 
 />
    <glyph glyph-name="exclam" unicode="!" horiz-adv-x="714" 
d="M543 164q1 -66 -57 -122t-124 -56t-104 36q-37 36 -37 104q-1 68 57 122q58 55 126 55t103 -36q36 -37 36 -103zM362 477l44 543l88 496h260l-88 -496l-146 -543h-158z" />
    <glyph glyph-name="quotedbl" unicode="&#x22;" horiz-adv-x="966" 
d="M766 991l51 525h273l-136 -525h-188zM358 991l52 525h272l-135 -525h-189z" />
    <glyph glyph-name="numbersign" unicode="#" horiz-adv-x="1294" 
d="M977 936h-272l-76 -246h272zM723 135l117 365h-273l-116 -365h-193l117 365h-215l33 190h243l76 246h-215l33 190h241l109 342h192l-108 -342h272l109 342h192l-108 -342h190l-33 -190h-217l-75 -246h188l-33 -190h-217l-117 -365h-192z" />
    <glyph glyph-name="dollar" unicode="$" horiz-adv-x="1212" 
d="M920 459q0 76 -60 119q-60 42 -144 70q-85 28 -171 64t-146 114q-59 79 -59 198q0 180 120 310t292 167l30 180h248l-29 -165q154 -23 295 -138l-176 -209q-100 106 -260 107q-110 0 -178 -52t-68 -130t60 -122q60 -42 146 -67q85 -25 170 -59q86 -34 146 -116
q60 -81 60 -210q0 -197 -128 -340t-331 -176l-30 -168h-248l30 164q-240 39 -362 262l199 174q42 -59 76 -96t98 -69t141 -31q131 0 205 72t74 147z" />
    <glyph glyph-name="percent" unicode="%" horiz-adv-x="1890" 
d="M1442 195q64 0 121 56q57 55 57 121t-36 103t-102 37t-122 -56q-57 -56 -57 -122t36 -103q39 -36 103 -36zM1404 -29q-150 0 -243 90q-92 90 -92 230q0 188 140 317t321 129q141 0 233 -91t92 -226q0 -31 -6 -66q-29 -160 -161 -272q-134 -112 -284 -111zM537 1154
q0 -66 36 -103q37 -37 101 -37t122 55t58 121t-37 104q-37 37 -103 37t-121 -56q-56 -55 -56 -121zM426 0l1098 1516h219l-1098 -1516h-219zM303 1112q0 186 140 315t321 129q141 0 233 -91t93 -226q-7 -198 -169 -336q-133 -113 -285 -113t-243 93q-90 92 -90 229z" />
    <glyph glyph-name="ampersand" unicode="&#x26;" horiz-adv-x="1345" 
d="M766 666q-102 0 -197 -42q-115 -54 -115 -209q0 -83 59 -121q58 -38 194 -38h167l72 410h-180zM655 0q-235 0 -355 92t-120 258q0 205 151 345q81 75 195 104q-174 81 -174 275t142 332t376 138q170 0 275 -110l-168 -191q-66 61 -156 61t-149 -60q-60 -62 -60 -141
t56 -131t161 -52h162l39 223h268l-38 -223h145l-45 -254h-146l-71 -408h145l-45 -258h-588z" />
    <glyph glyph-name="quotesingle" unicode="'" horiz-adv-x="559" 
d="M358 991l52 525h272l-135 -525h-189z" />
    <glyph glyph-name="parenleft" unicode="(" horiz-adv-x="778" 
d="M180 326q0 244 70 446q70 203 183 349q221 284 480 419l82 -186q-180 -118 -340 -331q-90 -120 -146 -286q-56 -165 -56 -367t83 -358t181 -237l-148 -187q-165 110 -277 302t-112 436z" />
    <glyph glyph-name="parenright" unicode=")" horiz-adv-x="778" 
d="M524 743q0 213 -81 369t-185 242l148 186q166 -106 278 -300t111 -438q0 -625 -487 -1044q-120 -102 -247 -170l-79 187q136 91 237 208t161 221t102 246q42 144 42 293z" />
    <glyph glyph-name="asterisk" unicode="*" horiz-adv-x="929" 
d="M719 1057l-29 -209h-178l51 211l-217 -154l-63 148l221 112l-203 88l109 158l200 -117l29 222h182l-53 -222l221 154l68 -148l-223 -114l204 -96l-110 -156z" />
    <glyph glyph-name="plus" unicode="+" horiz-adv-x="1343" 
d="M573 139l80 449h-448l43 241h448l80 449h242l-80 -449h448l-43 -241h-448l-80 -449h-242z" />
    <glyph glyph-name="comma" unicode="," horiz-adv-x="729" 
d="M352 -12q-55 0 -90 35t-35 101q1 66 57 123q56 56 128 56q139 1 139 -151t-111 -306t-256 -157l23 129q51 8 105 57t71 115q-10 -2 -31 -2z" />
    <glyph glyph-name="hyphen" unicode="-" horiz-adv-x="905" 
d="M223 461l43 237h619l-43 -237h-619z" />
    <glyph glyph-name="period" unicode="." horiz-adv-x="727" 
d="M549 164q1 -66 -57 -122t-124 -56t-104 36q-37 36 -37 104q-1 68 57 122q58 55 126 55t103 -36q36 -37 36 -103z" />
    <glyph glyph-name="slash" unicode="/" horiz-adv-x="1107" 
d="M10 0l1098 1516h256l-1098 -1516h-256z" />
    <glyph glyph-name="zero" unicode="0" horiz-adv-x="1200" 
d="M827 1296q-115 0 -187 -87t-97 -236l-72 -414q-14 -90 -14 -139q0 -201 180 -201q127 0 193 89t96 251l71 414q10 61 11 108q0 215 -181 215zM618 -27q-226 0 -325 114q-98 114 -98 308q0 80 14 158l78 442q43 252 193 400q151 147 367 147t321 -112t106 -306
q0 -61 -12 -129l-78 -442q-48 -272 -194 -426t-372 -154z" />
    <glyph glyph-name="one" unicode="1" horiz-adv-x="819" 
d="M305 0l221 1257h-243l45 259h512l-267 -1516h-268z" />
    <glyph glyph-name="two" unicode="2" horiz-adv-x="1159" 
d="M952 1134q0 190 -166 191q-182 0 -266 -225h-256q143 444 561 444q184 0 295 -85t111 -246t-92 -325t-275 -310l-395 -320h594l-45 -258h-940l45 262l457 367q204 165 288 287t84 218z" />
    <glyph glyph-name="three" unicode="3" horiz-adv-x="1286" 
d="M807 942q102 0 167 68q64 68 64 139t-38 113t-120 43q-82 -1 -140 -61t-76 -144h-261q43 198 181 320t336 122q200 0 291 -91t91 -233t-70 -246q-71 -103 -194 -157q100 -47 142 -116t41 -175q0 -252 -172 -402q-171 -150 -393 -149q-222 0 -327 111t-106 285q0 29 4 69
h262q0 -219 187 -219q129 0 205 85q75 84 75 180t-50 152t-140 56h-86l45 250h82z" />
    <glyph glyph-name="four" unicode="4" horiz-adv-x="1249" 
d="M930 1069l-488 -590h383zM741 0l41 242h-669l41 227l870 1047h244l-183 -1037h156l-43 -237h-156l-41 -242h-260z" />
    <glyph glyph-name="five" unicode="5" horiz-adv-x="1218" 
d="M971 546q1 236 -247 236q-116 0 -230 -88l-162 152l235 670h764l-63 -246h-533l-108 -299q102 43 211 43q174 0 284 -114t111 -304q0 -266 -187 -444t-440 -179q-196 0 -318 121t-122 307q0 27 2 39h258q0 -104 57 -162t164 -59q143 1 233 103t91 224z" />
    <glyph glyph-name="six" unicode="6" horiz-adv-x="1189" 
d="M936 496q0 102 -62 162t-166 61q-104 0 -197 -90q-93 -91 -93 -191t59 -162t165 -61q106 0 200 90q94 89 94 191zM813 948q160 0 266 -114t107 -285q0 -252 -178 -414t-418 -162q-184 0 -305 116t-121 292t170 420l504 715h295l-400 -574q37 6 80 6z" />
    <glyph glyph-name="seven" unicode="7" horiz-adv-x="1142" 
d="M137 0l832 1257h-707l45 259h989l-45 -259l-821 -1257h-293z" />
    <glyph glyph-name="eight" unicode="8" horiz-adv-x="1296" 
d="M698 215q116 0 223 100q108 100 107 230q0 100 -70 170q-70 69 -186 69t-221 -103t-105 -217t68 -181q68 -68 184 -68zM1012 1165q0 57 -40 95t-105 38t-123 -57t-58 -121t37 -104q55 10 103 10t104 -10q82 61 82 149zM1280 580q0 -260 -194 -434t-441 -173
q-203 0 -328 122t-124 315q-1 154 79 288t205 217q-47 70 -47 166q0 205 148 333t320 128q173 0 270 -95q98 -95 98 -252t-125 -282q139 -131 139 -333z" />
    <glyph glyph-name="nine" unicode="9" horiz-adv-x="1189" 
d="M812 1300q-104 0 -198 -89t-94 -191t60 -162t159 -61q97 0 197 85t100 189q0 105 -60 167t-164 62zM641 567q-162 0 -267 117t-106 295q0 239 178 401t412 162q194 0 312 -117t118 -293t-168 -417l-502 -715h-294l399 573q-37 -6 -82 -6z" />
    <glyph glyph-name="colon" unicode=":" horiz-adv-x="727" 
d="M549 164q1 -66 -57 -122t-124 -56t-104 36q-37 36 -37 104q-1 68 57 122q58 55 126 55t103 -36q36 -37 36 -103zM668 832q0 -66 -58 -122t-124 -55q-66 0 -103 36q-37 35 -37 103t56 124t124 55q68 0 105 -37q37 -38 37 -104z" />
    <glyph glyph-name="semicolon" unicode=";" horiz-adv-x="729" 
d="M352 -12q-55 0 -90 35t-35 101q1 66 57 123q56 56 128 56q139 1 139 -151t-111 -306t-256 -157l23 129q51 8 105 57t71 115q-10 -2 -31 -2zM668 832q0 -66 -58 -122t-124 -55q-66 0 -103 36q-37 35 -37 103t56 124t124 55q68 0 105 -37q37 -38 37 -104z" />
    <glyph glyph-name="less" unicode="&#x3c;" horiz-adv-x="964" 
d="M705 12l-580 697l823 696l152 -170l-629 -526l442 -529z" />
    <glyph glyph-name="equal" unicode="=" horiz-adv-x="1318" 
d="M172 346l43 242h1094l-43 -242h-1094zM258 829l43 242h1094l-43 -242h-1094z" />
    <glyph glyph-name="greater" unicode="&#x3e;" horiz-adv-x="964" 
d="M264 12l-151 168l630 529l-444 526l209 170l582 -696z" />
    <glyph glyph-name="question" unicode="?" horiz-adv-x="1124" 
d="M502 -14q-66 0 -105 36q-37 36 -37 104t58 122q58 55 124 55q68 0 104 -36q36 -37 36 -103t-57 -122t-123 -56zM977 1151q0 65 -42 105t-131 40t-156 -56t-85 -167h-241q37 209 185 340q147 131 343 131t296 -91t99 -260q0 -169 -86 -277t-256 -193q-61 -31 -91 -50
q-72 -46 -87 -132l-18 -109h-261l19 109q18 109 61 177t85 90q42 24 120 60t127 72q119 84 119 211z" />
    <glyph glyph-name="at" unicode="@" horiz-adv-x="1976" 
d="M799 362q0 -196 198 -196q97 0 183 73t86 203q0 78 -52 129t-156 51q-106 0 -182 -80q-76 -82 -77 -180zM907 -537q-332 0 -545 195t-212 530q0 94 18 195q41 223 153 405q208 339 589 470q175 60 361 60q187 0 345 -68q158 -70 260 -220t102 -345t-66 -361t-185 -272
q-118 -106 -250 -105q-92 0 -147 49q-54 49 -58 133q-131 -158 -352 -158q-156 -1 -243 95t-87 247q0 199 140 352t353 152q150 0 234 -92l14 80h228l-91 -508q-4 -20 -4 -31q0 -90 56 -90q84 0 152 137t69 308q0 171 -109 312q-55 71 -157 111t-221 41q-368 0 -613 -230
q-84 -79 -147 -201q-105 -203 -105 -451t161 -385t396 -137t443 114l81 -164q-285 -168 -563 -168z" />
    <glyph glyph-name="A" unicode="A" horiz-adv-x="1482" 
d="M956 1182l-338 -602h461zM1200 0l-70 324h-653l-178 -324h-299l872 1516h273l338 -1516h-283z" />
    <glyph glyph-name="B" unicode="B" horiz-adv-x="1230" 
d="M692 256q152 0 224 71t71 171q0 168 -227 168h-211l-72 -410h215zM825 920q92 0 153 54q60 54 60 148q0 137 -159 138h-226l-59 -340h231zM885 1516q223 0 326 -78t103 -232t-75 -258q-76 -104 -207 -149q219 -57 219 -299q0 -162 -91 -279q-172 -221 -535 -221h-461
l266 1516h455z" />
    <glyph glyph-name="C" unicode="C" horiz-adv-x="1460" 
d="M1118 1542q338 0 531 -239l-203 -189q-125 182 -369 182t-435 -196t-191 -441q1 -188 123 -314t311 -126q227 0 422 168l125 -188q-276 -225 -578 -225t-487 182q-184 182 -185 477q0 246 131 457q131 212 346 332t459 120z" />
    <glyph glyph-name="D" unicode="D" horiz-adv-x="1470" 
d="M633 258q255 0 446 142q94 71 150 186q55 115 55 260q0 412 -475 411h-156l-176 -999h156zM860 1516q332 0 514 -162t182 -475q0 -266 -133 -470q-133 -205 -350 -307t-479 -102h-430l266 1516h430z" />
    <glyph glyph-name="E" unicode="E" horiz-adv-x="1226" 
d="M164 0l266 1516h961l-45 -259h-693l-59 -337h545l-47 -258h-545l-70 -404h692l-45 -258h-960z" />
    <glyph glyph-name="F" unicode="F" horiz-adv-x="1155" 
d="M164 0l266 1516h940l-45 -259h-672l-59 -337h524l-47 -258h-524l-115 -662h-268z" />
    <glyph glyph-name="G" unicode="G" horiz-adv-x="1673" 
d="M872 -27q-316 -1 -504 181q-187 182 -188 479q0 246 132 457q132 212 348 332t460 120q344 0 533 -235l-195 -185q-120 174 -372 174t-444 -195q-191 -196 -191 -444q1 -193 125 -315t314 -123q190 0 319 98q130 98 184 299h-478l46 258h743l-31 -174q-57 -330 -271 -528
t-530 -199z" />
    <glyph glyph-name="H" unicode="H" horiz-adv-x="1593" 
d="M1161 0l117 670h-729l-117 -670h-268l266 1516h268l-104 -588h729l104 588h269l-266 -1516h-269z" />
    <glyph glyph-name="I" unicode="I" horiz-adv-x="595" 
d="M164 0l266 1516h268l-266 -1516h-268z" />
    <glyph glyph-name="J" unicode="J" horiz-adv-x="575" 
d="M-129 -211q160 0 215 74t94 289l240 1364h268l-237 -1342q-31 -176 -61 -270t-91 -172q-150 -188 -473 -189h-12l43 246h14z" />
    <glyph glyph-name="K" unicode="K" horiz-adv-x="1396" 
d="M1040 0l-495 643l-113 -643h-268l266 1516h268l-118 -670l655 670h375l-795 -779l582 -737h-357z" />
    <glyph glyph-name="L" unicode="L" horiz-adv-x="1185" 
d="M164 0l266 1516h268l-221 -1258h703l-45 -258h-971z" />
    <glyph glyph-name="M" unicode="M" horiz-adv-x="1861" 
d="M1430 0l200 1149l-477 -586h-254l-266 586l-201 -1149h-268l266 1516h346l299 -668l543 668h346l-266 -1516h-268z" />
    <glyph glyph-name="N" unicode="N" horiz-adv-x="1712" 
d="M1266 0l-631 1153l-203 -1153h-268l266 1516h338l590 -1078l190 1078h267l-267 -1516h-282z" />
    <glyph glyph-name="O" unicode="O" horiz-adv-x="1705" 
d="M889 219q245 1 437 191t192 438q0 192 -120 320t-317 128q-247 0 -439 -196t-191 -441q1 -190 123 -315t315 -125zM1116 1542q298 0 486 -181t188 -464q0 -69 -12 -139q-54 -324 -324 -554t-608 -231q-295 -1 -479 181t-185 477q0 247 130 457t345 332t459 122z" />
    <glyph glyph-name="P" unicode="P" horiz-adv-x="1261" 
d="M834 764q141 0 221 86t80 217q-1 88 -53 139t-160 51h-269l-88 -493h269zM967 1516q223 0 333 -110t109 -284q0 -254 -167 -435t-454 -181h-268l-88 -506h-268l266 1516h537z" />
    <glyph glyph-name="Q" unicode="Q" horiz-adv-x="1679" 
d="M1296 394q216 183 222 466q0 193 -121 315t-314 121q-247 0 -439 -188t-191 -436q1 -193 123 -310q122 -116 333 -116t387 148zM836 0q-287 0 -470 176t-184 469q0 248 132 456q132 209 348 325t458 116q298 0 484 -177t186 -468q0 -182 -83 -350t-261 -289h278l-45 -258
h-843z" />
    <glyph glyph-name="R" unicode="R" horiz-adv-x="1333" 
d="M938 887q102 0 172 59q70 60 70 146q0 168 -176 165h-351l-65 -370h350zM1044 1516q200 0 304 -92t104 -276q0 -182 -119 -328t-315 -177l264 -643h-281l-256 629h-202l-111 -629h-268l266 1516h614z" />
    <glyph glyph-name="S" unicode="S" horiz-adv-x="1120" 
d="M578 219q130 0 204 73t74 151q0 79 -59 125t-143 78t-169 72q-84 40 -143 126t-59 213q0 225 166 355t393 130t397 -143l-176 -209q-104 106 -260 106q-109 0 -177 -52t-69 -124q0 -72 43 -118q42 -46 106 -70t139 -56q75 -34 138 -72t107 -115t43 -181q0 -219 -164 -377
t-439 -158q-317 0 -469 269l199 174q43 -58 77 -96q35 -38 99 -70t142 -31z" />
    <glyph glyph-name="T" unicode="T" horiz-adv-x="1343" 
d="M539 0l221 1257h-488l45 259h1242l-46 -259h-485l-221 -1257h-268z" />
    <glyph glyph-name="U" unicode="U" horiz-adv-x="1601" 
d="M264 483q0 86 19 187l149 846h268l-127 -717q-29 -156 -28 -267q-1 -158 67 -236t226 -77q211 0 313 140t156 440l127 717h268l-150 -846q-59 -340 -262 -518t-495 -179q-250 0 -391 130q-140 130 -140 380z" />
    <glyph glyph-name="V" unicode="V" horiz-adv-x="1511" 
d="M616 0l-329 1516h291l231 -1182l649 1182h299l-860 -1516h-281z" />
    <glyph glyph-name="W" unicode="W" horiz-adv-x="2113" 
d="M1352 0l-115 1024l-475 -1024h-270l-205 1516h284l119 -1104l510 1104h246l119 -1104l510 1104h284l-737 -1516h-270z" />
    <glyph glyph-name="X" unicode="X" horiz-adv-x="1419" 
d="M666 1516l254 -515l403 515h332l-606 -754l372 -762h-303l-274 565l-449 -565h-332l648 803l-349 713h304z" />
    <glyph glyph-name="Y" unicode="Y" horiz-adv-x="1386" 
d="M559 0l117 672l-400 844h295l267 -592l477 592h327l-696 -842l-119 -674h-268z" />
    <glyph glyph-name="Z" unicode="Z" horiz-adv-x="1368" 
d="M82 0l45 258l1024 999h-825l45 259h1190l-45 -259l-1022 -999h847l-45 -258h-1214z" />
    <glyph glyph-name="bracketleft" unicode="[" horiz-adv-x="722" 
d="M49 -414l340 1930h580l-43 -248h-312l-254 -1436h312l-43 -246h-580z" />
    <glyph glyph-name="backslash" unicode="\" horiz-adv-x="1107" 
d="M842 0l-566 1516h256l566 -1516h-256z" />
    <glyph glyph-name="bracketright" unicode="]" horiz-adv-x="722" 
d="M-51 -414l43 246h309l254 1436h-311l43 248h579l-340 -1930h-577z" />
    <glyph glyph-name="asciicircum" unicode="^" horiz-adv-x="1232" 
d="M1016 688l-172 617l-385 -617h-266l542 828h295l252 -828h-266z" />
    <glyph glyph-name="underscore" unicode="_" horiz-adv-x="1132" 
d="M-8 -229l39 229h1071l-41 -229h-1069z" />
    <glyph glyph-name="grave" unicode="`" horiz-adv-x="788" 
d="M342 1360l158 217l418 -262l-152 -201z" />
    <glyph glyph-name="a" unicode="a" 
d="M946 530q0 90 -64 155q-66 65 -176 65t-208 -96t-98 -202q0 -108 62 -172q64 -64 169 -65t198 77q117 98 117 238zM566 -27q-177 0 -298 120t-121 317q1 248 185 414t426 167q162 0 258 -90l12 72h252l-170 -973h-252l10 63q-125 -90 -302 -90z" />
    <glyph glyph-name="b" unicode="b" 
d="M483 430q0 -86 66 -150q67 -64 177 -65q110 0 208 95q98 94 98 202t-63 173t-166 65t-198 -78t-113 -178l-5 -23q-4 -20 -4 -41zM865 991q175 0 297 -119t122 -303q0 -258 -184 -427t-432 -169q-156 0 -252 90l-10 -63h-252l266 1516h252l-109 -615q127 90 302 90z" />
    <glyph glyph-name="c" unicode="c" horiz-adv-x="1079" 
d="M580 -27q-190 0 -312 121q-121 121 -121 316q1 246 185 414t426 167q139 0 243 -62t156 -169l-237 -125q-60 115 -192 115t-230 -96t-98 -202q0 -108 62 -172q64 -64 165 -65q147 0 247 125l191 -127q-90 -111 -218 -175t-267 -65z" />
    <glyph glyph-name="d" unicode="d" 
d="M946 530q0 90 -64 155q-66 65 -176 65t-208 -96t-98 -202q0 -108 62 -172q64 -64 169 -65t198 77q117 98 117 238zM566 -27q-177 0 -298 120t-121 317q1 248 185 414t426 167q162 0 258 -90l108 615h252l-266 -1516h-252l10 63q-125 -90 -302 -90z" />
    <glyph glyph-name="e" unicode="e" horiz-adv-x="1136" 
d="M913 588q0 76 -57 125t-146 49t-165 -47t-117 -127h485zM621 201q160 0 260 108l147 -137q-82 -94 -201 -146t-247 -53q-193 0 -313 115t-120 315q1 250 177 419t415 169q195 -1 307 -115t111 -294q0 -92 -29 -179h-741q5 -92 67 -147t167 -55z" />
    <glyph glyph-name="f" unicode="f" horiz-adv-x="745" 
d="M773 1278q-54 0 -89 -29t-47 -102l-31 -174h217l-43 -242h-217l-127 -731h-252l127 731h-143l43 242h143l41 227q55 315 357 316q113 0 184 -25l-39 -223q-70 10 -124 10z" />
    <glyph glyph-name="g" unicode="g" 
d="M946 530q0 90 -64 155q-66 65 -176 65t-208 -96t-98 -202q0 -108 62 -172q64 -64 169 -65t198 77q117 98 117 238zM566 -27q-177 0 -298 120t-121 317q1 248 185 414t426 167q162 0 258 -90l12 72h252l-160 -903q-27 -150 -84 -263t-122 -172t-167 -106t-239 -47
q-299 0 -408 239l248 101q68 -98 201 -98q256 0 311 296l8 43q-125 -90 -302 -90z" />
    <glyph glyph-name="h" unicode="h" horiz-adv-x="1191" 
d="M903 592q0 158 -168 158q-199 0 -237 -226l-92 -524h-252l266 1516h252l-109 -615q139 90 279 90t233 -80q92 -80 92 -239q0 -45 -10 -111l-98 -561h-252l90 520q6 41 6 72z" />
    <glyph glyph-name="i" unicode="i" horiz-adv-x="563" 
d="M156 0l170 973h252l-170 -973h-252zM670 1314q0 -66 -58 -123q-58 -56 -124 -56q-66 -1 -103 35t-37 104t58 123t124 55q68 0 104 -36t36 -102z" />
    <glyph glyph-name="j" unicode="j" horiz-adv-x="563" 
d="M63 -518l263 1491h252l-263 -1491h-252zM670 1314q0 -66 -58 -123q-58 -56 -124 -56q-66 -1 -103 35t-37 104t58 123t124 55q68 0 104 -36t36 -102z" />
    <glyph glyph-name="k" unicode="k" horiz-adv-x="1142" 
d="M791 0l-310 434l-75 -434h-252l266 1516h252l-162 -920l397 377h344l-516 -479l350 -494h-294z" />
    <glyph glyph-name="l" unicode="l" horiz-adv-x="579" 
d="M457 281q0 -70 92 -70q25 0 39 2l-39 -223q-61 -16 -119 -17q-115 -1 -177 55t-63 154q0 25 9 78l221 1256h252l-211 -1199q-4 -29 -4 -36z" />
    <glyph glyph-name="m" unicode="m" horiz-adv-x="1804" 
d="M1372 750q-203 0 -242 -226l-92 -524h-252l91 520q8 43 8 84q0 84 -39 115t-107 31q-203 0 -241 -226l-92 -524h-252l170 973h251l-12 -72q136 90 268 90q209 0 281 -145q147 145 358 145q142 0 226 -77t84 -238q0 -61 -11 -115l-98 -561h-252l90 520q28 153 -30 199
q-39 31 -107 31z" />
    <glyph glyph-name="n" unicode="n" horiz-adv-x="1191" 
d="M903 592q0 158 -168 158q-199 0 -237 -226l-92 -524h-252l170 973h251l-12 -72q139 90 279 90t233 -80q92 -80 92 -239q0 -45 -10 -111l-98 -561h-252l90 520q6 41 6 72z" />
    <glyph glyph-name="o" unicode="o" horiz-adv-x="1177" 
d="M946 530q0 90 -64 155q-66 65 -176 65t-208 -96t-98 -202q0 -108 62 -172q64 -64 169 -65t198 77q117 98 117 238zM1198 582q0 -276 -222 -460q-180 -150 -384 -149q-204 0 -325 121q-120 121 -120 316q-1 246 183 414t424 167q196 0 320 -118t124 -291z" />
    <glyph glyph-name="p" unicode="p" 
d="M796 750q-110 0 -211 -96t-102 -224q0 -86 66 -150q67 -64 177 -65q110 0 208 95q98 94 98 202t-63 173t-173 65zM866 991q176 0 298 -120q120 -120 120 -314q0 -248 -185 -416t-427 -168q-160 0 -256 90l-103 -581h-252l263 1491h251l-12 -72q127 90 303 90z" />
    <glyph glyph-name="q" unicode="q" 
d="M946 530q0 90 -64 155q-66 65 -176 65t-208 -96t-98 -202q0 -108 62 -172q64 -64 169 -65t198 77q117 98 117 238zM566 -27q-177 0 -298 120t-121 317q1 248 185 414t426 167q162 0 258 -90l12 72h252l-262 -1491h-252l102 581q-125 -90 -302 -90z" />
    <glyph glyph-name="r" unicode="r" horiz-adv-x="831" 
d="M154 0l170 973h251l-12 -72q80 51 164 71t227 19l-43 -241q-227 0 -312 -60t-107 -198l-86 -492h-252z" />
    <glyph glyph-name="s" unicode="s" horiz-adv-x="907" 
d="M492 203q68 1 100 25t31 59q0 35 -44 55q-45 20 -107 34t-126 39q-64 24 -107 83q-44 59 -44 151q0 154 113 248q114 94 290 94q223 0 334 -123l-164 -180q-94 74 -207 74q-63 0 -88 -24t-25 -52t44 -50q43 -22 105 -40q61 -18 123 -45t105 -83t43 -140q0 -147 -120 -251
q-121 -103 -321 -103t-353 137l168 192q98 -100 250 -100z" />
    <glyph glyph-name="t" unicode="t" horiz-adv-x="806" 
d="M492 -27q-256 0 -256 228q0 47 8 88l78 442h-154l43 242h154l59 330h252l-60 -330h258l-43 -242h-258q-72 -416 -71 -438q0 -82 100 -82l115 10l-41 -223q-88 -25 -184 -25z" />
    <glyph glyph-name="u" unicode="u" horiz-adv-x="1179" 
d="M193 291q0 45 10 110l100 572h252l-88 -504q-12 -61 -12 -122q0 -132 172 -132q121 0 174 60t76 194l88 504h252l-101 -572q-39 -221 -178 -324t-354 -104q-391 0 -391 318z" />
    <glyph glyph-name="v" unicode="v" horiz-adv-x="1087" 
d="M412 0l-222 973h267l131 -660l366 660h283l-561 -973h-264z" />
    <glyph glyph-name="w" unicode="w" horiz-adv-x="1679" 
d="M1059 0l-111 621l-319 -621h-262l-177 973h273l84 -639l342 639h241l113 -639l311 639h275l-520 -973h-250z" />
    <glyph glyph-name="x" unicode="x" horiz-adv-x="987" 
d="M719 0l-166 322l-260 -322h-283l428 520l-225 453h260l139 -273l217 273h285l-391 -473l254 -500h-258z" />
    <glyph glyph-name="y" unicode="y" horiz-adv-x="1052" 
d="M156 -518l262 491l-228 1000h267l125 -672l360 672h260l-801 -1491h-245z" />
    <glyph glyph-name="z" unicode="z" horiz-adv-x="985" 
d="M102 0l41 238l537 493h-451l43 242h781l-39 -230l-539 -501h449l-41 -242h-781z" />
    <glyph glyph-name="braceleft" unicode="{" horiz-adv-x="786" 
d="M428 -418q-88 0 -132 56t-44 145q0 33 6 67l59 345q6 35 7 67q0 168 -207 176l39 217q246 8 286 246l62 344q18 111 88 190t176 78h264l-33 -182h-114q-102 0 -129 -176l-58 -330q-18 -96 -89 -174t-199 -102q100 -12 145 -80t45 -160q0 -35 -6 -67l-53 -301
q-6 -31 -6 -72q0 -104 73 -105h115l-31 -182h-264z" />
    <glyph glyph-name="bar" unicode="|" horiz-adv-x="544" 
d="M92 -287l318 1803h258l-318 -1803h-258z" />
    <glyph glyph-name="braceright" unicode="}" horiz-adv-x="786" 
d="M92 -236q96 0 129 177l53 301q18 110 94 200t201 107q-102 23 -149 82t-47 139q0 29 6 55l57 330q8 41 8 72q0 104 -75 104h-115l33 182h264q88 0 132 -57t44 -145q0 -33 -6 -66l-62 -344q-6 -31 -6 -61q0 -180 207 -185l-39 -217q-246 -8 -286 -243l-60 -345
q-18 -108 -89 -188t-175 -80h-262l31 182h112z" />
    <glyph glyph-name="asciitilde" unicode="~" horiz-adv-x="1298" 
d="M1331 795q0 -147 -106 -245t-252 -99q-88 0 -162 41q-73 42 -141 82t-145 40t-109 -39t-45 -122h-174q-2 16 -2 47q0 150 106 246t270 96q80 0 145 -26q66 -26 100 -56q94 -83 177 -83q83 1 121 46t39 117h174q4 -33 4 -45z" />
    <glyph glyph-name="uni00A0" unicode="&#xa0;" horiz-adv-x="552" 
 />
    <glyph glyph-name="exclamdown" unicode="&#xa1;" horiz-adv-x="632" 
d="M117 -393l86 495l147 543h158l-45 -543l-86 -495h-260zM649 996q0 -62 -56 -119q-57 -57 -125 -57t-106 35q-36 37 -36 103t56 122t124 56t106 -38q37 -40 37 -102z" />
    <glyph glyph-name="cent" unicode="&#xa2;" horiz-adv-x="1243" 
d="M258 684q0 213 144 374t343 199l46 259h217l-45 -252q102 -18 182 -76t123 -148l-238 -125q-62 115 -192 115t-229 -95t-99 -203t64 -172q64 -65 163 -64q147 0 248 125l191 -127q-154 -190 -388 -232l-45 -262h-217l47 268q-147 39 -231 149t-84 267z" />
    <glyph glyph-name="sterling" unicode="&#xa3;" horiz-adv-x="1163" 
d="M864 1296q-121 0 -183 -70t-63 -194q0 -68 27 -182h488l-46 -254h-421q0 -100 -64 -192t-186 -150h743l-43 -254h-1065l41 233q220 74 277 216q25 64 32 147h-241l45 254h162q-23 86 -23 160q0 225 151 379t420 153q215 0 319 -100t105 -275l-2 -55h-270
q-16 184 -203 184z" />
    <glyph glyph-name="currency" unicode="&#xa4;" horiz-adv-x="1253" 
d="M469 680q-1 -110 63 -174t174 -64t210 94q99 94 100 222q0 90 -65 154t-175 65q-110 0 -208 -94q-99 -93 -99 -203zM653 201q-160 0 -280 88l-197 -168l-113 133l199 170q-45 90 -45 199q0 207 148 374l-140 168l160 138l141 -170q150 86 306 86t270 -84l198 165
l111 -135l-192 -164q49 -94 49 -204q0 -197 -150 -375l139 -166l-159 -137l-142 168q-143 -86 -303 -86z" />
    <glyph glyph-name="yen" unicode="&#xa5;" horiz-adv-x="1406" 
d="M887 285l-49 -285h-269l49 285h-489l37 211h489l29 166h-489l38 210h359l-305 644h311l266 -592l477 592h312l-533 -644h338l-39 -210h-467l-28 -166h467l-37 -211h-467z" />
    <glyph glyph-name="brokenbar" unicode="&#xa6;" horiz-adv-x="546" 
d="M92 -287l127 717h260l-127 -717h-260zM283 799l127 717h260l-127 -717h-260z" />
    <glyph glyph-name="section" unicode="&#xa7;" horiz-adv-x="1212" 
d="M465 665q0 -41 76 -95t309 -177q109 74 108 156q0 37 -68 84q-69 47 -317 182q-43 -25 -75 -67t-33 -83zM416 25q0 -70 48 -107t127 -37t145 40q66 41 67 103t-61 111t-151 90t-177 89t-150 125q-61 77 -61 173q0 213 241 355q-33 72 -32 133q0 190 146 296t326 105
q180 0 272 -89q91 -89 91 -259v-37h-256q-4 135 -143 135q-72 1 -125 -33t-53 -90t56 -98q56 -43 138 -80t163 -80q81 -44 137 -110t56 -162t-64 -186q-65 -90 -159 -150q66 -82 66 -178q0 -205 -158 -329t-346 -124q-189 -1 -295 97t-106 264q0 37 6 74h256q-4 -29 -4 -41z
" />
    <glyph glyph-name="dieresis" unicode="&#xa8;" horiz-adv-x="952" 
d="M894 1108q-66 0 -103 36t-37 104t56 122q56 55 124 55q68 -1 104 -37q37 -36 37 -103t-57 -122q-58 -55 -124 -55zM464 1108q-66 0 -104 36q-36 36 -36 104t56 122q56 55 124 55q68 -1 104 -37q37 -36 37 -103t-57 -122q-58 -55 -124 -55z" />
    <glyph glyph-name="copyright" unicode="&#xa9;" horiz-adv-x="1769" 
d="M963 295q-166 -1 -277 109t-111 274q0 211 169 379t382 168q121 -1 215 -61t140 -163l-211 -110q-48 115 -172 115t-208 -90t-85 -189q0 -101 55 -157t141 -56q129 0 226 119l172 -113q-80 -102 -196 -164t-240 -61zM909 150q279 0 498 217t219 497q0 214 -140 358
t-362 144q-280 0 -498 -217t-218 -500q0 -215 140 -357t361 -142zM1157 1540q287 0 471 -185t184 -462q0 -65 -12 -135q-57 -324 -327 -553t-594 -230q-285 -1 -470 183t-185 443t133 473t349 340t451 126z" />
    <glyph glyph-name="ordfeminine" unicode="&#xaa;" horiz-adv-x="927" 
d="M629 975q102 0 162 69q59 70 59 148q0 158 -152 158q-98 0 -155 -69t-58 -163q1 -143 144 -143zM585 815q-132 0 -208 78t-76 209q0 172 120 291t292 118q127 0 178 -79l12 67h187l-119 -665h-187l11 59q-78 -78 -210 -78z" />
    <glyph glyph-name="guillemotleft" unicode="&#xab;" horiz-adv-x="1185" 
d="M838 106l-189 412l332 408h281l-326 -408l186 -412h-284zM360 106l-188 412l332 408h280l-325 -408l186 -412h-285z" />
    <glyph glyph-name="logicalnot" unicode="&#xac;" horiz-adv-x="1376" 
d="M1034 139l80 451h-909l43 241h1151l-123 -692h-242z" />
    <glyph glyph-name="uni00AD" unicode="&#xad;" horiz-adv-x="1228" 
d="M223 461l43 237h619l-43 -237h-619z" />
    <glyph glyph-name="registered" unicode="&#xae;" horiz-adv-x="1769" 
d="M1057 827q174 1 174 121q0 60 -33 77t-104 17h-160l-37 -215h160zM1169 1208q260 0 261 -196q0 -131 -69 -216t-183 -116l147 -356h-215l-139 340h-103l-61 -340h-186l157 884h391zM909 150q279 0 498 217t219 497q0 214 -140 358t-362 144q-280 0 -498 -217t-218 -500
q0 -215 140 -357t361 -142zM1157 1540q287 0 471 -185t184 -462q0 -65 -12 -135q-57 -324 -327 -553t-594 -230q-285 -1 -470 183t-185 443t133 473t349 340t451 126z" />
    <glyph glyph-name="macron" unicode="&#xaf;" horiz-adv-x="937" 
d="M303 1143l37 215h733l-37 -215h-733z" />
    <glyph glyph-name="degree" unicode="&#xb0;" horiz-adv-x="778" 
d="M614 1325q-66 0 -122 -56q-58 -55 -58 -121t37 -102t99 -36t122 51q62 51 62 121q0 69 -37 106t-103 37zM548 860q-120 0 -194 72t-73 180q0 143 112 253q113 110 240 110t200 -72t72 -182q0 -158 -132 -271q-105 -90 -225 -90z" />
    <glyph glyph-name="plusminus" unicode="&#xb1;" horiz-adv-x="1363" 
d="M113 0l41 242h1138l-41 -242h-1138zM934 750l-68 -388h-241l67 388h-448l43 241h448l68 387h241l-67 -387h448l-43 -241h-448z" />
    <glyph glyph-name="uni00B2" unicode="&#xb2;" horiz-adv-x="798" 
d="M725 1268q0 42 -24 66t-68 24q-113 0 -144 -146h-194q27 152 129 235t236 83t202 -65t68 -155t-50 -184t-147 -168l-233 -176h338l-31 -176h-610l28 164l379 303q53 43 87 98t34 97z" />
    <glyph glyph-name="uni00B3" unicode="&#xb3;" horiz-adv-x="876" 
d="M618 1206q172 0 173 113q1 84 -97 84t-121 -115h-184q26 110 87 170q106 105 261 105q104 -1 177 -53t73 -138t-42 -154t-124 -102q115 -49 115 -184q0 -134 -114 -236t-248 -102t-224 71t-90 199q0 16 4 58h180q-2 -6 -2 -19q0 -59 46 -96t106 -37t103 45q42 45 42 111
t-40 88q-40 20 -140 20l29 172h30z" />
    <glyph glyph-name="acute" unicode="&#xb4;" horiz-adv-x="788" 
d="M412 1114l-78 201l508 262l84 -217z" />
    <glyph glyph-name="uni00B5" unicode="&#xb5;" horiz-adv-x="1200" 
d="M475 347q0 -132 172 -132q121 0 174 60t76 194l88 504h252l-100 -572q-37 -217 -176 -322t-332 -106q-82 1 -126 21t-87 69l-103 -581h-252l263 1491h251l-88 -504q-12 -61 -12 -122z" />
    <glyph glyph-name="paragraph" unicode="&#xb6;" horiz-adv-x="1554" 
d="M829 1315q-190 1 -292 -99t-103 -255q0 -107 73 -175t216 -77zM219 918q0 231 177 414t481 184h852l-37 -205h-215l-301 -1706h-220l301 1706h-210l-302 -1706h-219l160 905q-211 20 -339 124t-128 284z" />
    <glyph glyph-name="periodcentered" unicode="&#xb7;" horiz-adv-x="727" 
d="M474 680q68 0 104 -36t36 -102t-55 -124q-55 -56 -123 -56t-106 37q-37 37 -37 105t57 122q56 54 124 54z" />
    <glyph glyph-name="cedilla" unicode="&#xb8;" horiz-adv-x="628" 
d="M311 -82q82 0 125 -45t43 -126q1 -81 -67 -157t-176 -75q-78 0 -133 42q-54 42 -54 134q0 18 2 28h107q0 -49 26 -75t69 -27q44 0 79 38t35 81q0 78 -103 78h-139l100 186h117l-51 -82h20z" />
    <glyph glyph-name="uni00B9" unicode="&#xb9;" horiz-adv-x="555" 
d="M362 606l130 733h-175l31 177h371l-160 -910h-197z" />
    <glyph glyph-name="ordmasculine" unicode="&#xba;" horiz-adv-x="917" 
d="M640 997q72 1 132 59q62 58 62 132t-37 111q-37 38 -111 38t-134 -61q-60 -62 -60 -132t37 -109q39 -38 111 -38zM301 1110q0 166 127 287t295 121q133 0 218 -82t85 -207q0 -31 -6 -62q-29 -149 -149 -249t-261 -100t-225 80q-84 81 -84 212z" />
    <glyph glyph-name="guillemotright" unicode="&#xbb;" horiz-adv-x="1185" 
d="M578 106l329 412l-182 408h281l188 -408l-332 -412h-284zM100 106l330 412l-182 408h280l189 -408l-332 -412h-285z" />
    <glyph glyph-name="onequarter" unicode="&#xbc;" horiz-adv-x="1667" 
d="M1354 643l-271 -342h209zM1241 0l23 133h-416l29 158l497 598h207l-104 -588h118l-28 -168h-119l-23 -133h-184zM362 606l130 733h-175l31 177h371l-160 -910h-197zM279 0l1097 1516h199l-1098 -1516h-198z" />
    <glyph glyph-name="onehalf" unicode="&#xbd;" horiz-adv-x="1767" 
d="M1490 924q134 0 203 -65t69 -156t-51 -184q-50 -93 -146 -167l-234 -176h338l-31 -176h-610l29 164l379 303q53 43 87 98q33 55 33 97q-1 89 -92 90q-113 0 -143 -146h-195q27 152 129 235q101 83 235 83zM362 606l130 733h-175l31 177h371l-160 -910h-197zM279 0
l1097 1516h199l-1098 -1516h-198z" />
    <glyph glyph-name="threequarters" unicode="&#xbe;" horiz-adv-x="1873" 
d="M1561 643l-271 -342h209zM1448 0l22 133h-415l28 158l498 598h207l-105 -588h119l-28 -168h-119l-23 -133h-184zM485 0l1098 1516h199l-1098 -1516h-199zM598 1206q172 0 172 113q0 84 -88 84q-106 0 -129 -115h-184q26 110 87 170q106 105 261 105q104 -1 177 -53
t73 -138t-42 -154t-124 -102q115 -49 115 -184t-114 -237q-114 -101 -248 -101t-224 71t-90 199q0 16 4 58h180q-2 -6 -2 -19q0 -59 46 -96t106 -37t103 45q42 45 42 111t-40 88q-40 20 -140 20l28 172h31z" />
    <glyph glyph-name="questiondown" unicode="&#xbf;" horiz-adv-x="1052" 
d="M465 -426q-178 0 -275 91q-96 91 -96 273t104 283q104 102 218 163q114 60 150 94t48 100l21 108h260l-21 -108q-22 -115 -64 -182q-42 -68 -84 -90t-118 -56t-127 -72q-117 -82 -116 -205q0 -152 163 -151q96 0 163 56t85 167h242q-37 -209 -185 -340t-368 -131z
M979 990q-1 -73 -61 -124t-123 -51t-101 36q-37 37 -37 103q-1 66 57 122t124 56t103 -34q38 -35 38 -108z" />
    <glyph glyph-name="Agrave" unicode="&#xc0;" horiz-adv-x="1482" 
d="M956 1182l-338 -602h461zM1200 0l-70 324h-653l-178 -324h-299l872 1516h273l338 -1516h-283zM1208 1651l-467 200l115 217l461 -217z" />
    <glyph glyph-name="Aacute" unicode="&#xc1;" horiz-adv-x="1482" 
d="M956 1182l-338 -602h461zM1200 0l-70 324h-653l-178 -324h-299l872 1516h273l338 -1516h-283zM872 1651l-77 200l528 217l84 -217z" />
    <glyph glyph-name="Acircumflex" unicode="&#xc2;" horiz-adv-x="1482" 
d="M956 1182l-338 -602h461zM1200 0l-70 324h-653l-178 -324h-299l872 1516h273l338 -1516h-283zM1272 1651l-191 198l-270 -198l-131 143l358 274h136l249 -274z" />
    <glyph glyph-name="Atilde" unicode="&#xc3;" horiz-adv-x="1482" 
d="M956 1182l-338 -602h461zM1200 0l-70 324h-653l-178 -324h-299l872 1516h273l338 -1516h-283zM1188 1675q-60 0 -148 42t-142 42t-130 -61l-72 184q121 98 236 98q61 0 147 -42t127 -42q72 0 152 68l61 -180q-119 -109 -231 -109z" />
    <glyph glyph-name="Adieresis" unicode="&#xc4;" horiz-adv-x="1482" 
d="M956 1182l-338 -602h461zM1200 0l-70 324h-653l-178 -324h-299l872 1516h273l338 -1516h-283zM1452 1848q0 -68 -58 -124t-126 -57q-68 0 -107 37q-37 36 -37 106t56 126t126 56t108 -37q38 -39 38 -107zM991 1848q0 -68 -57 -124q-58 -56 -126 -57q-68 0 -107 37
q-37 36 -37 106t57 126t127 56t106 -37q37 -39 37 -107z" />
    <glyph glyph-name="Aring" unicode="&#xc5;" horiz-adv-x="1482" 
d="M956 1182l-338 -602h461zM1200 0l-70 324h-653l-178 -324h-299l872 1516h273l338 -1516h-283zM1133 1830q-1 32 -19 52t-55 20t-63 -26q-26 -27 -25 -66q0 -66 69 -65q43 1 68 27t25 58zM1031 1599q-97 1 -152 55t-55 151t74 170q75 73 173 73q97 0 153 -54t56 -152
t-76 -170q-76 -73 -173 -73z" />
    <glyph glyph-name="AE" unicode="&#xc6;" horiz-adv-x="2154" 
d="M1319 1294l-563 -702h438zM1092 0l57 336h-598l-266 -336h-305l1222 1516h1116l-45 -259h-692l-59 -337h544l-47 -258h-544l-70 -404h692l-45 -258h-960z" />
    <glyph glyph-name="Ccedilla" unicode="&#xc7;" horiz-adv-x="1460" 
d="M182 620q0 254 131 470t347 334t462 118q334 0 527 -239l-203 -189q-125 182 -368 182q-244 0 -436 -194t-191 -443q1 -190 123 -315t317 -125q106 0 218 47t198 121l125 -188q-276 -225 -564 -226l-34 -59h20q74 0 121 -51t47 -132t-70 -161t-196 -80q-82 0 -144 46
q-61 46 -61 151q0 18 2 28h147v-12q0 -70 78 -70q33 0 62 25t28 63q0 68 -75 68h-179l103 193q-233 36 -384 210t-151 428z" />
    <glyph glyph-name="Egrave" unicode="&#xc8;" horiz-adv-x="1226" 
d="M164 0l266 1516h961l-45 -259h-693l-59 -337h545l-47 -258h-545l-70 -404h692l-45 -258h-960zM1102 1651l-467 200l115 217l460 -217z" />
    <glyph glyph-name="Eacute" unicode="&#xc9;" horiz-adv-x="1226" 
d="M164 0l266 1516h961l-45 -259h-693l-59 -337h545l-47 -258h-545l-70 -404h692l-45 -258h-960zM782 1651l-77 200l528 217l84 -217z" />
    <glyph glyph-name="Ecircumflex" unicode="&#xca;" horiz-adv-x="1226" 
d="M164 0l266 1516h961l-45 -259h-693l-59 -337h545l-47 -258h-545l-70 -404h692l-45 -258h-960zM1169 1651l-190 198l-270 -198l-131 143l358 274h135l250 -274z" />
    <glyph glyph-name="Edieresis" unicode="&#xcb;" horiz-adv-x="1226" 
d="M164 0l266 1516h961l-45 -259h-693l-59 -337h545l-47 -258h-545l-70 -404h692l-45 -258h-960zM1366 1848q0 -68 -58 -124t-126 -57q-68 0 -107 37q-37 36 -37 106t56 126t126 56t108 -37q38 -39 38 -107zM905 1848q0 -68 -57 -124q-58 -56 -126 -57q-68 0 -107 37
q-37 36 -37 106t57 126t127 56t106 -37q37 -39 37 -107z" />
    <glyph glyph-name="Igrave" unicode="&#xcc;" horiz-adv-x="595" 
d="M164 0l266 1516h268l-266 -1516h-268zM766 1651l-467 200l115 217l460 -217z" />
    <glyph glyph-name="Iacute" unicode="&#xcd;" horiz-adv-x="595" 
d="M164 0l266 1516h268l-266 -1516h-268zM430 1651l-78 200l529 217l84 -217z" />
    <glyph glyph-name="Icircumflex" unicode="&#xce;" horiz-adv-x="595" 
d="M164 0l266 1516h268l-266 -1516h-268zM817 1651l-190 198l-271 -198l-131 143l359 274h135l250 -274z" />
    <glyph glyph-name="Idieresis" unicode="&#xcf;" horiz-adv-x="595" 
d="M164 0l266 1516h268l-266 -1516h-268zM1012 1848q0 -68 -58 -124t-128 -57q-68 0 -105 37q-37 36 -37 106t56 126t126 56t108 -37q38 -39 38 -107zM368 1667q-68 0 -107 37q-38 36 -38 106q-1 70 57 126t128 56t106 -37q37 -39 37 -107t-57 -125q-58 -56 -126 -56z" />
    <glyph glyph-name="Eth" unicode="&#xd0;" horiz-adv-x="1470" 
d="M633 258q255 0 446 142q94 71 150 186q55 115 55 260q0 412 -475 411h-156l-63 -360h328l-46 -258h-327l-68 -381h156zM860 1516q332 0 514 -162t182 -475q0 -266 -133 -470q-133 -205 -350 -307t-479 -102h-430l112 639h-163l45 258h164l108 619h430z" />
    <glyph glyph-name="Ntilde" unicode="&#xd1;" horiz-adv-x="1712" 
d="M1266 0l-631 1153l-203 -1153h-268l266 1516h338l590 -1078l190 1078h267l-267 -1516h-282zM1307 1675q-59 0 -147 42t-144 42q-54 0 -129 -61l-72 184q121 98 236 98q61 0 147 -42t127 -42q72 0 152 68l61 -180q-119 -109 -231 -109z" />
    <glyph glyph-name="Ograve" unicode="&#xd2;" horiz-adv-x="1705" 
d="M889 219q245 1 437 191t192 438q0 192 -120 320t-317 128q-247 0 -439 -196t-191 -441q1 -190 123 -315t315 -125zM846 -27q-295 -1 -479 181t-185 477q0 247 130 457t345 332t459 122q298 0 486 -181t188 -464q0 -242 -132 -456t-350 -341t-462 -127zM1262 1651
l-467 200l114 217l461 -217z" />
    <glyph glyph-name="Oacute" unicode="&#xd3;" horiz-adv-x="1705" 
d="M889 219q245 1 437 191t192 438q0 192 -120 320t-317 128q-247 0 -439 -196t-191 -441q1 -190 123 -315t315 -125zM846 -27q-295 -1 -479 181t-185 477q0 247 130 457t345 332t459 122q298 0 486 -181t188 -464q0 -242 -132 -456t-350 -341t-462 -127zM981 1651l-78 200
l529 217l84 -217z" />
    <glyph glyph-name="Ocircumflex" unicode="&#xd4;" horiz-adv-x="1705" 
d="M889 219q245 1 437 191t192 438q0 192 -120 320t-317 128q-247 0 -439 -196t-191 -441q1 -190 123 -315t315 -125zM846 -27q-295 -1 -479 181t-185 477q0 247 130 457t345 332t459 122q298 0 486 -181t188 -464q0 -242 -132 -456t-350 -341t-462 -127zM1368 1651
l-190 198l-271 -198l-131 143l359 274h135l250 -274z" />
    <glyph glyph-name="Otilde" unicode="&#xd5;" horiz-adv-x="1705" 
d="M889 219q245 1 437 191t192 438q0 192 -120 320t-317 128q-247 0 -439 -196t-191 -441q1 -190 123 -315t315 -125zM846 -27q-295 -1 -479 181t-185 477q0 247 130 457t345 332t459 122q298 0 486 -181t188 -464q0 -242 -132 -456t-350 -341t-462 -127zM1307 1675
q-59 0 -147 42t-144 42q-54 0 -129 -61l-72 184q121 98 236 98q61 0 147 -42t127 -42q72 0 152 68l61 -180q-119 -109 -231 -109z" />
    <glyph glyph-name="Odieresis" unicode="&#xd6;" horiz-adv-x="1705" 
d="M889 219q245 1 437 191t192 438q0 192 -120 320t-317 128q-247 0 -439 -196t-191 -441q1 -190 123 -315t315 -125zM846 -27q-295 -1 -479 181t-185 477q0 247 130 457t345 332t459 122q298 0 486 -181t188 -464q0 -242 -132 -456t-350 -341t-462 -127zM1565 1848
q-1 -68 -59 -124t-126 -57q-68 0 -106 37q-37 36 -37 106t56 126q55 56 125 56t108 -37q38 -39 39 -107zM920 1667q-68 0 -106 37q-38 36 -38 106t58 126t126 56q70 0 107 -37q37 -39 37 -107t-57 -125q-59 -56 -127 -56z" />
    <glyph glyph-name="multiply" unicode="&#xd7;" horiz-adv-x="1204" 
d="M696 539l-372 -318l-142 170l375 318l-262 317l199 170l262 -317l372 317l142 -170l-373 -317l260 -318l-199 -170z" />
    <glyph glyph-name="Oslash" unicode="&#xd8;" horiz-adv-x="1705" 
d="M887 219q243 -1 437 189t194 440q0 186 -117 313l-668 -917q74 -25 154 -25zM451 659q0 -186 114 -307l664 920q-72 25 -150 24q-246 0 -437 -196t-191 -441zM182 612q0 262 132 478t346 334t458 118q145 0 271 -49l94 131l186 -94l-102 -139q223 -184 223 -496
q0 -242 -133 -456t-351 -340t-458 -126q-139 0 -275 50l-90 -127l-184 92l100 139q-217 178 -217 485z" />
    <glyph glyph-name="Ugrave" unicode="&#xd9;" horiz-adv-x="1601" 
d="M264 483q0 86 19 187l149 846h268l-127 -717q-29 -156 -28 -267q-1 -158 67 -236t226 -77q211 0 313 140t156 440l127 717h268l-150 -846q-59 -340 -262 -518t-495 -179q-250 0 -391 130q-140 130 -140 380zM1247 1651l-467 200l115 217l461 -217z" />
    <glyph glyph-name="Uacute" unicode="&#xda;" horiz-adv-x="1601" 
d="M264 483q0 86 19 187l149 846h268l-127 -717q-29 -156 -28 -267q-1 -158 67 -236t226 -77q211 0 313 140t156 440l127 717h268l-150 -846q-59 -340 -262 -518t-495 -179q-250 0 -391 130q-140 130 -140 380zM973 1651l-78 200l528 217l84 -217z" />
    <glyph glyph-name="Ucircumflex" unicode="&#xdb;" horiz-adv-x="1601" 
d="M264 483q0 86 19 187l149 846h268l-127 -717q-29 -156 -28 -267q-1 -158 67 -236t226 -77q211 0 313 140t156 440l127 717h268l-150 -846q-59 -340 -262 -518t-495 -179q-250 0 -391 130q-140 130 -140 380zM1317 1651l-191 198l-270 -198l-131 143l358 274h136l249 -274
z" />
    <glyph glyph-name="Udieresis" unicode="&#xdc;" horiz-adv-x="1601" 
d="M264 483q0 86 19 187l149 846h268l-127 -717q-29 -156 -28 -267q-1 -158 67 -236t226 -77q211 0 313 140t156 440l127 717h268l-150 -846q-59 -340 -262 -518t-495 -179q-250 0 -391 130q-140 130 -140 380zM1326 1667q-68 0 -105 37q-37 36 -37 106t56 126t126 56
t108 -37q38 -39 38 -107t-59 -124t-127 -57zM1051 1848q1 -68 -57 -124t-126 -57q-68 0 -107 37q-38 36 -38 106t57 126q56 56 126 56t108 -37q38 -39 37 -107z" />
    <glyph glyph-name="Yacute" unicode="&#xdd;" horiz-adv-x="1386" 
d="M559 0l117 672l-400 844h295l267 -592l477 592h327l-696 -842l-119 -674h-268zM864 1651l-78 200l529 217l84 -217z" />
    <glyph glyph-name="Thorn" unicode="&#xde;" horiz-adv-x="1261" 
d="M788 508q141 0 222 87q80 87 80 210q0 197 -213 196h-269l-88 -493h268zM922 1260q226 0 334 -110t108 -280t-70 -306t-214 -225t-337 -89h-268l-43 -250h-268l266 1516h268l-45 -256h269z" />
    <glyph glyph-name="germandbls" unicode="&#xdf;" horiz-adv-x="1224" 
d="M666 240q154 0 226 74t71 180q0 178 -226 178h-94l41 229h76q92 -1 154 59t63 162q0 156 -160 156q-107 0 -159 -69t-78 -216l-174 -993h-252l174 989q45 254 168 390t364 137q188 0 282 -83t95 -233q0 -150 -74 -254t-168 -147q219 -59 219 -305q0 -160 -91 -275
q-173 -219 -535 -219h-62l41 240h99z" />
    <glyph glyph-name="agrave" unicode="&#xe0;" 
d="M946 530q0 90 -64 155q-66 65 -176 65t-208 -96t-98 -202q0 -108 62 -172q64 -64 169 -65t198 77q117 98 117 238zM566 -27q-177 0 -298 120t-121 317q1 248 185 414t426 167q162 0 258 -90l12 72h252l-170 -973h-252l10 63q-125 -90 -302 -90zM1008 1108l-467 201
l114 217l461 -217z" />
    <glyph glyph-name="aacute" unicode="&#xe1;" 
d="M946 530q0 90 -64 155q-66 65 -176 65t-208 -96t-98 -202q0 -108 62 -172q64 -64 169 -65t198 77q117 98 117 238zM566 -27q-177 0 -298 120t-121 317q1 248 185 414t426 167q162 0 258 -90l12 72h252l-170 -973h-252l10 63q-125 -90 -302 -90zM670 1108l-78 201l528 217
l84 -217z" />
    <glyph glyph-name="acircumflex" unicode="&#xe2;" 
d="M946 530q0 90 -64 155q-66 65 -176 65t-208 -96t-98 -202q0 -108 62 -172q64 -64 169 -65t198 77q117 98 117 238zM566 -27q-177 0 -298 120t-121 317q1 248 185 414t426 167q162 0 258 -90l12 72h252l-170 -973h-252l10 63q-125 -90 -302 -90zM1032 1108l-190 199
l-271 -199l-131 143l359 275h135l250 -275z" />
    <glyph glyph-name="atilde" unicode="&#xe3;" 
d="M946 530q0 90 -64 155q-66 65 -176 65t-208 -96t-98 -202q0 -108 62 -172q64 -64 169 -65t198 77q117 98 117 238zM566 -27q-177 0 -298 120t-121 317q1 248 185 414t426 167q162 0 258 -90l12 72h252l-170 -973h-252l10 63q-125 -90 -302 -90zM977 1126q-59 0 -147 42
t-144 42q-54 0 -129 -61l-72 184q121 98 236 99q61 0 147 -42t127 -42q72 0 152 67l61 -180q-119 -109 -231 -109z" />
    <glyph glyph-name="adieresis" unicode="&#xe4;" 
d="M946 530q0 90 -64 155q-66 65 -176 65t-208 -96t-98 -202q0 -108 62 -172q64 -64 169 -65t198 77q117 98 117 238zM566 -27q-177 0 -298 120t-121 317q1 248 185 414t426 167q162 0 258 -90l12 72h252l-170 -973h-252l10 63q-125 -90 -302 -90zM1247 1310q0 -68 -58 -126
q-59 -56 -127 -56t-106 37q-36 37 -36 107t56 126t126 56t107 -38q38 -38 38 -106zM642 1454q70 0 108 -38t36 -106q0 -68 -57 -126q-57 -56 -125 -56t-107 37q-38 37 -38 107t57 126q56 56 126 56z" />
    <glyph glyph-name="aring" unicode="&#xe5;" 
d="M946 530q0 90 -64 155q-66 65 -176 65t-208 -96t-98 -202q0 -108 62 -172q64 -64 169 -65t198 77q117 98 117 238zM566 -27q-177 0 -298 120t-121 317q1 248 185 414t426 167q162 0 258 -90l12 72h252l-170 -973h-252l10 63q-125 -90 -302 -90zM911 1308q0 32 -18 52
t-55 20t-63 -26t-25 -66q0 -66 69 -65q43 0 68 26q24 27 24 59zM810 1077q-96 1 -152 55t-56 151t75 170t173 73t154 -54t55 -152q0 -97 -76 -170t-173 -73z" />
    <glyph glyph-name="ae" unicode="&#xe6;" horiz-adv-x="1953" 
d="M706 750q-110 0 -208 -96t-98 -202q0 -108 63 -172q65 -64 175 -65q110 0 209 93q99 92 99 202t-64 175q-66 65 -176 65zM1731 588q1 76 -57 125t-147 49t-165 -47t-117 -127h486zM1438 201q160 0 260 108l147 -137q-79 -92 -199 -145t-245 -54q-176 0 -293 95l-10 -68
h-240l10 63q-125 -90 -302 -90t-298 120t-121 317q1 248 185 414t426 167q162 0 258 -90l12 72h240l-13 -72q147 90 321 90t287 -117q112 -117 111 -294q0 -86 -28 -177h-742q6 -92 68 -147t166 -55z" />
    <glyph glyph-name="ccedilla" unicode="&#xe7;" horiz-adv-x="1079" 
d="M629 -82q74 0 121 -51t47 -132t-70 -161t-197 -80q-82 0 -143 46t-61 151q0 18 2 28h147v-12q0 -70 78 -69q33 0 61 24t29 64q0 68 -76 67h-178l103 193q-156 24 -250 136t-95 271q-1 264 183 431t432 167q135 0 239 -62t156 -169l-237 -125q-60 115 -192 115t-230 -96
t-98 -202q0 -108 62 -172q64 -64 163 -65q150 0 249 125l191 -127q-81 -98 -197 -162t-225 -74l-35 -59h21z" />
    <glyph glyph-name="egrave" unicode="&#xe8;" horiz-adv-x="1136" 
d="M913 588q0 76 -57 125t-146 49t-165 -47t-117 -127h485zM621 201q160 0 260 108l147 -137q-82 -94 -201 -146t-247 -53q-193 0 -313 115t-120 315q1 250 177 419t415 169q195 -1 307 -115t111 -294q0 -92 -29 -179h-741q5 -92 67 -147t167 -55zM942 1108l-467 201
l115 217l461 -217z" />
    <glyph glyph-name="eacute" unicode="&#xe9;" horiz-adv-x="1136" 
d="M913 588q0 76 -57 125t-146 49t-165 -47t-117 -127h485zM621 201q160 0 260 108l147 -137q-82 -94 -201 -146t-247 -53q-193 0 -313 115t-120 315q1 250 177 419t415 169q195 -1 307 -115t111 -294q0 -92 -29 -179h-741q5 -92 67 -147t167 -55zM606 1108l-78 201l529 217
l84 -217z" />
    <glyph glyph-name="ecircumflex" unicode="&#xea;" horiz-adv-x="1136" 
d="M913 588q0 76 -57 125t-146 49t-165 -47t-117 -127h485zM621 201q160 0 260 108l147 -137q-82 -94 -201 -146t-247 -53q-193 0 -313 115t-120 315q1 250 177 419t415 169q195 -1 307 -115t111 -294q0 -92 -29 -179h-741q5 -92 67 -147t167 -55zM989 1108l-190 199
l-271 -199l-131 143l359 275h135l250 -275z" />
    <glyph glyph-name="edieresis" unicode="&#xeb;" horiz-adv-x="1136" 
d="M913 588q0 76 -57 125t-146 49t-165 -47t-117 -127h485zM621 201q160 0 260 108l147 -137q-82 -94 -201 -146t-247 -53q-193 0 -313 115t-120 315q1 250 177 419t415 169q195 -1 307 -115t111 -294q0 -92 -29 -179h-741q5 -92 67 -147t167 -55zM1184 1310q0 -68 -58 -126
q-58 -56 -128 -56q-68 0 -105 37t-37 107t56 126t126 56t108 -38t38 -106zM723 1310q1 -68 -57 -126q-58 -56 -126 -56t-107 37q-38 37 -38 107q-1 70 57 126t128 56t106 -38q37 -38 37 -106z" />
    <glyph glyph-name="igrave" unicode="&#xec;" horiz-adv-x="563" 
d="M156 0l170 973h252l-170 -973h-252zM676 1108l-467 201l115 217l460 -217z" />
    <glyph glyph-name="iacute" unicode="&#xed;" horiz-adv-x="563" 
d="M156 0l170 973h252l-170 -973h-252zM309 1108l-78 201l529 217l84 -217z" />
    <glyph glyph-name="icircumflex" unicode="&#xee;" horiz-adv-x="563" 
d="M156 0l170 973h252l-170 -973h-252zM705 1108l-191 199l-270 -199l-131 143l358 275h135l250 -275z" />
    <glyph glyph-name="idieresis" unicode="&#xef;" horiz-adv-x="563" 
d="M156 0l170 973h252l-170 -973h-252zM897 1310q0 -68 -58 -126q-59 -56 -127 -56t-106 37q-37 37 -37 107q1 70 57 126t126 56t107 -38q38 -38 38 -106zM436 1310q0 -68 -57 -126q-57 -56 -125 -56t-108 37q-38 37 -38 107t58 126q56 56 126 56t107 -38t37 -106z" />
    <glyph glyph-name="eth" unicode="&#xf0;" horiz-adv-x="1177" 
d="M946 532q0 92 -65 155q-67 63 -177 63t-207 -96t-97 -202q0 -108 62 -172q64 -64 171 -65q107 0 210 91t103 226zM1214 707q0 -162 -43 -292t-111 -210t-155 -134q-160 -98 -339 -98t-299 121t-120 314q-1 242 183 412t422 171q100 0 188 -59q-47 158 -170 272l-152 -139
l-102 104l131 121q-135 74 -280 88l163 140q152 -12 283 -74l143 131l101 -107l-117 -108q274 -227 274 -653z" />
    <glyph glyph-name="ntilde" unicode="&#xf1;" horiz-adv-x="1191" 
d="M903 592q0 158 -168 158q-199 0 -237 -226l-92 -524h-252l170 973h251l-12 -72q139 90 279 90t233 -80q92 -80 92 -239q0 -45 -10 -111l-98 -561h-252l90 520q6 41 6 72zM956 1126q-59 0 -147 42q-89 42 -143 42t-129 -61l-72 184q121 98 235 99q62 0 148 -42t127 -42
q72 0 151 67l62 -180q-119 -109 -232 -109z" />
    <glyph glyph-name="ograve" unicode="&#xf2;" horiz-adv-x="1177" 
d="M946 530q0 90 -64 155q-66 65 -176 65t-208 -96t-98 -202q0 -108 62 -172q64 -64 169 -65t198 77q117 98 117 238zM1198 582q0 -276 -222 -460q-180 -150 -384 -149q-204 0 -325 121q-120 121 -120 316q-1 246 183 414t424 167q196 0 320 -118t124 -291zM940 1108
l-467 201l115 217l461 -217z" />
    <glyph glyph-name="oacute" unicode="&#xf3;" horiz-adv-x="1177" 
d="M946 530q0 90 -64 155q-66 65 -176 65t-208 -96t-98 -202q0 -108 62 -172q64 -64 169 -65t198 77q117 98 117 238zM1198 582q0 -276 -222 -460q-180 -150 -384 -149q-204 0 -325 121q-120 121 -120 316q-1 246 183 414t424 167q196 0 320 -118t124 -291zM647 1108
l-78 201l529 217l84 -217z" />
    <glyph glyph-name="ocircumflex" unicode="&#xf4;" horiz-adv-x="1177" 
d="M946 530q0 90 -64 155q-66 65 -176 65t-208 -96t-98 -202q0 -108 62 -172q64 -64 169 -65t198 77q117 98 117 238zM1198 582q0 -276 -222 -460q-180 -150 -384 -149q-204 0 -325 121q-120 121 -120 316q-1 246 183 414t424 167q196 0 320 -118t124 -291zM1010 1108
l-191 199l-270 -199l-131 143l358 275h135l250 -275z" />
    <glyph glyph-name="otilde" unicode="&#xf5;" horiz-adv-x="1177" 
d="M946 530q0 90 -64 155q-66 65 -176 65t-208 -96t-98 -202q0 -108 62 -172q64 -64 169 -65t198 77q117 98 117 238zM1198 582q0 -276 -222 -460q-180 -150 -384 -149q-204 0 -325 121q-120 121 -120 316q-1 246 183 414t424 167q196 0 320 -118t124 -291zM956 1126
q-59 0 -147 42q-89 42 -143 42t-129 -61l-72 184q121 98 235 99q62 0 148 -42t127 -42q72 0 151 67l62 -180q-119 -109 -232 -109z" />
    <glyph glyph-name="odieresis" unicode="&#xf6;" horiz-adv-x="1177" 
d="M946 530q0 90 -64 155q-66 65 -176 65t-208 -96t-98 -202q0 -108 62 -172q64 -64 169 -65t198 77q117 98 117 238zM1198 582q0 -276 -222 -460q-180 -150 -384 -149q-204 0 -325 121q-120 121 -120 316q-1 246 183 414t424 167q196 0 320 -118t124 -291zM1200 1310
q0 -68 -58 -126q-58 -56 -126 -56t-107 37q-37 37 -37 107t56 126t126 56t108 -38t38 -106zM739 1310q0 -68 -57 -126q-58 -56 -126 -56t-106 37t-38 107t57 126t127 56t106 -38q37 -38 37 -106z" />
    <glyph glyph-name="divide" unicode="&#xf7;" horiz-adv-x="1343" 
d="M889 354q1 -66 -57 -124q-58 -56 -124 -56t-104 36q-37 36 -37 104q-1 68 57 122q58 56 126 56t103 -36q36 -36 36 -102zM205 588l43 241h1138l-43 -241h-1138zM842 926q-66 0 -105 36q-37 36 -37 104t58 122q58 55 124 55q68 0 104 -36q36 -37 36 -103t-57 -122
t-123 -56z" />
    <glyph glyph-name="oslash" unicode="&#xf8;" horiz-adv-x="1177" 
d="M946 528q0 86 -61 154l-285 -467h25q113 0 217 89t104 224zM399 436q0 -92 62 -153l280 465q-6 2 -22 2q-111 0 -203 -79q-116 -99 -117 -235zM147 395q1 262 185 429t432 167q61 0 117 -14l98 162l145 -62l-100 -164q174 -123 174 -351t-187 -408t-427 -181
q-55 0 -123 15l-94 -160l-146 59l98 164q-172 123 -172 344z" />
    <glyph glyph-name="ugrave" unicode="&#xf9;" horiz-adv-x="1179" 
d="M193 291q0 45 10 110l100 572h252l-88 -504q-12 -61 -12 -122q0 -132 172 -132q121 0 174 60t76 194l88 504h252l-101 -572q-39 -221 -178 -324t-354 -104q-391 0 -391 318zM940 1108l-467 201l115 217l461 -217z" />
    <glyph glyph-name="uacute" unicode="&#xfa;" horiz-adv-x="1179" 
d="M193 291q0 45 10 110l100 572h252l-88 -504q-12 -61 -12 -122q0 -132 172 -132q121 0 174 60t76 194l88 504h252l-101 -572q-39 -221 -178 -324t-354 -104q-391 0 -391 318zM678 1108l-78 201l528 217l84 -217z" />
    <glyph glyph-name="ucircumflex" unicode="&#xfb;" horiz-adv-x="1179" 
d="M193 291q0 45 10 110l100 572h252l-88 -504q-12 -61 -12 -122q0 -132 172 -132q121 0 174 60t76 194l88 504h252l-101 -572q-39 -221 -178 -324t-354 -104q-391 0 -391 318zM1012 1108l-191 199l-270 -199l-131 143l358 275h135l250 -275z" />
    <glyph glyph-name="udieresis" unicode="&#xfc;" horiz-adv-x="1179" 
d="M193 291q0 45 10 110l100 572h252l-88 -504q-12 -61 -12 -122q0 -132 172 -132q121 0 174 60t76 194l88 504h252l-101 -572q-39 -221 -178 -324t-354 -104q-391 0 -391 318zM1204 1310q0 -68 -58 -126q-58 -56 -126 -56t-107 37q-37 37 -37 107t57 126q55 56 125 56
t108 -38t38 -106zM600 1454q70 0 106 -38q38 -38 38 -106t-58 -126q-58 -56 -126 -56t-106 37t-38 107t57 126t127 56z" />
    <glyph glyph-name="yacute" unicode="&#xfd;" horiz-adv-x="1052" 
d="M156 -518l262 491l-228 1000h267l125 -672l360 672h260l-801 -1491h-245zM621 1108l-78 201l528 217l84 -217z" />
    <glyph glyph-name="thorn" unicode="&#xfe;" 
d="M796 750q-108 0 -210 -96t-102 -202q0 -108 65 -172q67 -64 177 -65q110 0 208 95q98 94 98 202t-63 173q-65 65 -173 65zM866 991q176 0 298 -120q120 -120 120 -314q0 -248 -185 -416t-427 -168q-160 0 -256 90l-103 -581h-252l359 2034h252l-109 -615q127 90 303 90z
" />
    <glyph glyph-name="ydieresis" unicode="&#xff;" horiz-adv-x="1052" 
d="M156 -518l262 491l-228 1000h267l125 -672l360 672h260l-801 -1491h-245zM1159 1310q0 -68 -58 -126q-59 -56 -127 -56t-106 37q-37 37 -37 107q1 70 57 126t126 56t107 -38q38 -38 38 -106zM554 1454q70 0 108 -38t36 -106q0 -68 -57 -126q-57 -56 -125 -56t-107 37
q-38 37 -38 107t57 126q56 56 126 56z" />
    <glyph glyph-name="dotlessi" unicode="&#x131;" horiz-adv-x="563" 
d="M156 0l170 973h252l-170 -973h-252z" />
    <glyph glyph-name="Ldot" unicode="&#x13f;" horiz-adv-x="1185" 
d="M1014 662q-68 0 -107 36q-37 37 -37 105t58 122t124 54q68 0 104 -36q36 -37 36 -103t-55 -122t-123 -56zM164 0l266 1516h268l-221 -1258h703l-45 -258h-971z" />
    <glyph glyph-name="ldot" unicode="&#x140;" horiz-adv-x="792" 
d="M780 537q-68 1 -106 37q-37 36 -37 104t57 122q56 54 124 54t104 -36t36 -102t-55 -123q-55 -56 -123 -56zM457 281q0 -70 92 -70q25 0 39 2l-39 -223q-61 -16 -119 -17q-115 -1 -177 55t-63 154q0 25 9 78l221 1256h252l-211 -1199q-4 -29 -4 -36z" />
    <glyph glyph-name="Lslash" unicode="&#x141;" horiz-adv-x="1185" 
d="M553 690l-76 -432h703l-45 -258h-971l86 498l-184 -119l43 248l186 118l135 771h268l-102 -578l379 244l-43 -248z" />
    <glyph glyph-name="lslash" unicode="&#x142;" horiz-adv-x="579" 
d="M457 281q0 -70 92 -70q25 0 39 2l-39 -223q-61 -16 -119 -17q-115 -1 -176 55t-61 158q0 37 6 74l43 240l-144 -90l43 247l144 91l135 768h252l-103 -586l164 104l-45 -248l-164 -104l-63 -365q-4 -29 -4 -36z" />
    <glyph glyph-name="OE" unicode="&#x152;" horiz-adv-x="2541" 
d="M989 219q245 -1 439 191t194 438q0 188 -122 318t-314 130q-242 0 -438 -194t-195 -438q1 -188 121 -316t315 -129zM950 -27q-299 -1 -482 183t-183 477q0 184 76 353q153 336 505 483q172 73 355 73q303 0 495 -192l29 166h960l-45 -259h-692l-59 -337h545l-48 -258
h-544l-70 -404h692l-45 -258h-960l28 166q-258 -193 -557 -193z" />
    <glyph glyph-name="oe" unicode="&#x153;" horiz-adv-x="1927" 
d="M1507 750q-152 0 -274 -158h469q-23 158 -195 158zM706 750q-110 0 -208 -96t-98 -202q0 -108 63 -172q65 -64 175 -65q110 0 209 93q99 92 99 202t-64 175q-66 65 -176 65zM1419 213q141 0 258 125l181 -125q-203 -240 -482 -240q-248 0 -370 177q-182 -176 -424 -177
q-193 0 -314 120t-121 317q1 246 185 414t426 167q242 0 364 -174q174 174 414 174q192 0 302 -120t110 -316q0 -57 -27 -154h-729q12 -88 70 -138t157 -50z" />
    <glyph glyph-name="Scaron" unicode="&#x160;" horiz-adv-x="1120" 
d="M578 219q130 0 204 73t74 151q0 79 -59 125t-143 78t-169 72q-84 40 -143 126t-59 213q0 225 166 355t393 130t397 -143l-176 -209q-104 106 -260 106q-109 0 -177 -52t-69 -124q0 -72 43 -118q42 -46 106 -70t139 -56q75 -34 138 -72t107 -115t43 -181q0 -219 -164 -377
t-439 -158q-317 0 -469 269l199 174q43 -58 77 -96q35 -38 99 -70t142 -31zM694 2068l191 -198l270 198l131 -143l-358 -274h-135l-250 274z" />
    <glyph glyph-name="scaron" unicode="&#x161;" horiz-adv-x="907" 
d="M492 203q68 1 100 25t31 59q0 35 -44 55q-45 20 -107 34t-126 39q-64 24 -107 83q-44 59 -44 151q0 154 113 248q114 94 290 94q223 0 334 -123l-164 -180q-94 74 -207 74q-63 0 -88 -24t-25 -52t44 -50q43 -22 105 -40q61 -18 123 -45t105 -83t43 -140q0 -147 -120 -251
q-121 -103 -321 -103t-353 137l168 192q98 -100 250 -100zM496 1526l190 -199l270 199l131 -144l-358 -274h-135l-250 274z" />
    <glyph glyph-name="Ydieresis" unicode="&#x178;" horiz-adv-x="1386" 
d="M559 0l117 672l-400 844h295l267 -592l477 592h327l-696 -842l-119 -674h-268zM1220 1667q-68 0 -106 37q-37 36 -37 106q1 70 57 126t126 56t107 -37q38 -39 38 -107t-58 -125q-59 -56 -127 -56zM944 1848q0 -68 -57 -124t-125 -57q-68 0 -108 37q-38 36 -38 106t58 126
t126 56q70 0 107 -37q37 -39 37 -107z" />
    <glyph glyph-name="Zcaron" unicode="&#x17d;" horiz-adv-x="1368" 
d="M82 0l45 258l1024 999h-825l45 259h1190l-45 -259l-1022 -999h847l-45 -258h-1214zM819 2068l191 -198l270 198l131 -143l-358 -274h-135l-250 274z" />
    <glyph glyph-name="zcaron" unicode="&#x17e;" horiz-adv-x="985" 
d="M102 0l41 238l537 493h-451l43 242h781l-39 -230l-539 -501h449l-41 -242h-781zM532 1526l191 -199l270 199l131 -144l-358 -274h-135l-250 274z" />
    <glyph glyph-name="florin" unicode="&#x192;" horiz-adv-x="700" 
d="M100 -188q91 0 107 106l143 813h-172l43 242h172l45 256q25 137 112 212t222 75q55 0 113 -17l-41 -223q-12 2 -55 2q-89 0 -109 -107l-35 -198h174l-43 -242h-174l-151 -870q-25 -137 -112 -212t-222 -75q-55 0 -113 16l39 224q14 -2 57 -2z" />
    <glyph glyph-name="circumflex" unicode="&#x2c6;" horiz-adv-x="942" 
d="M893 1108l-191 199l-266 -199l-114 137l352 281h135l250 -281z" />
    <glyph glyph-name="caron" unicode="&#x2c7;" horiz-adv-x="942" 
d="M731 1108h-135l-250 281l166 137l190 -199l267 199l114 -137z" />
    <glyph glyph-name="breve" unicode="&#x2d8;" horiz-adv-x="792" 
d="M603 1108q-263 0 -263 215q0 25 8 74h148q-4 -20 -4 -31q0 -94 136 -94t160 125h148q-25 -129 -108 -209t-225 -80z" />
    <glyph glyph-name="dotaccent" unicode="&#x2d9;" horiz-adv-x="522" 
d="M464 1108q-66 0 -104 36q-36 36 -36 104t56 122q56 55 124 55q68 -1 104 -37q37 -36 37 -103t-57 -122q-58 -55 -124 -55z" />
    <glyph glyph-name="ring" unicode="&#x2da;" horiz-adv-x="653" 
d="M463 1226q0 -32 18 -49t49 -17t60 22q29 23 35 69q1 29 -19 47t-52 18t-62 -28q-30 -30 -29 -62zM572 1462q92 0 146 -53t54 -133q0 -114 -88 -189q-88 -73 -175 -73t-140 54t-53 143t81 170q83 81 175 81z" />
    <glyph glyph-name="ogonek" unicode="&#x2db;" horiz-adv-x="507" 
d="M311 -418q-86 0 -139 41t-53 117t41 144t102 116h141q-90 -98 -90 -174q0 -39 28 -59q28 -21 73 -21t92 27l-27 -146q-82 -45 -168 -45z" />
    <glyph glyph-name="tilde" unicode="&#x2dc;" horiz-adv-x="946" 
d="M825 1108q-59 0 -147 42t-142 42t-130 -62l-72 185q121 98 235 98q61 0 147 -42t128 -42q72 0 151 68l62 -180q-119 -109 -232 -109z" />
    <glyph glyph-name="hungarumlaut" unicode="&#x2dd;" horiz-adv-x="1292" 
d="M971 1083l-121 172l461 353l129 -189zM446 1083l-120 172l460 353l129 -189z" />
    <glyph glyph-name="endash" unicode="&#x2013;" horiz-adv-x="1206" 
d="M111 461l43 237h1144l-43 -237h-1144z" />
    <glyph glyph-name="emdash" unicode="&#x2014;" horiz-adv-x="2117" 
d="M111 461l43 237h2056l-43 -237h-2056z" />
    <glyph glyph-name="quoteleft" unicode="&#x2018;" horiz-adv-x="524" 
d="M485 1221q53 0 89 -35q36 -36 36 -102t-57 -122t-128 -56q-138 -1 -138 151q1 153 111 305t255 158l-22 -129q-51 -7 -105 -57t-71 -115q10 2 30 2z" />
    <glyph glyph-name="quoteright" unicode="&#x2019;" horiz-adv-x="524" 
d="M467 1210q-55 0 -91 36t-36 102t57 122t127 56t106 -42q34 -42 34 -124t-48 -185t-134 -183q-87 -80 -185 -81l22 129q51 8 105 58t72 114q-8 -2 -29 -2z" />
    <glyph glyph-name="quotesinglbase" unicode="&#x201a;" horiz-adv-x="524" 
d="M250 -12q-55 0 -90 35t-35 101t58 123q57 56 127 56t104 -42t35 -114q0 -151 -111 -303t-256 -155l22 129q51 8 106 57q54 49 71 115q-10 -2 -31 -2z" />
    <glyph glyph-name="quotedblleft" unicode="&#x201c;" horiz-adv-x="948" 
d="M909 1221q55 0 90 -35q35 -36 35 -102t-57 -122t-127 -56t-106 41q-34 42 -33 114q0 147 109 300q110 153 257 159l-22 -129q-51 -7 -105 -57t-71 -115q10 2 30 2zM485 1221q55 0 90 -35q35 -36 35 -102t-57 -122t-127 -56q-138 -1 -139 150q0 152 109 305
q110 153 257 159l-22 -129q-51 -7 -105 -57t-71 -115q10 2 30 2z" />
    <glyph glyph-name="quotedblright" unicode="&#x201d;" horiz-adv-x="948" 
d="M891 1210q-55 0 -91 35t-36 103t58 123t128 55t104 -42t33 -114q-1 -150 -111 -302t-255 -157l22 129q51 8 105 58t72 114q-8 -2 -29 -2zM467 1210q-55 0 -91 35t-36 103t58 123t128 55t104 -42t34 -114q0 -150 -111 -302t-256 -157l22 129q51 8 105 58t72 114
q-8 -2 -29 -2z" />
    <glyph glyph-name="quotedblbase" unicode="&#x201e;" horiz-adv-x="948" 
d="M674 -12q-55 0 -90 35t-35 101t58 123q57 56 127 56t104 -42t34 -114q0 -151 -110 -303t-256 -155l22 129q51 8 106 57q54 49 71 115q-10 -2 -31 -2zM250 -12q-55 0 -90 35t-35 101t58 123q57 56 127 56t104 -42t35 -114q0 -151 -111 -303t-256 -155l22 129q51 8 106 57
q54 49 71 115q-10 -2 -31 -2z" />
    <glyph glyph-name="dagger" unicode="&#x2020;" horiz-adv-x="1161" 
d="M358 -518l240 1360h-358l41 227h358l78 447h260l-78 -447h358l-40 -227h-359l-240 -1360h-260z" />
    <glyph glyph-name="daggerdbl" unicode="&#x2021;" horiz-adv-x="1159" 
d="M356 -518l97 543h-357l39 225h357l114 653h-356l41 225h356l68 388h260l-68 -388h359l-41 -225h-359l-114 -653h358l-39 -225h-358l-97 -543h-260z" />
    <glyph glyph-name="bullet" unicode="&#x2022;" horiz-adv-x="1054" 
d="M598 403q-133 0 -219 87t-86 219q0 170 134 301t304 131q133 0 217 -88t84 -217q0 -170 -133 -302t-301 -131z" />
    <glyph glyph-name="ellipsis" unicode="&#x2026;" horiz-adv-x="2181" 
d="M1822 -14q-66 0 -104 36q-37 36 -37 104q-1 68 57 122q58 55 126 55t103 -36q36 -37 36 -103t-57 -122q-58 -56 -124 -56zM1276 164q0 -66 -58 -122t-124 -56t-103 36t-37 104t58 122q58 55 124 55q68 0 104 -36q36 -37 36 -103zM549 164q1 -66 -57 -122t-124 -56
t-104 36q-37 36 -37 104q-1 68 57 122q58 55 126 55t103 -36q36 -37 36 -103z" />
    <glyph glyph-name="perthousand" unicode="&#x2030;" horiz-adv-x="2729" 
d="M2280 195q64 0 122 56q58 55 58 121t-36 103t-102 37t-122 -56q-58 -56 -58 -122t37 -102q37 -37 101 -37zM1442 195q64 0 121 56q57 55 57 121t-36 103t-102 37t-122 -56q-57 -56 -57 -122t36 -103q39 -36 103 -36zM2244 -29q-150 0 -243 90q-92 90 -92 230
q0 188 140 317t321 129q141 0 233 -91t92 -226q0 -31 -6 -66q-29 -160 -162 -272t-283 -111zM1404 -29q-150 0 -243 90q-92 90 -92 230q0 188 140 317t321 129q141 0 233 -91t92 -226q0 -31 -6 -66q-29 -160 -161 -272q-134 -112 -284 -111zM537 1154q0 -66 36 -103
q37 -37 101 -37t122 55t58 121t-37 104q-37 37 -103 37t-121 -56q-56 -55 -56 -121zM426 0l1098 1516h219l-1098 -1516h-219zM303 1112q0 186 140 315t321 129q141 0 233 -91t93 -226q-7 -198 -169 -336q-133 -113 -285 -113t-243 93q-90 92 -90 229z" />
    <glyph glyph-name="guilsinglleft" unicode="&#x2039;" horiz-adv-x="708" 
d="M360 106l-188 412l332 408h280l-325 -408l186 -412h-285z" />
    <glyph glyph-name="guilsinglright" unicode="&#x203a;" horiz-adv-x="708" 
d="M100 106l330 412l-182 408h280l189 -408l-332 -412h-285z" />
    <glyph glyph-name="fraction" unicode="&#x2044;" horiz-adv-x="401" 
d="M-313 0l1097 1516h199l-1098 -1516h-198z" />
    <glyph glyph-name="Euro" unicode="&#x20ac;" horiz-adv-x="1228" 
d="M657 -27q-203 0 -302 114t-99 304q0 43 6 90h-178l100 191h109l26 141h-155l100 191h88q41 226 196 382t390 156q180 0 284 -94t105 -266q0 -31 -2 -47h-250q-12 162 -180 161q-219 0 -283 -292h533l-101 -191h-464l-27 -141h444l-100 -191h-375q-4 -37 -4 -61
q0 -201 178 -201q86 0 157 43t91 119h246q-50 -182 -190 -295t-343 -113z" />
    <glyph glyph-name="trademark" unicode="&#x2122;" horiz-adv-x="1662" 
d="M1458 774l82 467l-180 -215h-66l-108 213l-82 -465h-193l131 742h197l129 -259l231 259h187l-131 -742h-197zM418 774l100 572h-180l31 170h551l-31 -170h-178l-101 -572h-192z" />
    <glyph glyph-name="minus" unicode="&#x2212;" horiz-adv-x="1343" 
d="M205 588l43 241h1138l-43 -241h-1138z" />
    <glyph glyph-name="uniF8FF" unicode="&#xf8ff;" horiz-adv-x="1783" 
d="M489 1468h762v-245h-503v-387q121 -43 395 -199q85 -49 197 -88t210 -39l97 8q-10 -21 -70 -43q-59 -22 -129 -22q-256 0 -700 231v-684h-259v791q-49 20 -113 20t-108 -30q-45 -30 -45 -78q0 -99 76 -125q-53 2 -84 36t-31 105q0 70 69 121t189 51q29 0 47 -4v581z" />
    <glyph glyph-name="W.ss01" horiz-adv-x="2117" 
d="M1227 0l-94 424l-240 -424h-277l-329 1516h293l231 -1182l246 446l-160 736h293l72 -363l198 363h293l-418 -738l86 -444l650 1182h292l-860 -1516h-276z" />
    <glyph glyph-name="g.ss01" horiz-adv-x="1107" 
d="M506 -289q68 0 127 51q59 52 59 112t-41 96t-109 36t-128 -52t-60 -112t42 -95q42 -36 110 -36zM620 344q84 0 160 72t76 154t-49 130t-134 50q-85 0 -159 -74t-74 -156t48 -129t132 -47zM455 -528q-166 0 -273 93q-106 93 -106 222t74 231t200 160q-160 104 -160 315
t161 355t374 143q68 0 127 -18h346l-33 -193h-90q33 -76 33 -159q0 -129 -79 -253t-220 -194q162 -88 162 -259q-1 -171 -155 -307t-361 -136z" />
    <glyph glyph-name="g.ss02" horiz-adv-x="1032" 
d="M477 -328q72 0 113 31t41 72q0 88 -127 88q-78 0 -119 -34t-41 -77q0 -80 133 -80zM595 391q81 0 141 69q60 70 60 146t-39 117q-40 41 -118 41t-139 -67q-62 -67 -62 -143t38 -120q38 -43 119 -43zM532 59q158 -1 249 -71t91 -193t-126 -223t-298 -100t-258 70t-86 186
q0 118 107 219q-57 45 -57 117q0 142 118 212q-74 94 -73 236q0 223 144 351t347 128q61 0 117 -18h309l-33 -193h-71q27 -49 26 -131q0 -201 -150 -344t-349 -143h-101q-25 0 -43 -18t-18 -38q0 -45 45 -47h110z" />
    <glyph glyph-name="zero.osf" horiz-adv-x="1177" 
d="M946 530q0 90 -64 155q-66 65 -176 65t-208 -96t-98 -202q0 -108 62 -172q64 -64 169 -65t198 77q117 98 117 238zM1198 561q0 -244 -183 -416t-427 -172q-197 0 -319 119t-122 316q1 248 185 416t426 167q196 -1 318 -119t122 -311z" />
    <glyph glyph-name="one.osf" horiz-adv-x="688" 
d="M262 0l129 737h-231l41 236h483l-170 -973h-252z" />
    <glyph glyph-name="two.osf" horiz-adv-x="886" 
d="M686 680q0 36 -24 62t-76 26q-143 0 -176 -160h-224q29 168 142 276q114 108 276 108t248 -74t86 -215t-110 -269t-328 -213l383 15l-39 -236h-762l39 225q565 270 565 455z" />
    <glyph glyph-name="three.osf" horiz-adv-x="1069" 
d="M594 473q90 0 141 54q51 55 51 113q0 126 -122 126q-72 0 -119 -47t-60 -111h-245q35 170 154 277q120 106 293 106t263 -81t90 -203q0 -240 -225 -345q84 -39 120 -96t36 -151q0 -223 -158 -351q-159 -128 -353 -129t-285 95t-91 245q0 25 4 62h248q0 -170 156 -170
q102 -1 163 65t61 140t-42 118q-43 44 -125 46h-53l41 237h57z" />
    <glyph glyph-name="four.osf" horiz-adv-x="1097" 
d="M713 614l-328 -378h262zM545 -344l61 344h-534l41 244l665 733h252l-131 -741h158l-41 -236h-158l-61 -344h-252z" />
    <glyph glyph-name="five.osf" horiz-adv-x="1058" 
d="M762 133q0 209 -208 209q-104 0 -187 -72l-152 101l209 602h600l-41 -236h-367l-69 -182q66 25 129 25q172 0 257 -102t85 -263q0 -229 -155 -404t-394 -176q-186 0 -298 109t-112 276q0 23 4 60h220q-1 -207 203 -207q108 0 192 78t84 182z" />
    <glyph glyph-name="six.osf" horiz-adv-x="1069" 
d="M578 215q87 0 170 72q82 72 82 162t-53 143q-52 53 -140 53t-167 -77t-79 -163t50 -138t137 -52zM1079 498q0 -219 -167 -372t-380 -153q-174 0 -284 109t-109 276q0 66 29 154q30 88 140 252q110 162 429 592h275l-363 -482q37 6 72 7q158 0 258 -109t100 -274z" />
    <glyph glyph-name="seven.osf" horiz-adv-x="866" 
d="M49 -344l647 1081h-557l41 236h815l-39 -230l-647 -1087h-260z" />
    <glyph glyph-name="eight.osf" horiz-adv-x="1103" 
d="M393 419q-1 -93 55 -149t149 -55q93 0 181 72t88 172t-54 158q-54 59 -149 59t-183 -82t-87 -175zM862 1040q0 47 -31 77t-83 30t-100 -45q-48 -46 -48 -102t39 -89q35 6 71 6t74 -6q78 49 78 129zM1116 524q0 -240 -171 -396t-402 -155q-178 0 -290 112
q-112 113 -112 263t71 270t185 199q-41 63 -41 146q0 193 132 305t311 112q135 0 220 -85t85 -227t-111 -253q123 -113 123 -291z" />
    <glyph glyph-name="nine.osf" horiz-adv-x="1069" 
d="M846 557q0 85 -49 139t-139 54t-170 -76t-80 -163t51 -139t139 -52t168 76q80 77 80 161zM516 84q-158 0 -258 109t-100 276q0 219 166 371t381 151q177 -1 285 -109t108 -284q0 -58 -31 -148t-139 -248t-428 -593h-275l363 481q-37 -6 -72 -6z" />
    <glyph glyph-name="ampersand.ss01" horiz-adv-x="1320" 
d="M745 666q-139 0 -217 -79t-78 -171t53 -145q52 -52 145 -52t166 54t93 173l39 220h-201zM350 1067q0 233 157 355t346 122t292 -110l-168 -191q-66 61 -156 61t-149 -62q-60 -64 -60 -141t56 -129t161 -52h162l39 223h268l-38 -223h145l-45 -254h-146l-32 -185
q-41 -227 -191 -367t-378 -140t-331 98q-104 98 -104 262t87 289t257 176q-172 92 -172 268z" />
    <glyph glyph-name="ampersand.ss02" horiz-adv-x="1286" 
d="M1278 586q0 -266 -192 -440t-445 -173q-195 0 -322 122t-126 313q1 154 79 286t201 219q-37 70 -37 158q0 215 144 344t340 129q102 0 181 -45t122 -123l-234 -139q-37 61 -111 61t-129 -56q-57 -56 -57 -118t36 -99q36 -38 91 -38t104 32q48 32 70 81l193 -131
q-70 -101 -178 -163t-206 -62q-96 0 -149 20q-90 -43 -148 -129q-59 -86 -59 -186t68 -167t184 -67t224 101q106 101 106 227q0 49 -20 100l233 133q37 -86 37 -190z" />
    </font>
</defs>
</svg>
