<?xml version="1.0" standalone="no"?>
<!DOCTYPE svg PUBLIC "-//W3C//DTD SVG 1.1//EN" "http://www.w3.org/Graphics/SVG/1.1/DTD/svg11.dtd" >
<svg xmlns="http://www.w3.org/2000/svg">
<metadata>
Created by FontPrep 20130207 at Mon Nov 28 16:17:08 2016
 By LatinoType 3
Copyright (c) 2013 by Rick Banks. All rights reserved.
</metadata>
<defs>
<font id="1c7eff18379a490689d240dabfae793f" horiz-adv-x='1024' >
  <font-face 
    font-family="F37Ginger-LightItalic"
    font-weight="400"
    font-style="italic"
    font-stretch="normal"
    units-per-em="2048"
    panose-1="0 0 5 0 0 0 0 0 0 0"
    ascent="1638"
    descent="-410"
    x-height="973"
    cap-height="1516"
    bbox="-313 -537 2646 2011"
    underline-thickness="102"
    underline-position="-102"
    slope="-10"
    unicode-range="U+0020-FB02"
  />
<missing-glyph horiz-adv-x="1492" 
d="M1389 1366h-803l-215 -1216h803zM205 0l266 1516h1083l-266 -1516h-1083z" />
    <glyph glyph-name="fi" unicode="fi" horiz-adv-x="1105" 
d="M1190 1289q0 -41 -38 -77t-81 -36t-67 24t-23 66q0 43 37 79q37 35 81 35q43 0 67 -24t24 -67zM733 1384q-174 0 -207 -194l-39 -217h615l-170 -973h-144l148 844h-471l-148 -844h-143l148 844h-144l23 129h143l39 223q57 319 356 320q68 0 127 -21l-22 -129
q-57 18 -111 18z" />
    <glyph glyph-name="fl" unicode="fl" horiz-adv-x="1142" 
d="M823 164q0 33 6 72l107 608h-471l-148 -844h-143l148 844h-144l23 129h143l39 223q57 319 356 320q68 0 127 -21l-22 -129q-57 18 -111 18q-174 0 -207 -194l-39 -217h471l97 543h143l-213 -1213q-10 -61 -10 -105q0 -94 108 -94q35 0 60 5l-23 -121q-50 -14 -122 -14
t-124 48t-51 142z" />
    <glyph glyph-name=".notdef" horiz-adv-x="1492" 
d="M1389 1366h-803l-215 -1216h803zM205 0l266 1516h1083l-266 -1516h-1083z" />
    <glyph glyph-name=".null" horiz-adv-x="0" 
 />
    <glyph glyph-name="nonmarkingreturn" horiz-adv-x="681" 
 />
    <glyph glyph-name="space" unicode=" " horiz-adv-x="552" 
 />
    <glyph glyph-name="exclam" unicode="!" horiz-adv-x="598" 
d="M325 178q83 0 83 -83q0 -41 -34 -73t-73 -32t-61 22t-23 60q0 38 34 72t74 34zM340 354l55 604l99 558h151l-98 -558l-158 -604h-49z" />
    <glyph glyph-name="quotedbl" unicode="&#x22;" horiz-adv-x="813" 
d="M678 991l72 525h165l-114 -525h-123zM358 991l72 525h166l-115 -525h-123z" />
    <glyph glyph-name="numbersign" unicode="#" horiz-adv-x="1214" 
d="M969 956h-314l-100 -315h315zM707 135l118 369h-315l-119 -369h-139l117 369h-230l25 137h250l98 313h-250l25 140h270l119 374h141l-119 -374h316l119 374h141l-119 -374h201l-25 -138h-221l-100 -315h219l-25 -137h-237l-119 -369h-141z" />
    <glyph glyph-name="dollar" unicode="$" horiz-adv-x="1124" 
d="M946 451q0 131 -170 215l-94 -537q112 33 188 128t76 194zM508 1110q0 -137 166 -219l90 504q-112 -21 -184 -103t-72 -182zM350 1094q0 152 118 282q118 131 320 158l25 147h141l-24 -141q190 -12 307 -141l-113 -109q-96 96 -219 111l-100 -567q143 -60 221 -140
t78 -215q0 -180 -132 -318t-317 -175l-26 -150h-142l25 139q-135 8 -243 80t-150 164l117 117q115 -209 301 -225l108 612q-137 59 -216 139t-79 232z" />
    <glyph glyph-name="percent" unicode="%" horiz-adv-x="1841" 
d="M1378 82q112 0 208 97q97 97 97 207t-62 174t-173 64t-208 -96t-97 -208t61 -175q62 -63 174 -63zM1361 -29q-159 0 -250 91t-91 231q0 176 137 310t318 134q145 0 238 -90t93 -227q0 -31 -6 -66q-28 -158 -154 -270t-285 -113zM660 891q110 0 206 95q96 96 96 208
t-60 176t-172 64t-210 -96t-98 -208t63 -176q65 -63 175 -63zM436 0l1098 1516h137l-1098 -1516h-137zM643 778q-158 0 -251 91t-93 231q0 176 137 310t320 134q147 0 238 -91t91 -226q0 -31 -6 -66q-29 -159 -153 -271t-283 -112z" />
    <glyph glyph-name="ampersand" unicode="&#x26;" horiz-adv-x="1304" 
d="M727 741q-155 0 -271 -87t-116 -248q0 -127 78 -199t215 -72h244l106 606h-256zM573 0q-169 0 -279 101t-110 259t76 275t211 176q-129 77 -129 267t144 327t345 137q145 0 246 -88l-96 -111q-65 66 -177 66t-210 -90t-98 -227q0 -100 58 -156t155 -57h299l47 264h151
l-47 -264h197l-25 -138h-196l-107 -606h197l-23 -135h-629z" />
    <glyph glyph-name="quotesingle" unicode="'" horiz-adv-x="493" 
d="M358 991l72 525h166l-115 -525h-123z" />
    <glyph glyph-name="parenleft" unicode="(" horiz-adv-x="741" 
d="M180 326q0 244 70 446q70 203 183 349q216 276 480 419l56 -127q-238 -118 -425 -377q-94 -129 -152 -303q-58 -173 -58 -381t95 -378t241 -259l-101 -127q-165 110 -277 302t-112 436z" />
    <glyph glyph-name="parenright" unicode=")" horiz-adv-x="741" 
d="M602 774q0 207 -95 380t-239 259l101 127q165 -106 277 -300t112 -438q0 -625 -487 -1044q-120 -102 -246 -170l-54 127q227 115 429 387q202 273 202 672z" />
    <glyph glyph-name="asterisk" unicode="*" horiz-adv-x="774" 
d="M801 967l-164 129l-41 -226h-115l41 226l-211 -129l-43 98l221 133l-161 125l73 98l158 -116l37 211h115l-37 -211l200 116l41 -98l-208 -125l172 -133z" />
    <glyph glyph-name="plus" unicode="+" horiz-adv-x="1236" 
d="M582 190l80 449h-447l25 139h446l78 449h139l-78 -449h447l-25 -139h-446l-80 -449h-139z" />
    <glyph glyph-name="comma" unicode="," horiz-adv-x="598" 
d="M282 -10q-22 0 -44 22t-21 60q0 38 34 72t81 34q78 0 78 -92t-67 -182t-153 -92l15 77q31 4 63 33t41 70q-5 -2 -27 -2z" />
    <glyph glyph-name="hyphen" unicode="-" horiz-adv-x="802" 
d="M203 459l24 137h557l-24 -137h-557z" />
    <glyph glyph-name="period" unicode="." horiz-adv-x="598" 
d="M324 178q84 0 84 -84q0 -40 -34 -72t-73 -32t-61 22t-23 60q0 38 33 72t74 34z" />
    <glyph glyph-name="slash" unicode="/" horiz-adv-x="968" 
d="M0 0l1098 1516h137l-1098 -1516h-137z" />
    <glyph glyph-name="zero" unicode="0" horiz-adv-x="1200" 
d="M1116 1098q0 137 -63 222t-223 85t-262 -126t-136 -318l-67 -386q-18 -106 -19 -172q0 -293 272 -292q186 0 284 123q97 124 134 341l68 386q12 68 12 137zM594 -27q-201 0 -300 115t-99 307q0 80 14 158l78 442q41 235 191 391t369 156q220 0 323 -115t104 -301
q0 -63 -12 -131l-78 -442q-44 -254 -188 -417t-402 -163z" />
    <glyph glyph-name="one" unicode="1" horiz-adv-x="718" 
d="M322 0l241 1378h-260l25 138h411l-266 -1516h-151z" />
    <glyph glyph-name="two" unicode="2" horiz-adv-x="1134" 
d="M1049 1154q0 118 -72 184t-196 67q-124 0 -216 -81t-131 -220h-151q53 210 194 324t329 114t294 -96q104 -96 104 -260q0 -206 -174 -391q-88 -96 -203 -193l-528 -465h707l-23 -137h-911l22 137l582 512q207 179 290 283t83 222z" />
    <glyph glyph-name="three" unicode="3" horiz-adv-x="1159" 
d="M756 879q121 0 213 88q92 89 92 207q1 118 -59 176t-168 59q-108 0 -198 -84q-89 -84 -108 -199l-4 -26h-153l4 26q27 170 167 293t311 123t267 -92t96 -226t-67 -246q-68 -112 -178 -167q162 -90 162 -289q0 -233 -166 -391t-392 -158q-179 1 -287 103t-108 272
q0 47 8 90h156q-6 -39 -6 -76q0 -118 70 -186t186 -67q158 1 270 115t111 280q0 123 -73 180t-234 57l24 138h64z" />
    <glyph glyph-name="four" unicode="4" horiz-adv-x="1191" 
d="M1024 1307h-4l-703 -893h549zM795 0l47 276h-723l24 138l889 1102h180l-194 -1102h153l-24 -138h-154l-47 -276h-151z" />
    <glyph glyph-name="five" unicode="5" horiz-adv-x="1204" 
d="M621 111q176 0 307 138t131 324q0 131 -73 215t-216 84q-195 0 -315 -127l-101 70l242 701h659l-24 -138h-535l-151 -426q119 59 256 60q195 0 305 -116t111 -306q1 -254 -181 -435t-430 -182q-202 0 -320 126t-118 319v22h160q2 -150 78 -240t215 -89z" />
    <glyph glyph-name="six" unicode="6" horiz-adv-x="1196" 
d="M623 109q165 0 291 129t126 303q0 135 -78 216q-79 81 -208 81q-170 0 -302 -129t-133 -297q-1 -131 85 -217t219 -86zM772 973q186 0 304 -118t118 -300q0 -229 -177 -405t-417 -177q-190 0 -313 115t-123 293t170 420l504 715h161l-411 -588q98 45 184 45z" />
    <glyph glyph-name="seven" unicode="7" horiz-adv-x="1030" 
d="M158 0l846 1378h-721l24 138h877l-25 -138l-842 -1378h-159z" />
    <glyph glyph-name="eight" unicode="8" horiz-adv-x="1277" 
d="M655 111q178 0 314 137q135 137 135 321q0 141 -84 231t-223 89q-181 0 -315 -140t-134 -323q0 -139 85 -227t222 -88zM1065 1221q0 86 -47 137t-131 51q-115 0 -190 -88t-74 -201q0 -72 30 -119q80 25 162 25t166 -27q84 88 84 222zM1262 576q0 -236 -190 -419
t-437 -184q-195 0 -319 122q-124 121 -124 297t88 319q87 143 234 229q-47 72 -47 172q0 172 131 301t307 129q141 0 229 -87t87 -220q0 -168 -129 -297q170 -126 170 -362z" />
    <glyph glyph-name="nine" unicode="9" horiz-adv-x="1196" 
d="M709 678q170 0 301 129t131 299q0 131 -84 216t-215 85q-166 0 -294 -129t-128 -301q0 -131 79 -215t210 -84zM688 543q-186 -1 -304 117t-118 301q0 229 177 405t417 176q188 0 312 -115t124 -292t-170 -420l-501 -715h-160l407 588q-94 -45 -184 -45z" />
    <glyph glyph-name="colon" unicode=":" horiz-adv-x="598" 
d="M325 178q83 0 83 -83q0 -41 -34 -73t-73 -32t-61 22t-23 60q0 38 34 72t74 34zM441 784q-41 0 -63 22t-22 62t35 72q35 33 74 33t61 -22q22 -23 23 -61q0 -38 -34 -72t-74 -34z" />
    <glyph glyph-name="semicolon" unicode=";" horiz-adv-x="598" 
d="M282 -10q-22 0 -44 22t-21 60q0 38 34 72t81 34q78 0 78 -92t-67 -182t-153 -92l15 77q31 4 63 33t41 70q-5 -2 -27 -2zM441 784q-41 0 -63 22t-22 62t35 72q35 33 74 33t61 -22q22 -23 23 -61q0 -38 -34 -72t-74 -34z" />
    <glyph glyph-name="less" unicode="&#x3c;" horiz-adv-x="890" 
d="M705 12l-580 697l823 696l88 -98l-712 -598l503 -598z" />
    <glyph glyph-name="equal" unicode="=" horiz-adv-x="1257" 
d="M188 432l25 139h1032l-24 -139h-1033zM260 846l25 139h1032l-25 -139h-1032z" />
    <glyph glyph-name="greater" unicode="&#x3e;" horiz-adv-x="890" 
d="M190 12l-90 99l717 598l-504 598l121 98l582 -696z" />
    <glyph glyph-name="question" unicode="?" horiz-adv-x="1081" 
d="M460 178q83 0 83 -83q0 -41 -34 -73t-73 -32q-40 0 -62 22t-22 60t34 72t74 34zM326 1096v6q33 186 171 313t319 127q180 0 284 -94t104 -250q0 -25 -14 -111q-14 -85 -79 -161t-143 -113t-155 -69q-78 -32 -138 -87t-75 -139l-27 -147h-151l31 172q25 133 105 203
t184 114t142 64t82 55q83 66 85 205q0 104 -73 159q-72 55 -194 55t-202 -86q-80 -87 -105 -216h-151z" />
    <glyph glyph-name="at" unicode="@" horiz-adv-x="1976" 
d="M954 100q138 0 238 104t100 224q0 122 -63 190t-181 68t-213 -105t-96 -249q1 -104 57 -168t158 -64zM903 -537q-332 0 -543 196t-210 562q0 201 67 378q123 321 439 523q286 183 595 183t517 -173t208 -479q0 -172 -66 -335t-183 -267q-118 -104 -252 -104
q-92 0 -146 49q-53 49 -57 135q-137 -160 -344 -160q-158 1 -249 95t-91 249q0 207 147 355t347 147q200 0 282 -162l25 146h135l-101 -578q-4 -25 -4 -57t27 -62q27 -29 76 -28q125 0 217 170t92 370q0 264 -172 412t-431 150q-259 0 -515 -167t-364 -446
q-58 -154 -58 -325q0 -308 175 -478t486 -170q256 0 467 140l51 -101q-285 -168 -567 -168z" />
    <glyph glyph-name="A" unicode="A" horiz-adv-x="1378" 
d="M930 1343l-463 -821h631zM1208 0l-80 385h-737l-217 -385h-164l850 1516h187l321 -1516h-160z" />
    <glyph glyph-name="B" unicode="B" horiz-adv-x="1222" 
d="M586 137q344 1 448 189q35 64 35 149q0 119 -83 185t-302 65h-221l-105 -588h228zM733 862q129 0 246 48q149 61 149 257q0 105 -79 158q-80 53 -261 53h-210l-91 -516h246zM836 1516q214 0 330 -85t116 -235t-77 -252t-201 -145q219 -57 219 -299q0 -162 -91 -279
q-172 -221 -536 -221h-412l267 1516h385z" />
    <glyph glyph-name="C" unicode="C" horiz-adv-x="1470" 
d="M193 629q0 239 129 449t345 336t461 126q338 0 531 -237l-146 -72q-150 172 -403 172q-292 -1 -528 -235t-236 -521q0 -227 155 -382t389 -155t449 175l101 -86q-274 -225 -574 -225t-487 182q-186 184 -186 473z" />
    <glyph glyph-name="D" unicode="D" horiz-adv-x="1470" 
d="M592 137q209 0 388 81t295 249t116 391q0 520 -629 520h-184l-220 -1241h234zM858 1516q306 0 496 -165t190 -468q0 -258 -135 -464q-135 -207 -347 -313t-454 -106h-424l267 1516h407z" />
    <glyph glyph-name="E" unicode="E" horiz-adv-x="1107" 
d="M184 0l267 1516h811l-25 -138h-659l-91 -518h576l-25 -137h-575l-105 -586h660l-23 -137h-811z" />
    <glyph glyph-name="F" unicode="F" horiz-adv-x="1107" 
d="M184 0l267 1516h841l-24 -138h-690l-91 -518h607l-25 -137h-606l-127 -723h-152z" />
    <glyph glyph-name="G" unicode="G" horiz-adv-x="1697" 
d="M858 -27q-304 -1 -484 179q-181 180 -181 469q0 371 281 646q282 275 647 275t565 -256l-119 -104q-68 104 -194 164t-267 59q-295 0 -528 -231t-234 -539q0 -233 144 -379t383 -145q239 0 426 147t241 420h-598l25 137h743l-16 -90q-62 -352 -296 -552t-538 -200z" />
    <glyph glyph-name="H" unicode="H" horiz-adv-x="1579" 
d="M1243 0l127 731h-907l-127 -731h-152l267 1516h151l-115 -648h908l114 648h152l-266 -1516h-152z" />
    <glyph glyph-name="I" unicode="I" horiz-adv-x="520" 
d="M184 0l267 1516h151l-266 -1516h-152z" />
    <glyph glyph-name="J" unicode="J" horiz-adv-x="520" 
d="M-113 -297q180 0 251 161q34 73 57 204l256 1448h151l-254 -1442q-35 -199 -94 -296q-58 -96 -158 -154t-215 -58h-33l25 137h14z" />
    <glyph glyph-name="K" unicode="K" horiz-adv-x="1171" 
d="M1161 0h-186l-520 676l-119 -676h-152l267 1516h151l-121 -689l713 689h180l-792 -758z" />
    <glyph glyph-name="L" unicode="L" horiz-adv-x="1099" 
d="M184 0l267 1516h151l-244 -1379h723l-22 -137h-875z" />
    <glyph glyph-name="M" unicode="M" horiz-adv-x="1832" 
d="M1497 0l238 1350l-658 -736h-116l-388 736l-237 -1350h-152l267 1516h223l377 -738l641 738h223l-266 -1516h-152z" />
    <glyph glyph-name="N" unicode="N" horiz-adv-x="1669" 
d="M1333 0l-764 1331l-233 -1331h-152l267 1516h204l723 -1254l221 1254h152l-266 -1516h-152z" />
    <glyph glyph-name="O" unicode="O" horiz-adv-x="1726" 
d="M881 111q197 0 373 104q176 105 285 281q108 176 108 388q1 212 -147 367q-148 154 -390 154q-306 -1 -536 -235t-230 -527q0 -229 148 -381t389 -151zM193 621q-1 239 125 451t344 341t471 129q291 0 479 -182t188 -463q0 -69 -12 -139q-54 -324 -326 -554t-606 -231
q-293 -1 -478 181t-185 467z" />
    <glyph glyph-name="P" unicode="P" horiz-adv-x="1222" 
d="M686 707q199 0 333 85q150 93 150 310q0 135 -80 206q-81 71 -284 70h-227l-119 -671h227zM838 1516q236 0 360 -90t125 -302q0 -272 -181 -413t-470 -142h-236l-100 -569h-152l267 1516h387z" />
    <glyph glyph-name="Q" unicode="Q" horiz-adv-x="1726" 
d="M346 649q0 -229 150 -371t406 -142t472 178q266 220 273 567q-1 227 -149 375t-388 149q-304 0 -534 -230t-230 -526zM193 631q1 237 127 447t344 337t492 127q272 0 458 -178t186 -467q0 -231 -126 -437t-351 -323h389l-22 -137l-828 -2q-295 0 -482 174t-187 459z" />
    <glyph glyph-name="R" unicode="R" horiz-adv-x="1286" 
d="M821 829q317 0 402 154q37 67 37 179t-72 164t-270 52h-340l-97 -549h340zM950 1516q238 0 352 -73t114 -271t-121 -322q-120 -125 -330 -148l290 -702h-178l-282 692h-338l-121 -692h-152l267 1516h499z" />
    <glyph glyph-name="S" unicode="S" horiz-adv-x="1083" 
d="M541 111q145 0 265 102t120 238q0 88 -62 145t-148 91q-87 34 -175 73t-150 116q-61 78 -61 194t54 220t178 178t296 74q229 0 359 -143l-113 -109q-112 115 -268 115t-252 -87q-96 -86 -96 -192t60 -163q62 -57 149 -91t175 -72t150 -116t61 -195q0 -211 -170 -363
t-383 -153q-145 0 -265 73t-167 173l117 117q125 -225 326 -225z" />
    <glyph glyph-name="T" unicode="T" horiz-adv-x="1173" 
d="M512 0l242 1378h-482l25 138h1112l-25 -138h-479l-241 -1378h-152z" />
    <glyph glyph-name="U" unicode="U" horiz-adv-x="1622" 
d="M422 537q0 -207 108 -317t297 -109q227 0 390 152q162 153 210 427l146 826h151l-149 -846q-59 -332 -270 -514t-500 -183q-248 1 -394 137t-147 388q0 74 17 172l149 846h152l-146 -826q-14 -78 -14 -153z" />
    <glyph glyph-name="V" unicode="V" horiz-adv-x="1415" 
d="M629 0l-342 1516h159l285 -1328l758 1328h172l-883 -1516h-149z" />
    <glyph glyph-name="W" unicode="W" horiz-adv-x="2076" 
d="M1432 0l-170 1272l-621 -1272h-149l-205 1516h162l147 -1328l627 1328h161l156 -1328l619 1328h163l-741 -1516h-149z" />
    <glyph glyph-name="X" unicode="X" horiz-adv-x="1277" 
d="M526 1516l297 -596l504 596h186l-614 -740l377 -776h-170l-313 651l-547 -651h-187l654 793l-357 723h170z" />
    <glyph glyph-name="Y" unicode="Y" horiz-adv-x="1251" 
d="M547 0l121 694l-381 822h157l316 -662l557 662h180l-678 -822l-121 -694h-151z" />
    <glyph glyph-name="Z" unicode="Z" horiz-adv-x="1327" 
d="M82 0l22 137l1168 1241h-926l25 138h1118l-25 -138l-1165 -1241h948l-22 -137h-1143z" />
    <glyph glyph-name="bracketleft" unicode="[" horiz-adv-x="591" 
d="M498 -414h-449l340 1930h449l-23 -123h-299l-297 -1686h299z" />
    <glyph glyph-name="backslash" unicode="\" horiz-adv-x="970" 
d="M834 0l-568 1516h137l568 -1516h-137z" />
    <glyph glyph-name="bracketright" unicode="]" horiz-adv-x="591" 
d="M395 -414h-446l20 121h297l297 1686h-299l23 123h448z" />
    <glyph glyph-name="asciicircum" unicode="^" horiz-adv-x="1069" 
d="M975 688l-203 678l-436 -678h-143l542 828h131l252 -828h-143z" />
    <glyph glyph-name="underscore" unicode="_" horiz-adv-x="1153" 
d="M23 -102l18 102h1071l-18 -102h-1071z" />
    <glyph glyph-name="grave" unicode="`" horiz-adv-x="677" 
d="M334 1321l90 125l362 -227l-84 -113z" />
    <glyph glyph-name="a" unicode="a" 
d="M618 102q184 0 316 134t133 313q0 137 -84 225t-225 88q-180 0 -314 -134t-135 -318q0 -140 84 -224t225 -84zM600 -27q-196 0 -314 116t-118 306q0 244 181 420t430 176t345 -194l31 176h143l-170 -973h-143l29 166q-164 -193 -414 -193z" />
    <glyph glyph-name="b" unicode="b" 
d="M713 102q182 0 314 132t132 315q0 137 -83 225t-224 88q-182 0 -315 -137t-134 -315q0 -135 83 -222q84 -86 227 -86zM1303 563q-1 -248 -185 -419t-430 -171t-342 193l-29 -166h-143l266 1516h144l-127 -719q164 195 413 194q193 0 313 -117t120 -311z" />
    <glyph glyph-name="c" unicode="c" horiz-adv-x="1083" 
d="M592 -27q-184 0 -304 120t-120 302q0 231 179 413t421 183q139 0 241 -66q101 -67 152 -180l-129 -65q-35 82 -110 132q-76 50 -174 50q-170 0 -304 -138t-133 -312q0 -134 85 -222q84 -88 204 -88q227 0 367 183l102 -66q-88 -113 -215 -179t-262 -67z" />
    <glyph glyph-name="d" unicode="d" 
d="M618 102q184 0 316 134t133 313q0 137 -84 225t-225 88q-180 0 -314 -134t-135 -318q0 -140 84 -224t225 -84zM600 -27q-196 0 -314 116t-118 306q0 244 181 420t430 176t345 -194l127 719h144l-267 -1516h-143l29 166q-164 -193 -414 -193z" />
    <glyph glyph-name="e" unicode="e" horiz-adv-x="1171" 
d="M1038 557q0 131 -79 218t-215 87t-248 -87t-160 -218h702zM311 428q0 -145 80 -235t219 -91q199 0 336 158l92 -76q-88 -98 -204 -154t-240 -57q-186 0 -306 120t-120 304q0 229 175 411t417 183q190 0 306 -121t116 -297q0 -51 -8 -92l-11 -53h-852z" />
    <glyph glyph-name="f" unicode="f" horiz-adv-x="614" 
d="M733 1384q-174 0 -207 -194l-39 -217h267l-23 -129h-266l-148 -844h-143l148 844h-144l23 129h143l39 223q57 319 356 320q68 0 127 -21l-22 -129q-57 18 -111 18z" />
    <glyph glyph-name="g" unicode="g" 
d="M618 102q184 0 316 134t133 313q0 137 -84 225t-225 88q-180 0 -314 -134t-135 -318q0 -140 84 -224t225 -84zM600 -27q-196 0 -314 116t-118 306q0 244 181 420t430 176t345 -194l31 176h143l-155 -883q-81 -457 -428 -575q-94 -33 -197 -33q-299 0 -405 237l141 56
q68 -164 281 -164q373 0 460 459l19 96q-164 -193 -414 -193z" />
    <glyph glyph-name="h" unicode="h" horiz-adv-x="1183" 
d="M987 631q0 231 -225 231q-295 0 -363 -393l-82 -469h-143l266 1516h144l-121 -680q137 156 338 155q162 0 249 -81t87 -242q0 -59 -13 -127l-94 -541h-143l88 500q12 70 12 131z" />
    <glyph glyph-name="i" unicode="i" horiz-adv-x="491" 
d="M174 0l170 973h143l-170 -973h-143zM457 1176q-43 0 -67 24t-24 66q0 43 37 79q37 35 81 35t68 -24t24 -67q0 -42 -38 -78q-38 -35 -81 -35z" />
    <glyph glyph-name="j" unicode="j" horiz-adv-x="491" 
d="M82 -518l262 1491h143l-262 -1491h-143zM461 1198q-39 0 -62 22t-23 60t35 73q33 33 73 33t62 -22t22 -60q0 -40 -34 -73t-73 -33z" />
    <glyph glyph-name="k" unicode="k" horiz-adv-x="954" 
d="M760 0l-357 498l-86 -498h-143l266 1516h144l-170 -967l469 424h211l-512 -459l362 -514h-184z" />
    <glyph glyph-name="l" unicode="l" horiz-adv-x="528" 
d="M209 164q0 33 6 72l225 1280h144l-213 -1213q-11 -61 -11 -105q-1 -94 109 -94q35 0 59 5l-22 -121q-51 -14 -123 -14t-123 48t-51 142z" />
    <glyph glyph-name="m" unicode="m" horiz-adv-x="1732" 
d="M1544 678q0 184 -180 184q-266 0 -334 -393l-82 -469h-143l88 500q20 121 20 178q0 184 -180 184q-266 0 -334 -393l-82 -469h-143l170 973h143l-24 -137q139 156 309 155q244 0 279 -213q154 213 354 213q283 0 283 -301q0 -72 -15 -149l-94 -541h-143l88 500
q20 121 20 178z" />
    <glyph glyph-name="n" unicode="n" horiz-adv-x="1183" 
d="M987 631q0 231 -225 231q-295 0 -363 -393l-82 -469h-143l170 973h143l-24 -137q137 156 338 155q162 0 249 -81t87 -242q0 -59 -13 -127l-94 -541h-143l88 500q12 70 12 131z" />
    <glyph glyph-name="o" unicode="o" horiz-adv-x="1198" 
d="M616 102q176 0 308 138t131 313q0 133 -85 221t-220 88q-174 0 -306 -139t-133 -311q0 -134 85 -222t220 -88zM168 397q0 231 180 413t416 181q190 0 312 -122t122 -294q0 -268 -216 -453q-174 -148 -374 -148t-320 119q-120 120 -120 304z" />
    <glyph glyph-name="p" unicode="p" 
d="M713 102q182 0 314 132t132 315q0 137 -83 225t-224 88q-182 0 -315 -137t-134 -315q0 -135 83 -222q84 -86 227 -86zM1303 565q-1 -239 -179 -415t-430 -176t-348 192l-121 -684h-143l262 1491h143l-30 -176q164 195 413 194q193 0 313 -117t120 -309z" />
    <glyph glyph-name="q" unicode="q" 
d="M618 102q184 0 316 134t133 313q0 137 -84 225t-225 88q-180 0 -314 -134t-135 -318q0 -140 84 -224t225 -84zM600 -27q-196 0 -314 116t-118 306q0 244 181 420t430 176t345 -194l31 176h143l-262 -1491h-143l121 684q-164 -193 -414 -193z" />
    <glyph glyph-name="r" unicode="r" horiz-adv-x="718" 
d="M317 0h-143l170 973h143l-26 -160q86 111 173 145t238 33l-24 -133q-233 0 -334 -112q-84 -93 -106 -228z" />
    <glyph glyph-name="s" unicode="s" horiz-adv-x="868" 
d="M238 655q0 139 109 238q110 98 277 98t285 -96l-96 -113q-84 80 -213 80q-88 0 -149 -50t-61 -110t45 -92q46 -31 112 -48q65 -17 131 -40t112 -77t46 -142q0 -147 -116 -238t-304 -91t-320 116l101 113q111 -100 256 -101q100 0 168 45q67 45 67 111t-46 100
q-46 32 -113 50t-133 38t-112 72t-46 137z" />
    <glyph glyph-name="t" unicode="t" horiz-adv-x="628" 
d="M217 158q0 25 8 78l107 608h-154l23 129h153l60 330h143l-59 -330h270l-23 -129h-270l-94 -541q-12 -73 -12 -113q0 -86 110 -86q59 0 115 19l-23 -129q-63 -20 -135 -21q-219 0 -219 185z" />
    <glyph glyph-name="u" unicode="u" horiz-adv-x="1175" 
d="M215 270q0 57 12 121l103 582h143l-94 -541q-14 -86 -14 -131q0 -102 54 -150q53 -49 199 -49t224 83t106 247l94 541h144l-103 -582q-39 -221 -165 -319t-336 -99q-367 0 -367 297z" />
    <glyph glyph-name="v" unicode="v" horiz-adv-x="1019" 
d="M432 0l-242 973h150l195 -795l477 795h157l-579 -973h-158z" />
    <glyph glyph-name="w" unicode="w" horiz-adv-x="1671" 
d="M1110 0l-137 780l-412 -780h-158l-213 973h150l166 -795l424 795h147l146 -795l444 795h154l-553 -973h-158z" />
    <glyph glyph-name="x" unicode="x" horiz-adv-x="923" 
d="M739 0l-198 408l-326 -408h-184l436 522l-236 451h160l176 -348l285 348h182l-395 -463l254 -510h-154z" />
    <glyph glyph-name="y" unicode="y" horiz-adv-x="935" 
d="M139 -518l273 508l-222 983h148l174 -789l422 789h151l-800 -1491h-146z" />
    <glyph glyph-name="z" unicode="z" horiz-adv-x="964" 
d="M102 0l21 125l700 719h-573l22 129h760l-22 -129l-693 -715h568l-23 -129h-760z" />
    <glyph glyph-name="braceleft" unicode="{" horiz-adv-x="657" 
d="M428 -416q-88 0 -132 56t-44 145q0 35 6 68l66 372q6 31 6 64q0 172 -207 180l29 160q246 8 286 245l66 373q18 109 89 189t175 80h135l-22 -123h-103q-102 0 -129 -176l-67 -390q-18 -96 -89 -174t-200 -102q100 -12 145 -80t45 -160q0 -33 -6 -67l-63 -361
q-6 -31 -6 -71q0 -104 73 -105h103l-21 -123h-135z" />
    <glyph glyph-name="bar" unicode="|" horiz-adv-x="438" 
d="M92 -287l318 1803h151l-317 -1803h-152z" />
    <glyph glyph-name="braceright" unicode="}" horiz-adv-x="657" 
d="M442 1288q0 104 -75 105h-103l23 123h135q88 0 132 -58t44 -145q0 -31 -6 -66l-66 -373q-6 -31 -6 -61q0 -180 207 -184l-29 -160q-246 -8 -286 -244l-66 -372q-20 -111 -90 -190t-174 -79h-133l20 123h101q96 0 129 176l63 361q18 110 94 200t201 107q-195 44 -197 221
q0 27 7 55l67 390q8 41 8 71z" />
    <glyph glyph-name="asciitilde" unicode="~" horiz-adv-x="1150" 
d="M1182 788q0 -33 -4 -49q-25 -113 -107 -175t-179 -62t-218 82t-211 82q-129 0 -152 -123q-4 -20 -4 -39h-112q0 146 110 223q91 63 185 63q151 1 243 -82q93 -83 187 -81q125 0 145 125q4 20 4 36h113z" />
    <glyph glyph-name="uni00A0" unicode="&#xa0;" horiz-adv-x="552" 
 />
    <glyph glyph-name="exclamdown" unicode="&#xa1;" horiz-adv-x="516" 
d="M109 -393l98 557l158 604h49l-56 -604l-98 -557h-151zM452 1133q83 0 83 -82q0 -39 -33 -73t-73 -34q-41 0 -63 22t-22 60t34 73q34 34 74 34z" />
    <glyph glyph-name="cent" unicode="&#xa2;" horiz-adv-x="1206" 
d="M743 1128q-139 -36 -240 -160t-102 -280q1 -106 57 -186t154 -109zM258 672q0 209 144 379t364 209l45 256h141l-45 -250q117 -10 208 -76t136 -166l-129 -66q-31 72 -93 120t-144 59l-133 -754q184 18 305 180l102 -65q-79 -102 -193 -168t-237 -76l-43 -254h-141
l45 260q-147 29 -240 142q-92 114 -92 270z" />
    <glyph glyph-name="sterling" unicode="&#xa3;" horiz-adv-x="1173" 
d="M1118 1112q0 141 -51 221t-186 80q-77 0 -139 -29q-107 -51 -157 -166q-40 -90 -40 -168t37 -247h383l-23 -129h-340q2 -14 2 -45q0 -123 -80 -265t-237 -235h800l-22 -129h-1004l23 129q104 43 182 111t116 140q71 135 73 247q0 31 -2 47h-172l22 129h123
q-35 123 -35 209q0 214 134 372t378 158q177 0 271 -102t94 -277l-2 -51h-148z" />
    <glyph glyph-name="currency" unicode="&#xa4;" horiz-adv-x="1253" 
d="M1083 764q1 114 -77 192t-212 78t-254 -116t-120 -263q0 -115 79 -193t203 -77q124 0 239 95q142 121 142 284zM668 238q-158 0 -269 100l-190 -160l-70 84l193 162q-113 180 -18 401q42 98 118 170l-137 164l100 84l135 -166q146 103 306 103t266 -101l194 164l68 -84
l-190 -164q59 -94 59 -211q0 -199 -162 -360l135 -162l-98 -84l-131 160q-151 -100 -309 -100z" />
    <glyph glyph-name="yen" unicode="&#xa5;" horiz-adv-x="1251" 
d="M547 0l80 455h-443l23 129h442l19 110l-35 72h-395l24 129h313l-288 621h172l315 -662l557 662h166l-512 -621h318l-25 -129h-401l-58 -72l-18 -110h446l-22 -129h-447l-80 -455h-151z" />
    <glyph glyph-name="brokenbar" unicode="&#xa6;" horiz-adv-x="438" 
d="M92 -287l127 717h152l-127 -717h-152zM283 799l127 717h151l-127 -717h-151z" />
    <glyph glyph-name="section" unicode="&#xa7;" horiz-adv-x="1093" 
d="M354 618q0 -74 84 -118l350 -193q66 35 109 103t43 131q0 94 -96 145l-328 178q-70 -36 -116 -104t-46 -142zM299 6q0 -94 54 -158t160 -63q106 0 192 68q86 69 86 157q-1 88 -61 148t-146 99q-86 40 -173 82t-148 111q-60 69 -60 158q0 178 237 334q-51 59 -51 154
q0 166 126 274t298 109q133 0 225 -79t92 -204q0 -31 -6 -61h-151q2 10 2 30q0 74 -55 125q-56 51 -142 51q-86 -1 -162 -65t-76 -160t87 -143q193 -106 224 -122q80 -41 153 -93q34 -27 64 -76t30 -111q0 -104 -67 -193t-154 -142q70 -68 69 -181q0 -182 -138 -295
q-138 -112 -308 -112t-264 97q-92 97 -93 237q0 31 7 65h151q-2 -14 -2 -41z" />
    <glyph glyph-name="dieresis" unicode="&#xa8;" horiz-adv-x="708" 
d="M710 1108q-86 0 -84 83q0 40 34 73q34 32 74 32t63 -22t23 -60q0 -40 -36 -73q-34 -33 -74 -33zM394 1108q-83 0 -83 83q0 40 34 73q34 32 74 32q41 0 63 -22t22 -60q0 -40 -35 -73t-75 -33z" />
    <glyph glyph-name="copyright" unicode="&#xa9;" horiz-adv-x="1769" 
d="M971 324q-156 0 -258 102t-103 258q0 200 152 354t358 154q119 0 207 -56t131 -153l-110 -57q-30 72 -94 114t-148 41q-147 -1 -261 -119t-114 -266q0 -114 73 -188t191 -74q178 0 297 156l86 -58q-74 -94 -184 -151t-223 -57zM895 80q205 0 391 110t299 295
q113 184 113 387q0 242 -157 403t-402 161q-311 0 -556 -241t-245 -554q0 -241 156 -401t401 -160zM1157 1540q287 0 471 -185t184 -460q0 -67 -12 -137q-57 -324 -327 -553t-594 -230q-287 -1 -471 183t-185 467q0 239 133 451q134 212 350 338t451 126z" />
    <glyph glyph-name="ordfeminine" unicode="&#xaa;" horiz-adv-x="919" 
d="M426 1130q0 -198 193 -198q93 0 178 58q104 72 104 224q0 90 -63 138t-163 49q-101 0 -175 -85q-74 -86 -74 -186zM590 817q-131 0 -210 78t-79 207q0 166 119 290t290 124t228 -123l20 106h123l-118 -665h-123l18 106q-96 -123 -268 -123z" />
    <glyph glyph-name="guillemotleft" unicode="&#xab;" horiz-adv-x="931" 
d="M711 106l-189 412l332 408h154l-326 -408l186 -412h-157zM360 106l-188 412l332 408h153l-325 -408l186 -412h-158z" />
    <glyph glyph-name="logicalnot" unicode="&#xac;" horiz-adv-x="1269" 
d="M1040 190l80 449h-905l25 139h1044l-104 -588h-140z" />
    <glyph glyph-name="uni00AD" unicode="&#xad;" horiz-adv-x="1228" 
d="M203 459l24 137h557l-24 -137h-557z" />
    <glyph glyph-name="registered" unicode="&#xae;" horiz-adv-x="1769" 
d="M1008 791q293 0 292 180q0 81 -55 105t-184 24h-164l-53 -309h164zM1085 1204q193 0 263 -51q69 -51 69 -166t-85 -193t-208 -96l164 -393h-141l-158 385h-164l-67 -381h-113l158 895h282zM895 80q205 0 391 110t299 295q113 184 113 387q0 242 -157 403t-402 161
q-311 0 -556 -241t-245 -554q0 -241 156 -401t401 -160zM1157 1540q287 0 471 -185t184 -460q0 -67 -12 -137q-57 -326 -321 -554t-600 -229q-287 -1 -471 183t-185 467q0 237 129 449t345 339t460 127z" />
    <glyph glyph-name="macron" unicode="&#xaf;" horiz-adv-x="897" 
d="M303 1143l25 137h692l-25 -137h-692z" />
    <glyph glyph-name="degree" unicode="&#xb0;" horiz-adv-x="778" 
d="M799 1206q0 68 -48 115t-132 47t-157 -71t-73 -155t47 -129q47 -46 127 -46t158 65q78 66 78 174zM553 860q-127 0 -200 72t-72 184q0 145 107 252q108 106 261 107q113 0 185 -72t71 -195q0 -21 -4 -41q-25 -133 -123 -220t-225 -87z" />
    <glyph glyph-name="plusminus" unicode="&#xb1;" horiz-adv-x="1257" 
d="M113 0l22 139h1032l-22 -139h-1032zM606 276l80 449h-446l24 139h447l80 449h139l-80 -449h446l-24 -139h-447l-80 -449h-139z" />
    <glyph glyph-name="uni00B2" unicode="&#xb2;" horiz-adv-x="786" 
d="M797 1296q0 55 -44 89t-122 34t-132 -56t-73 -151h-123q25 142 124 230t227 88t198 -60q68 -60 68 -161q0 -174 -226 -351l-307 -241h430l-18 -111h-611l17 101l377 301q61 49 99 84t77 92t39 112z" />
    <glyph glyph-name="uni00B3" unicode="&#xb3;" horiz-adv-x="815" 
d="M612 1135q68 0 125 52t58 128q0 109 -123 108q-76 0 -110 -39t-54 -118h-119l4 16q61 248 297 248q109 0 170 -55q62 -55 62 -135t-40 -148q-40 -66 -106 -98q94 -51 94 -179q0 -129 -100 -225t-238 -96t-208 64t-70 176q0 33 6 65h119q-4 -18 -4 -51q0 -72 43 -109
q44 -37 122 -37t140 58t63 151q0 141 -176 142l15 82h30z" />
    <glyph glyph-name="acute" unicode="&#xb4;" horiz-adv-x="679" 
d="M365 1106l-48 108l447 234l47 -121z" />
    <glyph glyph-name="uni00B5" unicode="&#xb5;" horiz-adv-x="1189" 
d="M379 309q0 -102 55 -154q54 -53 200 -53t223 83t106 247l94 541h143l-102 -582q-39 -221 -165 -319t-329 -98t-272 110l-107 -602h-143l262 1491h143l-94 -541q-14 -78 -14 -123z" />
    <glyph glyph-name="paragraph" unicode="&#xb6;" horiz-adv-x="1347" 
d="M360 993q0 -109 70 -191t213 -91l121 694q-186 0 -295 -132t-109 -280zM238 971q0 205 161 375q162 170 406 170h768l-21 -115h-270l-317 -1796h-127l317 1796h-264l-318 -1796h-127l179 999q-195 18 -291 120t-96 247z" />
    <glyph glyph-name="periodcentered" unicode="&#xb7;" horiz-adv-x="598" 
d="M378 428q-40 0 -63 22t-23 62t36 72q35 32 75 32q39 0 61 -22t22 -60t-34 -72t-74 -34z" />
    <glyph glyph-name="cedilla" unicode="&#xb8;" horiz-adv-x="614" 
d="M295 -96q84 0 127 -35t43 -117q0 -119 -78 -178t-159 -59q-179 0 -179 172q0 20 2 32h86v-16q0 -113 99 -113q63 0 103 41t40 107q0 90 -100 90h-158l92 172h94l-55 -96h43z" />
    <glyph glyph-name="uni00B9" unicode="&#xb9;" horiz-adv-x="460" 
d="M342 606l139 799h-153l20 111h277l-160 -910h-123z" />
    <glyph glyph-name="ordmasculine" unicode="&#xba;" horiz-adv-x="917" 
d="M426 1136q0 -98 54 -151t154 -53q102 0 184 83t83 181q0 98 -53 152q-52 54 -154 55q-102 0 -185 -84q-83 -85 -83 -183zM301 1122q0 144 123 270t295 126q137 0 222 -82t85 -207q0 -31 -6 -62q-28 -145 -140 -247t-262 -102t-233 79q-84 81 -84 225z" />
    <glyph glyph-name="guillemotright" unicode="&#xbb;" horiz-adv-x="931" 
d="M451 106l329 412l-182 408h154l188 -408l-332 -412h-157zM100 106l330 412l-182 408h153l189 -408l-332 -412h-158z" />
    <glyph glyph-name="onequarter" unicode="&#xbc;" horiz-adv-x="1507" 
d="M1288 705l-377 -443h299zM1165 0l27 152h-434l16 100l535 637h133l-111 -627h99l-19 -110h-98l-27 -152h-121zM342 606l139 799h-153l20 111h277l-160 -910h-123zM215 0l1098 1516h137l-1098 -1516h-137z" />
    <glyph glyph-name="onehalf" unicode="&#xbd;" horiz-adv-x="1648" 
d="M1522 690q0 55 -44 89t-122 34t-132 -56t-73 -151h-123q25 142 123 230q99 88 225 88t198 -58t71 -164q0 -172 -226 -350l-307 -241h430l-18 -111h-611l17 100l377 301q61 49 99 84t77 93t39 112zM342 606l139 799h-153l20 111h277l-160 -910h-123zM215 0l1098 1516h137
l-1098 -1516h-137z" />
    <glyph glyph-name="threequarters" unicode="&#xbe;" horiz-adv-x="1777" 
d="M1559 705l-377 -443h299zM1436 0l26 152h-434l16 100l535 637h133l-110 -627h98l-19 -110h-98l-27 -152h-120zM485 0l1098 1516h137l-1097 -1516h-138zM612 1135q68 0 125 52t58 128q0 109 -123 108q-76 0 -110 -39t-54 -118h-119l4 16q61 248 297 248q109 0 170 -54
q62 -54 62 -136t-40 -148t-106 -98q94 -51 94 -179q0 -129 -100 -225t-238 -96t-208 64t-70 176q0 33 6 65h119q-4 -18 -4 -51q0 -72 43 -109q44 -37 122 -37t140 58t63 151q0 141 -176 142l15 82h30z" />
    <glyph glyph-name="questiondown" unicode="&#xbf;" horiz-adv-x="1009" 
d="M480 -420q-182 0 -283 93q-103 93 -103 255t92 271q62 75 142 111t158 68q188 78 212 226l25 148h151l-30 -172q-18 -109 -88 -181q-70 -71 -154 -109t-165 -76t-136 -106t-55 -170q0 -103 73 -159q74 -55 196 -55t202 87t104 216h152l-2 -7q-33 -184 -171 -312
t-320 -128zM861 1133q83 0 83 -82q0 -39 -33 -73t-73 -34t-62 22t-22 60t33 73q34 34 74 34z" />
    <glyph glyph-name="Agrave" unicode="&#xc0;" horiz-adv-x="1378" 
d="M930 1343l-463 -821h631zM1208 0l-80 385h-737l-217 -385h-164l850 1516h187l321 -1516h-160zM1114 1661l-385 231l78 111l383 -240z" />
    <glyph glyph-name="Aacute" unicode="&#xc1;" horiz-adv-x="1378" 
d="M930 1343l-463 -821h631zM1208 0l-80 385h-737l-217 -385h-164l850 1516h187l321 -1516h-160zM807 1661l-47 108l446 234l47 -121z" />
    <glyph glyph-name="Acircumflex" unicode="&#xc2;" horiz-adv-x="1378" 
d="M930 1343l-463 -821h631zM1208 0l-80 385h-737l-217 -385h-164l850 1516h187l321 -1516h-160zM1233 1651l-201 260l-297 -260l-76 86l306 274h153l205 -274z" />
    <glyph glyph-name="Atilde" unicode="&#xc3;" horiz-adv-x="1378" 
d="M930 1343l-463 -821h631zM1208 0l-80 385h-737l-217 -385h-164l850 1516h187l321 -1516h-160zM1124 1651q-59 0 -147 42q-89 42 -143 42t-129 -62l-68 101q109 88 235 88q62 0 148 -42t127 -42q72 0 151 67l58 -98q-104 -96 -232 -96z" />
    <glyph glyph-name="Adieresis" unicode="&#xc4;" horiz-adv-x="1378" 
d="M930 1343l-463 -821h631zM1208 0l-80 385h-737l-217 -385h-164l850 1516h187l321 -1516h-160zM1196 1704q-43 0 -67 24q-23 24 -23 66q0 43 37 79t80 36t67 -25q24 -24 25 -66q0 -42 -38 -78t-81 -36zM815 1704q-90 0 -90 89q0 44 37 80t80 36q44 0 68 -25q24 -24 24 -66
t-38 -78t-81 -36z" />
    <glyph glyph-name="Aring" unicode="&#xc5;" horiz-adv-x="1378" 
d="M930 1343l-463 -821h631zM1208 0l-80 385h-737l-217 -385h-164l850 1516h187l321 -1516h-160zM891 1759q1 -43 25 -67t68 -25q44 0 83 38t39 81q0 44 -25 68t-69 24t-82 -38q-39 -38 -39 -81zM1025 1985q89 1 139 -49t50 -140t-74 -163t-164 -73q-91 0 -142 50
q-52 49 -52 141t77 163t166 71z" />
    <glyph glyph-name="AE" unicode="&#xc6;" horiz-adv-x="1933" 
d="M1241 1315l-627 -774h490zM1010 0l69 403h-575l-322 -403h-172l1223 1516h854l-25 -138h-659l-90 -518h575l-24 -137h-576l-104 -586h659l-22 -137h-811z" />
    <glyph glyph-name="Ccedilla" unicode="&#xc7;" horiz-adv-x="1470" 
d="M1128 1540q338 0 531 -237l-146 -72q-150 172 -403 172q-292 1 -528 -233t-236 -521q0 -227 155 -383t389 -156t449 175l101 -86q-274 -225 -584 -226l-39 -69h43q84 0 127 -35t43 -117q0 -119 -78 -178t-159 -59q-177 0 -179 172q0 20 2 32h86v-16q0 -113 99 -113
q63 0 103 41t40 107q0 90 -100 90h-158l80 152q-258 30 -416 206t-158 428t130 464q129 212 346 337t460 125z" />
    <glyph glyph-name="Egrave" unicode="&#xc8;" horiz-adv-x="1107" 
d="M184 0l267 1516h811l-25 -138h-659l-91 -518h576l-25 -137h-575l-105 -586h660l-23 -137h-811zM1022 1661l-385 231l78 111l383 -240z" />
    <glyph glyph-name="Eacute" unicode="&#xc9;" horiz-adv-x="1107" 
d="M184 0l267 1516h811l-25 -138h-659l-91 -518h576l-25 -137h-575l-105 -586h660l-23 -137h-811zM752 1661l-47 108l446 234l47 -121z" />
    <glyph glyph-name="Ecircumflex" unicode="&#xca;" horiz-adv-x="1107" 
d="M184 0l267 1516h811l-25 -138h-659l-91 -518h576l-25 -137h-575l-105 -586h660l-23 -137h-811zM1149 1651l-201 260l-297 -260l-76 86l306 274h153l205 -274z" />
    <glyph glyph-name="Edieresis" unicode="&#xcb;" horiz-adv-x="1107" 
d="M184 0l267 1516h811l-25 -138h-659l-91 -518h576l-25 -137h-575l-105 -586h660l-23 -137h-811zM1089 1704q-43 0 -67 24t-23 66q0 43 37 79t80 36t68 -25q24 -24 24 -66t-38 -78t-81 -36zM708 1704q-90 0 -90 89q0 44 37 80t80 36t68 -25q25 -24 25 -66t-39 -78
q-38 -36 -81 -36z" />
    <glyph glyph-name="Igrave" unicode="&#xcc;" horiz-adv-x="520" 
d="M184 0l267 1516h151l-266 -1516h-152zM696 1661l-385 231l78 111l383 -240z" />
    <glyph glyph-name="Iacute" unicode="&#xcd;" horiz-adv-x="520" 
d="M184 0l267 1516h151l-266 -1516h-152zM379 1661l-47 108l446 234l47 -121z" />
    <glyph glyph-name="Icircumflex" unicode="&#xce;" horiz-adv-x="520" 
d="M184 0l267 1516h151l-266 -1516h-152zM801 1651l-201 260l-297 -260l-76 86l305 274h154l205 -274z" />
    <glyph glyph-name="Idieresis" unicode="&#xcf;" horiz-adv-x="520" 
d="M184 0l267 1516h151l-266 -1516h-152zM739 1704q-43 0 -67 24t-23 66q0 43 37 79t81 36t68 -25q23 -24 23 -66t-38 -78t-81 -36zM358 1704q-90 0 -90 89q0 44 37 80t80 36t68 -25q25 -24 25 -66t-39 -78q-38 -36 -81 -36z" />
    <glyph glyph-name="Eth" unicode="&#xd0;" horiz-adv-x="1470" 
d="M592 137q209 0 388 81t295 249t116 391q0 520 -629 520h-184l-95 -530h430l-22 -137h-432l-101 -574h234zM858 1516q306 0 496 -165t190 -468q0 -258 -135 -464q-135 -207 -347 -313t-454 -106h-424l125 711h-151l22 137h154l117 668h407z" />
    <glyph glyph-name="Ntilde" unicode="&#xd1;" horiz-adv-x="1669" 
d="M1333 0l-764 1331l-233 -1331h-152l267 1516h204l723 -1254l221 1254h152l-266 -1516h-152zM1290 1698q-59 0 -147 42q-89 42 -143 42t-130 -62l-67 101q109 88 235 88q62 0 148 -42t127 -42q72 0 151 67l58 -98q-104 -96 -232 -96z" />
    <glyph glyph-name="Ograve" unicode="&#xd2;" horiz-adv-x="1726" 
d="M881 111q197 0 373 104q176 105 285 281q108 176 108 388q1 212 -147 367q-148 154 -390 154q-306 -1 -536 -235t-230 -527q0 -229 148 -381t389 -151zM193 621q-1 239 125 451t344 341t471 129q291 0 479 -182t188 -463q0 -69 -12 -139q-54 -324 -326 -554t-606 -231
q-293 -1 -478 181t-185 467zM1264 1661l-385 231l77 111l383 -240z" />
    <glyph glyph-name="Oacute" unicode="&#xd3;" horiz-adv-x="1726" 
d="M881 111q197 0 373 104q176 105 285 281q108 176 108 388q1 212 -147 367q-148 154 -390 154q-306 -1 -536 -235t-230 -527q0 -229 148 -381t389 -151zM193 621q-1 239 125 451t344 341t471 129q291 0 479 -182t188 -463q0 -69 -12 -139q-54 -324 -326 -554t-606 -231
q-293 -1 -478 181t-185 467zM1022 1661l-47 108l446 234l47 -121z" />
    <glyph glyph-name="Ocircumflex" unicode="&#xd4;" horiz-adv-x="1726" 
d="M881 111q197 0 373 104q176 105 285 281q108 176 108 388q1 212 -147 367q-148 154 -390 154q-306 -1 -536 -235t-230 -527q0 -229 148 -381t389 -151zM193 621q-1 239 125 451t344 341t471 129q291 0 479 -182t188 -463q0 -69 -12 -139q-54 -324 -326 -554t-606 -231
q-293 -1 -478 181t-185 467zM1399 1651l-201 260l-297 -260l-76 86l305 274h154l205 -274z" />
    <glyph glyph-name="Otilde" unicode="&#xd5;" horiz-adv-x="1726" 
d="M881 111q197 0 373 104q176 105 285 281q108 176 108 388q1 212 -147 367q-148 154 -390 154q-306 -1 -536 -235t-230 -527q0 -229 148 -381t389 -151zM193 621q-1 239 125 451t344 341t471 129q291 0 479 -182t188 -463q0 -69 -12 -139q-54 -324 -326 -554t-606 -231
q-293 -1 -478 181t-185 467zM1339 1698q-59 0 -147 42t-142 42t-130 -62l-68 101q109 88 235 88q61 0 147 -42t128 -42q72 0 151 67l58 -98q-104 -96 -232 -96z" />
    <glyph glyph-name="Odieresis" unicode="&#xd6;" horiz-adv-x="1726" 
d="M881 111q197 0 373 104q176 105 285 281q108 176 108 388q1 212 -147 367q-148 154 -390 154q-306 -1 -536 -235t-230 -527q0 -229 148 -381t389 -151zM193 621q-1 239 125 451t344 341t471 129q291 0 479 -182t188 -463q0 -69 -12 -139q-54 -324 -326 -554t-606 -231
q-293 -1 -478 181t-185 467zM1343 1704q-43 0 -67 24t-23 66q0 43 37 79t80 36t68 -25q24 -24 24 -66t-38 -78t-81 -36zM962 1704q-90 0 -90 89q0 44 37 80t80 36t68 -25q25 -24 25 -66t-39 -78q-38 -36 -81 -36z" />
    <glyph glyph-name="multiply" unicode="&#xd7;" horiz-adv-x="1165" 
d="M995 233l-305 373l-438 -373l-82 99l438 373l-305 368l115 98l307 -368l432 368l82 -98l-434 -368l305 -373z" />
    <glyph glyph-name="Oslash" unicode="&#xd8;" horiz-adv-x="1726" 
d="M881 111q301 0 533 228q232 229 232 515t-194 438l-819 -1128q111 -53 248 -53zM344 641q0 -268 195 -420l817 1131q-111 53 -248 53q-272 1 -488 -189t-266 -462q-10 -51 -10 -113zM1130 1542q172 0 314 -67l92 127l102 -52l-96 -133q258 -182 258 -524
q0 -244 -130 -457t-348 -338t-464 -125q-170 0 -315 68l-92 -125l-97 49l95 131q-258 184 -259 522q0 242 127 455t345 341t468 128z" />
    <glyph glyph-name="Ugrave" unicode="&#xd9;" horiz-adv-x="1622" 
d="M422 537q0 -207 108 -317t297 -109q227 0 390 152q162 153 210 427l146 826h151l-149 -846q-59 -332 -270 -514t-500 -183q-248 1 -394 137t-147 388q0 74 17 172l149 846h152l-146 -826q-14 -78 -14 -153zM1237 1661l-385 231l78 111l383 -240z" />
    <glyph glyph-name="Uacute" unicode="&#xda;" horiz-adv-x="1622" 
d="M422 537q0 -207 108 -317t297 -109q227 0 390 152q162 153 210 427l146 826h151l-149 -846q-59 -332 -270 -514t-500 -183q-248 1 -394 137t-147 388q0 74 17 172l149 846h152l-146 -826q-14 -78 -14 -153zM975 1661l-47 108l446 234l47 -121z" />
    <glyph glyph-name="Ucircumflex" unicode="&#xdb;" horiz-adv-x="1622" 
d="M422 537q0 -207 108 -317t297 -109q227 0 390 152q162 153 210 427l146 826h151l-149 -846q-59 -332 -270 -514t-500 -183q-248 1 -394 137t-147 388q0 74 17 172l149 846h152l-146 -826q-14 -78 -14 -153zM1348 1651l-201 260l-297 -260l-76 86l305 274h154l205 -274z
" />
    <glyph glyph-name="Udieresis" unicode="&#xdc;" horiz-adv-x="1622" 
d="M422 537q0 -207 108 -317t297 -109q227 0 390 152q162 153 210 427l146 826h151l-149 -846q-59 -332 -270 -514t-500 -183q-248 1 -394 137t-147 388q0 74 17 172l149 846h152l-146 -826q-14 -78 -14 -153zM1288 1704q-42 0 -66 24t-24 66q0 43 37 79t81 36t68 -25
q24 -24 23 -66q0 -42 -38 -78t-81 -36zM907 1704q-90 0 -90 89q0 44 37 80t80 36q44 0 68 -25q24 -24 24 -66t-38 -78t-81 -36z" />
    <glyph glyph-name="Yacute" unicode="&#xdd;" horiz-adv-x="1251" 
d="M547 0l121 694l-381 822h172l315 -662l557 662h166l-678 -822l-121 -694h-151zM805 1661l-47 108l446 234l47 -121z" />
    <glyph glyph-name="Thorn" unicode="&#xde;" horiz-adv-x="1202" 
d="M637 422q240 0 377 123q106 97 104 270q0 139 -82 209t-280 70h-228l-118 -672h227zM786 1231q228 0 358 -88t130 -305q0 -266 -188 -410t-465 -143h-236l-49 -285h-152l267 1516h151l-51 -285h235z" />
    <glyph glyph-name="germandbls" unicode="&#xdf;" horiz-adv-x="1191" 
d="M674 127q170 0 268 111q98 110 98 240t-76 198q-77 68 -219 67h-149l20 127h197q92 0 164 92t72 198q-1 106 -55 166t-150 60q-178 0 -257 -130q-71 -115 -98 -277l-172 -979h-143l176 999q43 250 168 383q126 134 310 134t276 -85t92 -221t-67 -244q-67 -110 -144 -149
q197 -82 197 -309q0 -200 -144 -354t-364 -154h-209l20 127h189z" />
    <glyph glyph-name="agrave" unicode="&#xe0;" 
d="M618 102q184 0 316 134t133 313q0 137 -84 225t-225 88q-180 0 -314 -134t-135 -318q0 -140 84 -224t225 -84zM600 -27q-196 0 -314 116t-118 306q0 244 181 420t430 176t345 -194l31 176h143l-170 -973h-143l29 166q-164 -193 -414 -193zM952 1116l-385 234l78 110
l383 -241z" />
    <glyph glyph-name="aacute" unicode="&#xe1;" 
d="M618 102q184 0 316 134t133 313q0 137 -84 225t-225 88q-180 0 -314 -134t-135 -318q0 -140 84 -224t225 -84zM600 -27q-196 0 -314 116t-118 306q0 244 181 420t430 176t345 -194l31 176h143l-170 -973h-143l29 166q-164 -193 -414 -193zM696 1106l-47 108l447 234
l47 -121z" />
    <glyph glyph-name="acircumflex" unicode="&#xe2;" 
d="M618 102q184 0 316 134t133 313q0 137 -84 225t-225 88q-180 0 -314 -134t-135 -318q0 -140 84 -224t225 -84zM600 -27q-196 0 -314 116t-118 306q0 244 181 420t430 176t345 -194l31 176h143l-170 -973h-143l29 166q-164 -193 -414 -193zM1040 1108l-200 260l-297 -260
l-76 86l305 274h154l204 -274z" />
    <glyph glyph-name="atilde" unicode="&#xe3;" 
d="M618 102q184 0 316 134t133 313q0 137 -84 225t-225 88q-180 0 -314 -134t-135 -318q0 -140 84 -224t225 -84zM600 -27q-196 0 -314 116t-118 306q0 244 181 420t430 176t345 -194l31 176h143l-170 -973h-143l29 166q-164 -193 -414 -193zM670 1253q-54 0 -129 -61
l-68 100q109 88 236 88q61 0 147 -42t127 -42q72 0 152 68l57 -98q-104 -96 -231 -97q-59 0 -147 42q-90 42 -144 42z" />
    <glyph glyph-name="adieresis" unicode="&#xe4;" 
d="M618 102q184 0 316 134t133 313q0 137 -84 225t-225 88q-180 0 -314 -134t-135 -318q0 -140 84 -224t225 -84zM600 -27q-196 0 -314 116t-118 306q0 244 181 420t430 176t345 -194l31 176h143l-170 -973h-143l29 166q-164 -193 -414 -193zM1110 1289q0 -41 -38 -77
t-81 -36t-67 24t-23 66q0 43 37 79q37 35 80 35q44 0 68 -24t24 -67zM610 1176q-90 0 -90 89q0 44 37 80q37 35 80 35t68 -24t25 -67q0 -41 -39 -77q-38 -36 -81 -36z" />
    <glyph glyph-name="aring" unicode="&#xe5;" 
d="M618 102q184 0 316 134t133 313q0 137 -84 225t-225 88q-180 0 -314 -134t-135 -318q0 -140 84 -224t225 -84zM600 -27q-196 0 -314 116t-118 306q0 244 181 420t430 176t345 -194l31 176h143l-170 -973h-143l29 166q-164 -193 -414 -193zM727 1276q1 -44 25 -68t68 -24
t83 38t39 81t-24 67t-69 25q-44 0 -83 -38t-39 -81zM1051 1313q0 -90 -74 -163t-165 -73t-142 49q-52 49 -52 141q0 91 77 163t166 72t139 -50q50 -49 51 -139z" />
    <glyph glyph-name="ae" unicode="&#xe6;" horiz-adv-x="2062" 
d="M1929 557q0 131 -79 218t-215 87q-135 0 -247 -87t-161 -218h702zM618 102q184 0 316 134t133 313q0 135 -82 224t-225 89q-182 0 -316 -134t-133 -318q0 -140 82 -224t225 -84zM1202 428q0 -145 80 -235t223 -91q91 0 181 43t151 115l92 -76q-88 -98 -205 -154t-239 -57
q-213 0 -336 152l-21 -125h-143l29 166q-164 -193 -414 -193q-192 0 -312 115t-120 307q0 240 179 418t430 178t347 -194l31 176h143l-22 -133q172 152 368 152t313 -122q116 -121 116 -299q0 -49 -9 -90l-10 -53h-852z" />
    <glyph glyph-name="ccedilla" unicode="&#xe7;" horiz-adv-x="1083" 
d="M168 395q0 233 180 415t420 181q139 0 241 -66q101 -67 152 -180l-129 -65q-35 82 -110 132q-76 50 -174 50q-170 0 -304 -138t-133 -312q0 -134 85 -222q84 -88 204 -88q227 0 367 183l102 -66q-86 -111 -209 -177t-256 -69l-39 -69h43q84 0 127 -35t43 -117
q0 -119 -78 -178t-159 -59q-177 0 -179 172q0 20 3 32h86v-16q0 -113 98 -113q63 0 103 41t40 107q0 90 -100 90h-158l80 152q-158 30 -252 142t-94 273z" />
    <glyph glyph-name="egrave" unicode="&#xe8;" horiz-adv-x="1171" 
d="M1038 557q0 131 -79 218t-215 87t-248 -87t-160 -218h702zM311 428q0 -145 80 -235t219 -91q199 0 336 158l92 -76q-88 -98 -204 -154t-240 -57q-186 0 -306 120t-120 304q0 229 175 411t417 183q190 0 306 -121t116 -297q0 -51 -8 -92l-11 -53h-852zM942 1118l-385 232
l78 110l383 -239z" />
    <glyph glyph-name="eacute" unicode="&#xe9;" horiz-adv-x="1171" 
d="M1038 557q0 131 -79 218t-215 87t-248 -87t-160 -218h702zM311 428q0 -145 80 -235t219 -91q199 0 336 158l92 -76q-88 -98 -204 -154t-240 -57q-186 0 -306 120t-120 304q0 229 175 411t417 183q190 0 306 -121t116 -297q0 -51 -8 -92l-11 -53h-852zM631 1116l-47 109
l446 233l47 -121z" />
    <glyph glyph-name="ecircumflex" unicode="&#xea;" horiz-adv-x="1171" 
d="M1038 557q0 131 -79 218t-215 87t-248 -87t-160 -218h702zM311 428q0 -145 80 -235t219 -91q199 0 336 158l92 -76q-88 -98 -204 -154t-240 -57q-186 0 -306 120t-120 304q0 229 175 411t417 183q190 0 306 -121t116 -297q0 -51 -8 -92l-11 -53h-852zM1034 1108l-200 260
l-297 -260l-76 86l305 274h154l204 -274z" />
    <glyph glyph-name="edieresis" unicode="&#xeb;" horiz-adv-x="1171" 
d="M1038 557q0 131 -79 218t-215 87t-248 -87t-160 -218h702zM311 428q0 -145 80 -235t219 -91q199 0 336 158l92 -76q-88 -98 -204 -154t-240 -57q-186 0 -306 120t-120 304q0 229 175 411t417 183q190 0 306 -121t116 -297q0 -51 -8 -92l-11 -53h-852zM1110 1289
q0 -41 -38 -77t-81 -36t-67 24t-23 66q0 43 37 79q37 35 80 35q44 0 68 -24t24 -67zM610 1176q-90 0 -90 89q0 44 37 80q37 35 80 35t68 -24t25 -67q0 -41 -39 -77q-38 -36 -81 -36z" />
    <glyph glyph-name="igrave" unicode="&#xec;" horiz-adv-x="491" 
d="M174 0l170 973h143l-170 -973h-143zM618 1118l-385 232l78 110l383 -239z" />
    <glyph glyph-name="iacute" unicode="&#xed;" horiz-adv-x="491" 
d="M174 0l170 973h143l-170 -973h-143zM281 1116l-48 109l447 233l47 -121z" />
    <glyph glyph-name="icircumflex" unicode="&#xee;" horiz-adv-x="491" 
d="M174 0l170 973h143l-170 -973h-143zM688 1108l-201 260l-297 -260l-75 86l305 274h153l205 -274z" />
    <glyph glyph-name="idieresis" unicode="&#xef;" horiz-adv-x="491" 
d="M174 0l170 973h143l-170 -973h-143zM764 1289q0 -41 -38 -77t-81 -36t-67 24t-23 66q0 43 37 79q37 35 81 35q43 0 67 -24t24 -67zM264 1176q-90 0 -90 89q0 44 37 80q37 35 80 35t67 -24t25 -67q0 -41 -38 -77t-81 -36z" />
    <glyph glyph-name="eth" unicode="&#xf0;" horiz-adv-x="1198" 
d="M616 102q176 0 308 138t131 313q0 133 -85 221t-220 88q-174 0 -306 -139t-133 -311q0 -134 85 -222t220 -88zM1214 682q0 -160 -46 -287t-116 -204t-158 -128q-153 -88 -320 -89q-168 -1 -287 120t-119 303q0 227 178 411t422 183q188 0 291 -123q-76 233 -287 385
l-178 -123l-57 82l147 101q-86 51 -225 114l112 91q121 -43 238 -117l195 133l53 -84l-160 -111q317 -260 317 -657z" />
    <glyph glyph-name="ntilde" unicode="&#xf1;" horiz-adv-x="1183" 
d="M987 631q0 231 -225 231q-295 0 -363 -393l-82 -469h-143l170 973h143l-24 -137q137 156 338 155q162 0 249 -81t87 -242q0 -59 -13 -127l-94 -541h-143l88 500q12 70 12 131zM638 1253q-54 0 -130 -61l-68 100q109 88 236 88q61 0 147 -42t127 -42q72 0 152 68l57 -98
q-104 -96 -231 -97q-60 0 -148 42t-142 42z" />
    <glyph glyph-name="ograve" unicode="&#xf2;" horiz-adv-x="1198" 
d="M616 102q176 0 308 138t131 313q0 133 -85 221t-220 88q-174 0 -306 -139t-133 -311q0 -134 85 -222t220 -88zM168 397q0 231 180 413t416 181q190 0 312 -122t122 -294q0 -268 -216 -453q-174 -148 -374 -148t-320 119q-120 120 -120 304zM924 1116l-385 232l77 110
l383 -239z" />
    <glyph glyph-name="oacute" unicode="&#xf3;" horiz-adv-x="1198" 
d="M616 102q176 0 308 138t131 313q0 133 -85 221t-220 88q-174 0 -306 -139t-133 -311q0 -134 85 -222t220 -88zM168 397q0 231 180 413t416 181q190 0 312 -122t122 -294q0 -268 -216 -453q-174 -148 -374 -148t-320 119q-120 120 -120 304zM643 1116l-47 109l446 233
l48 -121z" />
    <glyph glyph-name="ocircumflex" unicode="&#xf4;" horiz-adv-x="1198" 
d="M616 102q176 0 308 138t131 313q0 133 -85 221t-220 88q-174 0 -306 -139t-133 -311q0 -134 85 -222t220 -88zM168 397q0 231 180 413t416 181q190 0 312 -122t122 -294q0 -268 -216 -453q-174 -148 -374 -148t-320 119q-120 120 -120 304zM1040 1108l-200 260l-297 -260
l-76 86l305 274h154l204 -274z" />
    <glyph glyph-name="otilde" unicode="&#xf5;" horiz-adv-x="1198" 
d="M616 102q176 0 308 138t131 313q0 133 -85 221t-220 88q-174 0 -306 -139t-133 -311q0 -134 85 -222t220 -88zM168 397q0 231 180 413t416 181q190 0 312 -122t122 -294q0 -268 -216 -453q-174 -148 -374 -148t-320 119q-120 120 -120 304zM642 1253q-54 0 -130 -61
l-68 100q109 88 236 88q61 0 147 -42t127 -42q72 0 152 68l57 -98q-104 -96 -231 -97q-60 0 -148 42t-142 42z" />
    <glyph glyph-name="odieresis" unicode="&#xf6;" horiz-adv-x="1198" 
d="M616 102q176 0 308 138t131 313q0 133 -85 221t-220 88q-174 0 -306 -139t-133 -311q0 -134 85 -222t220 -88zM168 397q0 231 180 413t416 181q190 0 312 -122t122 -294q0 -268 -216 -453q-174 -148 -374 -148t-320 119q-120 120 -120 304zM997 1176q-43 0 -67 24t-23 66
q0 43 37 79q37 35 81 35t68 -24q23 -24 23 -67q0 -41 -38 -77t-81 -36zM616 1176q-90 0 -90 89q0 44 37 80q37 35 80 35t68 -24t25 -67q0 -41 -39 -77q-38 -36 -81 -36z" />
    <glyph glyph-name="divide" unicode="&#xf7;" horiz-adv-x="1236" 
d="M658 233q-40 0 -62 28t-14 67q6 38 38 66t72 28t62 -27q24 -27 16 -67t-40 -68q-32 -27 -72 -27zM215 639l25 139h1032l-25 -139h-1032zM794 995q-40 0 -63 27t-16 68q8 42 40 68q31 26 71 26t63 -28t15 -66t-38 -67q-32 -28 -72 -28z" />
    <glyph glyph-name="oslash" unicode="&#xf8;" horiz-adv-x="1198" 
d="M614 102q180 0 310 140t131 305q0 166 -119 256l-418 -686q43 -15 96 -15zM311 408q0 -158 117 -246l416 686q-51 14 -99 14q-149 0 -275 -114q-158 -144 -159 -340zM168 391q0 233 178 417t422 183q80 0 150 -24l98 163l92 -43l-100 -163q90 -58 140 -152t50 -211
q0 -231 -182 -409t-424 -179q-76 0 -148 25l-94 -160l-92 41l96 160q-186 119 -186 352z" />
    <glyph glyph-name="ugrave" unicode="&#xf9;" horiz-adv-x="1175" 
d="M215 270q0 57 12 121l103 582h143l-94 -541q-14 -86 -14 -131q0 -102 54 -150q53 -49 199 -49t224 83t106 247l94 541h144l-103 -582q-39 -221 -165 -319t-336 -99q-367 0 -367 297zM911 1116l-385 234l78 110l383 -241z" />
    <glyph glyph-name="uacute" unicode="&#xfa;" horiz-adv-x="1175" 
d="M215 270q0 57 12 121l103 582h143l-94 -541q-14 -86 -14 -131q0 -102 54 -150q53 -49 199 -49t224 83t106 247l94 541h144l-103 -582q-39 -221 -165 -319t-336 -99q-367 0 -367 297zM647 1116l-47 109l447 233l47 -121z" />
    <glyph glyph-name="ucircumflex" unicode="&#xfb;" horiz-adv-x="1175" 
d="M215 270q0 57 12 121l103 582h143l-94 -541q-14 -86 -14 -131q0 -102 54 -150q53 -49 199 -49t224 83t106 247l94 541h144l-103 -582q-39 -221 -165 -319t-336 -99q-367 0 -367 297zM1030 1108l-201 260l-297 -260l-75 86l305 274h153l205 -274z" />
    <glyph glyph-name="udieresis" unicode="&#xfc;" horiz-adv-x="1175" 
d="M215 270q0 57 12 121l103 582h143l-94 -541q-14 -86 -14 -131q0 -102 54 -150q53 -49 199 -49t224 83t106 247l94 541h144l-103 -582q-39 -221 -165 -319t-336 -99q-367 0 -367 297zM1106 1289q0 -41 -38 -77t-81 -36t-67 24t-23 66q0 43 37 79q37 35 80 35q44 0 68 -24
t24 -67zM606 1176q-90 0 -90 89q0 44 37 80q37 35 80 35t67 -24t25 -67q0 -41 -38 -77t-81 -36z" />
    <glyph glyph-name="yacute" unicode="&#xfd;" horiz-adv-x="935" 
d="M139 -518l273 508l-222 983h148l174 -789l422 789h151l-800 -1491h-146zM569 1116l-47 109l447 233l47 -121z" />
    <glyph glyph-name="thorn" unicode="&#xfe;" 
d="M711 102q180 0 314 132t134 315q0 137 -82 225t-223 88q-180 0 -315 -134t-136 -316q0 -137 84 -224q85 -86 224 -86zM1303 565q-1 -242 -179 -417t-430 -175t-348 193l-121 -684h-143l358 2034h144l-127 -719q164 195 413 194q197 0 315 -118t118 -308z" />
    <glyph glyph-name="ydieresis" unicode="&#xff;" horiz-adv-x="935" 
d="M139 -518l273 508l-222 983h148l174 -789l422 789h151l-800 -1491h-146zM1004 1289q0 -41 -38 -77t-81 -36t-67 24t-24 66q0 43 37 79q37 35 81 35t68 -24t24 -67zM504 1176q-92 0 -90 89q0 44 37 80q37 35 80 35t67 -24t25 -67q0 -41 -38 -77t-81 -36z" />
    <glyph glyph-name="dotlessi" unicode="&#x131;" horiz-adv-x="491" 
d="M174 0l170 973h143l-170 -973h-143z" />
    <glyph glyph-name="Ldot" unicode="&#x13f;" horiz-adv-x="1099" 
d="M952 854q40 0 61 -22t21 -60t-34 -72t-73 -34q-40 0 -63 22q-22 22 -22 60q0 40 35 73t75 33zM184 0l267 1516h151l-244 -1379h723l-22 -137h-875z" />
    <glyph glyph-name="ldot" unicode="&#x140;" horiz-adv-x="624" 
d="M669 608q-40 0 -63 22q-22 22 -22 62t34 72q35 33 75 33t62 -22q21 -23 21 -61t-34 -72t-73 -34zM209 164q0 33 6 72l225 1280h144l-213 -1213q-11 -61 -11 -105q-1 -94 109 -94q35 0 59 5l-22 -121q-51 -14 -123 -14t-123 48t-51 142z" />
    <glyph glyph-name="Lslash" unicode="&#x141;" horiz-adv-x="1099" 
d="M184 0l95 539l-181 -115l29 158l178 114l146 820h151l-125 -711l354 229l-28 -157l-354 -230l-91 -510h723l-22 -137h-875z" />
    <glyph glyph-name="lslash" unicode="&#x142;" horiz-adv-x="528" 
d="M209 164q0 33 6 72l61 348l-161 -107l24 146l162 104l139 789h144l-121 -685l176 113l-27 -143l-174 -113l-67 -385q-11 -61 -11 -105q-1 -94 109 -94q35 0 59 5l-22 -121q-51 -14 -124 -14t-123 48q-50 50 -50 142z" />
    <glyph glyph-name="OE" unicode="&#x152;" horiz-adv-x="2426" 
d="M881 111q197 0 373 104q176 105 285 281q108 176 108 388q1 212 -147 367q-148 154 -390 154q-306 -1 -536 -235t-230 -527q0 -229 148 -381t389 -151zM858 -27q-291 1 -478 181t-187 467q0 178 74 347q154 347 500 497q175 77 369 77t346 -85t236 -232l51 291h811
l-24 -138h-660l-90 -518h576l-25 -137h-575l-105 -586h660l-23 -137h-811l51 291q-135 -147 -318 -233t-378 -85z" />
    <glyph glyph-name="oe" unicode="&#x153;" horiz-adv-x="2045" 
d="M1913 557q0 131 -79 218t-215 87t-248 -87t-161 -218h703zM612 102q172 0 308 134t135 313q0 137 -85 225t-220 88q-172 0 -306 -139t-133 -311q0 -130 83 -220t218 -90zM1186 428q0 -145 80 -235t223 -91q90 0 180 43t152 115l92 -76q-88 -98 -205 -154t-247 -56
t-234 68q-104 69 -154 183q-88 -115 -216 -183t-263 -69q-184 0 -306 120t-122 304q0 233 183 413t419 181q139 0 244 -68q104 -69 151 -186q86 115 213 185t264 69q184 0 300 -121t116 -299q0 -49 -8 -90l-10 -53h-852z" />
    <glyph glyph-name="Scaron" unicode="&#x160;" horiz-adv-x="1083" 
d="M541 111q145 0 265 102t120 238q0 88 -62 145t-148 91q-87 34 -175 73t-150 116q-61 78 -61 194t54 220t178 178t296 74q229 0 359 -143l-113 -109q-112 115 -268 115t-252 -87q-96 -86 -96 -192t60 -163q62 -57 149 -91t175 -72t150 -116t61 -195q0 -211 -170 -363
t-383 -153q-145 0 -265 73t-167 173l117 117q125 -225 326 -225zM655 2011l201 -260l297 260l76 -86l-305 -274h-154l-205 274z" />
    <glyph glyph-name="scaron" unicode="&#x161;" horiz-adv-x="868" 
d="M238 655q0 139 109 238q110 98 277 98t285 -96l-96 -113q-84 80 -213 80q-88 0 -149 -50t-61 -110t45 -92q46 -31 112 -48q65 -17 131 -40t112 -77t46 -142q0 -147 -116 -238t-304 -91t-320 116l101 113q111 -100 256 -101q100 0 168 45q67 45 67 111t-46 100
q-46 32 -113 50t-133 38t-112 72t-46 137zM449 1468l200 -260l297 260l76 -86l-305 -274h-154l-205 274z" />
    <glyph glyph-name="Ydieresis" unicode="&#x178;" horiz-adv-x="1251" 
d="M547 0l121 694l-381 822h172l315 -662l557 662h166l-678 -822l-121 -694h-151zM1106 1704q-43 0 -67 24q-23 24 -23 66q0 43 37 79t80 36t67 -25q24 -24 25 -66q0 -42 -38 -78t-81 -36zM725 1704q-93 0 -91 89q0 44 38 80q37 36 80 36q44 0 68 -25q24 -24 24 -66t-38 -78
t-81 -36z" />
    <glyph glyph-name="Zcaron" unicode="&#x17d;" horiz-adv-x="1327" 
d="M82 0l22 137l1168 1241h-926l25 138h1118l-25 -138l-1165 -1241h948l-22 -137h-1143zM768 2011l201 -260l297 260l75 -86l-305 -274h-153l-205 274z" />
    <glyph glyph-name="zcaron" unicode="&#x17e;" horiz-adv-x="964" 
d="M102 0l21 125l700 719h-573l22 129h760l-22 -129l-693 -715h568l-23 -129h-760zM492 1468l200 -260l297 260l76 -86l-305 -274h-154l-205 274z" />
    <glyph glyph-name="florin" unicode="&#x192;" horiz-adv-x="561" 
d="M-33 -217q78 4 125 41t64 133l155 887h-123l23 129h123l20 114q33 183 132 271t296 90l-22 -131q-123 -4 -180 -54t-82 -182l-21 -108h203l-23 -129h-202l-154 -873q-27 -153 -116 -235t-240 -84z" />
    <glyph glyph-name="circumflex" unicode="&#x2c6;" horiz-adv-x="860" 
d="M872 1108l-200 260l-297 -260l-64 80l312 280h135l209 -280z" />
    <glyph glyph-name="caron" unicode="&#x2c7;" horiz-adv-x="860" 
d="M555 1108l-209 281l94 79l201 -260l297 260l63 -79l-311 -281h-135z" />
    <glyph glyph-name="breve" unicode="&#x2d8;" horiz-adv-x="927" 
d="M648 1108q-108 0 -169 50q-59 50 -59 124q0 12 4 37h106q-2 -6 -2 -19q0 -86 129 -86q72 0 115 29t51 76h107q-16 -91 -95 -151t-187 -60z" />
    <glyph glyph-name="dotaccent" unicode="&#x2d9;" horiz-adv-x="393" 
d="M394 1108q-83 0 -83 83q0 40 34 73q34 32 74 32q41 0 63 -22t22 -60q0 -40 -35 -73t-75 -33z" />
    <glyph glyph-name="ring" unicode="&#x2da;" horiz-adv-x="628" 
d="M422 1216q0 -44 24 -68t69 -24q44 0 83 38t39 81t-25 68q-24 25 -68 25t-83 -39q-39 -38 -39 -81zM745 1254q1 -90 -73 -163t-165 -73t-142 49t-51 141t76 163q77 71 166 71t139 -49t50 -139z" />
    <glyph glyph-name="ogonek" unicode="&#x2db;" horiz-adv-x="507" 
d="M232 -387q-64 0 -115 40t-51 118q0 129 96 229h100q-90 -98 -90 -184q0 -45 26 -80t74 -35t82 10l-16 -84q-42 -14 -106 -14z" />
    <glyph glyph-name="tilde" unicode="&#x2dc;" horiz-adv-x="925" 
d="M805 1108q-59 0 -147 42t-144 42q-54 0 -129 -62l-68 91q121 98 236 98q61 0 147 -42t127 -42q72 0 152 68l57 -86q-119 -109 -231 -109z" />
    <glyph glyph-name="hungarumlaut" unicode="&#x2dd;" horiz-adv-x="976" 
d="M733 1106l-61 94l381 277l65 -95zM375 1106l-62 94l379 277l68 -95z" />
    <glyph glyph-name="endash" unicode="&#x2013;" horiz-adv-x="1165" 
d="M121 459l24 137h1084l-25 -137h-1083z" />
    <glyph glyph-name="emdash" unicode="&#x2014;" horiz-adv-x="2076" 
d="M121 459l24 137h1995l-24 -137h-1995z" />
    <glyph glyph-name="quoteleft" unicode="&#x2018;" horiz-adv-x="393" 
d="M446 1337q22 1 43 -21t21 -62t-35 -72q-35 -33 -80 -33q-78 0 -78 91t67 182t153 94l-15 -78q-30 -4 -62 -33t-42 -70q6 2 28 2z" />
    <glyph glyph-name="quoteright" unicode="&#x2019;" horiz-adv-x="393" 
d="M418 1337q-22 0 -44 22q-22 23 -22 61t34 72t81 34q78 0 78 -92t-67 -182t-152 -93l14 78q30 4 62 33t42 69q-4 -2 -26 -2z" />
    <glyph glyph-name="quotesinglbase" unicode="&#x201a;" horiz-adv-x="393" 
d="M180 -10q-22 0 -44 22t-22 60t34 72t81 34q78 0 78 -92q-1 -92 -67 -182t-152 -92l14 77q31 4 63 33t42 70q-4 -2 -27 -2z" />
    <glyph glyph-name="quotedblleft" unicode="&#x201c;" horiz-adv-x="710" 
d="M764 1337q23 1 43 -21t20 -62q-1 -40 -35 -72q-34 -33 -79 -33q-78 0 -78 91q1 91 67 182t152 94l-14 -78q-31 -4 -63 -33t-42 -70q6 2 29 2zM446 1337q22 1 43 -21t21 -62t-35 -72q-35 -33 -80 -33q-78 0 -78 91t67 182t153 94l-15 -78q-30 -4 -62 -33t-42 -70q6 2 28 2
z" />
    <glyph glyph-name="quotedblright" unicode="&#x201d;" horiz-adv-x="710" 
d="M735 1337q-23 0 -45 22q-22 23 -20 61q0 38 33 72q34 34 81 34q78 0 78 -92t-66 -183q-67 -90 -153 -92l14 78q31 4 63 33t42 69q-4 -2 -27 -2zM418 1337q-22 0 -44 22q-22 23 -22 61t34 72t81 34q78 0 78 -92t-67 -182t-152 -93l14 78q30 4 62 33t42 69q-4 -2 -26 -2z
" />
    <glyph glyph-name="quotedblbase" unicode="&#x201e;" horiz-adv-x="710" 
d="M498 -10q-22 0 -44 22t-22 60t34 72t81 34q78 0 78 -92t-67 -182t-152 -92l14 77q30 4 62 33t42 70q-4 -2 -26 -2zM180 -10q-22 0 -44 22t-22 60t34 72t81 34q78 0 78 -92q-1 -92 -67 -182t-152 -92l14 77q31 4 63 33t42 70q-4 -2 -27 -2z" />
    <glyph glyph-name="dagger" unicode="&#x2020;" horiz-adv-x="1093" 
d="M379 -518l256 1450h-369l25 137h368l78 447h152l-78 -447h369l-25 -137h-369l-256 -1450h-151z" />
    <glyph glyph-name="daggerdbl" unicode="&#x2021;" horiz-adv-x="1134" 
d="M399 -518l97 543h-369l23 137h368l148 829h-369l25 137h368l68 388h151l-67 -388h368l-24 -137h-369l-147 -829h368l-22 -137h-369l-96 -543h-152z" />
    <glyph glyph-name="bullet" unicode="&#x2022;" horiz-adv-x="911" 
d="M552 455q-130 1 -205 75t-75 187q0 145 116 259t261 114q113 0 186 -76t72 -187q0 -145 -112 -259q-113 -113 -243 -113z" />
    <glyph glyph-name="ellipsis" unicode="&#x2026;" horiz-adv-x="1794" 
d="M1521 178q83 0 83 -83q0 -41 -34 -73t-73 -32t-61 22t-23 60q0 38 34 72t74 34zM923 178q83 0 83 -83q0 -41 -34 -73t-73 -32t-61 22t-23 60q0 38 34 72t74 34zM325 178q83 0 83 -83q0 -41 -34 -73t-73 -32t-61 22t-23 60q0 38 34 72t74 34z" />
    <glyph glyph-name="perthousand" unicode="&#x2030;" horiz-adv-x="2680" 
d="M2523 386q0 110 -62 174t-173 64t-208 -96q-98 -96 -98 -208t62 -174q62 -64 174 -64t208 97q97 97 97 207zM1378 82q112 0 208 97q97 97 97 207t-62 174t-173 64t-208 -96t-97 -208t61 -175q62 -63 174 -63zM2200 -29q-160 0 -250 91t-90 231q0 176 137 310t317 134
q144 0 238 -90t94 -227q0 -31 -6 -66q-29 -158 -155 -270t-285 -113zM1361 -29q-159 0 -250 91t-91 231q0 176 137 310t318 134q145 0 238 -90t93 -227q0 -31 -6 -66q-28 -158 -154 -270t-285 -113zM660 891q110 0 206 95q96 96 96 208t-60 176t-172 64t-210 -96t-98 -208
t63 -176q65 -63 175 -63zM436 0l1098 1516h137l-1098 -1516h-137zM643 778q-158 0 -251 91t-93 231q0 176 137 310t320 134q147 0 238 -91t91 -226q0 -31 -6 -66q-29 -159 -153 -271t-283 -112z" />
    <glyph glyph-name="guilsinglleft" unicode="&#x2039;" horiz-adv-x="581" 
d="M360 106l-188 412l332 408h153l-325 -408l186 -412h-158z" />
    <glyph glyph-name="guilsinglright" unicode="&#x203a;" horiz-adv-x="581" 
d="M100 106l330 412l-182 408h153l189 -408l-332 -412h-158z" />
    <glyph glyph-name="fraction" unicode="&#x2044;" horiz-adv-x="339" 
d="M-313 0l1097 1516h138l-1098 -1516h-137z" />
    <glyph glyph-name="Euro" unicode="&#x20ac;" horiz-adv-x="1191" 
d="M911 1405q-313 0 -415 -447h563l-74 -129h-512l-24 -143h475l-76 -129h-422q-10 -78 -10 -139q0 -307 268 -307q252 0 307 235h154q-37 -164 -166 -268t-325 -104t-293 119q-97 120 -97 335q0 70 8 129h-176l76 129h125l25 143h-156l74 129h104q51 256 208 420t386 164
q168 0 264 -89t96 -228q0 -20 -4 -58h-159l2 35q-1 88 -57 146t-169 57z" />
    <glyph glyph-name="trademark" unicode="&#x2122;" horiz-adv-x="1531" 
d="M1532 815h-107l95 533l-228 -215h-65l-150 213l-92 -531h-106l122 701h111l170 -259l277 259h96zM426 815l104 594h-180l19 107h465l-19 -107h-178l-105 -594h-106z" />
    <glyph glyph-name="minus" unicode="&#x2212;" horiz-adv-x="1236" 
d="M215 639l25 139h1032l-25 -139h-1032z" />
    <glyph glyph-name="uniF8FF" unicode="&#xf8ff;" horiz-adv-x="1783" 
d="M489 1468h762v-245h-503v-387q121 -43 395 -199q85 -49 197 -88t210 -39l97 8q-10 -21 -70 -43q-59 -22 -129 -22q-256 0 -700 231v-684h-259v791q-49 20 -113 20t-108 -30q-45 -30 -45 -78q0 -99 76 -125q-53 2 -84 36t-31 105q0 70 69 121t189 51q29 0 47 -4v581z" />
    <glyph glyph-name="W.ss01" horiz-adv-x="1959" 
d="M1214 0l-127 633l-350 -633h-149l-301 1516h168l243 -1328l349 648l-134 680h168l84 -461l250 461h164l-375 -674l121 -654l717 1328h164l-842 -1516h-150z" />
    <glyph glyph-name="g.ss01" horiz-adv-x="1091" 
d="M488 -399q118 0 217 90q98 91 98 193t-69 162q-68 60 -180 60t-215 -84t-103 -192q0 -106 67 -168q67 -61 185 -61zM682 862q-125 0 -237 -114t-111 -254q0 -106 68 -181q69 -74 182 -73q143 0 254 110t110 252q0 108 -70 184t-196 76zM956 -94q0 -172 -158 -303
t-332 -131q-175 0 -281 94q-105 94 -105 220t71 227t191 163q-152 100 -152 299t156 358t369 158q68 0 123 -18h319l-20 -119h-125q78 -100 78 -238t-76 -258q-76 -119 -207 -182q149 -98 149 -270z" />
    <glyph glyph-name="g.ss02" horiz-adv-x="1032" 
d="M737 -215q0 67 -57 107t-178 40t-192 -56t-70 -136q0 -141 213 -141q125 0 197 47t85 121q2 10 2 18zM893 619q0 247 -239 247q-120 0 -216 -101t-96 -227t60 -187q60 -62 161 -62q137 0 234 104q96 104 96 226zM266 100q0 -35 22 -54t54 -19q88 33 190 32
q158 -1 249 -71t91 -193t-126 -223t-298 -100t-258 70t-86 186q0 118 109 221q-59 47 -59 119q0 134 120 206q-76 90 -75 234q0 199 137 341t350 142q66 0 121 -18h309l-20 -119h-125q68 -90 67 -215q0 -199 -144 -338t-355 -139q-92 0 -156 31l-18 2q-37 0 -68 -30t-31 -65
z" />
    <glyph glyph-name="zero.osf" horiz-adv-x="1198" 
d="M616 102q176 0 308 138t131 313q0 133 -85 221t-220 88q-174 0 -306 -139t-133 -311q0 -134 85 -222t220 -88zM1198 575q0 -263 -214 -451q-172 -150 -374 -151q-202 0 -322 120t-120 304q0 233 180 413t416 181q188 0 311 -121t123 -295z" />
    <glyph glyph-name="one.osf" horiz-adv-x="561" 
d="M244 0l147 844h-213l23 129h356l-170 -973h-143z" />
    <glyph glyph-name="two.osf" horiz-adv-x="843" 
d="M612 991q281 0 281 -241q0 -344 -598 -621h500l-23 -129h-690l18 113q647 350 648 600q0 150 -162 149q-90 0 -157 -47t-91 -143h-141q39 158 147 238t268 81z" />
    <glyph glyph-name="three.osf" horiz-adv-x="1015" 
d="M600 424q94 0 168 86t74 174t-51 134t-145 46t-174 -74q-81 -74 -85 -182h-141q14 162 140 273t274 111t235 -81q86 -80 86 -193q0 -112 -58 -210t-153 -148q141 -82 141 -272t-142 -322q-141 -130 -315 -130t-273 94q-99 96 -99 241q0 33 6 68h141q-4 -18 -4 -53
q-1 -98 61 -160t181 -64q119 0 210 85t91 223q0 102 -53 164t-144 63h-65l22 127h72z" />
    <glyph glyph-name="four.osf" horiz-adv-x="1042" 
d="M793 756h-2l-547 -627h438zM606 -344l62 344h-596l22 137l746 840h135l-150 -848h158l-22 -129h-158l-62 -344h-135z" />
    <glyph glyph-name="five.osf" horiz-adv-x="1058" 
d="M459 -365q-174 0 -287 110t-113 273q0 25 4 62h142q-2 -14 -2 -43q1 -121 73 -198t199 -77q164 0 280 125t115 289q0 123 -70 198q-71 75 -194 75q-166 0 -276 -119l-103 71l197 572h600l-23 -129h-481l-121 -326q104 62 260 62t255 -109t100 -274q0 -225 -167 -393
t-388 -169z" />
    <glyph glyph-name="six.osf" horiz-adv-x="1097" 
d="M565 100q155 0 267 117t112 250t-74 207t-190 74q-154 0 -266 -120t-113 -268q1 -112 73 -186t191 -74zM700 874q166 0 276 -110t109 -272q1 -205 -163 -362t-375 -157q-170 0 -279 109t-108 285q0 117 104 289t498 700h151l-395 -531q96 49 182 49z" />
    <glyph glyph-name="seven.osf" horiz-adv-x="845" 
d="M78 -344l729 1188h-649l22 129h795l-23 -129l-725 -1188h-149z" />
    <glyph glyph-name="eight.osf" horiz-adv-x="1128" 
d="M582 100q160 0 280 127t119 283q0 123 -78 204t-201 81q-158 0 -278 -127t-121 -285q0 -121 77 -202t202 -81zM944 1083q0 72 -44 118t-127 46q-83 -1 -153 -73t-71 -173q0 -63 33 -102q72 23 141 23t137 -23q84 74 84 184zM561 -27q-178 0 -289 112q-110 111 -110 265
t80 283t207 207q-39 68 -39 149q0 158 115 274q116 116 274 115q127 0 207 -78t79 -196q1 -145 -114 -264q149 -117 149 -327t-169 -375t-390 -165z" />
    <glyph glyph-name="nine.osf" horiz-adv-x="1097" 
d="M586 217q154 0 266 119t113 266q0 113 -74 188t-193 74q-152 0 -264 -116t-112 -267q0 -117 74 -191t190 -73zM563 90q-163 0 -273 109t-110 272q0 205 164 363t375 157q171 -1 279 -109t108 -284q0 -117 -104 -287t-498 -702h-152l396 530q-96 -49 -185 -49z" />
    <glyph glyph-name="ampersand.ss01" horiz-adv-x="1343" 
d="M737 741q-185 0 -291 -96q-106 -97 -106 -245t71 -220t203 -72t232 97q98 96 133 295l41 241h-283zM598 -27q-194 0 -305 108t-111 262q0 153 74 279t215 189q-129 77 -129 267t144 327t326 137t282 -104l-105 -115q-55 86 -177 86t-218 -91q-96 -92 -96 -210t57 -174
t156 -55h333l48 264h151l-47 -264h199l-25 -138h-199l-41 -241q-45 -260 -192 -394q-146 -134 -340 -133z" />
    <glyph glyph-name="ampersand.ss02" horiz-adv-x="1267" 
d="M1260 582q0 -242 -188 -425t-435 -184q-197 0 -321 122t-123 313q0 158 87 301t234 229q-47 72 -47 170q0 172 129 303t309 131q209 0 291 -180l-123 -76q-49 123 -172 123t-202 -86q-79 -85 -79 -187q1 -201 181 -202q139 0 239 137l99 -78q-63 -88 -159 -140t-194 -52
q-96 0 -176 43q-112 -57 -186 -169t-74 -248t82 -226t223 -90q182 0 316 140q133 140 133 327q0 63 -14 108l137 76q33 -88 33 -180z" />
    </font>
</defs>
</svg>
