<?xml version="1.0" standalone="no"?>
<!DOCTYPE svg PUBLIC "-//W3C//DTD SVG 1.1//EN" "http://www.w3.org/Graphics/SVG/1.1/DTD/svg11.dtd" >
<svg xmlns="http://www.w3.org/2000/svg">
<metadata>
Created by FontPrep 20130207 at Mon Nov 28 16:17:17 2016
 By LatinoType 3
Copyright (c) 2013 by Rick Banks. All rights reserved.
</metadata>
<defs>
<font id="337ef199cf72f1b39d8898efcdfd3ac9" horiz-adv-x='1024' >
  <font-face 
    font-family="F37Ginger-ThinItalic"
    font-weight="400"
    font-style="italic"
    font-stretch="normal"
    units-per-em="2048"
    panose-1="0 0 5 0 0 0 0 0 0 0"
    ascent="1638"
    descent="-410"
    x-height="973"
    cap-height="1516"
    bbox="-313 -537 2673 1985"
    underline-thickness="102"
    underline-position="-102"
    slope="-10"
    unicode-range="U+0020-FB02"
  />
<missing-glyph horiz-adv-x="1492" 
d="M524 1460l-248 -1405h961l248 1405h-961zM471 1516h1083l-266 -1516h-1083z" />
    <glyph glyph-name="fi" unicode="fi" horiz-adv-x="921" 
d="M936 1200q-35 0 -35 37q0 19 14 35t37 16q37 0 37 -37q0 -23 -15 -37t-38 -14zM719 1516q70 0 129 -21l-10 -51q-47 18 -137 18t-161 -61t-104 -242l-33 -186h523l-172 -973h-58l162 920h-465l-162 -920h-57l162 920h-143l10 53h143l35 196q33 183 116 265t222 82z" />
    <glyph glyph-name="fl" unicode="fl" horiz-adv-x="1112" 
d="M991 27q55 0 111 18l-10 -51q-165 -52 -238 19q-41 39 -41 103t10 142l117 662h-547l-162 -920h-57l162 920h-143l10 53h143l35 196q33 183 116 265t222 82q70 0 129 -21l-10 -51q-47 18 -137 18t-161 -61t-104 -242l-33 -186h547l94 543h58l-219 -1248q-25 -125 0 -183
t108 -58z" />
    <glyph glyph-name=".notdef" horiz-adv-x="1492" 
d="M524 1460l-248 -1405h961l248 1405h-961zM471 1516h1083l-266 -1516h-1083z" />
    <glyph glyph-name=".null" horiz-adv-x="0" 
 />
    <glyph glyph-name="nonmarkingreturn" horiz-adv-x="681" 
 />
    <glyph glyph-name="space" unicode=" " horiz-adv-x="552" 
 />
    <glyph glyph-name="exclam" unicode="!" horiz-adv-x="497" 
d="M246 -10q-37 0 -37 37q0 20 15 35t36 16q39 0 39 -37q0 -19 -15 -35t-38 -16zM291 334l94 604l102 578h62l-103 -578l-116 -604h-39z" />
    <glyph glyph-name="quotedbl" unicode="&#x22;" horiz-adv-x="649" 
d="M596 991l72 525h84l-115 -525h-41zM358 991l72 525h84l-115 -525h-41z" />
    <glyph glyph-name="numbersign" unicode="#" horiz-adv-x="1146" 
d="M647 1028l-145 -455h315l146 455h-316zM1276 1028h-266l-144 -455h260l-8 -47h-264l-125 -391h-49l123 391h-316l-122 -391h-52l125 391h-295l9 47h301l143 455h-299l8 47h307l125 393h49l-124 -393h315l125 393h49l-125 -393h258z" />
    <glyph glyph-name="dollar" unicode="$" horiz-adv-x="1103" 
d="M1014 434q0 112 -71 178t-204 125l-125 -704q156 19 278 129t122 272zM422 1124q0 -112 71 -176t203 -121l117 656q-163 -13 -277 -109t-114 -250zM358 1104q0 168 120 294t345 142l25 141h57l-24 -139q207 0 338 -143l-48 -47q-98 131 -301 135l-120 -684
q133 -58 231 -134t96 -218q0 -187 -139 -321t-334 -153l-24 -141h-58l25 137q-149 2 -265 76t-161 170l49 47q47 -104 156 -171t229 -66h2l129 731q-247 105 -302 218q-26 54 -26 126z" />
    <glyph glyph-name="percent" unicode="%" horiz-adv-x="1779" 
d="M1018 305q0 -119 76 -199t216 -81q140 1 259 113t119 265q0 121 -77 202t-217 81t-258 -114t-118 -267zM1745 408q0 -174 -141 -306t-320 -131q-139 -1 -231 95t-92 235q0 174 141 305t317 131q139 0 233 -95t93 -234zM635 831q157 0 275 113t118 266q0 121 -77 202
t-199 81q-156 0 -275 -114t-119 -267q0 -119 78 -200t199 -81zM444 0l1098 1516h60l-1098 -1516h-60zM1087 1214q0 -174 -141 -305t-319 -131q-139 0 -233 95q-93 95 -93 235q0 174 141 305t320 131q139 0 232 -96t93 -234z" />
    <glyph glyph-name="ampersand" unicode="&#x26;" horiz-adv-x="1263" 
d="M627 782q-158 0 -270 -120t-111 -297q0 -139 92 -225t287 -85h284l129 727h-411zM614 0q-214 0 -324 95t-110 252t77 279t237 185q-68 35 -108 109t-40 170q0 200 133 326t317 126t281 -88l-35 -45q-88 80 -221 80q-172 1 -293 -105t-120 -288q0 -119 66 -188t161 -68
h414l53 303h61l-53 -303h201l-11 -58h-200l-129 -727h200l-10 -55h-547z" />
    <glyph glyph-name="quotesingle" unicode="'" horiz-adv-x="411" 
d="M358 991l72 525h84l-115 -525h-41z" />
    <glyph glyph-name="parenleft" unicode="(" horiz-adv-x="690" 
d="M182 385q0 174 46 336q83 291 275 497t412 322l19 -45q-260 -137 -462 -419q-98 -138 -160 -314t-62 -354q0 -252 102 -462t254 -311l-35 -47q-165 106 -277 312t-112 485z" />
    <glyph glyph-name="parenright" unicode=")" horiz-adv-x="690" 
d="M639 721q0 252 -102 464t-252 310l34 45q162 -106 276 -312t114 -485q0 -173 -46 -335q-83 -291 -276 -499q-194 -207 -412 -321l-18 47q270 145 476 441t206 645z" />
    <glyph glyph-name="asterisk" unicode="*" horiz-adv-x="720" 
d="M795 1036l-201 125l-43 -252h-59l45 254l-240 -127l-23 51l242 127l-197 123l39 54l195 -127l45 252h59l-45 -252l240 127l20 -52l-237 -125l196 -129z" />
    <glyph glyph-name="plus" unicode="+" horiz-adv-x="1236" 
d="M625 190l86 490h-488l10 57h488l86 490h57l-86 -490h488l-11 -57h-487l-86 -490h-57z" />
    <glyph glyph-name="comma" unicode="," horiz-adv-x="495" 
d="M246 -10q-37 0 -37 37q0 20 15 35t38 16q39 0 39 -52t-32 -98t-79 -55l5 29q55 16 67 92q-8 -4 -16 -4z" />
    <glyph glyph-name="hyphen" unicode="-" horiz-adv-x="802" 
d="M211 498l10 59h557l-10 -59h-557z" />
    <glyph glyph-name="period" unicode="." horiz-adv-x="497" 
d="M246 -10q-37 0 -37 37q0 20 15 35t36 16q39 0 39 -37q0 -19 -15 -35t-38 -16z" />
    <glyph glyph-name="slash" unicode="/" horiz-adv-x="890" 
d="M0 0l1098 1516h59l-1098 -1516h-59z" />
    <glyph glyph-name="zero" unicode="0" horiz-adv-x="1200" 
d="M606 29q188 0 344 142q129 117 164 325l92 524q35 195 -50 331t-294 136t-341 -135t-167 -332l-92 -524q-39 -190 49 -324q64 -96 196 -130q50 -13 99 -13zM872 1542q206 0 322 -141q115 -141 74 -381l-92 -524q-23 -124 -77 -220t-120 -151t-169 -104q-216 -101 -437 13
q-128 66 -174 241q-25 91 2 221l92 524q41 240 207 381t372 141z" />
    <glyph glyph-name="one" unicode="1" horiz-adv-x="718" 
d="M412 0l258 1460h-351l11 56h411l-268 -1516h-61z" />
    <glyph glyph-name="two" unicode="2" horiz-adv-x="1120" 
d="M820 1542q166 0 270 -96q102 -96 102 -248t-77 -271q-77 -118 -232 -251l-721 -621h811l-10 -55h-891l10 55l768 666q143 125 212 233q68 108 68 236q0 129 -90 213t-238 84t-272 -94q-123 -94 -176 -289h-61q61 226 211 332t316 106z" />
    <glyph glyph-name="three" unicode="3" horiz-adv-x="1173" 
d="M610 29q188 0 332 140q143 140 143 339q0 119 -60 199t-177 79h-158l10 56h154q152 0 237 112t85 237q0 124 -81 211t-229 87t-271 -111q-122 -111 -153 -280l-57 2q35 198 175 320t312 122t266 -96q95 -96 95 -234t-70 -240q-70 -103 -182 -157q76 -35 121 -114t45 -187
q0 -236 -170 -388t-379 -153t-324 135t-86 330h62q-24 -168 74 -288t286 -121z" />
    <glyph glyph-name="four" unicode="4" horiz-adv-x="1191" 
d="M1098 1444l-885 -1053h700zM844 0l59 336h-772l10 55l949 1125h84l-199 -1125h194l-10 -55h-194l-60 -336h-61z" />
    <glyph glyph-name="five" unicode="5" horiz-adv-x="1204" 
d="M238 440q0 -190 93 -301t273 -110q233 1 393 161t160 385q0 160 -92 270t-274 109q-244 0 -400 -163l-37 24l242 701h659l-8 -56h-602l-199 -565q166 117 360 117t303 -125q110 -125 110 -309q1 -248 -185 -426t-432 -179q-200 0 -320 132t-112 335h68z" />
    <glyph glyph-name="six" unicode="6" horiz-adv-x="1198" 
d="M606 29q215 -1 372 151t157 348q1 162 -105 275t-270 112q-211 -1 -371 -161t-160 -357q1 -158 105 -263t272 -105zM166 389q0 135 80 265q29 48 82 126l518 736h67l-452 -646q131 100 323 100t317 -150q124 -152 87 -359t-211 -347q-175 -140 -371 -140t-318 118
q-122 119 -122 297z" />
    <glyph glyph-name="seven" unicode="7" horiz-adv-x="1030" 
d="M158 0l952 1460h-811l8 56h877l-8 -56l-955 -1460h-63z" />
    <glyph glyph-name="eight" unicode="8" horiz-adv-x="1273" 
d="M643 29q221 0 387 167t166 371q0 170 -109 287t-278 117q-221 0 -388 -166t-167 -373q0 -168 108 -286q109 -117 281 -117zM815 1026q125 0 232 -61q115 115 115 239t-75 203q-74 80 -188 80q-151 0 -263 -113t-112 -254q0 -90 41 -153q125 59 250 59zM1257 569
q-1 -235 -193 -415t-431 -181q-190 0 -316 130q-125 130 -124 321q0 154 88 289t231 223q-47 72 -47 178q0 166 136 297t306 131q135 0 225 -94t89 -238q0 -144 -129 -274q78 -60 122 -158t43 -209z" />
    <glyph glyph-name="nine" unicode="9" horiz-adv-x="1198" 
d="M860 1487q-215 0 -372 -152t-156 -348q0 -163 105 -275t270 -112q211 0 371 161t159 357q-1 158 -105 264t-272 105zM270 985q0 229 184 393t418 164q184 0 306 -119t122 -297q0 -102 -40 -190t-123 -201l-516 -735h-68l453 645q-130 -100 -312 -100t-303 128t-121 312z
" />
    <glyph glyph-name="colon" unicode=":" horiz-adv-x="497" 
d="M246 -10q-37 0 -37 37q0 20 15 35t36 16q39 0 39 -37q0 -19 -15 -35t-38 -16zM403 885q-37 0 -36 37q0 20 15 35t36 16q39 0 39 -37q1 -20 -15 -36t-39 -15z" />
    <glyph glyph-name="semicolon" unicode=";" horiz-adv-x="495" 
d="M246 -10q-37 0 -37 37q0 20 15 35t38 16q39 0 39 -52t-32 -98t-79 -55l5 29q55 16 67 92q-8 -4 -16 -4zM403 885q-37 0 -36 37q0 20 15 35t38 16q37 0 37 -37q1 -23 -15 -37t-39 -14z" />
    <glyph glyph-name="less" unicode="&#x3c;" horiz-adv-x="835" 
d="M705 12l-580 697l825 696l39 -45l-774 -651l549 -650z" />
    <glyph glyph-name="equal" unicode="=" 
d="M197 473l10 57h1032l-10 -57h-1032zM270 887l11 57h1032l-10 -57h-1033z" />
    <glyph glyph-name="greater" unicode="&#x3e;" horiz-adv-x="835" 
d="M92 59l778 650l-544 651l55 45l580 -696l-826 -697z" />
    <glyph glyph-name="question" unicode="?" horiz-adv-x="1040" 
d="M418 -10q-37 0 -37 37q0 20 15 35t36 16q39 0 39 -37q0 -19 -15 -35t-38 -16zM1171 1229q0 -186 -124 -292q-100 -85 -231 -142t-176 -93q-83 -68 -99 -188l-31 -176h-61l30 172q23 129 84 192q61 64 216 136t208 114q121 100 121 262q0 119 -80 191t-221 72
q-338 0 -420 -381h-61q53 238 187 341t298 103t262 -83t98 -228z" />
    <glyph glyph-name="at" unicode="@" horiz-adv-x="1976" 
d="M956 23q174 0 300 129t126 303q0 133 -79 221q-80 88 -213 88q-174 0 -302 -128t-126 -306q0 -135 82 -221t212 -86zM901 -537q-319 0 -534 204t-215 556q0 256 99 467q181 385 611 544q193 71 391 71q305 -1 513 -179t208 -501q0 -169 -48 -307q-83 -241 -279 -349
q-82 -45 -163 -45t-127 58t-28 163l6 37q-69 -104 -177 -157t-218 -54q-152 -1 -243 99t-91 254q0 205 144 349t346 144q227 0 319 -203l33 187h57l-114 -651q-15 -80 17 -124t94 -44t132 42q164 98 238 322q41 127 41 282q-1 156 -59 280q-105 223 -368 304
q-116 37 -246 37q-284 0 -546 -152q-137 -81 -243 -197t-172 -291t-66 -382q0 -338 207 -523t507 -185t519 159l24 -47q-250 -168 -569 -168z" />
    <glyph glyph-name="A" unicode="A" horiz-adv-x="1378" 
d="M385 522h789l-228 938zM1188 467h-836l-278 -467h-64l903 1516h80l375 -1516h-65z" />
    <glyph glyph-name="B" unicode="B" horiz-adv-x="1214" 
d="M537 55q297 1 455 107t159 315q0 145 -104 217t-273 72h-393l-125 -711h281zM786 821q211 0 322 80t111 289q-1 129 -103 200t-346 70h-266l-113 -639h395zM776 1516q260 0 382 -78t122 -240q0 -338 -326 -405q123 -29 191 -109t67 -203q0 -237 -178 -359t-508 -122h-342
l267 1516h325z" />
    <glyph glyph-name="C" unicode="C" horiz-adv-x="1468" 
d="M193 641q0 237 130 445t348 332t464 124q334 0 522 -237l-53 -33q-178 215 -480 215q-172 0 -334 -71q-323 -142 -465 -453q-71 -154 -71 -314q0 -264 172 -442t452 -178t527 200l39 -34q-268 -221 -572 -221t-491 190q-188 190 -188 477z" />
    <glyph glyph-name="D" unicode="D" horiz-adv-x="1470" 
d="M600 55q238 -1 438 101t323 289q122 187 122 436t-175 414t-460 165h-344l-248 -1405h344zM854 1516q307 0 500 -171q192 -171 192 -449t-135 -482q-135 -206 -351 -310t-472 -104h-404l267 1516h403z" />
    <glyph glyph-name="E" unicode="E" horiz-adv-x="1107" 
d="M184 0l267 1516h811l-9 -56h-749l-113 -641h666l-10 -55h-666l-125 -709h750l-11 -55h-811z" />
    <glyph glyph-name="F" unicode="F" horiz-adv-x="1107" 
d="M184 0l267 1516h841l-8 -56h-780l-113 -641h696l-10 -55h-696l-135 -764h-62z" />
    <glyph glyph-name="G" unicode="G" horiz-adv-x="1697" 
d="M870 -27q-312 1 -496 189q-183 188 -184 473q0 367 283 637t660 270q176 0 319 -70t231 -192l-49 -41q-80 117 -212 183t-298 65q-231 0 -433 -119q-201 -118 -319 -312t-118 -411q0 -262 168 -439t454 -177t502 199q215 199 258 536h-682l11 55h743l-8 -51
q-58 -362 -288 -578t-542 -217z" />
    <glyph glyph-name="H" unicode="H" horiz-adv-x="1538" 
d="M1292 0l135 764h-1046l-135 -764h-62l267 1516h61l-121 -697h1047l121 697h61l-266 -1516h-62z" />
    <glyph glyph-name="I" unicode="I" horiz-adv-x="430" 
d="M184 0l267 1516h61l-266 -1516h-62z" />
    <glyph glyph-name="J" unicode="J" horiz-adv-x="458" 
d="M-141 -379q176 31 254 139t114 312l254 1444h62l-254 -1442q-41 -230 -135 -354t-306 -154z" />
    <glyph glyph-name="K" unicode="K" horiz-adv-x="1134" 
d="M377 743l-131 -743h-62l267 1516h61l-127 -728l856 728h98l-893 -754l674 -762h-86z" />
    <glyph glyph-name="L" unicode="L" horiz-adv-x="1099" 
d="M184 0l267 1516h61l-256 -1461h813l-10 -55h-875z" />
    <glyph glyph-name="M" unicode="M" horiz-adv-x="1832" 
d="M1587 0l256 1452l-794 -838h-56l-491 838l-256 -1452h-62l267 1516h96l485 -842l787 842h96l-266 -1516h-62z" />
    <glyph glyph-name="N" unicode="N" horiz-adv-x="1628" 
d="M1366 0l-864 1454l-256 -1454h-62l267 1516h92l854 -1434l252 1434h61l-266 -1516h-78z" />
    <glyph glyph-name="O" unicode="O" horiz-adv-x="1726" 
d="M868 29q346 0 609 250q262 250 262 583q0 262 -171 444t-444 181q-172 0 -334 -71q-323 -142 -465 -453q-71 -154 -71 -314q0 -264 172 -442t442 -178zM1800 872q0 -240 -133 -448t-349 -330q-216 -121 -458 -121q-291 1 -479 191t-188 477q0 237 130 445t348 332
t464 124q293 0 479 -192t186 -478z" />
    <glyph glyph-name="P" unicode="P" horiz-adv-x="1218" 
d="M678 666q282 0 432 122t150 345q0 159 -112 243t-329 84h-315l-142 -794h316zM827 1516q244 0 370 -94t126 -277q0 -258 -168 -396t-485 -139h-316l-108 -610h-62l267 1516h376z" />
    <glyph glyph-name="Q" unicode="Q" horiz-adv-x="1691" 
d="M874 55q228 0 428 108t320 296t119 409q0 264 -171 442t-448 177q-350 0 -608 -249t-258 -583q0 -262 173 -431t445 -169zM1804 880q0 -288 -183 -511t-462 -314h506l-10 -55h-793q-291 0 -479 181t-188 468q0 240 130 447q130 206 346 326t462 120q295 0 483 -187
t188 -475z" />
    <glyph glyph-name="R" unicode="R" horiz-adv-x="1275" 
d="M788 768q289 0 421 98t132 316q0 147 -105 213t-325 65h-407l-123 -692h407zM778 713h-407l-125 -713h-62l267 1516h469q246 0 364 -77t119 -245q0 -416 -467 -473l299 -721h-68l-299 715q-31 -2 -90 -2z" />
    <glyph glyph-name="S" unicode="S" horiz-adv-x="1062" 
d="M993 434q0 100 -67 171q-68 71 -164 113t-192 85t-164 119t-68 184q0 178 135 307t385 129q209 0 340 -143l-47 -47q-99 135 -293 135t-326 -97t-131 -266q0 -98 68 -167t164 -111t192 -86q96 -45 164 -122t68 -187q0 -203 -160 -340t-369 -138q-150 0 -266 74t-162 172
l50 47q48 -104 156 -171t229 -66q170 1 314 113t144 292z" />
    <glyph glyph-name="T" unicode="T" horiz-adv-x="1173" 
d="M557 0l258 1460h-526l10 56h1112l-10 -56h-524l-259 -1460h-61z" />
    <glyph glyph-name="U" unicode="U" horiz-adv-x="1560" 
d="M1602 1516h61l-141 -805q-66 -371 -262 -554t-486 -183q-289 0 -420 182q-131 184 -65 555l141 805h62l-142 -803q-57 -384 73 -535t361 -150q230 1 409 146q93 76 164 213t103 326z" />
    <glyph glyph-name="V" unicode="V" horiz-adv-x="1413" 
d="M727 0h-43l-397 1516h65l367 -1414l866 1414h74z" />
    <glyph glyph-name="W" unicode="W" horiz-adv-x="2074" 
d="M1284 1409l-694 -1409h-43l-260 1516h65l232 -1403l682 1403h71l187 -1403l727 1403h69l-792 -1516h-43z" />
    <glyph glyph-name="X" unicode="X" horiz-adv-x="1277" 
d="M731 780l-409 736h65l391 -689l623 689h78l-668 -740l430 -776h-65l-412 729l-662 -729h-77z" />
    <glyph glyph-name="Y" unicode="Y" horiz-adv-x="1249" 
d="M776 692l-121 -692h-61l121 692l-428 824h63l402 -758l667 758h76z" />
    <glyph glyph-name="Z" unicode="Z" horiz-adv-x="1325" 
d="M82 0l4 29l1294 1431h-1018l9 56h1118l-4 -29l-1292 -1432h1032l-11 -55h-1132z" />
    <glyph glyph-name="bracketleft" unicode="[" horiz-adv-x="505" 
d="M412 -414h-363l340 1930h363l-9 -54h-299l-323 -1824h299z" />
    <glyph glyph-name="backslash" unicode="\" horiz-adv-x="890" 
d="M831 0l-565 1516h60l565 -1516h-60z" />
    <glyph glyph-name="bracketright" unicode="]" horiz-adv-x="505" 
d="M-45 -362h299l324 1824h-299l8 54h362l-340 -1930h-362z" />
    <glyph glyph-name="asciicircum" unicode="^" horiz-adv-x="1069" 
d="M1053 688l-267 760l-528 -760h-65l573 828h65l287 -828h-65z" />
    <glyph glyph-name="underscore" unicode="_" horiz-adv-x="1153" 
d="M31 -59l10 59h1071l-10 -59h-1071z" />
    <glyph glyph-name="grave" unicode="`" horiz-adv-x="638" 
d="M336 1321l43 57l360 -225l-37 -47z" />
    <glyph glyph-name="a" unicode="a" 
d="M227 414q1 -164 103 -276t282 -111q180 0 328 139t170 319q26 181 -68 317t-298 136t-360 -161q-157 -161 -157 -363zM590 -27q-186 0 -304 124t-118 309q0 229 180 407t422 178q146 0 248 -81t131 -214l47 277h57l-170 -973h-57l47 266q-78 -133 -208 -213t-275 -80z
" />
    <glyph glyph-name="b" unicode="b" 
d="M684 27q209 -1 363 159t153 367q0 161 -96 273t-278 112t-334 -135q-153 -135 -177 -317q-23 -181 69 -320t300 -139zM846 991q188 0 300 -125t111 -309q0 -236 -176 -410t-413 -174q-147 0 -250 76q-102 76 -144 199l-43 -248h-57l266 1516h58l-140 -799q84 123 212 199
t276 75z" />
    <glyph glyph-name="c" unicode="c" horiz-adv-x="1083" 
d="M594 -27q-182 0 -303 126t-121 309q0 227 184 405t418 178q133 0 237 -66q103 -67 154 -180l-53 -26q-41 99 -132 159t-214 60q-213 0 -374 -161t-161 -359q-1 -162 105 -277t272 -114q123 0 235 60t187 159l43 -27q-88 -113 -215 -179t-262 -67z" />
    <glyph glyph-name="d" unicode="d" 
d="M602 27q217 0 367 167t149 357q0 159 -96 273t-262 114q-219 0 -376 -161t-157 -363q1 -164 103 -276t272 -111zM590 -27q-186 0 -304 124t-118 309q0 229 180 407t422 178q146 0 248 -81t131 -214l143 820h58l-267 -1516h-57l47 266q-78 -133 -208 -213t-275 -80z" />
    <glyph glyph-name="e" unicode="e" horiz-adv-x="1171" 
d="M756 938q-178 0 -324 -123t-190 -295h880q18 174 -85 296t-281 122zM170 410q0 227 181 404t401 177q220 -1 339 -151q118 -150 85 -359l-2 -14h-941q-29 -180 77 -310t296 -130q229 0 398 188l36 -31q-88 -98 -206 -154t-240 -57q-182 0 -303 126t-121 311z" />
    <glyph glyph-name="f" unicode="f" horiz-adv-x="593" 
d="M719 1516q70 0 129 -21l-10 -51q-47 18 -137 18t-161 -61t-104 -242l-33 -186h332l-10 -53h-332l-162 -920h-57l162 920h-143l10 53h143l35 196q33 183 116 265t222 82z" />
    <glyph glyph-name="g" unicode="g" 
d="M227 414q1 -162 103 -274t281 -113q179 0 320 134q140 134 179 308l6 33q24 174 -74 305t-298 131t-359 -161q-158 -161 -158 -363zM516 -518q-293 0 -405 246l55 24q100 -217 356 -217q193 0 330 124t184 394l35 193q-86 -123 -213 -198t-270 -75q-184 0 -301 124
t-117 309q0 229 180 407t418 178q144 0 244 -76t141 -198l45 256h57l-161 -918q-51 -295 -208 -434t-370 -139z" />
    <glyph glyph-name="h" unicode="h" horiz-adv-x="1179" 
d="M782 938q-192 0 -310 -123t-157 -338l-84 -477h-57l266 1516h58l-136 -773q62 121 178 185t257 63q190 1 277 -113t48 -337l-96 -541h-57l90 516q37 152 -12 286q-23 60 -90 98t-175 38z" />
    <glyph glyph-name="i" unicode="i" horiz-adv-x="405" 
d="M174 0l172 973h57l-172 -973h-57zM416 1188q-50 0 -49 47q0 27 19 46t46 19q49 0 49 -47q0 -27 -20 -46q-21 -19 -45 -19z" />
    <glyph glyph-name="j" unicode="j" horiz-adv-x="405" 
d="M82 -518l262 1491h57l-262 -1491h-57zM414 1188q-50 0 -49 47q0 27 18 46t47 19q49 0 49 -47q0 -27 -20 -46q-21 -19 -45 -19z" />
    <glyph glyph-name="k" unicode="k" horiz-adv-x="851" 
d="M979 973l-608 -445l471 -528h-92l-433 492l-86 -492h-57l266 1516h58l-168 -953l557 410h92z" />
    <glyph glyph-name="l" unicode="l" horiz-adv-x="507" 
d="M387 27q53 0 111 18l-11 -51q-164 -52 -237 19q-41 39 -41 103t10 142l221 1258h58l-219 -1248q-25 -125 0 -183t108 -58z" />
    <glyph glyph-name="m" unicode="m" horiz-adv-x="1716" 
d="M1128 822q-106 -116 -143 -324l-88 -498h-57l90 516q14 106 12 200t-57 158q-55 63 -160 64q-149 0 -261 -124t-151 -347l-82 -467h-57l172 973h57l-43 -244q56 121 158 192t217 71t191 -72q76 -70 69 -218q68 156 179 223t227 66q151 0 225 -106t35 -324l-98 -561h-58
l90 516q29 174 3 282q-31 140 -198 140q-166 0 -272 -116z" />
    <glyph glyph-name="n" unicode="n" horiz-adv-x="1179" 
d="M782 938q-192 0 -310 -123t-157 -338l-84 -477h-57l172 973h57l-43 -244q64 129 180 196t257 66q190 1 277 -113t48 -337l-96 -541h-57l90 516q37 152 -12 286q-23 60 -90 98t-175 38z" />
    <glyph glyph-name="o" unicode="o" horiz-adv-x="1198" 
d="M606 27q213 -1 375 161t162 361q-1 165 -107 277t-272 112q-213 0 -375 -161t-162 -361q-1 -162 105 -276t274 -113zM1200 551q0 -229 -187 -403t-419 -175q-182 0 -303 126t-121 309q0 227 184 405t418 178q184 0 306 -128t122 -312z" />
    <glyph glyph-name="p" unicode="p" 
d="M826 938q-180 0 -322 -131t-186 -312q-43 -181 56 -325q99 -143 309 -143q210 -1 364 159t153 367q0 161 -97 273t-277 112zM846 991q188 0 300 -125t111 -309q0 -236 -176 -410t-415 -174q-147 0 -249 76q-101 76 -143 199l-135 -766h-57l262 1491h57l-45 -256
q86 123 214 199t276 75z" />
    <glyph glyph-name="q" unicode="q" 
d="M227 414q1 -164 103 -276t282 -111q180 0 328 139t170 319q26 181 -68 317t-298 136t-360 -161q-157 -161 -157 -363zM590 -27q-186 0 -304 124t-118 309q0 229 180 407t422 178q140 0 240 -76t141 -198l45 256h57l-262 -1491h-57l135 764q-86 -123 -212 -198t-267 -75z
" />
    <glyph glyph-name="r" unicode="r" horiz-adv-x="673" 
d="M752 991q49 0 75 -2l-10 -55q-61 4 -84 4q-155 0 -263 -96t-138 -271l-101 -571h-57l172 973h57l-30 -170q67 106 159 147t220 41z" />
    <glyph glyph-name="s" unicode="s" horiz-adv-x="827" 
d="M421 27q163 1 237 71t73 147q0 77 -51 121t-125 70q-75 26 -149 54t-125 79t-52 127q-1 125 103 210t256 85t276 -100l-37 -45q-98 92 -243 92q-94 0 -160 -29t-92 -73q-44 -76 -43 -133q0 -57 51 -101t125 -68q75 -26 149 -55t125 -82t52 -131q-1 -135 -107 -214
t-280 -79t-302 142l41 45q115 -133 278 -133z" />
    <glyph glyph-name="t" unicode="t" horiz-adv-x="587" 
d="M405 27q79 0 136 18l-11 -51q-63 -20 -131 -21q-125 0 -161 66t-15 178l123 703h-153l10 53h153l58 330h57l-57 -330h315l-10 -53h-316l-122 -693q-19 -109 13 -155t111 -45z" />
    <glyph glyph-name="u" unicode="u" horiz-adv-x="1175" 
d="M592 27q371 0 438 383l98 563h58l-99 -561q-76 -438 -503 -439q-428 0 -353 439l99 561h57l-98 -563q-68 -383 303 -383z" />
    <glyph glyph-name="v" unicode="v" horiz-adv-x="978" 
d="M526 0h-73l-260 973h55l250 -905l569 905h63z" />
    <glyph glyph-name="w" unicode="w" horiz-adv-x="1585" 
d="M1161 68l512 905h64l-555 -973h-66l-168 877l-479 -877h-66l-210 973h57l192 -905l498 905h43z" />
    <glyph glyph-name="x" unicode="x" horiz-adv-x="888" 
d="M571 506l287 -506h-55l-275 473l-426 -473h-71l469 514l-260 459h59l242 -424l385 424h67z" />
    <glyph glyph-name="y" unicode="y" horiz-adv-x="935" 
d="M438 -16l-248 989h60l225 -922l545 922h65l-884 -1491h-60z" />
    <glyph glyph-name="z" unicode="z" horiz-adv-x="964" 
d="M102 0l9 49l835 871h-682l10 53h760l-10 -55l-834 -865h682l-10 -53h-760z" />
    <glyph glyph-name="braceleft" unicode="{" horiz-adv-x="548" 
d="M346 -416q-43 0 -71 16q-46 27 -51 90q-4 62 14 163l73 413q20 117 -20 178q-41 61 -160 66l14 78q223 8 267 246l71 413q22 117 50 171q27 54 64 76q38 22 91 22h109l-11 -54h-102q-96 0 -129 -176l-82 -459q-21 -117 -79 -183t-167 -93q190 -33 144 -307l-76 -430
q-33 -176 67 -176h103l-10 -54h-109z" />
    <glyph glyph-name="bar" unicode="|" horiz-adv-x="348" 
d="M92 -287l318 1803h61l-317 -1803h-62z" />
    <glyph glyph-name="braceright" unicode="}" horiz-adv-x="548" 
d="M59 -362q96 0 129 176l76 430q23 127 86 209t166 98q-98 27 -134 93t-15 183l82 459q33 176 -68 176h-102l8 54h108q83 0 108 -51t17 -109t-16 -109l-72 -413q-43 -238 178 -246l-12 -78q-121 -4 -183 -66t-83 -178l-74 -413q-20 -120 -47 -173q-49 -96 -156 -96h-108
l10 54h102z" />
    <glyph glyph-name="asciitilde" unicode="~" horiz-adv-x="1110" 
d="M912 535q-98 -1 -245 81t-239 82t-137 -37t-45 -124h-45q0 104 62 162q61 57 159 57t182 -41t164 -82t160 -41q139 0 159 125q4 25 5 37h45q-4 -41 -4 -43q-15 -78 -69 -127t-152 -49z" />
    <glyph glyph-name="uni00A0" unicode="&#xa0;" horiz-adv-x="552" 
 />
    <glyph glyph-name="exclamdown" unicode="&#xa1;" horiz-adv-x="415" 
d="M362 788l-94 -604l-102 -577h-62l103 577l117 604h38zM408 1133q37 0 36 -37q0 -20 -15 -36t-36 -16q-39 0 -39 37q0 20 16 36t38 16z" />
    <glyph glyph-name="cent" unicode="&#xa2;" horiz-adv-x="1206" 
d="M317 694q1 -154 95 -264t245 -125l162 909q-205 -14 -353 -170t-149 -350zM258 686q0 219 172 393t397 189l43 248h58l-43 -248q125 -6 222 -72t144 -172l-51 -27q-41 97 -126 155t-197 65l-162 -912q240 10 401 219l45 -26q-84 -106 -206 -173t-248 -73l-45 -252h-58
l45 252q-171 12 -281 136t-110 298z" />
    <glyph glyph-name="sterling" unicode="&#xa3;" horiz-adv-x="1173" 
d="M455 1028q0 -74 41 -256h483l-8 -55h-463q8 -66 8 -113q0 -139 -112 -304t-254 -245h925l-10 -55h-1004l13 66q174 84 278 244t105 292q0 57 -11 115h-198l8 55h178q-41 178 -41 270q1 197 141 349t371 151q191 0 283 -116t80 -314h-58q0 149 -48 247q-64 128 -267 128
q-125 0 -217 -48t-137 -123t-65 -144q-20 -70 -21 -144z" />
    <glyph glyph-name="currency" unicode="&#xa4;" horiz-adv-x="1159" 
d="M322 662q0 -136 92 -230t225 -94q172 0 311 128t140 300q0 137 -92 229t-226 92q-172 1 -311 -125t-139 -300zM258 655q0 186 168 340l-131 158l51 43l129 -158q145 111 307 111t267 -109l184 156l37 -43l-183 -158q66 -92 66 -221q0 -193 -172 -348l129 -158l-51 -43
l-127 156q-150 -105 -306 -105t-264 105l-186 -156l-33 43l187 158q-72 96 -72 229z" />
    <glyph glyph-name="yen" unicode="&#xa5;" horiz-adv-x="1249" 
d="M733 446l-78 -446h-61l78 446h-490l11 60h489l33 186l-53 103h-418l10 59h377l-344 662h63l402 -758l667 758h76l-577 -662h376l-10 -59h-418l-90 -103l-33 -186h490l-10 -60h-490z" />
    <glyph glyph-name="brokenbar" unicode="&#xa6;" horiz-adv-x="348" 
d="M92 -287l127 717h62l-127 -717h-62zM283 799l127 717h61l-127 -717h-61z" />
    <glyph glyph-name="section" unicode="&#xa7;" horiz-adv-x="1013" 
d="M954 522q0 139 -131 207l-323 170q-244 -109 -244 -313q0 -70 32 -128t87 -85l332 -168q247 102 247 317zM1014 522q0 -116 -64 -199t-192 -153q137 -88 137 -211q0 -147 -130 -230t-265 -83t-210 35t-115 77t-58 116q-18 75 -2 173h57q-27 -160 54 -250t243 -90t264 67
q103 67 103 162t-70 149q-52 42 -135 85l-277 139q-30 16 -60 40t-64 85t-33 137q0 240 264 365q-96 62 -96 204t125 241q126 99 298 99t256 -91q84 -92 56 -254h-58q27 285 -256 284q-162 0 -264 -79t-102 -203q0 -68 48 -120t163 -114l188 -100q95 -51 145 -107
q50 -58 50 -174z" />
    <glyph glyph-name="dieresis" unicode="&#xa8;" horiz-adv-x="532" 
d="M580 1108q-35 0 -35 37q0 23 14 37t37 14q39 0 39 -37q0 -19 -16 -35t-39 -16zM340 1108q-35 0 -35 37q-1 23 15 37t36 14q39 0 39 -37q0 -19 -16 -35t-39 -16z" />
    <glyph glyph-name="copyright" unicode="&#xa9;" horiz-adv-x="1769" 
d="M608 688q0 198 148 352t348 154q129 0 220 -57t134 -154l-47 -35q-37 88 -118 140t-197 53q-176 0 -302 -137t-126 -306q0 -135 80 -229t215 -94q236 0 380 188l39 -31q-168 -210 -444 -210q-140 0 -235 105t-95 261zM889 31q221 -1 422 113t323 308t121 412
q0 264 -171 442t-437 179q-223 0 -423 -113q-200 -112 -322 -306t-121 -415q0 -264 171 -442t437 -178zM1812 870q0 -236 -133 -444t-348 -329q-215 -122 -450 -122q-287 0 -472 193t-186 477q0 238 133 446q132 209 348 329t453 120q285 0 470 -194t185 -476z" />
    <glyph glyph-name="ordfeminine" unicode="&#xaa;" horiz-adv-x="917" 
d="M628 870q130 0 236 104t106 230t-68 194q-69 68 -183 66q-147 0 -253 -102t-106 -226t70 -194q70 -72 198 -72zM586 817q-114 0 -198 85q-85 85 -85 212q0 160 128 282t296 122q96 0 170 -45t100 -123l27 149h57l-118 -665h-58l27 151q-116 -168 -346 -168z" />
    <glyph glyph-name="guillemotleft" unicode="&#xab;" horiz-adv-x="776" 
d="M645 106l-188 412l331 408h66l-326 -408l187 -412h-70zM362 106l-188 412l332 408h65l-325 -408l186 -412h-70z" />
    <glyph glyph-name="logicalnot" unicode="&#xac;" horiz-adv-x="1269" 
d="M1278 737l-96 -547h-58l86 490h-987l10 57h1045z" />
    <glyph glyph-name="uni00AD" unicode="&#xad;" horiz-adv-x="1228" 
d="M211 498l10 59h557l-10 -59h-557z" />
    <glyph glyph-name="registered" unicode="&#xae;" horiz-adv-x="1769" 
d="M1059 782q171 0 237 54t66 168q0 76 -56 112t-182 35h-272l-66 -369h273zM1133 1204q147 0 218 -45t70 -145q0 -248 -280 -281l178 -426h-64l-176 422h-301l-76 -422h-57l158 897h330zM889 31q221 -1 422 113t323 308t121 412q0 264 -171 442t-437 179q-223 0 -423 -113
q-200 -112 -322 -306t-121 -415q0 -264 171 -442t437 -178zM1812 870q0 -236 -133 -444t-348 -329q-215 -122 -450 -122q-287 0 -472 193t-186 477q0 238 133 446q132 209 348 329t453 120q285 0 470 -194t185 -476z" />
    <glyph glyph-name="macron" unicode="&#xaf;" horiz-adv-x="897" 
d="M303 1143l10 55h693l-11 -55h-692z" />
    <glyph glyph-name="degree" unicode="&#xb0;" horiz-adv-x="778" 
d="M563 918q105 0 195 86t90 188q0 104 -58 164t-164 61q-106 0 -196 -86q-90 -85 -90 -189t59 -164t164 -60zM907 1197q1 -126 -111 -231q-112 -106 -240 -106t-201 76t-72 186q0 141 111 247q112 105 240 105t200 -75q72 -76 73 -202z" />
    <glyph glyph-name="plusminus" unicode="&#xb1;" 
d="M1155 57l-10 -57h-1032l10 57h1032zM649 276l86 490h-487l10 57h487l86 490h58l-86 -490h487l-10 -57h-487l-86 -490h-58z" />
    <glyph glyph-name="uni00B2" unicode="&#xb2;" horiz-adv-x="759" 
d="M646 1532q116 0 180 -59t64 -153t-42 -162q-43 -69 -139 -146l-430 -355h503l-8 -51h-586l9 47l479 396q90 74 123 130q33 57 33 127t-47 122q-46 52 -144 53q-221 0 -281 -269h-57q29 156 128 238t215 82z" />
    <glyph glyph-name="uni00B3" unicode="&#xb3;" horiz-adv-x="774" 
d="M829 921q0 -137 -99 -232t-226 -95t-197 80t-45 225h57q-20 -137 41 -195t160 -59q100 0 176 77t76 164q0 181 -213 181h-14l8 51h14q127 0 191 73q63 73 63 139t-38 108q-37 42 -113 41q-76 0 -134 -46t-75 -120h-58q25 109 103 163t172 54t147 -52t53 -140t-60 -154
q-60 -68 -126 -86q137 -40 137 -177z" />
    <glyph glyph-name="acute" unicode="&#xb4;" horiz-adv-x="638" 
d="M326 1106l-19 47l438 225l23 -57z" />
    <glyph glyph-name="uni00B5" unicode="&#xb5;" horiz-adv-x="1189" 
d="M606 27q371 0 438 383l99 563h57l-98 -561q-76 -438 -506 -439q-291 0 -336 197l-121 -688h-57l262 1491h57l-98 -563q-68 -383 303 -383z" />
    <glyph glyph-name="paragraph" unicode="&#xb6;" horiz-adv-x="1265" 
d="M303 1006q0 -126 79 -230t253 -117l141 801q-119 0 -214 -47q-160 -79 -231 -267q-28 -75 -28 -140zM242 995q0 201 159 361q160 160 406 160h686l-10 -56h-254l-328 -1855h-61l327 1855h-329l-328 -1855h-61l176 999q-190 18 -287 129q-96 111 -96 262z" />
    <glyph glyph-name="periodcentered" unicode="&#xb7;" horiz-adv-x="497" 
d="M332 477q-37 0 -37 37q0 20 15 36t38 15q37 0 37 -37q0 -23 -15 -37t-38 -14z" />
    <glyph glyph-name="cedilla" unicode="&#xb8;" horiz-adv-x="600" 
d="M276 -96q178 0 179 -133q0 -109 -69 -162t-149 -53q-79 0 -129 42t-55 121h56q12 -119 129 -118q72 0 116 40t43 115q0 98 -133 99h-117l76 145h56l-52 -96h49z" />
    <glyph glyph-name="uni00B9" unicode="&#xb9;" horiz-adv-x="460" 
d="M408 606l151 856h-219l10 54h277l-162 -910h-57z" />
    <glyph glyph-name="ordmasculine" unicode="&#xba;" horiz-adv-x="917" 
d="M629 870q131 0 235 102t104 226q0 123 -67 195q-68 72 -182 71q-147 0 -253 -102t-106 -226t70 -194q70 -72 199 -72zM1028 1219q0 -162 -128 -282t-296 -120q-131 0 -216 85t-85 212q0 160 128 282t296 122q131 0 216 -85t85 -214z" />
    <glyph glyph-name="guillemotright" unicode="&#xbb;" horiz-adv-x="776" 
d="M383 106l330 412l-181 408h66l186 -408l-331 -412h-70zM100 106l330 412l-180 408h65l187 -408l-332 -412h-70z" />
    <glyph glyph-name="onequarter" unicode="&#xbc;" horiz-adv-x="1484" 
d="M1329 817l-508 -586h406zM1186 0l31 178h-476l9 43l581 668h70l-117 -658h119l-10 -53h-119l-31 -178h-57zM408 606l151 856h-219l8 54h277l-160 -910h-57zM264 0l1098 1516h59l-1097 -1516h-60z" />
    <glyph glyph-name="onehalf" unicode="&#xbd;" horiz-adv-x="1622" 
d="M1366 874q-221 0 -281 -268h-57q29 156 128 238q100 82 216 82t180 -60t64 -152q0 -93 -43 -162t-139 -146l-430 -355h503l-8 -51h-586l9 47l479 395q90 74 123 130q32 56 32 127t-46 123t-144 52zM408 606l151 856h-219l8 54h277l-160 -910h-57zM252 0l1098 1516h59
l-1098 -1516h-59z" />
    <glyph glyph-name="threequarters" unicode="&#xbe;" horiz-adv-x="1712" 
d="M1559 817l-510 -586h405zM1413 0l33 178h-475l6 43l582 668h69l-117 -658h119l-8 -53h-119l-33 -178h-57zM481 0l1100 1516h59l-1099 -1516h-60zM829 921q0 -137 -99 -232t-226 -95t-197 80t-45 225h57q-20 -137 41 -195t160 -59q100 0 176 77t76 164q0 181 -213 181h-14
l8 51h14q127 0 191 73q63 73 63 139t-38 108q-37 42 -113 41q-76 0 -134 -46t-75 -120h-58q25 109 103 163t172 54t147 -52t53 -140t-60 -154q-60 -68 -126 -86q137 -40 137 -177z" />
    <glyph glyph-name="questiondown" unicode="&#xbf;" horiz-adv-x="968" 
d="M88 -106q0 184 124 291q94 81 261 153t213 163q23 44 33 107l31 176h61l-31 -172q-23 -129 -84 -192t-216 -135t-208 -115q-121 -100 -120 -262q0 -119 80 -191t221 -71q338 0 419 381h62q-52 -238 -188 -341q-136 -104 -300 -104t-261 84t-97 228zM842 1133q35 0 35 -37
q-1 -23 -15 -37t-37 -15q-37 0 -37 37q0 23 16 37t38 15z" />
    <glyph glyph-name="Agrave" unicode="&#xc0;" horiz-adv-x="1378" 
d="M385 522h789l-228 938zM1188 467h-836l-278 -467h-64l903 1516h80l375 -1516h-65zM1110 1673l-367 217l37 52l363 -226z" />
    <glyph glyph-name="Aacute" unicode="&#xc1;" horiz-adv-x="1378" 
d="M385 522h789l-228 938zM1188 467h-836l-278 -467h-64l903 1516h80l375 -1516h-65zM791 1649l-19 47l438 225l23 -57z" />
    <glyph glyph-name="Acircumflex" unicode="&#xc2;" horiz-adv-x="1378" 
d="M385 522h789l-228 938zM1188 467h-836l-278 -467h-64l903 1516h80l375 -1516h-65zM1313 1690l-39 -39l-244 247l-336 -247l-37 43l379 276z" />
    <glyph glyph-name="Atilde" unicode="&#xc3;" horiz-adv-x="1378" 
d="M385 522h789l-228 938zM1188 467h-836l-278 -467h-64l903 1516h80l375 -1516h-65zM1130 1733q-61 0 -147 42q-85 42 -141 42t-131 -62l-35 43q88 72 173 72t170 -42t126 -42q74 0 153 67l43 -32q-109 -88 -211 -88z" />
    <glyph glyph-name="Adieresis" unicode="&#xc4;" horiz-adv-x="1378" 
d="M385 522h789l-228 938zM1188 467h-836l-278 -467h-64l903 1516h80l375 -1516h-65zM1200 1786q0 -26 -20 -46t-46 -20q-47 0 -49 47q1 27 19 47t47 19q49 0 49 -47zM854 1720q-50 0 -49 50q0 24 19 44t46 19q49 0 50 -47q0 -26 -20 -46q-22 -20 -46 -20z" />
    <glyph glyph-name="Aring" unicode="&#xc5;" horiz-adv-x="1378" 
d="M385 522h789l-228 938zM1188 467h-836l-278 -467h-64l903 1516h80l375 -1516h-65zM980 1614q64 0 121 53q56 53 56 121t-36 105q-37 38 -101 38t-120 -55q-56 -56 -56 -120t36 -103t100 -39zM1027 1985q87 -1 139 -53t51 -139q0 -87 -78 -160t-165 -73t-138 54
q-52 53 -52 138t78 159t165 74z" />
    <glyph glyph-name="AE" unicode="&#xc6;" horiz-adv-x="1933" 
d="M1102 522l158 899l-742 -899h584zM1010 0l82 467h-619l-385 -467h-78l1254 1516h823l-8 -56h-750l-112 -641h665l-10 -55h-666l-125 -709h750l-10 -55h-811z" />
    <glyph glyph-name="Ccedilla" unicode="&#xc7;" horiz-adv-x="1468" 
d="M193 622q0 256 130 464t348 332t464 124q334 0 522 -237l-53 -33q-178 215 -480 215q-172 0 -334 -71q-323 -142 -465 -453q-71 -154 -71 -314q0 -264 172 -442t452 -178t527 200l39 -34q-264 -219 -580 -222l-45 -84h49q178 0 179 -133q0 -109 -69 -162t-149 -53
t-130 42t-54 122h55q8 -119 127 -119q72 0 117 40t45 116q0 98 -135 98h-117l72 135q-270 15 -443 203t-173 444z" />
    <glyph glyph-name="Egrave" unicode="&#xc8;" horiz-adv-x="1107" 
d="M184 0l267 1516h811l-9 -56h-749l-113 -641h666l-10 -55h-666l-125 -709h750l-11 -55h-811zM1038 1673l-366 217l37 52l362 -226z" />
    <glyph glyph-name="Eacute" unicode="&#xc9;" horiz-adv-x="1107" 
d="M184 0l267 1516h811l-9 -56h-749l-113 -641h666l-10 -55h-666l-125 -709h750l-11 -55h-811zM758 1669l-19 47l439 226l22 -58z" />
    <glyph glyph-name="Ecircumflex" unicode="&#xca;" horiz-adv-x="1107" 
d="M184 0l267 1516h811l-9 -56h-749l-113 -641h666l-10 -55h-666l-125 -709h750l-11 -55h-811zM1204 1690l-39 -39l-243 247l-336 -247l-37 43l379 276z" />
    <glyph glyph-name="Edieresis" unicode="&#xcb;" horiz-adv-x="1107" 
d="M184 0l267 1516h811l-9 -56h-749l-113 -641h666l-10 -55h-666l-125 -709h750l-11 -55h-811zM1024 1720q-50 0 -49 50q0 24 18 44t47 19q49 0 50 -47q0 -26 -20 -46q-22 -20 -46 -20zM809 1786q-1 -26 -21 -46t-44 -20q-47 0 -50 47q0 27 20 47t46 19q49 0 49 -47z" />
    <glyph glyph-name="Igrave" unicode="&#xcc;" horiz-adv-x="430" 
d="M184 0l267 1516h61l-266 -1516h-62zM690 1673l-366 217l36 52l363 -226z" />
    <glyph glyph-name="Iacute" unicode="&#xcd;" horiz-adv-x="430" 
d="M184 0l267 1516h61l-266 -1516h-62zM334 1669l-19 47l439 226l22 -58z" />
    <glyph glyph-name="Icircumflex" unicode="&#xce;" horiz-adv-x="430" 
d="M184 0l267 1516h61l-266 -1516h-62zM840 1690l-39 -39l-244 247l-336 -247l-37 43l379 276z" />
    <glyph glyph-name="Idieresis" unicode="&#xcf;" horiz-adv-x="430" 
d="M184 0l267 1516h61l-266 -1516h-62zM723 1786q-1 -26 -21 -46t-44 -20q-47 0 -50 47q0 27 20 47t46 19q49 0 49 -47zM378 1720q-50 0 -50 50q0 24 18 44t47 19q49 0 49 -47q0 -26 -20 -46t-44 -20z" />
    <glyph glyph-name="Eth" unicode="&#xd0;" horiz-adv-x="1470" 
d="M598 55q365 -1 625 229t260 580q0 266 -176 431t-461 165h-344l-117 -669h520l-10 -56h-520l-121 -680h344zM854 1516q307 0 500 -171t192 -464q0 -341 -218 -571t-550 -294q-56 -16 -190 -16h-404l129 735h-151l10 56h152l127 725h403z" />
    <glyph glyph-name="Ntilde" unicode="&#xd1;" horiz-adv-x="1628" 
d="M1366 0l-864 1454l-256 -1454h-62l267 1516h92l854 -1434l252 1434h61l-266 -1516h-78zM1253 1733q-61 0 -147 42t-142 42t-130 -62l-35 43q88 72 173 72t170 -42t126 -42q80 0 157 74l39 -39q-98 -88 -211 -88z" />
    <glyph glyph-name="Ograve" unicode="&#xd2;" horiz-adv-x="1726" 
d="M868 29q346 0 609 250q262 250 262 583q0 262 -171 444t-444 181q-172 0 -334 -71q-323 -142 -465 -453q-71 -154 -71 -314q0 -264 172 -442t442 -178zM1800 872q0 -240 -133 -448t-349 -330q-216 -121 -458 -121q-291 1 -479 191t-188 477q0 237 130 445t348 332
t464 124q293 0 479 -192t186 -478zM1307 1673l-367 217l37 52l362 -226z" />
    <glyph glyph-name="Oacute" unicode="&#xd3;" horiz-adv-x="1726" 
d="M868 29q346 0 609 250q262 250 262 583q0 262 -171 444t-444 181q-172 0 -334 -71q-323 -142 -465 -453q-71 -154 -71 -314q0 -264 172 -442t442 -178zM1800 872q0 -240 -133 -448t-349 -330q-216 -121 -458 -121q-291 1 -479 191t-188 477q0 237 130 445t348 332
t464 124q293 0 479 -192t186 -478zM1008 1669l-19 47l438 226l23 -58z" />
    <glyph glyph-name="Ocircumflex" unicode="&#xd4;" horiz-adv-x="1726" 
d="M868 29q346 0 609 250q262 250 262 583q0 262 -171 444t-444 181q-172 0 -334 -71q-323 -142 -465 -453q-71 -154 -71 -314q0 -264 172 -442t442 -178zM1800 872q0 -240 -133 -448t-349 -330q-216 -121 -458 -121q-291 1 -479 191t-188 477q0 237 130 445t348 332
t464 124q293 0 479 -192t186 -478zM1487 1690l-39 -39l-244 247l-336 -247l-37 43l379 276z" />
    <glyph glyph-name="Otilde" unicode="&#xd5;" horiz-adv-x="1726" 
d="M868 29q346 0 609 250q262 250 262 583q0 262 -171 444t-444 181q-172 0 -334 -71q-323 -142 -465 -453q-71 -154 -71 -314q0 -264 172 -442t442 -178zM1800 872q0 -240 -133 -448t-349 -330q-216 -121 -458 -121q-291 1 -479 191t-188 477q0 237 130 445t348 332
t464 124q293 0 479 -192t186 -478zM1331 1733q-61 0 -147 42t-142 42t-131 -62l-34 43q88 72 173 72t170 -42t126 -42q74 0 153 67l43 -32q-109 -88 -211 -88z" />
    <glyph glyph-name="Odieresis" unicode="&#xd6;" horiz-adv-x="1726" 
d="M868 29q346 0 609 250q262 250 262 583q0 262 -171 444t-444 181q-172 0 -334 -71q-323 -142 -465 -453q-71 -154 -71 -314q0 -264 172 -442t442 -178zM1800 872q0 -240 -133 -448t-349 -330q-216 -121 -458 -121q-291 1 -479 191t-188 477q0 237 130 445t348 332
t464 124q293 0 479 -192t186 -478zM1366 1786q0 -26 -20 -46t-46 -20q-47 0 -49 47q-1 27 19 47t47 19q49 0 49 -47zM1020 1720q-50 0 -49 50q0 24 18 44t47 19q49 0 49 -47q0 -26 -20 -46q-21 -20 -45 -20z" />
    <glyph glyph-name="multiply" unicode="&#xd7;" horiz-adv-x="999" 
d="M176 362l408 347l-285 344l49 41l283 -344l407 346l35 -41l-407 -346l282 -344l-47 -41l-285 344l-407 -346z" />
    <glyph glyph-name="Oslash" unicode="&#xd8;" horiz-adv-x="1726" 
d="M868 29q346 0 609 250q262 250 262 581q0 162 -69 302t-189 222l-928 -1280q139 -75 315 -75zM254 647q0 -164 69 -302t187 -216l928 1280q-135 78 -314 78q-229 0 -432 -119q-202 -118 -320 -312t-118 -409zM1135 1542q184 0 342 -82l92 127l43 -22l-94 -129
q130 -84 206 -235t76 -329q0 -240 -133 -448t-349 -330q-216 -121 -434 -121t-368 82l-90 -125l-43 21l92 129q-131 84 -207 234t-75 327q0 237 130 445t348 332t464 124z" />
    <glyph glyph-name="Ugrave" unicode="&#xd9;" horiz-adv-x="1560" 
d="M1602 1516h61l-141 -805q-66 -371 -262 -554t-486 -183q-289 0 -420 182q-131 184 -65 555l141 805h62l-142 -803q-57 -384 73 -535t361 -150q230 1 409 146q93 76 164 213t103 326zM1233 1673l-367 217l37 52l363 -226z" />
    <glyph glyph-name="Uacute" unicode="&#xda;" horiz-adv-x="1560" 
d="M1602 1516h61l-141 -805q-66 -371 -262 -554t-486 -183q-289 0 -420 182q-131 184 -65 555l141 805h62l-142 -803q-57 -384 73 -535t361 -150q230 1 409 146q93 76 164 213t103 326zM911 1669l-18 47l438 226l23 -58z" />
    <glyph glyph-name="Ucircumflex" unicode="&#xdb;" horiz-adv-x="1560" 
d="M1602 1516h61l-141 -805q-66 -371 -262 -554t-486 -183q-289 0 -420 182q-131 184 -65 555l141 805h62l-142 -803q-57 -384 73 -535t361 -150q230 1 409 146q93 76 164 213t103 326zM1405 1690l-39 -39l-244 247l-336 -247l-36 43l378 276z" />
    <glyph glyph-name="Udieresis" unicode="&#xdc;" horiz-adv-x="1560" 
d="M1602 1516h61l-141 -805q-66 -371 -262 -554t-486 -183q-289 0 -420 182q-131 184 -65 555l141 805h62l-142 -803q-57 -384 73 -535t361 -150q230 1 409 146q93 76 164 213t103 326zM1228 1720q-50 0 -50 50q0 24 19 44t46 19q49 0 49 -47q0 -26 -20 -46t-44 -20z
M946 1720q-50 0 -49 50q0 24 18 44t48 19q49 0 49 -47q0 -26 -20 -46q-22 -20 -46 -20z" />
    <glyph glyph-name="Yacute" unicode="&#xdd;" horiz-adv-x="1249" 
d="M776 692l-121 -692h-61l121 692l-428 824h63l402 -758l667 758h76zM786 1669l-18 47l438 226l23 -58z" />
    <glyph glyph-name="Thorn" unicode="&#xde;" horiz-adv-x="1198" 
d="M625 360q281 0 431 122t150 345q0 160 -112 244q-113 84 -330 84h-315l-140 -795h316zM774 1210q244 0 370 -94t126 -276q0 -258 -169 -396t-487 -139h-315l-53 -305h-62l267 1516h61l-53 -306h315z" />
    <glyph glyph-name="germandbls" unicode="&#xdf;" horiz-adv-x="1169" 
d="M1157 473q0 -205 -155 -339t-359 -134h-203l11 53h202q193 0 320 112t127 310q0 139 -93 218t-268 79h-164l11 53h164q140 0 252 89t112 272q0 127 -78 202t-209 74q-174 0 -286 -125q-57 -63 -87 -154t-57 -241l-166 -942h-57l166 942q51 297 152 416q131 158 344 158
q156 0 246 -94t89 -221t-69 -237t-207 -161q127 -23 195 -115t67 -215z" />
    <glyph glyph-name="agrave" unicode="&#xe0;" 
d="M227 414q1 -164 103 -276t282 -111q180 0 328 139t170 319q26 181 -68 317t-298 136t-360 -161q-157 -161 -157 -363zM590 -27q-186 0 -304 124t-118 309q0 229 180 407t422 178q146 0 248 -81t131 -214l47 277h57l-170 -973h-57l47 266q-78 -133 -208 -213t-275 -80z
M977 1130l-367 218l37 51l363 -225z" />
    <glyph glyph-name="aacute" unicode="&#xe1;" 
d="M227 414q1 -164 103 -276t282 -111q180 0 328 139t170 319q26 181 -68 317t-298 136t-360 -161q-157 -161 -157 -363zM590 -27q-186 0 -304 124t-118 309q0 229 180 407t422 178q146 0 248 -81t131 -214l47 277h57l-170 -973h-57l47 266q-78 -133 -208 -213t-275 -80z
M653 1126l-18 48l438 225l23 -58z" />
    <glyph glyph-name="acircumflex" unicode="&#xe2;" 
d="M227 414q1 -164 103 -276t282 -111q180 0 328 139t170 319q26 181 -68 317t-298 136t-360 -161q-157 -161 -157 -363zM590 -27q-186 0 -304 124t-118 309q0 229 180 407t422 178q146 0 248 -81t131 -214l47 277h57l-170 -973h-57l47 266q-78 -133 -208 -213t-275 -80z
M1118 1147l-39 -39l-243 248l-336 -248l-37 43l379 276z" />
    <glyph glyph-name="atilde" unicode="&#xe3;" 
d="M227 414q1 -164 103 -276t282 -111q180 0 328 139t170 319q26 181 -68 317t-298 136t-360 -161q-157 -161 -157 -363zM590 -27q-186 0 -304 124t-118 309q0 229 180 407t422 178q146 0 248 -81t131 -214l47 277h57l-170 -973h-57l47 266q-78 -133 -208 -213t-275 -80z
M963 1178q-61 0 -147 42t-142 42t-131 -62l-35 43q88 72 173 72t170 -42t126 -42q74 0 153 67l44 -32q-109 -88 -211 -88z" />
    <glyph glyph-name="adieresis" unicode="&#xe4;" 
d="M227 414q1 -164 103 -276t282 -111q180 0 328 139t170 319q26 181 -68 317t-298 136t-360 -161q-157 -161 -157 -363zM590 -27q-186 0 -304 124t-118 309q0 229 180 407t422 178q146 0 248 -81t131 -214l47 277h57l-170 -973h-57l47 266q-78 -133 -208 -213t-275 -80z
M940 1188q-50 0 -49 47q0 27 19 46t46 19q49 0 50 -47q0 -27 -20 -46q-22 -19 -46 -19zM655 1188q-43 0 -45 47q0 27 18 46t48 19q49 0 49 -47q-1 -27 -21 -46t-49 -19z" />
    <glyph glyph-name="aring" unicode="&#xe5;" 
d="M227 414q1 -164 103 -276t282 -111q180 0 328 139t170 319q26 181 -68 317t-298 136t-360 -161q-157 -161 -157 -363zM590 -27q-186 0 -304 124t-118 309q0 229 180 407t422 178q146 0 248 -81t131 -214l47 277h57l-170 -973h-57l47 266q-78 -133 -208 -213t-275 -80z
M641 1234q0 -64 36 -103q37 -39 101 -39t120 53t56 121t-35 105q-36 38 -101 38t-121 -55q-56 -56 -56 -120zM1014 1271q0 -87 -78 -160t-165 -73t-138 54t-51 138q0 85 77 159q77 73 165 73t139 -52t51 -139z" />
    <glyph glyph-name="ae" unicode="&#xe6;" horiz-adv-x="2105" 
d="M1689 938q-177 0 -323 -123t-192 -295h880q18 174 -85 296t-280 122zM602 27q217 0 367 167t149 357q0 159 -96 273t-262 114q-219 0 -376 -161t-157 -363q1 -164 103 -276t272 -111zM590 -27q-186 0 -304 124t-118 309q0 229 180 407t422 178q146 0 248 -81t131 -214
l47 277h57l-47 -277q76 135 210 215t282 80q206 -1 324 -151t85 -359l-2 -14h-940q-27 -180 79 -310t294 -130q233 0 397 188l39 -31q-88 -96 -207 -153t-253 -57t-244 79q-109 80 -140 215l-47 -268h-57l47 266q-78 -133 -208 -213t-275 -80z" />
    <glyph glyph-name="ccedilla" unicode="&#xe7;" horiz-adv-x="1083" 
d="M168 408q0 227 184 405t418 178q133 0 237 -66q103 -67 154 -180l-53 -26q-41 99 -132 159t-214 60q-213 0 -374 -161t-161 -359q-1 -162 105 -277t272 -114q123 0 235 60t187 159l43 -27q-86 -113 -213 -179t-260 -67l-37 -69h49q180 0 180 -133q0 -109 -70 -162
t-149 -53q-80 0 -129 42t-55 121h55q12 -119 129 -118q72 0 117 40t45 115q0 98 -135 99h-117l66 122q-165 13 -271 137t-106 294z" />
    <glyph glyph-name="egrave" unicode="&#xe8;" horiz-adv-x="1171" 
d="M756 938q-178 0 -324 -123t-190 -295h880q18 174 -85 296t-281 122zM170 410q0 227 181 404t401 177q220 -1 339 -151q118 -150 85 -359l-2 -14h-941q-29 -180 77 -310t296 -130q229 0 398 188l36 -31q-88 -98 -206 -154t-240 -57q-182 0 -303 126t-121 311zM924 1130
l-367 218l37 51l362 -225z" />
    <glyph glyph-name="eacute" unicode="&#xe9;" horiz-adv-x="1171" 
d="M756 938q-178 0 -324 -123t-190 -295h880q18 174 -85 296t-281 122zM170 410q0 227 181 404t401 177q220 -1 339 -151q118 -150 85 -359l-2 -14h-941q-29 -180 77 -310t296 -130q229 0 398 188l36 -31q-88 -98 -206 -154t-240 -57q-182 0 -303 126t-121 311zM621 1126
l-19 48l438 225l23 -58z" />
    <glyph glyph-name="ecircumflex" unicode="&#xea;" horiz-adv-x="1171" 
d="M756 938q-178 0 -324 -123t-190 -295h880q18 174 -85 296t-281 122zM170 410q0 227 181 404t401 177q220 -1 339 -151q118 -150 85 -359l-2 -14h-941q-29 -180 77 -310t296 -130q229 0 398 188l36 -31q-88 -98 -206 -154t-240 -57q-182 0 -303 126t-121 311zM1116 1147
l-39 -39l-243 248l-336 -248l-37 43l379 276z" />
    <glyph glyph-name="edieresis" unicode="&#xeb;" horiz-adv-x="1171" 
d="M756 938q-178 0 -324 -123t-190 -295h880q18 174 -85 296t-281 122zM170 410q0 227 181 404t401 177q220 -1 339 -151q118 -150 85 -359l-2 -14h-941q-29 -180 77 -310t296 -130q229 0 398 188l36 -31q-88 -98 -206 -154t-240 -57q-182 0 -303 126t-121 311zM934 1188
q-50 0 -49 47q0 27 18 46t47 19q49 0 49 -47q0 -27 -20 -46q-21 -19 -45 -19zM719 1253q-1 -27 -21 -46t-44 -19q-50 0 -50 47q0 27 20 46t46 19q49 0 49 -47z" />
    <glyph glyph-name="igrave" unicode="&#xec;" horiz-adv-x="405" 
d="M174 0l172 973h57l-172 -973h-57zM592 1130l-367 218l37 51l363 -225z" />
    <glyph glyph-name="iacute" unicode="&#xed;" horiz-adv-x="405" 
d="M174 0l172 973h57l-172 -973h-57zM219 1126l-18 48l438 225l23 -58z" />
    <glyph glyph-name="icircumflex" unicode="&#xee;" horiz-adv-x="405" 
d="M174 0l172 973h57l-172 -973h-57zM733 1147l-39 -39l-243 248l-336 -248l-37 43l379 276z" />
    <glyph glyph-name="idieresis" unicode="&#xef;" horiz-adv-x="405" 
d="M174 0l172 973h57l-172 -973h-57zM554 1188q-50 0 -50 47q0 27 18 46t47 19q49 0 49 -47q0 -27 -20 -46t-44 -19zM268 1188q-43 0 -45 47q-1 27 19 46t47 19q49 0 49 -47q0 -27 -20 -46t-50 -19z" />
    <glyph glyph-name="eth" unicode="&#xf0;" horiz-adv-x="1202" 
d="M606 27q213 -1 375 161t162 361q-1 165 -107 277t-272 112q-213 0 -375 -161t-162 -361q-1 -162 105 -276t274 -113zM170 410q0 227 184 404t418 177q137 0 244 -71q106 -72 153 -203q-35 373 -350 606l-190 -133l-23 39l176 123q-96 68 -237 123l39 41q127 -51 247 -132
l185 129l26 -36l-174 -119q168 -127 259 -309t92 -390q1 -305 -189 -495t-440 -191q-178 0 -299 126t-121 311z" />
    <glyph glyph-name="ntilde" unicode="&#xf1;" horiz-adv-x="1179" 
d="M782 938q-192 0 -310 -123t-157 -338l-84 -477h-57l172 973h57l-43 -244q64 129 180 196t257 66q190 1 277 -113t48 -337l-96 -541h-57l90 516q37 152 -12 286q-23 60 -90 98t-175 38zM940 1178q-59 0 -147 42q-89 42 -143 42t-130 -62l-35 43q87 72 173 72t170 -42
t126 -42q74 0 154 67l43 -32q-109 -88 -211 -88z" />
    <glyph glyph-name="ograve" unicode="&#xf2;" horiz-adv-x="1198" 
d="M606 27q213 -1 375 161t162 361q-1 165 -107 277t-272 112q-213 0 -375 -161t-162 -361q-1 -162 105 -276t274 -113zM1200 551q0 -229 -187 -403t-419 -175q-182 0 -303 126t-121 309q0 227 184 405t418 178q184 0 306 -128t122 -312zM946 1130l-366 218l36 51l363 -225z
" />
    <glyph glyph-name="oacute" unicode="&#xf3;" horiz-adv-x="1198" 
d="M606 27q213 -1 375 161t162 361q-1 165 -107 277t-272 112q-213 0 -375 -161t-162 -361q-1 -162 105 -276t274 -113zM1200 551q0 -229 -187 -403t-419 -175q-182 0 -303 126t-121 309q0 227 184 405t418 178q184 0 306 -128t122 -312zM655 1126l-18 48l438 225l23 -58z
" />
    <glyph glyph-name="ocircumflex" unicode="&#xf4;" horiz-adv-x="1198" 
d="M606 27q213 -1 375 161t162 361q-1 165 -107 277t-272 112q-213 0 -375 -161t-162 -361q-1 -162 105 -276t274 -113zM1200 551q0 -229 -187 -403t-419 -175q-182 0 -303 126t-121 309q0 227 184 405t418 178q184 0 306 -128t122 -312zM1128 1147l-38 -39l-244 248
l-336 -248l-37 43l379 276z" />
    <glyph glyph-name="otilde" unicode="&#xf5;" horiz-adv-x="1198" 
d="M606 27q213 -1 375 161t162 361q-1 165 -107 277t-272 112q-213 0 -375 -161t-162 -361q-1 -162 105 -276t274 -113zM1200 551q0 -229 -187 -403t-419 -175q-182 0 -303 126t-121 309q0 227 184 405t418 178q184 0 306 -128t122 -312zM940 1180q-59 0 -147 42
q-89 42 -143 42t-130 -62l-35 43q87 72 173 72t170 -42t126 -42q74 0 154 67l43 -32q-109 -88 -211 -88z" />
    <glyph glyph-name="odieresis" unicode="&#xf6;" horiz-adv-x="1198" 
d="M606 27q213 -1 375 161t162 361q-1 165 -107 277t-272 112q-213 0 -375 -161t-162 -361q-1 -162 105 -276t274 -113zM1200 551q0 -229 -187 -403t-419 -175q-182 0 -303 126t-121 309q0 227 184 405t418 178q184 0 306 -128t122 -312zM1012 1253q0 -27 -20 -46t-46 -19
q-50 0 -49 47q0 27 18 46t48 19q49 0 49 -47zM662 1188q-44 0 -46 47q0 27 20 46t46 19q49 0 49 -47q0 -27 -20 -46t-49 -19z" />
    <glyph glyph-name="divide" unicode="&#xf7;" horiz-adv-x="1236" 
d="M672 295q-37 0 -37 37q0 20 15 36t36 15q39 0 39 -37q0 -20 -15 -36t-38 -15zM1266 737l-11 -57h-1032l10 57h1033zM803 1034q-37 0 -37 37q0 23 14 37t37 14q39 0 39 -37q0 -19 -15 -35t-38 -16z" />
    <glyph glyph-name="oslash" unicode="&#xf8;" horiz-adv-x="1198" 
d="M604 27q215 1 376 161t161 359q0 109 -49 202t-134 140l-505 -834q69 -28 151 -28zM227 416q0 -109 48 -200t133 -140l505 833q-70 29 -149 29q-213 0 -375 -160t-162 -362zM168 408q0 227 184 405t418 178q92 0 172 -35l98 164l45 -22l-98 -162q95 -54 153 -158t58 -227
q0 -229 -186 -403t-418 -175q-90 0 -172 33l-96 -158l-43 21l94 158q-96 53 -153 155q-56 102 -56 226z" />
    <glyph glyph-name="ugrave" unicode="&#xf9;" horiz-adv-x="1175" 
d="M592 27q371 0 438 383l98 563h58l-99 -561q-76 -438 -503 -439q-428 0 -353 439l99 561h57l-98 -563q-68 -383 303 -383zM948 1130l-366 218l36 51l363 -225z" />
    <glyph glyph-name="uacute" unicode="&#xfa;" horiz-adv-x="1175" 
d="M592 27q371 0 438 383l98 563h58l-99 -561q-76 -438 -503 -439q-428 0 -353 439l99 561h57l-98 -563q-68 -383 303 -383zM633 1126l-19 48l439 225l22 -58z" />
    <glyph glyph-name="ucircumflex" unicode="&#xfb;" horiz-adv-x="1175" 
d="M592 27q371 0 438 383l98 563h58l-99 -561q-76 -438 -503 -439q-428 0 -353 439l99 561h57l-98 -563q-68 -383 303 -383zM1118 1147l-39 -39l-243 248l-336 -248l-37 43l379 276z" />
    <glyph glyph-name="udieresis" unicode="&#xfc;" horiz-adv-x="1175" 
d="M592 27q371 0 438 383l98 563h58l-99 -561q-76 -438 -503 -439q-428 0 -353 439l99 561h57l-98 -563q-68 -383 303 -383zM938 1188q-50 0 -49 47q0 27 18 46t47 19q49 0 50 -47q0 -27 -20 -46q-22 -19 -46 -19zM653 1188q-43 0 -45 47q0 27 20 46t46 19q49 0 49 -47
q-1 -27 -21 -46t-49 -19z" />
    <glyph glyph-name="yacute" unicode="&#xfd;" horiz-adv-x="935" 
d="M438 -16l-248 989h60l225 -922l545 922h65l-884 -1491h-60zM535 1126l-19 48l438 225l23 -58z" />
    <glyph glyph-name="thorn" unicode="&#xfe;" 
d="M826 938q-180 0 -322 -131t-186 -312q-43 -181 56 -325q99 -143 309 -143q210 -1 364 159t153 367q0 161 -97 273t-277 112zM846 991q188 0 300 -125t111 -309q0 -236 -176 -410t-415 -174q-147 0 -249 76q-101 76 -143 199l-135 -766h-57l358 2034h58l-142 -799
q86 123 214 199t276 75z" />
    <glyph glyph-name="ydieresis" unicode="&#xff;" horiz-adv-x="935" 
d="M438 -16l-248 989h60l225 -922l545 922h65l-884 -1491h-60zM891 1253q-1 -27 -21 -46t-44 -19q-50 0 -50 47q0 27 20 46t46 19q49 0 49 -47zM546 1188q-50 0 -50 47q0 27 18 46t47 19q49 0 49 -47q0 -27 -20 -46t-44 -19z" />
    <glyph glyph-name="dotlessi" unicode="&#x131;" horiz-adv-x="405" 
d="M174 0l172 973h57l-172 -973h-57z" />
    <glyph glyph-name="Ldot" unicode="&#x13f;" horiz-adv-x="1099" 
d="M881 690q-43 0 -43 45q0 27 18 44t45 18q45 0 45 -43q0 -28 -18 -46t-47 -18zM184 0l267 1516h61l-256 -1461h813l-10 -55h-875z" />
    <glyph glyph-name="ldot" unicode="&#x140;" horiz-adv-x="532" 
d="M573 604q-43 0 -43 45q0 27 18 44t46 18q45 0 45 -43q-1 -28 -19 -46t-47 -18zM387 27q53 0 111 18l-11 -51q-164 -52 -237 19q-41 39 -41 103t10 142l221 1258h58l-219 -1248q-25 -125 0 -183t108 -58z" />
    <glyph glyph-name="Lslash" unicode="&#x141;" horiz-adv-x="1099" 
d="M184 0l103 580l-181 -115l13 67l180 115l152 869h61l-143 -824l454 293l-12 -67l-455 -293l-100 -570h813l-10 -55h-875z" />
    <glyph glyph-name="lslash" unicode="&#x142;" horiz-adv-x="507" 
d="M389 27q53 0 109 18l-9 -51q-166 -53 -239 19q-41 39 -40 103t11 142l64 363l-162 -103l10 62l162 102l147 834h58l-140 -793l246 160l-10 -62l-248 -159l-69 -394q-23 -129 1 -185t109 -56z" />
    <glyph glyph-name="OE" unicode="&#x152;" horiz-adv-x="2516" 
d="M868 29q346 0 609 250q262 250 262 583q0 262 -171 444t-444 181q-172 0 -334 -71q-323 -142 -465 -453q-71 -154 -71 -314q0 -264 172 -442t442 -178zM860 -27q-291 1 -479 191t-188 477q0 237 130 445t348 332t464 124q245 0 419 -131t228 -346l80 451h811l-11 -56
h-749l-113 -641h666l-10 -55h-666l-125 -709h750l-11 -55h-811l80 451q-129 -215 -349 -347t-464 -131z" />
    <glyph glyph-name="oe" unicode="&#x153;" horiz-adv-x="2127" 
d="M1718 938q-178 0 -326 -123t-194 -295h881q18 176 -82 297q-101 121 -279 121zM606 27q213 1 375 159t162 363q-1 165 -107 277t-272 112q-213 0 -375 -161t-162 -361q-1 -162 105 -276t274 -113zM170 408q0 227 184 405t418 178q166 0 283 -101t133 -263q74 162 224 263
q151 101 317 101q207 1 321 -149t82 -361l-2 -14h-940q-28 -180 78 -310t295 -130q229 0 397 188l37 -31q-189 -210 -469 -210q-144 0 -258 98q-114 100 -133 262q-74 -162 -227 -261q-154 -99 -326 -99t-293 125q-121 126 -121 309z" />
    <glyph glyph-name="Scaron" unicode="&#x160;" horiz-adv-x="1062" 
d="M993 434q0 100 -67 171q-68 71 -164 113t-192 85t-164 119t-68 184q0 178 135 307t385 129q209 0 340 -143l-47 -47q-99 135 -293 135t-326 -97t-131 -266q0 -98 68 -167t164 -111t192 -86q96 -45 164 -122t68 -187q0 -203 -160 -340t-369 -138q-150 0 -266 74t-162 172
l50 47q48 -104 156 -171t229 -66q170 1 314 113t144 292zM565 1931l39 39l244 -248l336 248l37 -43l-379 -276z" />
    <glyph glyph-name="scaron" unicode="&#x161;" horiz-adv-x="827" 
d="M421 27q163 1 237 71t73 147q0 77 -51 121t-125 70q-75 26 -149 54t-125 79t-52 127q-1 125 103 210t256 85t276 -100l-37 -45q-98 92 -243 92q-94 0 -160 -29t-92 -73q-44 -76 -43 -133q0 -57 51 -101t125 -68q75 -26 149 -55t125 -82t52 -131q-1 -135 -107 -214
t-280 -79t-302 142l41 45q115 -133 278 -133zM334 1389l39 38l243 -247l336 247l37 -43l-379 -276z" />
    <glyph glyph-name="Ydieresis" unicode="&#x178;" horiz-adv-x="1249" 
d="M776 692l-121 -692h-61l121 692l-428 824h63l402 -758l667 758h76zM1062 1720q-50 0 -50 50q0 24 18 44t47 19q49 0 49 -47q0 -26 -20 -46t-44 -20zM780 1720q-50 0 -49 50q-1 24 19 44t47 19q49 0 49 -47q0 -26 -20 -46q-22 -20 -46 -20z" />
    <glyph glyph-name="Zcaron" unicode="&#x17d;" horiz-adv-x="1325" 
d="M82 0l4 29l1294 1431h-1018l9 56h1118l-4 -29l-1292 -1432h1032l-11 -55h-1132zM659 1931l39 39l244 -248l336 248l37 -43l-379 -276z" />
    <glyph glyph-name="zcaron" unicode="&#x17e;" horiz-adv-x="964" 
d="M102 0l9 49l835 871h-682l10 53h760l-10 -55l-834 -865h682l-10 -53h-760zM395 1389l39 38l244 -247l336 247l37 -43l-379 -276z" />
    <glyph glyph-name="florin" unicode="&#x192;" horiz-adv-x="542" 
d="M381 920l-145 -824q-32 -190 -96 -294t-195 -136l10 60q98 32 148 122t77 246l146 826h-123l8 53h125l4 28q35 227 126 336t298 111l-8 -55q-174 -3 -248 -95t-113 -294l-6 -31h273l-9 -53h-272z" />
    <glyph glyph-name="circumflex" unicode="&#x2c6;" horiz-adv-x="860" 
d="M961 1147l-46 -39l-241 254l-336 -254l-33 39l379 280z" />
    <glyph glyph-name="caron" unicode="&#x2c7;" horiz-adv-x="860" 
d="M627 1108l-279 281l45 38l244 -253l334 253l33 -38z" />
    <glyph glyph-name="breve" unicode="&#x2d8;" horiz-adv-x="886" 
d="M629 1159q78 0 135 44t72 114h55q-16 -91 -93 -151t-176 -60t-156 61q-56 61 -40 150h55q-10 -68 30 -113t118 -45z" />
    <glyph glyph-name="dotaccent" unicode="&#x2d9;" horiz-adv-x="292" 
d="M348 1147q-37 0 -37 37q1 20 15 36t36 15q39 0 39 -37q0 -20 -15 -36t-38 -15z" />
    <glyph glyph-name="ring" unicode="&#x2da;" horiz-adv-x="628" 
d="M512 1071q64 0 120 53q56 52 56 120t-36 106t-100 39t-121 -55q-56 -56 -56 -120t36 -104q37 -39 101 -39zM558 1442q86 0 138 -52t52 -139t-78 -160t-165 -73t-138 53t-51 138t77 159q78 74 165 74z" />
    <glyph glyph-name="ogonek" unicode="&#x2db;" horiz-adv-x="507" 
d="M232 -385q-62 0 -114 43t-52 123q0 117 96 219h63q-92 -100 -92 -193q0 -63 39 -101t89 -38t87 10l-8 -49q-46 -14 -108 -14z" />
    <glyph glyph-name="tilde" unicode="&#x2dc;" horiz-adv-x="866" 
d="M764 1108q-60 0 -148 42t-142 42t-130 -62l-35 44q88 72 191 71q68 0 152 -42t126 -42q74 0 154 68l43 -33q-109 -88 -211 -88z" />
    <glyph glyph-name="hungarumlaut" unicode="&#x2dd;" horiz-adv-x="882" 
d="M641 1108l-29 41l377 283l35 -50zM334 1108l-29 41l377 283l35 -50z" />
    <glyph glyph-name="endash" unicode="&#x2013;" horiz-adv-x="1165" 
d="M129 498l10 59h1084l-11 -59h-1083z" />
    <glyph glyph-name="emdash" unicode="&#x2014;" horiz-adv-x="2076" 
d="M129 498l10 59h1995l-10 -59h-1995z" />
    <glyph glyph-name="quoteleft" unicode="&#x2018;" horiz-adv-x="290" 
d="M393 1399q35 0 35 -37q0 -20 -14 -36t-37 -15q-39 0 -39 52t32 98t79 55l-7 -29q-55 -18 -67 -92q8 4 18 4z" />
    <glyph glyph-name="quoteright" unicode="&#x2019;" horiz-adv-x="290" 
d="M360 1464q0 20 16 36t38 16q39 0 39 -52t-32 -99q-32 -46 -79 -54l4 28q55 16 68 93q-8 -4 -17 -5q-37 0 -37 37z" />
    <glyph glyph-name="quotesinglbase" unicode="&#x201a;" horiz-adv-x="290" 
d="M143 -10q-37 0 -37 37q0 20 16 35t38 16q39 0 39 -52t-32 -98t-79 -55l4 29q55 16 68 92q-8 -4 -17 -4z" />
    <glyph glyph-name="quotedblleft" unicode="&#x201c;" horiz-adv-x="495" 
d="M598 1399q35 0 35 -37q-1 -20 -15 -36t-36 -15q-39 0 -39 52t31 98q32 46 79 55l-6 -29q-55 -18 -67 -92q8 4 18 4zM393 1399q35 0 35 -37q0 -20 -14 -36t-37 -15q-39 0 -39 52t32 98t79 55l-7 -29q-55 -18 -67 -92q8 4 18 4z" />
    <glyph glyph-name="quotedblright" unicode="&#x201d;" horiz-adv-x="495" 
d="M565 1464q-1 20 15 36t38 16q39 0 39 -52q1 -52 -31 -99q-32 -46 -79 -54l4 28q55 16 67 93q-8 -4 -16 -5q-37 0 -37 37zM360 1464q0 20 16 36t38 16q39 0 39 -52t-32 -99q-32 -46 -79 -54l4 28q55 16 68 93q-8 -4 -17 -5q-37 0 -37 37z" />
    <glyph glyph-name="quotedblbase" unicode="&#x201e;" horiz-adv-x="495" 
d="M348 -10q-37 0 -37 37q-1 20 15 35t39 16q39 0 39 -52t-32 -99q-32 -46 -79 -54l4 29q55 16 68 92q-8 -4 -17 -4zM143 -10q-37 0 -37 37q0 20 16 35t38 16q39 0 39 -52t-32 -98t-79 -55l4 29q55 16 68 92q-8 -4 -17 -4z" />
    <glyph glyph-name="dagger" unicode="&#x2020;" horiz-adv-x="1093" 
d="M426 -518l262 1491h-414l11 55h413l86 488h62l-86 -488h414l-11 -55h-413l-263 -1491h-61z" />
    <glyph glyph-name="daggerdbl" unicode="&#x2021;" horiz-adv-x="1134" 
d="M446 -518l103 584h-414l10 55h414l160 911h-414l10 55h414l76 429h61l-75 -429h413l-10 -55h-414l-159 -911h413l-10 -55h-414l-102 -584h-62z" />
    <glyph glyph-name="bullet" unicode="&#x2022;" horiz-adv-x="768" 
d="M490 526q-100 0 -157 60t-57 162q0 100 88 185t190 85q100 0 156 -62t56 -160q0 -100 -88 -185t-188 -85z" />
    <glyph glyph-name="ellipsis" unicode="&#x2026;" horiz-adv-x="1492" 
d="M1241 -10q-37 0 -37 37q0 20 16 35t35 16q39 0 39 -37q0 -19 -15 -35t-38 -16zM743 -10q-37 0 -36 37q0 20 15 35t36 16q39 0 39 -37q1 -19 -15 -35t-39 -16zM246 -10q-37 0 -37 37q0 20 15 35t36 16q39 0 39 -37q0 -19 -15 -35t-38 -16z" />
    <glyph glyph-name="perthousand" unicode="&#x2030;" horiz-adv-x="2648" 
d="M1886 305q0 -119 77 -199t217 -81q140 1 258 113t118 265q0 121 -77 202t-217 81t-258 -114t-118 -267zM1016 305q0 -119 76 -199t216 -81q140 1 259 113t119 265q0 121 -77 202t-217 81t-258 -114t-118 -267zM2613 408q0 -174 -141 -306t-320 -131q-139 -1 -231 95
t-92 235q0 174 141 305t318 131q139 0 232 -95t93 -234zM1743 408q0 -174 -141 -306t-320 -131q-139 -1 -231 95t-93 235q0 174 142 305t317 131q139 0 233 -95t93 -234zM635 831q157 0 275 113t118 266q0 121 -77 202t-199 81q-156 0 -275 -114t-119 -267q0 -119 78 -200
t199 -81zM442 0l1098 1516h59l-1097 -1516h-60zM1087 1214q0 -174 -141 -305t-319 -131q-139 0 -233 95q-93 95 -93 235q0 174 141 305t320 131q139 0 232 -96t93 -234z" />
    <glyph glyph-name="guilsinglleft" unicode="&#x2039;" horiz-adv-x="493" 
d="M362 106l-188 412l332 408h65l-325 -408l186 -412h-70z" />
    <glyph glyph-name="guilsinglright" unicode="&#x203a;" horiz-adv-x="493" 
d="M100 106l330 412l-180 408h65l187 -408l-332 -412h-70z" />
    <glyph glyph-name="fraction" unicode="&#x2044;" horiz-adv-x="262" 
d="M-313 0l1097 1516h60l-1098 -1516h-59z" />
    <glyph glyph-name="Euro" unicode="&#x20ac;" horiz-adv-x="1193" 
d="M686 29q66 -1 140 25t151 101q76 75 117 191h59q-47 -141 -138 -229q-149 -144 -327 -144q-109 0 -187 33q-77 33 -119 73q-110 105 -120 253q-6 88 10 205l11 57h-179l31 55h158l37 217h-158l31 56h137l10 57q47 267 213 415t375 148q371 0 358 -375h-59
q14 319 -309 320q-211 0 -344 -142t-172 -366l-11 -57h699l-31 -56h-678l-37 -217h611l-31 -55h-590l-10 -57q-42 -207 43 -357q33 -57 88 -91t105 -47t116 -13z" />
    <glyph glyph-name="trademark" unicode="&#x2122;" horiz-adv-x="1531" 
d="M1532 815h-57l110 627l-303 -252h-25l-210 250l-111 -625h-57l122 701h62l217 -267l328 267h47zM451 815l114 651h-205l9 50h465l-9 -50h-202l-115 -651h-57z" />
    <glyph glyph-name="minus" unicode="&#x2212;" horiz-adv-x="1236" 
d="M1266 737l-11 -57h-1032l10 57h1033z" />
    <glyph glyph-name="uniF8FF" unicode="&#xf8ff;" horiz-adv-x="1783" 
d="M489 1468h762v-245h-503v-387q121 -43 395 -199q85 -49 197 -88t210 -39l97 8q-10 -21 -70 -43q-59 -22 -129 -22q-256 0 -700 231v-684h-259v791q-49 20 -113 20t-108 -30q-45 -30 -45 -78q0 -99 76 -125q-53 2 -84 36t-31 105q0 70 69 121t189 51q29 0 47 -4v581z" />
    <glyph glyph-name="W.ss01" horiz-adv-x="1953" 
d="M1147 793l158 -691l825 1414h70l-891 -1516h-43l-162 711l-418 -711h-47l-352 1516h69l322 -1414l403 691l-168 723h66l145 -642l375 642h74z" />
    <glyph glyph-name="g.ss01" horiz-adv-x="1091" 
d="M482 -475q162 0 286 98q123 98 123 252q0 117 -90 193t-230 75h-16q-170 0 -292 -106q-122 -105 -122 -239t89 -204q90 -69 252 -69zM596 195q184 -1 314 123t130 303q0 137 -92 227t-237 90q-185 0 -321 -129t-136 -305q0 -141 89 -225t237 -84h16zM954 -123
q0 -182 -148 -294t-353 -111q-164 0 -270 83q-105 83 -105 221t94 242t242 150q-102 37 -161 123q-58 86 -58 205q0 203 158 349q159 146 366 146q68 0 125 -18h315l-10 -53h-195q142 -102 142 -280t-100 -301q-100 -122 -259 -171q101 -35 159 -112t58 -179z" />
    <glyph glyph-name="g.ss02" horiz-adv-x="1032" 
d="M456 -475q152 1 256 81t105 180q0 100 -78 160q-77 58 -231 58t-249 -80t-95 -182q0 -217 292 -217zM983 616q0 150 -85 236t-222 86q-176 0 -298 -120t-122 -300q0 -133 80 -217t219 -84q184 0 306 125q122 124 122 274zM874 -211q0 -123 -124 -220t-298 -97
q-172 0 -258 72t-88 192q0 121 111 215q-61 47 -61 117q0 136 118 206q-76 88 -75 238q0 205 141 342t344 137q66 0 125 -18h309l-8 -53h-195q125 -96 125 -282t-142 -330t-353 -144q-139 0 -232 69q-98 -43 -98 -145q0 -72 51 -98q114 70 270 70t247 -74t91 -197z" />
    <glyph glyph-name="zero.osf" horiz-adv-x="1198" 
d="M606 27q213 -1 375 161t162 361q-1 165 -107 277t-272 112q-213 0 -375 -161t-162 -361q-1 -162 105 -276t274 -113zM1200 551q0 -229 -187 -403t-419 -175q-182 0 -303 126t-121 309q0 227 184 405t418 178q184 0 306 -128t122 -312z" />
    <glyph glyph-name="one.osf" horiz-adv-x="561" 
d="M330 0l162 920h-299l10 53h356l-172 -973h-57z" />
    <glyph glyph-name="two.osf" horiz-adv-x="845" 
d="M836 743q0 89 -64 141t-170 52q-107 0 -200 -67t-136 -197h-59q51 156 161 238t243 81q133 0 209 -63t77 -183q0 -193 -205 -373q-174 -153 -477 -302q-20 -10 -29 -15h598l-10 -55h-690l10 55q283 148 405 234q123 86 185 146q152 150 152 308z" />
    <glyph glyph-name="three.osf" horiz-adv-x="1013" 
d="M454 -311q158 -1 281 117t123 288q0 102 -51 171t-150 69h-135l10 53h134q122 0 194 98q72 99 72 201t-68 177t-192 75t-228 -93t-131 -239l-53 2q31 172 152 278t267 105q146 0 228 -87q82 -88 82 -204t-60 -203t-157 -135q66 -28 105 -96t38 -162q0 -204 -145 -336
q-146 -132 -326 -132t-280 115q-100 116 -76 286h59q-20 -141 64 -245q85 -104 243 -103z" />
    <glyph glyph-name="four.osf" horiz-adv-x="995" 
d="M858 905l-706 -852h557zM639 -338l59 338h-626l10 53l768 924h78l-162 -924h158l-11 -53h-157l-60 -338h-57z" />
    <glyph glyph-name="five.osf" horiz-adv-x="1058" 
d="M639 580q181 0 279 -115t98 -279q0 -223 -172 -387t-372 -164t-315 129q-114 129 -91 316h55q-18 -162 73 -277t267 -114q207 0 352 147t145 346q0 150 -88 246t-237 96q-207 0 -361 -151l-43 28l197 572h600l-8 -53h-545l-170 -461q156 121 336 121z" />
    <glyph glyph-name="six.osf" horiz-adv-x="1081" 
d="M545 27q188 0 328 140q141 139 141 299t-93 258t-239 99q-186 0 -328 -140t-141 -316q0 -141 93 -241q94 -99 239 -99zM1069 487q0 -205 -166 -359t-368 -155q-158 0 -268 109q-109 109 -109 266t195 444q73 105 192 272t205 292h65l-407 -578q122 96 284 96t270 -112
q107 -113 107 -275z" />
    <glyph glyph-name="seven.osf" horiz-adv-x="845" 
d="M78 -344l827 1264h-733l8 53h795l-8 -53l-830 -1264h-59z" />
    <glyph glyph-name="eight.osf" horiz-adv-x="1124" 
d="M569 27q197 0 344 148q147 147 147 315t-95 272q-96 104 -248 104q-199 0 -347 -147t-149 -334q0 -147 97 -253t251 -105zM726 918q112 0 200 -54q102 102 102 212t-64 181q-65 70 -165 70q-133 0 -233 -99t-99 -222q0 -80 39 -140q108 52 220 52zM1118 508
q0 -211 -173 -373t-386 -162q-170 0 -283 117t-112 289q0 137 79 259t206 200q-39 66 -39 157q0 150 120 268q121 118 275 117q121 0 202 -84t81 -210t-119 -250q69 -54 109 -142t40 -186z" />
    <glyph glyph-name="nine.osf" horiz-adv-x="1081" 
d="M707 938q-187 0 -329 -141t-142 -316q0 -143 93 -241t238 -99q187 1 329 141t142 316q0 140 -93 240t-238 100zM703 991q171 -1 281 -109t110 -267t-195 -441q-71 -104 -193 -273t-206 -292h-66l410 577q-121 -96 -295 -96t-284 134t-77 317q33 184 189 317t326 133z" />
    <glyph glyph-name="ampersand.ss01" horiz-adv-x="1304" 
d="M240 338q0 -150 86 -230t248 -79q162 0 282 92q121 92 156 289l65 372h-452q-165 0 -275 -122t-110 -322zM176 328q0 352 318 483q-68 35 -108 109t-40 170q0 200 132 326t316 126t283 -88l-37 -45q-86 80 -219 80q-172 1 -293 -105t-120 -288q0 -119 64 -188t161 -68
h454l54 303h61l-53 -303h201l-11 -58h-200l-66 -370q-39 -219 -177 -329t-330 -110q-192 -1 -290 91q-100 92 -100 264z" />
    <glyph glyph-name="ampersand.ss02" horiz-adv-x="1269" 
d="M782 801q-147 0 -237 102q-131 -78 -211 -204q-80 -127 -80 -279t110 -272t281 -119q223 0 391 168t168 372q0 88 -26 162l51 31q35 -82 35 -189q0 -239 -194 -419t-433 -181q-193 0 -319 130t-125 323q0 156 88 292t233 224q-43 70 -43 174q0 170 134 299t306 129
q98 0 174 -50t113 -134l-55 -33q-29 72 -92 117t-148 45q-151 0 -263 -112t-112 -236q0 -125 75 -205t177 -80t185 46q82 46 135 122l41 -29q-61 -88 -159 -141t-200 -53z" />
    </font>
</defs>
</svg>
