<svg id="Layer_1_copy" data-name="Layer 1 copy" xmlns="http://www.w3.org/2000/svg" viewBox="0 0 607.08 272.09"><defs><style>.cls-1{fill:#e95c68;}.cls-2{fill:#b9d0c4;}.cls-3{fill:#ea5c68;}.cls-4{fill:#e1616b;}.cls-5{fill:#d26871;}.cls-6{fill:#df686f;}.cls-7{fill:#e4626c;}.cls-8{fill:#e56069;}.cls-9{fill:#a1ccc3;}.cls-10{fill:#fff;}.cls-11{fill:#e3636d;}.cls-12{fill:#cc997c;}.cls-13{fill:#b3d6ca;}.cls-14{fill:#a0d9cc;}.cls-15{fill:#9acbc0;}.cls-16{fill:#e66068;}.cls-17{fill:#88d2c9;}.cls-18{fill:#acc6bb;}.cls-19{fill:#7ccdc4;}.cls-20{fill:#989886;}.cls-21{fill:#abd0c8;}.cls-22{fill:#aed6cb;}.cls-23{fill:#a8d3c9;}.cls-24{fill:#e2636b;}.cls-25{fill:#88cdc3;}.cls-26{fill:#c7c6be;}.cls-27{fill:#92d5cb;}.cls-28{fill:#93d0c8;}.cls-29{fill:#87d1c9;}</style></defs><title>Annelise-Designs-logo-organic</title><path class="cls-1" d="M296.76,226.56a24.53,24.53,0,0,0,.4-3c.71-8.63,1.89-16.79,4.86-24.59a35.35,35.35,0,0,1-12.11,13.22,3.79,3.79,0,0,0-1.06.76,8.85,8.85,0,0,0-.8,1.39,4.8,4.8,0,0,1-.88,1.29,3.91,3.91,0,0,1-1.64.77,9.57,9.57,0,0,0-2.21.56,3.13,3.13,0,0,0-1.13.89,4.37,4.37,0,0,1-1.46,2.14,15.21,15.21,0,0,1-4.39,1.75,1.6,1.6,0,0,1-1.13-.55.74.74,0,0,0-.72-.34c-2-.31-3.83.74-5.92-.49a4.36,4.36,0,0,1-1.24-1,6.42,6.42,0,0,1-.72-3.2c-.36-5.42.37-10.34,1-15.68,0-.66-.07-.92-.08-1.57.48-3,2.06-5.38,2.1-8.49,0-.58,0-.81,0-1.38a17.74,17.74,0,0,1,1-3.13c.1-.52.14-.72.27-1.23a9.76,9.76,0,0,0,.77-3.64,6.85,6.85,0,0,1,.25-1.3c1.51-4.08,1.64-8.2,3.17-11.34a17.19,17.19,0,0,1-2.23,4.55c-.51.85-.89,1.39-1.35,2.24a12.72,12.72,0,0,1-1.06,1.55c-.73,1.08-1.22,2-1.88,3.07a7.77,7.77,0,0,1-.53,1.08,12.18,12.18,0,0,0-1.38,1.95c-.2.47-.28.66-.5,1.13a23.82,23.82,0,0,0-1.19,2.24c-3.88,7.27-7.85,14.12-11.71,21.39-.57.77-1,1.24-1.51,2-.27.42-.38.58-.66,1a5.45,5.45,0,0,0-1.45,2.39,7.12,7.12,0,0,1-.32,1.1,10.7,10.7,0,0,1-.66,1.27c-.5.8-.72,1.1-1,1.66l-.46,1c-.27.6-.42.94-.65,1.57-.16.46-.23.65-.41,1.11-.27.64-.42,1-.66,1.69a7.19,7.19,0,0,1-.54,1.13,9.34,9.34,0,0,1-1.3,1.32,4.07,4.07,0,0,0-1.38,1.81c0,.68,0,1.07,0,1.77a3.9,3.9,0,0,1-1,2.27c-1,.59-1.82,1-2.22,2.23a3.22,3.22,0,0,1-.9,1,4.62,4.62,0,0,1-2.07.57,6.47,6.47,0,0,1-3.55-1.16,4.29,4.29,0,0,1-1.06-1.1c-1.07-2.92-.34-5.31.81-8,.72-1.25,1.56-2,1.74-3.52a7.75,7.75,0,0,1,.47-1.23,6,6,0,0,0,.85-5.61c1.48-11.58,4.48-22.57,6-33.8.79-6,1.47-12.07.78-18.8-3.67,4.16-6.18,8.7-10.49,12.09A18.41,18.41,0,0,1,229,175a6.87,6.87,0,0,1-2,1.15,4.85,4.85,0,0,1-3.82-.53c-2.6-4.95.9-8.18,2.7-11.82.65-1.31,2.06-2.07,3.27-3.45a11.26,11.26,0,0,0,3.85-4,102.27,102.27,0,0,1,8.41-7.36c1-.47,1.67-.76,2.72-1.16,2.14-.72,3.93-.2,6.11-.16a7.28,7.28,0,0,1,2.85,1.28,6.58,6.58,0,0,1,1.09,1.17,11.44,11.44,0,0,1,1.27,3,8.87,8.87,0,0,1,.11,1.63c.1,10.93-.32,21.38-3.48,31.92-.57,2.35-1.6,4.16-1.86,5.93,5.23-12.55,12.36-23.67,20.46-34.63a25.29,25.29,0,0,1,1.53-2.55c4.15-3.08,6.52-8,12.36-8.71,4,.32,4.91,2.65,5,5.81.07,5.29-1.5,10.31-2.55,15.83a13.05,13.05,0,0,0-.34,2.43c-2.38,6.07-3.55,12.06-5,18.35,0,.62,0,.87,0,1.49-.21,1.31-.55,2.22-.74,3.53-.65,3.79-1.73,7.15-1.78,10.68,0,1.33,0,2.81,1.4,3.49s2.56-.24,3.69-.94a4.27,4.27,0,0,0,.77-.63c11.76-11.76,21.66-24.49,22.14-42.18.08-3,.82-6,.59-9-.19-2.55-1,0-1.72.32-.72,1-1.45,1.44-2.16,2.36-.26.44-.36.62-.62,1-.53.73-1,1.13-1.56,1.8l-.73.91c-.32.37-.45.51-1,1.06a7.44,7.44,0,0,0-1.35,1.56,10,10,0,0,1-.68,1.07,8.72,8.72,0,0,1-.91.95,6.26,6.26,0,0,1-1.14.73,28.91,28.91,0,0,1-3.87,1.73,4.37,4.37,0,0,1-2.88-.49c-2.18-2.65-1.11-5,.1-7.17,2.31-4.27,5.72-7.69,9.21-11.48a34,34,0,0,1,2.5-2.41A35.53,35.53,0,0,1,304,145.2a12.87,12.87,0,0,1,1.49-1.28c1.36-1,2.64-1.48,3.94-2.59a4.88,4.88,0,0,1,1.29-.53,23.26,23.26,0,0,1,4.28-.08,6.85,6.85,0,0,1,1.45.32,10.81,10.81,0,0,1,2.56,1.74,6.32,6.32,0,0,1,1.46,2.89c.24,5.73.1,11.05.15,16.78,0,.67,0,.93,0,1.58a21.15,21.15,0,0,1-.92,4.31c-.07.57-.08.79-.16,1.35-.34,1.58-1,2.73-1,4.38a11.74,11.74,0,0,1-.16,1.26,12.89,12.89,0,0,0-.57,3.08c-.17,1-.24,1.63-.4,2.61-.42,1.15-.89,1.9-1.21,2.67.07,0,.14-.28.23-.44a7,7,0,0,0,1.19-2.11,10.14,10.14,0,0,1,.34-1.17,12.48,12.48,0,0,1,.73-1.39,28.07,28.07,0,0,0,1.45-2.54c6.43-10.45,12.15-21,20.49-29.69a19.33,19.33,0,0,1,7.51-5.36,7.2,7.2,0,0,1,4.73.37,4.49,4.49,0,0,1,1.18,1.2,9.26,9.26,0,0,1,.85,3.28c-1,12.4-5,23.72-7.59,35.36a17.91,17.91,0,0,0-.67,3.81c0,.66,0,.92,0,1.57-.79,2.44-2.29,4.26-1.89,7a8.72,8.72,0,0,1-.06,2.12c-.29,1.8-1.14,3.15-.77,5a7.51,7.51,0,0,0,.71,1.49,2.55,2.55,0,0,0,.72.64,2,2,0,0,0,1.4,0c.41-.1.58-.13,1-.2a3.39,3.39,0,0,0,1.84-.92c.3-.34.43-.48.75-.82s.47-.46.81-.78c.62-.56,1.06-.91,1.66-1.5l1.2-1.18,1.16-1.21c.31-.35.43-.49,1-1a6,6,0,0,0,1.6-1.92,6.86,6.86,0,0,1,.56-1,9,9,0,0,0,1.35-1.86,8.51,8.51,0,0,1,.62-1.07,12.07,12.07,0,0,0,1.53-2,15.57,15.57,0,0,1,1-1.45c.36-.51.56-.8.91-1.31l.55-.87.73-1.13a7.52,7.52,0,0,0,.66-1.15,1.72,1.72,0,0,0,0-.94,3.1,3.1,0,0,0-1.26-1,3.47,3.47,0,0,1-1.75-2c0-1.48.66-2.22,1.75-3.12a14.72,14.72,0,0,0,10.26-8.4,19.84,19.84,0,0,1,6-7.24c2.22-1.67,3.21-4.16,4.31-6.58,4.38-9.65,9.13-19.12,13.71-29.09a6.38,6.38,0,0,1,1-1.15c5.19-3.95,10.51-4.3,16.53-2.23,1.91.42,3.13,1.42,4.88,2.17a5.25,5.25,0,0,1,1.28.81c8.71,9.59,8.8,20.23.38,30.87-5.83,7.36-13.16,13.05-21.25,18.42-1,.57-1.66.77-2.6,1.34-4.8,1.78-8.62,4.72-13,6.55-2.2.93-2.93,2.94-3.86,5.22-.4.92-.71,1.51-1,2.46-.19.52-.28.73-.51,1.23-.65,3.5-2.71,6.57-.8,10.25a4.53,4.53,0,0,1,.47,1.25,3.88,3.88,0,0,1-.08,1.27,2.32,2.32,0,0,0-.33,1.59,3.64,3.64,0,0,1,.72,1.18A14.43,14.43,0,0,0,381,207a5,5,0,0,0,1.37,1.76,15.66,15.66,0,0,0,3.19,1.31c.64.12.58,1.29,1.49.37a5.5,5.5,0,0,1,1.67-.66c1.76-.12,3.19-.23,4.59-1.43.34-.37.47-.53.79-.92a9.25,9.25,0,0,1,.87-.83c.39-.3.55-.42,1-.71s.57-.39,1.25-.81a11.89,11.89,0,0,1,1.34-.73,5.91,5.91,0,0,1,1.21-.34,3,3,0,0,1,3.12,1.77,4,4,0,0,1,.14,1.3,5.59,5.59,0,0,1-.7,1.82,5.75,5.75,0,0,1-1.69,1.93,7.29,7.29,0,0,1-1.71.8,14.41,14.41,0,0,0-2.79,1.29,6.73,6.73,0,0,1-1.15.49,8.35,8.35,0,0,0-4.34,2.39,5,5,0,0,1-1.84.67,10.16,10.16,0,0,0-3.19.65,7.21,7.21,0,0,1-1.93.18,7.15,7.15,0,0,0-3.7,0,6,6,0,0,1-2.56-.29c-1.69-1.09-2.64-2.6-4.56-3.4a9.27,9.27,0,0,1-1.06-.67,15.76,15.76,0,0,1-1.3-1.33c-.38-.36-.53-.5-.89-.89a11.09,11.09,0,0,1-.79-1,6.67,6.67,0,0,1-.88-2.46c-.24-2.77,0-5.24-.88-8a5.55,5.55,0,0,1,.11-2c1-1.88,1.8-3.45,1-5.64a14.3,14.3,0,0,1,.13-2c.47-1.39,1.51-2,2.09-3.2.1-.19.18-.36.1-.2-.62,1.5-2.22,2.2-2.33,4.16-4.66,9.48-12,16.12-20.35,22.24a7.21,7.21,0,0,1-1.21.69c-2,.84-3.84,1.29-5.93,2a6.18,6.18,0,0,1-2.15,0c-1.06-.32-1.74-.63-2.83-.93a5.24,5.24,0,0,1-1.35-.76,5.71,5.71,0,0,1-1.33-1.95,21.88,21.88,0,0,1-.61-11.54c1.28-6.44,1.81-13,3.3-19.82,0-.62,0-.87.09-1.47a22.67,22.67,0,0,1,.83-3.33c.09-.53.12-.73.24-1.25.3-1.07.78-1.74,1-2.82.2-.82.39-1.36.58-2.17a10.63,10.63,0,0,0,.42-2.14,7.65,7.65,0,0,1,.25-1.06c.23-.59.38-.93.62-1.53.09-.26.25-.68.27-.76a3.13,3.13,0,0,0-.18.41c-.08.18-.25.6-.37.82-.21.38-.3.53-.55.92a9.5,9.5,0,0,0-1.65,2.54c-9.71,15.07-17.7,30.68-25.3,46.89-.16.55-.21.77-.32,1.32a9.13,9.13,0,0,1-.7,1.88c-.23.5-.32.7-.55,1.19s-.36.68-.64,1.16a8.17,8.17,0,0,1-.8,1.05,18.3,18.3,0,0,0-3.55,2.88c-.25.21-.2.26-.21.23a6,6,0,0,1-.84.86c-.19.16-.13.17-.15.14C301.94,229.18,299.54,230.11,296.76,226.56Z" transform="translate(-49.43 -2.06)"/><path class="cls-2" d="M304.25,226c0-.17.14-.46.56-.84C304.87,225.31,304.67,225.59,304.25,226Z" transform="translate(-49.43 -2.06)"/><path class="cls-3" d="M461.37,206.87c-.12.25-.48.32-.66.34a1.33,1.33,0,0,0-1.11,1,3.33,3.33,0,0,1-.35,1.13c-.3.4-.42.56-.73,1a9.63,9.63,0,0,1-.79.93A8.76,8.76,0,0,0,456,213a5.54,5.54,0,0,1-2.32,1.28c-3.06.22-5.8.61-8.81-.33a7.82,7.82,0,0,1-1.1-.73c-.73-.64-1.07-1.18-1.73-1.86a8.1,8.1,0,0,1-.85-.9c-.41-.59-.63-.94-1-1.56-.26-.45-.36-.64-.59-1.11a13.42,13.42,0,0,1-.65-1.82,7.66,7.66,0,0,1-.22-1.3c.27-2.34.23-4.27-1.4-6.2a6.64,6.64,0,0,1-.56-2.67,16.26,16.26,0,0,0,.07-4.64,8.47,8.47,0,0,1,0-2.08c1.08-2.63.73-4.93.07-7.6a10,10,0,0,1-.09-1.46,14.18,14.18,0,0,0-.17-8.61,9.65,9.65,0,0,1,.14-3.69c3.22-3.68-.58-6.85-.12-10.48a13.45,13.45,0,0,1,.1-1.47,15.23,15.23,0,0,1,.57-2.21c1.82-8.45,2.61-16.68,4.32-24.77,2-9.68,4.43-19.27,6.66-29.29.12-.62.16-.86.25-1.48a6.3,6.3,0,0,1,.77-2,8.3,8.3,0,0,0,1.16-2.3c.11-.73.17-1.15.32-1.87a9,9,0,0,0,.8-3.7,7.72,7.72,0,0,1,.33-1.91c.55-1.25,1.47-1.92,1.65-3.34a12.27,12.27,0,0,1,.2-1.24,8.87,8.87,0,0,0,.87-3.59,8,8,0,0,1,.22-1.24,15.9,15.9,0,0,0,.88-2.31,9.3,9.3,0,0,1,.44-1.12,3.51,3.51,0,0,0,.6-2.22,9.35,9.35,0,0,1,.16-1.91A13.49,13.49,0,0,1,458,66.79a8.22,8.22,0,0,1,.91-1.15,8,8,0,0,0,1.77-3.86,4.22,4.22,0,0,1,4.6-3.62c2.55.1,3.17,2,3.23,4.51,0,.62,0,.86,0,1.47a11.57,11.57,0,0,1-1.09,3.31,7.35,7.35,0,0,1-.54,1.2,7.42,7.42,0,0,0-1.72,3.93,7.78,7.78,0,0,1-.59,1.07c-.9,1.16-.51,2.16-.39,3.46a5.05,5.05,0,0,1-.18,1.27,7.81,7.81,0,0,0-1.41,5.33,7.9,7.9,0,0,1-.14,1.9c-.16.73-.28,1.13-.5,1.84s-.36,1.11-.63,1.81-.48,1.09-.81,1.78a12,12,0,0,1-.58,1.19c-2,2.36-1.21,4.93-1.49,7.64a6.33,6.33,0,0,1-.32,1.33,7,7,0,0,0-1.57,4.94c0,.54,0,.76,0,1.3-.12,1.17-.28,2-.33,3.2a7,7,0,0,1-.48,1.94c-2.47,2.65-2.27,5.6-2.13,8.87a9,9,0,0,1,0,2,15.75,15.75,0,0,0-.32,3.89,11.61,11.61,0,0,1-1,4.59c-1.25,1.72-2,3.2-.8,5.29.56,3.57.84,6.8-1.08,10.64,6.4-15.75,14-30.07,19.22-45.8,2.55-6.86,4.4-13.59,7.43-20.27a13.39,13.39,0,0,0,3.48-7.88c0-.55,0-.78.05-1.32.19-1,.41-1.58.65-2.52a16.69,16.69,0,0,1,.58-1.84c.2-.5.28-.69.52-1.16s.36-.64.63-1.08a3.64,3.64,0,0,0,.79-2.83,10,10,0,0,1,.14-1.28c.29-1.17.68-2,.94-3.17a5.82,5.82,0,0,1,.65-1.2c2.22-2.62,1.48-5.89,3-8.44.91-1.52,1-3.54,3.13-4.61a3.31,3.31,0,0,1,1.38,0c1.36.68,2,1.71,3.11,2.69a4,4,0,0,1,.62,1.2,7.21,7.21,0,0,1-.1,2.66,5.42,5.42,0,0,1-.71,1.78c-.42.56-1,.56-1.08.83-.23.61-.22-.13.6.37a2.92,2.92,0,0,1,.46,2.29,4,4,0,0,1-.53,1.07,2.45,2.45,0,0,0-.64,1.53,3.68,3.68,0,0,1-.77,2.3c-1.94,3.25-4.24,6.06-3.48,10.23,0,.55,0,.77,0,1.31a6.68,6.68,0,0,1-.19,1.27,17.91,17.91,0,0,0-.8,2.35,10.22,10.22,0,0,1-.39,1.86,12.72,12.72,0,0,1-.86,1.77,6.41,6.41,0,0,1-.85,1c-3.88,2.14-1.13,5.41-1.89,8.29-1.06,8.35-4.2,15.7-7.27,23Q466,141.85,451.24,170.22c-3.74,7.24-2,15-1.81,22.56a23.09,23.09,0,0,0,1.07,6.38c.43,1.35.26,3.3,2.09,3.64s2.66-1.24,3.57-2.35c5.77-7,9.89-15,14.31-23.21a25.17,25.17,0,0,0,2.42-4.56c6.62-12.71,13.45-24.88,19.46-37.48A25.44,25.44,0,0,1,499.1,126c1.71-1.38,3.69-2.86,5.82-1.23s1,3.86-.27,6.1c-1.12,2.51-2,4.7-3.18,7.18-2,3.21-3,6.54-4.86,9.8-.39.92-.77,1.47-1.2,2.35-.9,1.3-1.84,2.2-2.05,3.87a14,14,0,0,1-1.11,2.33,15.55,15.55,0,0,0-2.38,3.69c-.2.46-.27.64-.45,1.11-.34.8-.63,1.28-1,2.06a9.13,9.13,0,0,1-.43,1c-.21.39-.3.55-.68,1.14s-.66,1-1,1.53l-.46.92c-.19.38-.28.53-.46.92s-.26.55-.45.94-.29.54-.49.92-.28.55-.48.94c-.3.54-.48.85-.77,1.41l-.52,1c-.22.42-.31.59-.68,1.3l-.7,1.4a180.67,180.67,0,0,1-12.45,20.83c-1,.9-2,1.4-2.62,2.64a25.49,25.49,0,0,1-1.8,2.3,4.06,4.06,0,0,1-.83.75,3.69,3.69,0,0,0-1.29.94c-.07.27-.14.12-.06.09-.57.15-.71.66-.73,1.52A3.55,3.55,0,0,1,461.37,206.87Z" transform="translate(-49.43 -2.06)"/><path class="cls-4" d="M162.73,21c1.43.15,2.47.22,3.91.24a5.32,5.32,0,0,1,5.16,1.61c.31.17.32.24.35.24a3.14,3.14,0,0,0,.67.58c1,.66,1.64,1.22,2.61,1.92,2,3.39,3.7,6.64,5.58,10.2a9.43,9.43,0,0,1,1,1.55c0,.61,0,.94.06,1.49A19.46,19.46,0,0,1,185.19,51a30.58,30.58,0,0,1-.54,4c0,.65,0,.91,0,1.56a30.15,30.15,0,0,0-.47,3.73,31.45,31.45,0,0,1-.3,3.83c-2.88,15.69-5,31.15-10.83,46.13-.68,2-1.78,3.41-2.16,5.5a9.31,9.31,0,0,1-.37,1.37,26.72,26.72,0,0,0-2.88,6.78c-.09.53-.11.75-.22,1.27-.27.91-.52,1.47-.8,2.35-.1.49-.14.69-.27,1.17a17.52,17.52,0,0,1-.65,1.64c-.19.44-.27.61-.47,1-.29.6-.46.93-.73,1.53s-.21.64-.37,1.09a8.71,8.71,0,0,0-.62,2.3,8.48,8.48,0,0,1-.34,1.26,37.33,37.33,0,0,0-3.61,8,10.13,10.13,0,0,1-.92,3.07c-.29.65-.48,1-.8,1.64l-.52,1.06c-.31.61-.49,1-.79,1.58-.2.46-.28.64-.51,1.1a7.65,7.65,0,0,0-1.16,2.87,12.71,12.71,0,0,1-.52,2c-1.3,3.14-4.5,6.46-2.6,8.77,1.7,2.07,5.95.23,8.84-.44,7.26-1.68,14.7-2.18,22-3.79a14.2,14.2,0,0,1,6.29.18,5.51,5.51,0,0,1,2.55,1.63,3.92,3.92,0,0,1,.7,2.13c-.3,2.3-2,2.87-3.61,4.1a6.19,6.19,0,0,1-4.17,1c-3.42-1.45-6.17-.15-9.33,1a55.93,55.93,0,0,0-18.67,3.08c-5.71.74-10.68,2.27-15,6.32-.27.24-.33.26-.32.29a7.28,7.28,0,0,0-.77,1.74c-.19.2-.24.22-.24.25s-.25.31-.52.7a5.28,5.28,0,0,0-.47.89,6,6,0,0,1-.54,1.09,3.88,3.88,0,0,0-.47.93,4.56,4.56,0,0,1-.57,1.1,2.66,2.66,0,0,0-.45.8,2.38,2.38,0,0,1-.59,1.27,2.77,2.77,0,0,0-.4.83,4.26,4.26,0,0,1-.56,1.1,2.91,2.91,0,0,0-.46.81,17.51,17.51,0,0,1-.79,2.25c-.24.21-.19.16-.22.17-.82,1.24-.71,3-2.63,3.92-.24.22-.43.45-.4.59a2.25,2.25,0,0,1-.61,1.38c-.18.22-.39.46-.38.62a2,2,0,0,1-.68,1.35c-.22.18-.25.2-.25.21-.42.47-.43,1.12-1,1.79-5.34,7.16-9.05,15.07-14.84,22a9.71,9.71,0,0,0-1.77,2.12c-.18.3-.25.24-.2.23-1.28.85-1.13,2.84-2.86,3.81-.19.27-.15.19-.12.22-1.49,1-1.73,2.82-3,4.32-.24.21-.31.41-.41.45-1,1.57-2.56,2.67-3.6,4.54-.25.22-.3.4-.38.44-1.36,3.31-2.22,7-7.16,7.09a3.78,3.78,0,0,1-1.34-.26,2.93,2.93,0,0,1-.94-.84,4.71,4.71,0,0,1-.48-1.62,3.85,3.85,0,0,0-.24-.89,2.29,2.29,0,0,0-.6-.65c-.19-.13-.62-.35-.84-.46l-.9-.45c-.37-.21-.52-.29-.88-.53a9.64,9.64,0,0,1-.8-.63,12.66,12.66,0,0,1-1-1.08,7.31,7.31,0,0,0-.72-.65,4.22,4.22,0,0,0-1.31-.69,12.41,12.41,0,0,1-1.39-.75c-.38-.25-.53-.35-.9-.63s-.5-.41-1-.92-.67-.66-1-1c-.43-.51-.67-.82-1.08-1.36s-.65-.88-1.06-1.46-.4-.61-.68-1.06c-.9-1.37-1.34-2.61-2.26-4-.33-.46-.46-.65-.77-1.14a17.32,17.32,0,0,1-.9-1.89c-1.18-2.68.49-5,0-7.63a17.27,17.27,0,0,0-.17-2,7.1,7.1,0,0,1,0-1.93c.15-.71.24-1.12.35-1.83a11,11,0,0,1,.29-1.19c.23-.67.38-1,.62-1.7a11.74,11.74,0,0,1,.33-1.17A15.87,15.87,0,0,0,74.6,210a9.78,9.78,0,0,1,.45-1.16,8.62,8.62,0,0,1,.83-1.3,10.67,10.67,0,0,0,1.7-2.07,10.26,10.26,0,0,1,.56-1,16.36,16.36,0,0,0,1.38-1.8,10.57,10.57,0,0,1,.59-1c.28-.37.39-.52.87-1.08s.62-.69,1.12-1.23l1.17-1.21c.53-.55.67-.69,1-1a12.45,12.45,0,0,1,1.42-1.1,9.69,9.69,0,0,0,3.74-3.1,9.53,9.53,0,0,1,.86-1c.59-.48.92-.76,1.48-1.29a5.64,5.64,0,0,1,1.06-.79,72.55,72.55,0,0,0,7.3-4.54,12.21,12.21,0,0,1,2.27-1.36,26.88,26.88,0,0,0,6.23-3.17,11.65,11.65,0,0,1,1-.77c.63-.38,1-.57,1.65-.9l1.13-.58a18,18,0,0,1,1.81-.74,7.88,7.88,0,0,1,1.32-.27c4.26-1.28,8.21-2.94,12.2-3.34,7.74-.77,10.3-5.9,12.25-12.45.2-.52.28-.72.46-1.24.32-.9.63-1.46,1-2.34.17-.49.24-.69.42-1.17.27-.68.44-1.06.73-1.74.21-.5.3-.69.54-1.18a21.92,21.92,0,0,0,3.46-7.78,5.61,5.61,0,0,1,.31-1.31,51.83,51.83,0,0,0,4.59-9.46c.13-.51.18-.71.3-1.22a12.56,12.56,0,0,1,.72-1.65l.49-1,.5-1,.49-1c.28-.57.44-.9.69-1.49s.21-.63.37-1.08a8.18,8.18,0,0,0,.62-2.29c.06-.54.09-.76.2-1.3.18-.78.3-1.23.52-2a236,236,0,0,0,12.94-44.59,10.35,10.35,0,0,1,.19-2.21,14.36,14.36,0,0,0,1.1-4c.12-1.61.84-2.84.25-4.5a9.19,9.19,0,0,1-.06-2c.57-3,1.32-5.56.92-8.63a14,14,0,0,1-.48-2.09c-.09-.61-.12-.86-.18-1.48,0-1.38,0-2.39.07-3.77a27.49,27.49,0,0,0-1.79-16c-.86-1-1.27-1.84-2.07-2.83-1.73-1.82-3.95-2-6-3.31a3.39,3.39,0,0,1-.91-1.16C160,22.73,160.48,21.41,162.73,21Z" transform="translate(-49.43 -2.06)"/><path class="cls-5" d="M91.84,251.41c4.07-.69,6.88-2.45,8.63-6.24-1.39,5.22,4,3.22,6,5.33.23,1.7-.91,1.86-2.57,2.31a42.94,42.94,0,0,1-5-.94c-3.09-.6-3.59,4.3-7,2.35A2.36,2.36,0,0,1,91.84,251.41Z" transform="translate(-49.43 -2.06)"/><path class="cls-5" d="M104.49,253.76a4.41,4.41,0,0,1-1.12-.66c-.13-.14-.09-.16-.08-.18,2.71-2.06,5.3.21,8,.19-1.33,0-2.61-.15-3.32-1.91,3.39-.56,6.71.29,10,1,1.49.31,3.63.38,2.11,3.25-.29.89-.66,1.16-1.62.86A58.27,58.27,0,0,1,104.49,253.76Z" transform="translate(-49.43 -2.06)"/><path class="cls-6" d="M107.68,250.79c3.3,2.19,7.59.61,11.13,3.69-5.49,1.35-10-1.52-15.1-1.52-.27-1.71,1-1.8,2.6-2.13A2,2,0,0,1,107.68,250.79Z" transform="translate(-49.43 -2.06)"/><path class="cls-5" d="M101.27,244.64c-.19-2,.87-3.56,3.17-4.51C104.51,242.13,102.85,243.19,101.27,244.64Z" transform="translate(-49.43 -2.06)"/><path class="cls-5" d="M105.31,239.66c-.06-1.74.17-3.58,2.64-4.37C107.93,237,106.9,238.37,105.31,239.66Z" transform="translate(-49.43 -2.06)"/><path class="cls-5" d="M108.51,235.18a4.76,4.76,0,0,1,2.46-3.85C111.14,232.92,110.18,234.12,108.51,235.18Z" transform="translate(-49.43 -2.06)"/><path class="cls-5" d="M111.54,231.17c-.2-.83-1.1-2.26,1.16-2.18A4.65,4.65,0,0,1,111.54,231.17Z" transform="translate(-49.43 -2.06)"/><path class="cls-7" d="M232.16,238.72a6.81,6.81,0,0,0-1.18.89c-1.35.75-2.54,1.32-4,2.1a7.47,7.47,0,0,1-1.6.41c-2.67-.12-4.73-1.2-7-2.56-.72-.5-1.12-.9-1.78-1.4a3.79,3.79,0,0,1-1.28-.88c-.17-.19-.19-.16-.18-.18-.23-.21-.46-.42-.83-.82l-.18-.18-.74-.71c-.25-.24-.24-.29-.27-.29-.18-.16-.34-.32-.74-.72-.25-.23-.24-.27-.26-.27a5.36,5.36,0,0,1-1.8-1.79c-.16-.23-.19-.21-.18-.22a8.4,8.4,0,0,1-.83-.85c-.15-.19-.14-.13-.13-.16-5.38-4.57-5.53-11.41-7.8-17.72-.18-.32-.16-.28-.15-.3-2.31-1.65-3.26-4.08-4.07-6.65a100.17,100.17,0,0,1-4.53-25.75,30.78,30.78,0,0,0-1.15-7.75,7.54,7.54,0,0,1,1.41-3.93,5.31,5.31,0,0,1,4.39-1.71,3.56,3.56,0,0,1,1.38.65,8.09,8.09,0,0,1,1.36,2.61,4.1,4.1,0,0,1,0,2.08c-.29.7-.85.87-.88,1.22-.05.65-.2-.08.76.2,1.8,1.24,1.62,3.12,2.52,4.89a8.42,8.42,0,0,1,.22,1.46c1,10.45,4,20.06,7.14,30,.3.52.42.73.68,1.26.29.76.43,1.2.65,2,.17.52.23.73.37,1.25a10.56,10.56,0,0,0,.92,3,12.32,12.32,0,0,1,.31,1.26,45.06,45.06,0,0,0,4.12,8.29,16.73,16.73,0,0,1,1.1,1.52,9.36,9.36,0,0,0,1.36,1.9c.36.31.51.45.85.78s.75.75,1.25,1.22.81.76,1.34,1.24c3.91,2.86,6.39.41,9.26-1.88a3.86,3.86,0,0,1,1-.08,11.09,11.09,0,0,0,2.81,2.74,1.31,1.31,0,0,1,.27.91A5.73,5.73,0,0,0,232.16,238.72Z" transform="translate(-49.43 -2.06)"/><path class="cls-5" d="M51.5,263.84c1.65,4.76,5.09,6.05,9.76,5.47,4.5-.56,8.49-2.42,12.65-4.78.76-1.26,1.78-1.57,2.95-2.2.26-.17.26-.21.28-.19a1.94,1.94,0,0,1,1.54-.58c1.33.38,1.7,1.26,2.43,2.28-6.35,6.37-14.18,9.71-23.63,10.32a22.22,22.22,0,0,1-2.81-.47c-1.39.34-2.39.46-3.29-.85-.05-.39,0-.58,0-.65a3.51,3.51,0,0,1-1.67-2.08C49.4,267.64,48.84,265.41,51.5,263.84Z" transform="translate(-49.43 -2.06)"/><path class="cls-5" d="M87.23,259.78a1.37,1.37,0,0,1-1,.28c-1.94-1.68-1.7-2.2,1.93-3.85a2.94,2.94,0,0,1,1.35.43A13.82,13.82,0,0,1,87.23,259.78Z" transform="translate(-49.43 -2.06)"/><path class="cls-4" d="M91,255a7.9,7.9,0,0,0-1.08,1.57c-1.76.67-3.62.84-4,3.23a39.06,39.06,0,0,1-4.28,4.06,2.11,2.11,0,0,1-2.5-1.92c.74-1.65,1.87-2.33,2.58-3.79a39.52,39.52,0,0,1,6.35-6.7,5.44,5.44,0,0,1,2.16-.9,2.2,2.2,0,0,1,1.58.28l.3.25c0,.77,0,1.53,0,2.67A3,3,0,0,1,91,255Z" transform="translate(-49.43 -2.06)"/><path class="cls-8" d="M465.76,45.4c.94-2.3,2.51-4,2.44-6.72,2.05-1.06,2.2-3.1,2.94-4.68,4.41-9.48,9.67-18.39,17.55-25.91,3.18,1.53,7.35,2.12,6.34,7.29-4.18,1.11-6.24,4-8,7.23-4.19,7.49-7.2,15.5-10.51,23.79-2,3.88-2.81,7.8-4.26,11.48-1,2.43-1.5,5.15-4.5,6.6-1-1.62.42-4.49-2.27-4.91s-3.27,2-3.55,4.25A3.63,3.63,0,0,1,459.42,67a1.39,1.39,0,0,1-1.1-.78,3.33,3.33,0,0,1-.08-2.25c2.48-4.78,3-9.9,5.66-14.55a.93.93,0,0,0,.23-.29C464.72,48,464.8,46.71,465.76,45.4Z" transform="translate(-49.43 -2.06)"/><path class="cls-3" d="M493.87,15.34c1.47-2,.3-2.86-1.09-3-2.33-.3-2.77-2.07-3.65-4a5,5,0,0,1,1.63-2.08c.73-.53,1.37-.55,2.07-1C493,4.88,493,5,493,5a2.36,2.36,0,0,0,.92-.8C494,4,494,4.07,494,4c4-1.17,7.38,0,10.63,3a4.63,4.63,0,0,1,.58,1.45c.07,2.14-1.17,3.28-1.89,4.7-1.09,2.12-1.86,4.61-.6,7,1.13,2.13.31,4.13,0,6.55a7.36,7.36,0,0,1-.35,2.79c-.57,1.51-1.72,2.36-1.78,4.05,0,.94.11,1.56.08,2.51a11.7,11.7,0,0,1-.17,1.25c-.12.52-.17.72-.33,1.23-.31.91-.68,1.45-.93,2.39a6.19,6.19,0,0,1-.64,1.17c-1.8,1.35-2.37,4-5.29,3.21l-.27-.23c-2.45-2.26-2.48-5.24-2.48-8.63,0-.65,0-.91,0-1.55a17.87,17.87,0,0,1,.79-3.63,11,11,0,0,1,.39-1.37,15,15,0,0,1,3.67-4.28c.88-.81-.56-.55-1.16-1A3,3,0,0,1,493.07,23a23.08,23.08,0,0,1-.55-3.55A5,5,0,0,1,493.87,15.34Z" transform="translate(-49.43 -2.06)"/><path class="cls-8" d="M504.4,7.75c-2.82-2.27-6.78-1.67-10-3.7,2.12-2.38,4.85-2.56,8.15-.86.36.09.45.05.43,0,.54.3.61.89.94,1.67l.19.25A2.36,2.36,0,0,1,504.4,7.75Z" transform="translate(-49.43 -2.06)"/><path class="cls-8" d="M492.69,4.9A3,3,0,0,1,491.33,6,3,3,0,0,1,492.69,4.9Z" transform="translate(-49.43 -2.06)"/><path class="cls-8" d="M493.76,4c.05.2-.16.47-.61.85C493.11,4.71,493.3,4.41,493.76,4Z" transform="translate(-49.43 -2.06)"/><path class="cls-9" d="M504,4.8A2.88,2.88,0,0,1,503,3.45,2.88,2.88,0,0,1,504,4.8Z" transform="translate(-49.43 -2.06)"/><path class="cls-10" d="M385.46,170.15c4.63-13.25,9.78-26.38,17.73-38.16a16.4,16.4,0,0,1,3.43-3.6c3.39-2.68,7-1.47,10.39,0,3,1.26,2.21,4.19,2.18,6.57-.05,4.46-1.89,8.38-4.32,12A58.57,58.57,0,0,1,385.46,170.15Z" transform="translate(-49.43 -2.06)"/><path class="cls-11" d="M399.36,205.06c15-14.26,25.89-32,38.39-48.85-.67,3.54,4.11,6.64,1.16,10.72-.81-1.44-1-3.8-2.88-.48-6.29,11.25-14.2,21.33-22.88,31.23-.13.3-.13.34-.12.35a3.82,3.82,0,0,1-.89.88,1.72,1.72,0,0,0-1,.83,3.41,3.41,0,0,1-.87,1.16c-.19.16-.17.2-.19.18a7.3,7.3,0,0,1-.82.84c-.18.15-.17.18-.18.17-1.17,2.21-2.37,4.39-5.51,4.84-.21.26-.36.31-.37.39a.64.64,0,0,1-.68.16A3.16,3.16,0,0,0,399.36,205.06Z" transform="translate(-49.43 -2.06)"/><path class="cls-6" d="M378.85,188.39c.15,3.38.05,7.06-.14,11.18C375.3,196.23,378.26,192.46,378.85,188.39Z" transform="translate(-49.43 -2.06)"/><path class="cls-11" d="M369.2,206.89c-1.6-2.07-1.63-4.63-1.29-7.5C369.6,201.43,369.21,204.08,369.2,206.89Z" transform="translate(-49.43 -2.06)"/><path class="cls-11" d="M389.28,211.14a34,34,0,0,1,3.8-2.71,4.29,4.29,0,0,1,1.6-.48C394.4,211.07,391.89,211.09,389.28,211.14Z" transform="translate(-49.43 -2.06)"/><path class="cls-11" d="M372.18,213a5.89,5.89,0,0,0,0-.72,5.51,5.51,0,0,1,4.84,2.87c.09.28-.28.46-.47.53-1-.45-1.82-1-2.9-1.58a3,3,0,0,1-1.32-.9C372.12,213,372.17,213.06,372.18,213Z" transform="translate(-49.43 -2.06)"/><path class="cls-7" d="M235.39,220c-.39-2,.25-3.86,1.3-6C236.75,215.74,238,218.13,235.39,220Z" transform="translate(-49.43 -2.06)"/><path class="cls-11" d="M368.57,197c-.59-1.71-.06-3.4.72-5.42C370.18,193.2,370.79,195.16,368.57,197Z" transform="translate(-49.43 -2.06)"/><path class="cls-11" d="M393.35,214a27.22,27.22,0,0,1-3,.77c.44-2.11,2.2-2.53,4.55-2.55A4.63,4.63,0,0,1,393.35,214Z" transform="translate(-49.43 -2.06)"/><path class="cls-3" d="M236.06,235c-1.68.1-2.88-.34-3-2.53a8,8,0,0,1,2.67.61c.54.27.77.49.75,1.12A5,5,0,0,1,236.06,235Z" transform="translate(-49.43 -2.06)"/><path class="cls-7" d="M234.24,224a9.58,9.58,0,0,1,.57-3.66C234.85,221.34,236.82,222.9,234.24,224Z" transform="translate(-49.43 -2.06)"/><path class="cls-3" d="M240.4,227.24c-.32-1.69,0-3,2.28-3.12.54.14.71.3.66.73a2.3,2.3,0,0,1-.24.25,3.64,3.64,0,0,0-.81.92c-.11.23-.05.13,0,.17C241.72,226.53,241.36,227.15,240.4,227.24Z" transform="translate(-49.43 -2.06)"/><path class="cls-7" d="M239.76,231.5a4.94,4.94,0,0,1-1.54,1.24,2.15,2.15,0,0,1,1.48-2.58C239.94,230.45,239.88,230.83,239.76,231.5Z" transform="translate(-49.43 -2.06)"/><path class="cls-7" d="M249.64,210.21a8.24,8.24,0,0,1-1.19,3A2.16,2.16,0,0,1,249.64,210.21Z" transform="translate(-49.43 -2.06)"/><path class="cls-11" d="M398.18,210.29c-.28,1-1.18,1.63-2.66,2C395.71,211.2,396.75,210.75,398.18,210.29Z" transform="translate(-49.43 -2.06)"/><path class="cls-7" d="M244.9,220.16a2.8,2.8,0,0,1-.24,1.88C243.5,221.52,243.23,220.82,244.9,220.16Z" transform="translate(-49.43 -2.06)"/><path class="cls-11" d="M382.9,215.93c-.26.27-.72.34-1.52.47a1.94,1.94,0,0,1-1-.24C380.87,215.25,381.73,215,382.9,215.93Z" transform="translate(-49.43 -2.06)"/><path class="cls-7" d="M240.25,227.32a4.11,4.11,0,0,1,1.78-1,2.54,2.54,0,0,1-.58,1.67A1.7,1.7,0,0,1,240.25,227.32Z" transform="translate(-49.43 -2.06)"/><path class="cls-11" d="M388,215.2a9,9,0,0,1-2.59.85C385.82,215.31,386.71,215.12,388,215.2Z" transform="translate(-49.43 -2.06)"/><path class="cls-7" d="M236.55,234.47c-.3-.12-.34-.37-.42-1,.35-.39.74-.41,1.42-.45A2.74,2.74,0,0,1,236.55,234.47Z" transform="translate(-49.43 -2.06)"/><path class="cls-7" d="M243.32,225.09c-.22-.14-.24-.31-.26-.73a2.67,2.67,0,0,1,.87-1.14c.18.29.13.71.06,1.44C244,225,243.53,225.06,243.32,225.09Z" transform="translate(-49.43 -2.06)"/><path class="cls-7" d="M251.07,207.36a3.66,3.66,0,0,1-.64,1.85A3.66,3.66,0,0,1,251.07,207.36Z" transform="translate(-49.43 -2.06)"/><path class="cls-7" d="M247,215.34a2.85,2.85,0,0,1-.52,1.73A2.85,2.85,0,0,1,247,215.34Z" transform="translate(-49.43 -2.06)"/><path class="cls-7" d="M246,217.38a3.61,3.61,0,0,1-.54,1.95A3.61,3.61,0,0,1,246,217.38Z" transform="translate(-49.43 -2.06)"/><path class="cls-6" d="M381,208.18c0,.42.1.83.22,1.54-.33-.11-.72-.52-1.2-1.22-.09-.28,0-.39.08-.44.23-.21.39-.37.73-.22C381,208.15,381,208.16,381,208.18Z" transform="translate(-49.43 -2.06)"/><path class="cls-6" d="M379.75,185.36a3.45,3.45,0,0,1-.35,1.77A3.44,3.44,0,0,1,379.75,185.36Z" transform="translate(-49.43 -2.06)"/><path class="cls-11" d="M372,211.78a3,3,0,0,1-1.13-1.28A3,3,0,0,1,372,211.78Z" transform="translate(-49.43 -2.06)"/><path class="cls-11" d="M386.31,211.65c-.1-.05.28-.2.49-.17C386.84,211.69,386.64,211.75,386.31,211.65Z" transform="translate(-49.43 -2.06)"/><path class="cls-12" d="M371.08,185.09s.22-.34.22-.34,0,.27-.1.31S371.09,185.1,371.08,185.09Z" transform="translate(-49.43 -2.06)"/><path class="cls-13" d="M385.07,170.08a4,4,0,0,0-.16.37s0-.28.09-.31S385.08,170.09,385.07,170.08Z" transform="translate(-49.43 -2.06)"/><path class="cls-7" d="M247.78,214.28c.19.2.07.49-.4.84C247.24,214.93,247.39,214.66,247.78,214.28Z" transform="translate(-49.43 -2.06)"/><path class="cls-6" d="M378.74,202.26c.15,0,.2.2.24.62C378.67,202.94,378.56,202.69,378.74,202.26Z" transform="translate(-49.43 -2.06)"/><path class="cls-11" d="M370.87,210c-.17,0-.47-.15-.85-.6C370.2,209.36,370.47,209.57,370.87,210Z" transform="translate(-49.43 -2.06)"/><path class="cls-11" d="M395.14,207.92c-.22-.09-.2-.26-.13-.68.22-.23.39-.2.81-.14C395.9,207.44,395.67,207.67,395.14,207.92Z" transform="translate(-49.43 -2.06)"/><path class="cls-11" d="M396.91,206.89c0-.2.26-.49.82-.86C397.75,206.23,397.47,206.51,396.91,206.89Z" transform="translate(-49.43 -2.06)"/><path class="cls-11" d="M398.17,205.91c0-.17.17-.45.63-.82C398.83,205.27,398.62,205.53,398.17,205.91Z" transform="translate(-49.43 -2.06)"/><path class="cls-2" d="M372.26,213.27c.17-.06.49.12.94.53C373,213.86,372.72,213.68,372.26,213.27Z" transform="translate(-49.43 -2.06)"/><path class="cls-7" d="M242.42,226.15c-.07-.18.1-.46.48-.89C243,225.42,242.81,225.73,242.42,226.15Z" transform="translate(-49.43 -2.06)"/><path class="cls-3" d="M492.33,192a7.23,7.23,0,0,0-.13-.75c-.64-.61-.61-1.34-.82-2.31,0-.34.1-.6,0-.73-1.38-4.87.59-9.43.7-14.1a24.64,24.64,0,0,1,1.72-7.67c.22-.38.24-.37.23-.38,1.25-9.12,3.62-18,6.23-27.2,1.7-2.79,2.39-5.63,4.11-8.39,2.7-2.19,5.52-2.88,8.11-1.11,3,2,1.63,5.11.84,7.76-3.35,11.31-7,22.52-9.62,34-1.05,4.71-2,9.44-1.6,14.3.33,4.13,2.12,5,5.51,2.5,6.21-4.57,9.89-11.16,13.32-17.8,5.41-10.48,9.68-21.5,15-32a18.37,18.37,0,0,1,3.2-4.85c.74-1,1.47-1.5,2.17-2.44.21-.45.27-.64.45-1.11s.3-.62.52-1.06l.52-1c.32-.59.51-.93.85-1.51a9.34,9.34,0,0,1,.59-1,5.22,5.22,0,0,0,1.27-2.56,10.5,10.5,0,0,1,1.71-3.86c.42-.54.69-.82,1.13-1.3l.67-.81a4.76,4.76,0,0,0,.72-1.32c.15-.6.25-1,.42-1.58.62-1.42.39-2.71.92-4.19a4,4,0,0,1,.8-1.12c1.75-1.22,3.65-.61,5.5-1.61a6.89,6.89,0,0,1,3.64.1,3.26,3.26,0,0,1,1.58,1.34,3.73,3.73,0,0,1,.27,1.29,5,5,0,0,1-.52,1.8,13.84,13.84,0,0,1-.92,1.45,4.74,4.74,0,0,0-.81,1.4,8.88,8.88,0,0,0-.1,1.75c0,.76,0,1.21,0,2,2.18,11.82,4,23.35,6.51,35.13a10,10,0,0,1,.45,1.54c-.11,2.79-.17,5.16.94,7.81a6.3,6.3,0,0,1,.12,1.6c-.69,6.22-.79,12.13-3,18.08a8.42,8.42,0,0,1-1.1,2.86c-.83,1.44-2.09,1.82-3.22,2.9a1.65,1.65,0,0,0-.45.61c-.15,1.07-.88,1.58-1.75,2.34a2.07,2.07,0,0,0-1,.81,7,7,0,0,1-4.81,4.14c-.32.12-.26.24-.26.17-.29.57-.91.61-1.74.89-.27.13-.21.09-.24.09a19.93,19.93,0,0,1-1.94,2.07c-5.82,1.18-11.16,3.52-17,2.09a8.54,8.54,0,0,1-4.65-2.31c-2.2-7.42.5-13.54,3.93-19.9a11,11,0,0,1,1.07-2c1.2-1.3,2.44-2.06,3.4-3.58a4.87,4.87,0,0,1,1-1,5.73,5.73,0,0,1,1.35-.56,5.81,5.81,0,0,1,2.17,0c3.05,1.21,2.81,3.32,1.95,5.43-1,2.42-1.92,4.86-3.11,7.2-.57,1.12-1.42,2.47-.39,3.67s2.47.38,3.71.19a52,52,0,0,0,7.34-2.13,3.85,3.85,0,0,0,.71-1,16.51,16.51,0,0,1,.86-1.51l.55-.95c.31-.55.48-.87.76-1.45l.42-1.06a17.05,17.05,0,0,0,.61-1.73c.17-.53.25-.75.47-1.28,2.81-8.43,3.55-16.57.46-25.15a8.42,8.42,0,0,1-.15-1.54c-.06-2.92.28-5.5-.87-8.31a9.63,9.63,0,0,1-.14-1.5c0-1.11,0-1.84,0-2.91a10.92,10.92,0,0,0-.54-4.37c-.06-.23-.14-.58-.3-.59a15,15,0,0,0-1.25,2.09,6.3,6.3,0,0,1-.62,1.18c-2.24,2.73-3.21,5.85-5.28,8.7A10.32,10.32,0,0,1,545,146a80,80,0,0,0-5.37,11c-.11.57-.15.79-.29,1.35-3.12,4.64-4.61,9.75-7.49,14.51a14.12,14.12,0,0,1-1.08,1.69c-.3.45-.41.65-.7,1.1a29.18,29.18,0,0,0-2.47,2.82c-.37.59-.6.91-1,1.46-.28.39-.39.54-.67.91l-.67.87c-.38.5-.6.78-1,1.29l-.6.9c-.26.37-.37.51-.82,1.09s-.58.71-.88,1.06a9,9,0,0,0-1.44,1.71,10.41,10.41,0,0,1-.56,1.05c-.29.42-.42.58-.94,1.24s-.65.85-1,1.26c-2.46,2.86-5.4,4.6-8.38,6.88a8.51,8.51,0,0,1-2.69,1.32c-3,1.35-5.64.76-8.56-.26-.3-.28-.24-.25-.24-.28a16,16,0,0,1-1.79-.83c-.1-.28-.17-.26-.15-.23a1.48,1.48,0,0,1-.94-.77c-.1-.24-.14-.15-.09-.17a2,2,0,0,1-.91-.83c-.1-.24-.09-.16-.05-.17-.61-.28-.65-.91-.94-1.73-.14-.27-.19-.2-.15-.2C492.58,193.66,492.6,193,492.33,192Z" transform="translate(-49.43 -2.06)"/><path class="cls-8" d="M486.42,58.08c1-6.06,2.41-12.14,3.78-18.63a4.77,4.77,0,0,0-.64-1.14,4.14,4.14,0,0,1,.88-3.1,1.67,1.67,0,0,1,1.19-.43,89.89,89.89,0,0,1,1.45,9.9c-3.46,3-4.13,6.84-4.31,10.72C488.7,57,488.46,57.92,486.42,58.08Z" transform="translate(-49.43 -2.06)"/><path class="cls-8" d="M491.19,70.88c-.66.92-1.08,1.63-1.72,2.54-1.6-4.78-.19-9.08,3.32-13.13,1.29.75,1.39,1.83.57,3.38-.27.35-.38.4-.35.46-.8,1.07-.25,2.3-.79,3.57-.3.18-.36.27-.32.3C491.42,68.85,491.69,69.81,491.19,70.88Z" transform="translate(-49.43 -2.06)"/><path class="cls-8" d="M486.89,80.16a44.56,44.56,0,0,1-1,6.39c0,.38,0,.46.08.45-.08.15-.2.32-.45.76a4.74,4.74,0,0,0-.38,1.14c0,.3-.5.39-.72.45-.38-1.53-.26-3.22-.75-4.71C482.78,81.83,484.15,80.77,486.89,80.16Z" transform="translate(-49.43 -2.06)"/><path class="cls-8" d="M497.93,41.29c.52,2.14-.27,4.21-1.13,6.6-1.76.15-3.11-.34-3.64-2.43C495.36,44.81,495.74,42.2,497.93,41.29Z" transform="translate(-49.43 -2.06)"/><path class="cls-8" d="M454.3,112.26a72.83,72.83,0,0,1-1.85,10.06C452.45,119.17,450.88,115.38,454.3,112.26Z" transform="translate(-49.43 -2.06)"/><path class="cls-8" d="M479.2,81.84c0-2.88,1.2-5.68,2.5-8.83C482.24,76,481.39,79,479.2,81.84Z" transform="translate(-49.43 -2.06)"/><path class="cls-8" d="M457.83,99.55c0,.4-.39.47-.57.51.34-2.82-2.16-6.23,1.65-8.73C458.75,93.81,458.3,96.48,457.83,99.55Z" transform="translate(-49.43 -2.06)"/><path class="cls-11" d="M438.26,188.83c-1.55-2.11-.15-4.55-.3-7.35C439.69,183.48,439.26,186,438.26,188.83Z" transform="translate(-49.43 -2.06)"/><path class="cls-11" d="M440,205c-1.22-1.66-1.36-3.94-1.64-6.53C441.24,199.72,440.82,202.15,440,205Z" transform="translate(-49.43 -2.06)"/><path class="cls-8" d="M450.7,132.21a14.66,14.66,0,0,1-.24,4.65C448.86,135.54,448.4,133.91,450.7,132.21Z" transform="translate(-49.43 -2.06)"/><path class="cls-11" d="M438.29,179.8a60.91,60.91,0,0,1-.12-8.2C439.57,173.9,439.3,176.69,438.29,179.8Z" transform="translate(-49.43 -2.06)"/><path class="cls-8" d="M465.83,68.25a6.21,6.21,0,0,1-1.25,4.82C464.27,71.53,463.36,69.58,465.83,68.25Z" transform="translate(-49.43 -2.06)"/><path class="cls-8" d="M456.57,101.25a25.21,25.21,0,0,1-1.12,6.08C455.41,105.53,454.22,103.2,456.57,101.25Z" transform="translate(-49.43 -2.06)"/><path class="cls-8" d="M464.08,73.34a14.54,14.54,0,0,1-.76,4.52C465.31,76.78,457.65,74.16,464.08,73.34Z" transform="translate(-49.43 -2.06)"/><path class="cls-8" d="M462.83,78.32A27.91,27.91,0,0,1,461.37,84C461.19,82.23,460.55,80.06,462.83,78.32Z" transform="translate(-49.43 -2.06)"/><path class="cls-8" d="M484.13,66.87a14.3,14.3,0,0,1,.64-4.57C485.09,63.63,486.83,65.43,484.13,66.87Z" transform="translate(-49.43 -2.06)"/><path class="cls-8" d="M457.31,74a5.37,5.37,0,0,1,.36-2.72C459.05,72.09,459.4,73.1,457.31,74Z" transform="translate(-49.43 -2.06)"/><path class="cls-8" d="M455.19,81.82a5.66,5.66,0,0,1,.65-4.45C456,78.58,456.38,80.16,455.19,81.82Z" transform="translate(-49.43 -2.06)"/><path class="cls-8" d="M453.85,85.95a11.33,11.33,0,0,1,.87-3.75C455,83.32,455.42,84.74,453.85,85.95Z" transform="translate(-49.43 -2.06)"/><path class="cls-11" d="M464.08,203.12s-.46,0-.69.06a1.88,1.88,0,0,1,1.52-2.44c.43.35.19.7.15.9a3.06,3.06,0,0,1-.75,1.24C464.14,203.09,464.08,203.09,464.08,203.12Z" transform="translate(-49.43 -2.06)"/><path class="cls-8" d="M485.73,73.39c-.11-.68.25-1,.62-.58S486.41,73.54,485.73,73.39Z" transform="translate(-49.43 -2.06)"/><path class="cls-8" d="M452.28,91.85a12.5,12.5,0,0,1,.09-3.09.7.7,0,0,1,.53-.57A13,13,0,0,1,452.28,91.85Z" transform="translate(-49.43 -2.06)"/><path class="cls-11" d="M443.87,212a4.2,4.2,0,0,1-1.9-1.46C442.87,210.28,443.65,210.58,443.87,212Z" transform="translate(-49.43 -2.06)"/><path class="cls-11" d="M438.35,194.84a11.2,11.2,0,0,1-.28-3.32C439.15,192.17,439.26,193.34,438.35,194.84Z" transform="translate(-49.43 -2.06)"/><path class="cls-11" d="M466.82,197.26c.22.24.16.64.08,1.33,0,.3,0,.4.06.4a2.63,2.63,0,0,1-.7.92l-.18.18a.79.79,0,0,1-.63.23,1.37,1.37,0,0,1-.39-.27A3.58,3.58,0,0,1,466.82,197.26Z" transform="translate(-49.43 -2.06)"/><path class="cls-8" d="M485.22,61.84a7,7,0,0,1,.54-2.75A7,7,0,0,1,485.22,61.84Z" transform="translate(-49.43 -2.06)"/><path class="cls-8" d="M466.93,65.31A6.2,6.2,0,0,1,466.4,68,6.2,6.2,0,0,1,466.93,65.31Z" transform="translate(-49.43 -2.06)"/><path class="cls-8" d="M456.21,74.58c0-.36.41-.46.6-.52a7.23,7.23,0,0,1-.53,2.8A6.29,6.29,0,0,1,456.21,74.58Z" transform="translate(-49.43 -2.06)"/><path class="cls-8" d="M452,124.24a5.89,5.89,0,0,1,0,2.42C451.15,126.18,451,125.32,452,124.24Z" transform="translate(-49.43 -2.06)"/><path class="cls-8" d="M451.36,95.82a3.8,3.8,0,0,1,.37-2A3.8,3.8,0,0,1,451.36,95.82Z" transform="translate(-49.43 -2.06)"/><path class="cls-8" d="M458.45,68.85a3.22,3.22,0,0,1,.43-1.55A3.22,3.22,0,0,1,458.45,68.85Z" transform="translate(-49.43 -2.06)"/><path class="cls-8" d="M455.11,108.17a2.45,2.45,0,0,1-.05,1.56C454.4,109.49,454.29,108.91,455.11,108.17Z" transform="translate(-49.43 -2.06)"/><path class="cls-8" d="M488.94,74.35a3.59,3.59,0,0,1-.49,1.9A3.59,3.59,0,0,1,488.94,74.35Z" transform="translate(-49.43 -2.06)"/><path class="cls-11" d="M442,209.92a3.29,3.29,0,0,1-1-1.53A3.29,3.29,0,0,1,442,209.92Z" transform="translate(-49.43 -2.06)"/><path class="cls-8" d="M496,49.27a4,4,0,0,1-.54,2.13A4,4,0,0,1,496,49.27Z" transform="translate(-49.43 -2.06)"/><path class="cls-8" d="M482.28,71.86a3.7,3.7,0,0,1,.41-2A3.7,3.7,0,0,1,482.28,71.86Z" transform="translate(-49.43 -2.06)"/><path class="cls-8" d="M459.76,89.34a3,3,0,0,1-.38,1.64A3,3,0,0,1,459.76,89.34Z" transform="translate(-49.43 -2.06)"/><path class="cls-11" d="M438.23,155.92c0-.16.13-.47.54-.93C438.82,155.15,438.64,155.46,438.23,155.92Z" transform="translate(-49.43 -2.06)"/><path class="cls-8" d="M483.44,67.89c-.21-.19-.13-.49.31-.85C483.92,67.24,483.8,67.51,483.44,67.89Z" transform="translate(-49.43 -2.06)"/><path class="cls-8" d="M495.11,53.15c.15.09.14.27,0,.69-.2.05-.32-.14-.38-.34S494.89,53.33,495.11,53.15Z" transform="translate(-49.43 -2.06)"/><path class="cls-8" d="M494,57.2c.14-.07.11.42,0,.64C493.65,57.79,493.64,57.53,494,57.2Z" transform="translate(-49.43 -2.06)"/><path class="cls-8" d="M460.68,86.35c.07.13,0,.44-.31.93C460.22,87.12,460.33,86.81,460.68,86.35Z" transform="translate(-49.43 -2.06)"/><path class="cls-11" d="M458.67,209.17c.13-.11.18.3.19.51s-.36.2-.54.16C458.24,209.61,458.38,209.44,458.67,209.17Z" transform="translate(-49.43 -2.06)"/><path class="cls-11" d="M440.9,207.29c-.17,0-.41-.31-.7-.88C440.37,206.42,440.6,206.71,440.9,207.29Z" transform="translate(-49.43 -2.06)"/><path class="cls-14" d="M487.08,199.1l.2-.32s0,.24-.1.28Z" transform="translate(-49.43 -2.06)"/><path class="cls-10" d="M94.07,242.68A4.7,4.7,0,0,1,92.3,242a5.34,5.34,0,0,1-.92-.68c-.17-.23-.29-.24-.29-.3-.17-.18-.33-.3-.66-.67-.52-.63-.88-1-1.33-1.63a2.29,2.29,0,0,0-1-1.43c-2.85-2.93-5.29-5.85-8-8.5-3.37-3.29-3.87-6.94-1.41-10.74,5.49-8.5,11.45-16.63,20.55-22.21,2.09-.11,3.17-1.38,4.67-2.58a12.1,12.1,0,0,1,1.85-1.13,7,7,0,0,0,1-.62,4.25,4.25,0,0,1,.9-.43c4.78-.42,4.92-.21,3.12,4.24,1.29-2,3-3.45,3.84-5.76.69-1.88,2.52-3.85,5.09-2.59,2.21,1.09,4.58,2.45,4,5.6-1.2,6.71-5.25,12-9.07,17.33-1.11,1.55-3.3,1.32-4.91,2.07,1.73,7.58-3.52,12.77-6.48,18.65a23,23,0,0,0-1.9,5.3c-.15.32-.21.25-.16.25a11.28,11.28,0,0,0-2.89,4,2.75,2.75,0,0,1-.24.79A8.56,8.56,0,0,1,94.07,242.68Z" transform="translate(-49.43 -2.06)"/><path class="cls-10" d="M101.52,236.08c-1.45-2.48-1.15-4.64.8-7.09,2.74-3.45,3.31-8.17,6.07-11.76.79-1,1.55-2.93-.7-3.61-1-.3-2.79.42-1.75-1.63.62-1.23,1.42-3.13,3.24-2.52,4.09,1.37,5.32-1.18,6.48-4.17,1.64-4.24,5-7.57,6.23-12.06.29-1.07,1.46-2.59-.22-2.79-2-.24-2.26-3.32-4.38-2.31-1.52.72-2,2.07-.75,3.7.63.83.47,2.64-.36,2.5-4.32-.73-5.34,3.67-8.4,5-1.33-2.31-.33-3.45,1.65-4.72,2.17-1.4,2.06-2.92-1.16-3.57,6.86-5,15.22-7.25,24.77-10.43C123.65,200.57,114.19,219,101.52,236.08Z" transform="translate(-49.43 -2.06)"/><path class="cls-6" d="M188.89,164.95c1.92-1.59,1.44-3.68,1.09-5.78-.39-2.38-.69-4.77-1-7.59,3.29-.55,2.75,2.29,3.41,4.08s1,3.67,4,2.89c4.71,2.74,9,.23,13.26-.28,2-.23,3.82-1,6.12,0,1.32.42,2.4.06,3.49,1-1,4.3-5.1,3.79-8,5.76a6.77,6.77,0,0,1-2.11.54,9.5,9.5,0,0,0-4.48,1.58,7.55,7.55,0,0,1-1.35.37c-1.71.42-3.06,1.07-4.8.12-2.15-1.54-4-3-6.82-1.67A16,16,0,0,1,188.89,164.95Z" transform="translate(-49.43 -2.06)"/><path class="cls-10" d="M191.34,166.34c0-2.69,1.72-3.13,3.69-3.22,2.59-.12,2.83,1.73,3.09,4a14.91,14.91,0,0,1-3.7,1.78c-1.48,1.25-2.27.56-3-.8A8.45,8.45,0,0,0,191.34,166.34Z" transform="translate(-49.43 -2.06)"/><path class="cls-5" d="M183.83,170.94c-2.33,1.41-5.11.81-8.23,1C177.83,170.5,180.53,169.41,183.83,170.94Z" transform="translate(-49.43 -2.06)"/><path class="cls-5" d="M191.27,167.9a10,10,0,0,1,2.51,1,10.59,10.59,0,0,1-.7,2.94,3.78,3.78,0,0,0-4.48-1.69C188.2,168.16,190.63,169.54,191.27,167.9Z" transform="translate(-49.43 -2.06)"/><path class="cls-5" d="M90.82,247a3,3,0,0,1-1.64-.63A3,3,0,0,1,90.82,247Z" transform="translate(-49.43 -2.06)"/><path class="cls-5" d="M87,244.67a2.5,2.5,0,0,1-1.16-1.11C86.22,243.66,86.6,244,87,244.67Z" transform="translate(-49.43 -2.06)"/><path class="cls-5" d="M85.78,243.08a2.8,2.8,0,0,1-1.59-.68A2.8,2.8,0,0,1,85.78,243.08Z" transform="translate(-49.43 -2.06)"/><path class="cls-5" d="M88.89,246c-.16.06-.49-.11-1-.51C88.05,245.39,88.39,245.55,88.89,246Z" transform="translate(-49.43 -2.06)"/><path class="cls-15" d="M106.83,191.39c.06.21-.16.4-.63.61C106.1,191.77,106.3,191.55,106.83,191.39Z" transform="translate(-49.43 -2.06)"/><path class="cls-5" d="M198.86,173.23c.15,0,.2.21.24.62C198.76,173.93,198.65,173.68,198.86,173.23Z" transform="translate(-49.43 -2.06)"/><path class="cls-16" d="M597.45,195.3c-1.33-.18-2.35-.42-3.76-.73a6,6,0,0,0-1.38-.46c-1.77-.8-3.67-1-5-2.85-.21-.26-.24-.2-.2-.19-.48-.37-.55-1-.88-1.72-.19-.22-.17-.25-.19-.25a3.64,3.64,0,0,1-.82-1.13,5,5,0,0,0-.14-.71c-3.44-4-2.11-8.74-2.57-13.54.41-2.49,1.35-4.39,2-6.79.15-.6.21-.84.4-1.43a33.67,33.67,0,0,0,1.82-3.92c.72-1.94.14-2.88-1.85-2.94a19.57,19.57,0,0,1-4.4-.71c-1.82-.48-3.76-1.23-3.53-3.48s2.38-2.45,4.19-2.74a7.19,7.19,0,0,1,2-.07c6.21.76,9.45-3,11.8-7.9.86-1.79,1.62-3.61,2.79-5.63,1.83-4.39,4.51-8,5.86-12.58.59-1.55,1.44-2.59,2-4.16.13-.52.17-.73.34-1.23.58-1.22,1.44-1.92,1.74-3.28a6.38,6.38,0,0,1,3.4-4.5,23.37,23.37,0,0,0,2.57-5c2-6.95,6.83-9.54,14.11-9.22a22.8,22.8,0,0,1,8.77,3,2.13,2.13,0,0,1,1.44.86,14.37,14.37,0,0,0,1.6,2.07c1.3.53,1.84,1.61,3.09,2.34a5.43,5.43,0,0,1,.84,1.08,13.53,13.53,0,0,1,.82,1.94,7.65,7.65,0,0,1,.26,1.4c.1,2.26,0,4.17.12,6.44a7,7,0,0,1,0,2.09c-.09.79-.14,1.24-.27,2a6.66,6.66,0,0,1-.77,1.73c-.4.57-.63.88-1,1.45-.2.41-.28.58-.49,1s-.48.86-.77,1.42-.27.57-.47,1l-.8,1.45c-.33.58-.53.9-.89,1.48s-.58.94-1,1.55a6.73,6.73,0,0,1-.8,1,68.08,68.08,0,0,1-14.83,12.91c-6.63,4.89-13.59,8.51-21,12.09-2.85.79-3.45,2.87-4,5-1.48,6-1.09,12.16-.87,18.2.21,5.83,3.55,7.47,8.95,5a24.94,24.94,0,0,0,6.69-3.89c3.39-3.7,7.52-6.19,10.33-10.47a10.19,10.19,0,0,1,2-1.84c.43-.37.6-.51,1-.86,2.68-2,3.89-4.8,5.85-7.41a8.83,8.83,0,0,1,1.18-1.59,11.48,11.48,0,0,0,1.64-1.89c.2-.47.27-.67.45-1.16a18.1,18.1,0,0,1,.83-1.7,20.59,20.59,0,0,1,3.68-4.42,8.55,8.55,0,0,0,1.65-2.76c1.47-1.82,2.41-3.6,3.74-5.53a52.89,52.89,0,0,1,6.09-8.8c1.25-1.49,2.46-3.22,5.16-2.51a1.62,1.62,0,0,1,.26,2C655,137.06,654,140,653,143.34c-.41,1.57.27,2.89-.48,4.39a6.4,6.4,0,0,1-.83,1.68,6.73,6.73,0,0,1-.77,1,2.26,2.26,0,0,1-1.39.51c-4.5,5.17-8.39,10.33-12.4,15.81a4.24,4.24,0,0,1-.7,1.07.67.67,0,0,1-.33.21,5.38,5.38,0,0,0-.55,1.2,14.25,14.25,0,0,1-2.26,2.62c-.25.2-.25.26-.23.23a3,3,0,0,1-.8.86c-.2.14-.13.19-.16.16a5.87,5.87,0,0,1-.83.85c-.19.15-.14.17-.17.15a2.81,2.81,0,0,0-.45,1,2.11,2.11,0,0,1-.7,1.11,5,5,0,0,0-1.23,1,5.49,5.49,0,0,0-.61,1.43,3.25,3.25,0,0,1-.45.91,7.5,7.5,0,0,1-1.11,1l-.75.61c-.18.15-.55.46-.9.79a14.27,14.27,0,0,1-1.11,1,4.17,4.17,0,0,1-1.33.63,5.23,5.23,0,0,0-1.15.46c-.21.14-.17.17-.18.15a10.19,10.19,0,0,1-.84.85c-.18.16-.14.17-.15.15a4.42,4.42,0,0,1-1.84,1.79c-.26.12-.17.12-.22.11a14.87,14.87,0,0,1-5.71,3.87c-.28.18-.29.2-.3.19a31.73,31.73,0,0,0-2.89,1.5c-3.25,1-6.3,1.81-9.72,2.74A18.82,18.82,0,0,1,597.45,195.3Z" transform="translate(-49.43 -2.06)"/><path class="cls-17" d="M633.53,179.94" transform="translate(-49.43 -2.06)"/><path class="cls-18" d="M620.28,185c0-.18.13-.46.55-.83C620.88,184.33,620.69,184.6,620.28,185Z" transform="translate(-49.43 -2.06)"/><path class="cls-18" d="M631.26,174c-.06-.19.11-.48.52-.85C631.95,173.37,631.76,173.64,631.26,174Z" transform="translate(-49.43 -2.06)"/><path class="cls-18" d="M632.25,172.94c-.06-.19.11-.48.53-.85C632.85,172.3,632.66,172.57,632.25,172.94Z" transform="translate(-49.43 -2.06)"/><path class="cls-19" d="M636.35,167.89c-.16-.19,0-.45.43-.75C636.88,167.32,636.73,167.56,636.35,167.89Z" transform="translate(-49.43 -2.06)"/><path class="cls-20" d="M448.59,49.06c-.22-.11-.21-.38,0-.8C448.85,48.37,448.83,48.63,448.59,49.06Z" transform="translate(-49.43 -2.06)"/><path class="cls-5" d="M89.68,252.06a2.4,2.4,0,0,1,1-1.12A2.4,2.4,0,0,1,89.68,252.06Z" transform="translate(-49.43 -2.06)"/><path class="cls-8" d="M493.24,29.92a23.06,23.06,0,0,1,.47-5.52c2.09.72,2.43-4.8,4.62-1.49,1.94,2.93-.29,3.93-2.75,4.73C494.75,27.91,494.19,29,493.24,29.92Z" transform="translate(-49.43 -2.06)"/><path class="cls-8" d="M500.7,30.24a4.1,4.1,0,0,1-1,4.32C499.22,33.18,498.6,31.52,500.7,30.24Z" transform="translate(-49.43 -2.06)"/><path class="cls-8" d="M496.74,11.09c.48-.8,1-.88,1.52-.35a.77.77,0,0,1,0,.76C497.72,12,497.19,11.92,496.74,11.09Z" transform="translate(-49.43 -2.06)"/><path class="cls-8" d="M498.86,38.35a6,6,0,0,1-.44,2.62A6,6,0,0,1,498.86,38.35Z" transform="translate(-49.43 -2.06)"/><path class="cls-8" d="M492.33,33.82a7.47,7.47,0,0,1,.41-2.82A7.47,7.47,0,0,1,492.33,33.82Z" transform="translate(-49.43 -2.06)"/><path class="cls-8" d="M494.34,21.93a2.24,2.24,0,0,1-.09-1.44C494.81,20.67,495,21.19,494.34,21.93Z" transform="translate(-49.43 -2.06)"/><path class="cls-8" d="M499.19,37c.15-.11.29.14.36.42,0,.12-.09.28-.3.57C499.11,37.85,499.13,37.6,499.19,37Z" transform="translate(-49.43 -2.06)"/><path class="cls-2" d="M503.12,25.91a5.51,5.51,0,0,1,.07-2.43C504,24,504.17,24.85,503.12,25.91Z" transform="translate(-49.43 -2.06)"/><path class="cls-6" d="M568.27,105.94a6,6,0,0,0-1,1c-.4.39-.63.61-1,1l-.16.16-.86.82c-.18.16-.15.17-.16.16-.52.72-.94,1.57-2.35,1.39a5.81,5.81,0,0,1-.67-2.34c-.72-3.22,1.26-5.11,2.28-7.3s2.25-4.39,2.39-7c-5.47,1.45-9.29,7.84-8.61,14.45a26.9,26.9,0,0,1-5.58.84c-.25-7.12,2.3-13.24,7.39-18.68,1.38-2.74,3.72-3.82,6.29-5.09a2.44,2.44,0,0,0,.68-.15c3.35-1.33,5.72-1.51,5.81,3.22,0,2.62,2.31,5.07.59,8.33a1.76,1.76,0,0,0-.33.92c-.21.74-.37,1.33-.59,2.21a2.9,2.9,0,0,0-.3.92c-.41.71-.47,1.32-.86,2.1-.21.21-.15.19-.17.16a3.35,3.35,0,0,1-.84.89c-.2.15-.14.17-.15.14a5.38,5.38,0,0,1-.85.87c-.19.16-.13.17-.14.14C568.88,105.3,568.66,105.54,568.27,105.94Z" transform="translate(-49.43 -2.06)"/><path class="cls-10" d="M558.49,108.53c-3.21-1-3.63-2.86-2.54-5.46a31.72,31.72,0,0,1,7.86-11.32c1.13-1,2.33-2.11,3.93-1.22,1.85,1,1.47,2.88,1,4.43a33.27,33.27,0,0,1-6.59,12.46A20.39,20.39,0,0,1,558.49,108.53Z" transform="translate(-49.43 -2.06)"/><path class="cls-6" d="M541.53,133a7.14,7.14,0,0,1,1-2.91A2,2,0,0,1,541.53,133Z" transform="translate(-49.43 -2.06)"/><path class="cls-6" d="M545.19,125.84c-.28-1.07.24-2.06,1.37-3.1C547,123.85,546.74,125,545.19,125.84Z" transform="translate(-49.43 -2.06)"/><path class="cls-6" d="M544.09,128a3.22,3.22,0,0,1,.58-1.8A3.22,3.22,0,0,1,544.09,128Z" transform="translate(-49.43 -2.06)"/><path class="cls-6" d="M550.35,117.08c-.2-.3-.09-.58.33-.94C551.51,116.6,551.22,116.89,550.35,117.08Z" transform="translate(-49.43 -2.06)"/><path class="cls-6" d="M549.19,118.86c-.07-.18.11-.53.52-1.06C549.78,118,549.6,118.34,549.19,118.86Z" transform="translate(-49.43 -2.06)"/><path class="cls-6" d="M560.17,112.33c0,.18-.23.48-.73.94C559.43,113.11,559.66,112.78,560.17,112.33Z" transform="translate(-49.43 -2.06)"/><path class="cls-6" d="M543.14,129.81c-.09-.2.07-.58.5-1.13C543.73,128.88,543.56,129.25,543.14,129.81Z" transform="translate(-49.43 -2.06)"/><path class="cls-21" d="M586.11,189.42a3.42,3.42,0,0,1,1,1.37A3.42,3.42,0,0,1,586.11,189.42Z" transform="translate(-49.43 -2.06)"/><path class="cls-21" d="M585.25,188c.18,0,.43.28.74.84C585.82,188.82,585.57,188.53,585.25,188Z" transform="translate(-49.43 -2.06)"/><path class="cls-8" d="M511.37,92.38c1.87.23,2.14,1.71,2.11,3-.1,4.8,2.15,7.35,6.89,7.89.76.09,1.47.62,3.65,1.59-7.46,2.17-10.49,6.37-8.7,12.92-2.15.78-2.85-.67-3.57-1.59-2.47-3.17-5.25-4.25-9-2.18-.9.49-2.22,1.36-3.22.32s.18-2.12.62-3.12c1.58-3.57,1.59-3.56-2.32-12.56,3.63-1.42,8.87,3.42,11.31-3,.07-.36.06-.42,0-.42a5.16,5.16,0,0,1,.75-.87c.18-.16.21-.17.21-.18.43-.46.44-1.08.95-1.76C511.32,92.2,511.3,92.35,511.37,92.38Z" transform="translate(-49.43 -2.06)"/><path class="cls-22" d="M504.44,87.81c.11.68-.25,1-.62.58S503.76,87.66,504.44,87.81Z" transform="translate(-49.43 -2.06)"/><path class="cls-22" d="M511.06,92.34a2.76,2.76,0,0,1-.68,1.6A2.75,2.75,0,0,1,511.06,92.34Z" transform="translate(-49.43 -2.06)"/><path class="cls-9" d="M493.09,68.1l.31.19s-.23,0-.27-.1S493.08,68.1,493.09,68.1Z" transform="translate(-49.43 -2.06)"/><path class="cls-22" d="M509.88,94.27c0,.16-.12.44-.52.82C509.24,94.86,509.42,94.6,509.88,94.27Z" transform="translate(-49.43 -2.06)"/><path class="cls-22" d="M485.54,87.89c-.22-.17-.15-.45.28-.8C486,87.27,485.86,87.52,485.54,87.89Z" transform="translate(-49.43 -2.06)"/><path class="cls-23" d="M490.4,38.18a7,7,0,0,1,.51-2.81A7,7,0,0,1,490.4,38.18Z" transform="translate(-49.43 -2.06)"/><path class="cls-24" d="M195.93,148.94c.05,3.24.24,6.06.43,9.29-.47,2.07-1.34,3.57-3.27,3.36-2.21-.23-1.79-2.3-2.12-3.81a63.62,63.62,0,0,0-1.72-6.36c-.26-.27-.21-.29-.21-.26a2.24,2.24,0,0,1-.39-.63,14.2,14.2,0,0,1-.41-2.1c.23-5.9-2-11.16-1.9-17-1.86-7.3-.58-14.56-2.26-21.9-.1-.62-.12-.9-.19-1.38,1.06-10.91-.07-21.64.1-32.35,0-1.14-1.59-4.79,2.76-2.8.26.16.23.12.22.14.95.93.77,2.19,1,3.67a18,18,0,0,0,.09,2c3,17.62,5.65,35,6.56,52.51C194.94,137,197.38,142.63,195.93,148.94Z" transform="translate(-49.43 -2.06)"/><path class="cls-6" d="M186.1,131.57c1.53,4.93,2.85,10.32,2.34,16.22A62.13,62.13,0,0,1,186.1,131.57Z" transform="translate(-49.43 -2.06)"/><path class="cls-6" d="M188.56,150.46c.18,0,.31.16.43.55C188.79,151.08,188.63,150.9,188.56,150.46Z" transform="translate(-49.43 -2.06)"/><path class="cls-25" d="M105.56,227.61" transform="translate(-49.43 -2.06)"/><path class="cls-10" d="M629.84,105.86a5.81,5.81,0,0,0,1,.31,13.57,13.57,0,0,0,2.06.74,6.21,6.21,0,0,1,1.46,1.39,7.22,7.22,0,0,0,.4,2.5,6.15,6.15,0,0,1,.17,2c-1.16,3.81-2.28,7.29-3.65,11.06-.19.31-.23.26-.21.29a7.86,7.86,0,0,0-1.65,2c-.06.28-.26.29-.16.31-3.21,2.92-5.37,7-9.62,9.48a8.31,8.31,0,0,1-1.3.78c-1.95.56-3.52.93-4.42,2.57-.72,1.31-1.67,2.7-3.41,2.17-2-.59-2.53-2.45-2.84-4.25-.35-2,.38-3.87,1.11-6.12a4.54,4.54,0,0,1,.18-.79,5.55,5.55,0,0,0,.89-1.93l.19-.24a6.23,6.23,0,0,0,1.75-3.77c.16-.28.25-.24.2-.25.48-.38.53-1,.82-1.78.14-.25.12-.26.12-.27,1.93-1.29,1.9-3.55,2.87-5.69.18-.29.23-.24.19-.24.45-.38.53-.95.88-1.68.21-.19.19-.28.23-.29a6.45,6.45,0,0,0,.76-1.06,6.31,6.31,0,0,1,.26-.72c.93-1,2.2-1.5,2.65-3.11.1-.29.2-.22.14-.23.64-.41.95-1.24,1.84-1.86.16-.25.26-.13.19-.17A10.77,10.77,0,0,1,629.84,105.86Z" transform="translate(-49.43 -2.06)"/><path class="cls-26" d="M300.59,146.61" transform="translate(-49.43 -2.06)"/><path class="cls-22" d="M530.6,117.59" transform="translate(-49.43 -2.06)"/><path class="cls-27" d="M543.08,77.1l-.2.32s0-.24.11-.28Z" transform="translate(-49.43 -2.06)"/><path class="cls-28" d="M599.09,185.11s-.21.34-.21.34,0-.26.1-.31S599.08,185.1,599.09,185.11Z" transform="translate(-49.43 -2.06)"/><path class="cls-29" d="M619.1,135.09a3.05,3.05,0,0,1,.35.23s-.28,0-.33-.09S619.08,135.1,619.1,135.09Z" transform="translate(-49.43 -2.06)"/></svg>