<svg id="Layer_4_copy" data-name="Layer 4 copy" xmlns="http://www.w3.org/2000/svg" viewBox="0 0 776.98 301.75"><defs><style>.cls-1{fill:#ea5260;}</style></defs><title>Annelise-Designs-logo-original-font</title><path class="cls-1" d="M67.42,300.17q0,9.75,10.75,9.75,18.25,0,42.5-22.75a45.29,45.29,0,0,1-8.5-7q-12-14.25-12-25,0-20.25,25.5-36.5a125.27,125.27,0,0,1,40-16.5q12-2,20-3.25l23-40a436.47,436.47,0,0,0,21.75-43q18.25-43.25,18.25-80.5,0-15.75-11.5-18.25-2.25-.75-2.25-2.25,0-2,3-2,11.25,0,16.75,9.75,4.75,7.75,4.75,20,0,29.5-22.25,80.25a588.6,588.6,0,0,1-39,74.5q13.25-1.25,32.25-2.25,13-.75,14.5-.75l27.25-2.75q26.25-2.5,26.25-2,0,1.25-25,6.75-22.75,5.25-27.5,5.75-11.5-.5-19.5-1.25-22.75,1.75-32.5,3.25-34,53.5-65.5,83,7.25,4.25,25,8.5c1.66.33,2.5,1,2.5,2s-.92,1.5-2.75,1.5q-11.25,0-27.75-9.75-27.75,25.25-48,25.25-12.75,0-12.75-10.25Zm94.25-88.75q-9.5,3.5-18.75,7-11.5,4.5-16.25,8.75-22.5,19.5-22.5,27,0,3,6.5,10.75,5.5,8,9.25,13.75a9.87,9.87,0,0,0,2.75,2q1.25.75,1.25,3.5,27-27.25,57-77.25Q168.41,209.92,161.67,211.42Zm129.5,78q-18.75,0-25.5-67.75-3.5-33.75-3.5-80.25V84.92q-.5-7.5-3-7.5-1.5,0-1.75,6.5-1.5,22.5-2.5,34-1.75,18.25-1.75,35.75,0,17.25,1.88,36.13t1.87,20.88q0,29.5,5.75,46.25,1.75,6.75,3.5,13.5,2.25,8,6.25,12.38t8,8.88a10.51,10.51,0,0,0,7.5,3.5q5.25,0,14.75-7,5-3.75,10.5-13.37t5.75-15.87Q303.66,289.42,291.17,289.42Z" transform="translate(-64.67 -12.92)"/><path class="cls-1" d="M415.17,214.42q-9.5,16.75-27.5,36.25-22.25,24-35,24a7.64,7.64,0,0,1-5.25-2,4.86,4.86,0,0,1-1.75-4.75,6.45,6.45,0,0,1-.25-2q0-8.5,7.25-30.75,4.25-12,11.5-32.75a415,415,0,0,0-48.25,69q-9,16.25-15.75,16.25c-1.83,0-2.75-.59-2.75-1.75q0-3.5,6.5-19.75,4.75-12,11.75-37.25,8-29.25,7.25-37.75v-2.25q-4.5,4.5-12.87,13.63t-13.12,9.13a8,8,0,0,1-3-.5q.25-5.75,13.88-17.62t20.63-11.87q6.5,0,6.5,8.75,0,11-4.5,26.5-3,8.75-9,29,39.25-60,53.75-60,3.25,0,3.25,3.25a26.64,26.64,0,0,1-1.5,7.5q.25,1.75-9.75,29t-10,31.75q0,7,3.75,7,8,0,25.25-20.25,5.5-6.5,21.5-28.25a8.41,8.41,0,0,1,7.5-3.75,1.88,1.88,0,0,0,.75.25A4.27,4.27,0,0,1,415.17,214.42Z" transform="translate(-64.67 -12.92)"/><path class="cls-1" d="M497.66,214.42q-9.5,16.75-27.5,36.25-22.25,24-35,24a7.64,7.64,0,0,1-5.25-2,4.86,4.86,0,0,1-1.75-4.75,6.45,6.45,0,0,1-.25-2q0-8.5,7.25-30.75,4.25-12,11.5-32.75a415,415,0,0,0-48.25,69q-9,16.25-15.75,16.25c-1.83,0-2.75-.59-2.75-1.75q0-3.5,6.5-19.75,4.75-12,11.75-37.25,8-29.25,7.25-37.75v-2.25q-4.5,4.5-12.87,13.63t-13.12,9.13a8,8,0,0,1-3-.5q.25-5.75,13.88-17.62t20.63-11.87q6.5,0,6.5,8.75,0,11-4.5,26.5-3,8.75-9,29,39.25-60,53.75-60,3.25,0,3.25,3.25a26.64,26.64,0,0,1-1.5,7.5q.25,1.75-9.75,29t-10,31.75q0,7,3.75,7,8,0,25.25-20.25,5.5-6.5,21.5-28.25a8.41,8.41,0,0,1,7.5-3.75,1.88,1.88,0,0,0,.75.25A4.27,4.27,0,0,1,497.66,214.42Z" transform="translate(-64.67 -12.92)"/><path class="cls-1" d="M539.66,252.92q-28.5,28.75-46,30.25-8.75,1-14.75-3.5a17.45,17.45,0,0,1-7-12.25q-1.75-12.25,11.75-33a27.27,27.27,0,0,1-17.5-4l1-1.25a67.75,67.75,0,0,0,14.25,0,29.77,29.77,0,0,0,5.75-.75q20.25-33.25,36-59.75a17.72,17.72,0,0,1,7-2.5,23.4,23.4,0,0,1,16.38,4.38,19.14,19.14,0,0,1,7.88,13.63q2.25,17-20.75,33.25a124.33,124.33,0,0,1-41,19q-7,12-7,27.5a27.88,27.88,0,0,0,.5,5.5q1,8.75,8,8,16.5-1.5,44.75-32.75l29-33,.25.5Q567.16,225.42,539.66,252.92Zm.75-76.87q-4.75-1.87-6.75-1.62-7.5.5-21,23.25l-17,29.5a86.22,86.22,0,0,0,33.75-18q17.75-15,15.75-30Q545.16,177.92,540.41,176Z" transform="translate(-64.67 -12.92)"/><path class="cls-1" d="M667.91,40.92q0,5.25-7.25,25.75-17.25,49.25-36.5,87.5t-49,82.25a159,159,0,0,0-2.5,27.5q0,15.75,3.75,15.75,7.75,0,35-41.5,31.25-47.5,32.25-48.5,4.75-5,9-6h1.25l-.5,2.25a856.74,856.74,0,0,1-62.25,91.25q-9.5,12-19,12-11.5,0-11.5-22.25,0-41,24.75-114.37T634.16,50.17q16.75-20,26.5-20Q667.9,30.17,667.91,40.92Zm-14,6.5a6.66,6.66,0,0,0-.75-3l-1.25-.75q-7.25-.5-28.25,41.25-33.5,66.25-44.5,129.25,43.25-66.25,70.25-147.75Q653.91,52.67,653.91,47.42Z" transform="translate(-64.67 -12.92)"/><path class="cls-1" d="M703.9,206.17a2.91,2.91,0,0,1,2,.5v.25q.5,11-26,40-26.75,29.75-39.25,29.75-5.75,0-9-5.5a18.91,18.91,0,0,1-2.75-10.5q0-10,8.25-33a318.3,318.3,0,0,1,13.25-32.5q2-4.25,8.75-4.25a7.45,7.45,0,0,1,3.75.75v1.25q0-.5-11.87,28t-11.87,40.5q0,6.5,4.25,6.5,17,0,53.75-58.25A7.49,7.49,0,0,1,703.9,206.17Zm-29-57.25a21.78,21.78,0,0,1-4,11.5q-4.25,6.5-9.75,6.5a4.72,4.72,0,0,1-3.5-1.25l-.25-1.25q5.25-16.25,14.25-16.25A7.17,7.17,0,0,1,674.9,148.92Z" transform="translate(-64.67 -12.92)"/><path class="cls-1" d="M742.4,153.92a17.47,17.47,0,0,1-2.5,8.75q-2.25,3.5-8.25,8-9.25,6.75-9.5,7,0,1,2.25,31.5,1.25,19.25,1.25,31.5,0,17-9.75,28.5-11.25,13.25-31.5,13.25-11,0-11-8.25,0-5.25,6-15.37t11-10.12a9.78,9.78,0,0,1,3.5.5q-.49,3-5.12,9.5t-4.63,9.75l.5,2,2.23.5,8.68-1q6-.5,7.44-2,11.65-11.25,12.65-35.75-.5-13.75-1-39.75l-18.75,25q-1.25,1.75-7,12.5l-11.75,21.75q-16,29.5-19.5,29.5-.5,0-6.5-6a4.31,4.31,0,0,1-1.25-1.25q44.5-75.75,63-96.25,2.25-13.5,6.25-20.75,6-10.25,18.75-14.5a5.61,5.61,0,0,1,1.75-.25c1.83,0,2.75.59,2.75,1.75Zm-5.5-5.75h-1q-4.25,0-10.62,7.5t-6.37,11q0,4,5,4,4,0,9.5-8.25,4.75-7.5,4.75-11.5A4.49,4.49,0,0,0,736.9,148.17Z" transform="translate(-64.67 -12.92)"/><path class="cls-1" d="M813.15,252.92q-28.5,28.75-46,30.25-8.75,1-14.75-3.5a17.45,17.45,0,0,1-7-12.25q-1.75-12.25,11.75-33a27.27,27.27,0,0,1-17.5-4l1-1.25a67.75,67.75,0,0,0,14.25,0,29.77,29.77,0,0,0,5.75-.75q20.25-33.25,36-59.75a17.72,17.72,0,0,1,7-2.5A23.4,23.4,0,0,1,820,170.54a19.14,19.14,0,0,1,7.88,13.63q2.25,17-20.75,33.25a124.33,124.33,0,0,1-41,19q-7,12-7,27.5a27.88,27.88,0,0,0,.5,5.5q1,8.75,8,8,16.5-1.5,44.75-32.75l29-33,.25.5Q840.65,225.42,813.15,252.92ZM813.9,176q-4.75-1.87-6.75-1.62-7.5.5-21,23.25l-17,29.5a86.22,86.22,0,0,0,33.75-18q17.75-15,15.75-30Q818.65,177.92,813.9,176Z" transform="translate(-64.67 -12.92)"/></svg>