<?xml version="1.0" encoding="utf-8"?>
<!-- Generator: Adobe Illustrator 19.0.0, SVG Export Plug-In . SVG Version: 6.00 Build 0)  -->
<svg version="1.1" id="Layer_1" xmlns="http://www.w3.org/2000/svg" xmlns:xlink="http://www.w3.org/1999/xlink" x="0px" y="0px"
	 viewBox="0 0 300 250" style="enable-background:new 0 0 300 250;" xml:space="preserve">
<style type="text/css">
	.st0{fill:none;stroke:#000000;stroke-width:1.7427;stroke-miterlimit:10;}
</style>
<g id="XMLID_1_">
	<path id="XMLID_151_" class="st0" d="M198.3,214.7h-96.6c-2.2,0-4-1.8-4-4v-16.6c0-2.2,1.8-4,4-4h96.6c2.2,0,4,1.8,4,4v16.6
		C202.3,212.9,200.5,214.7,198.3,214.7z"/>
	<g id="XMLID_124_">
		<path id="XMLID_149_" d="M105.8,199.4v2.5h3.3v1.3h-3.3v3.4h-1.5V198h5.2v1.3H105.8z"/>
		<path id="XMLID_147_" d="M110.8,206.6V198h1.5v8.5H110.8z"/>
		<path id="XMLID_145_" d="M121,206.7l-5.3-5.6v5.5h-1.5v-8.7l0.2,0l5.3,5.6V198h1.5v8.7L121,206.7z"/>
		<path id="XMLID_142_" d="M125.5,206.6c-0.9,0-1.6-0.1-2.5-0.1v-8.4c0.8-0.1,1.5-0.1,2.4-0.1c3.4,0,5,1.9,5,4.3
			C130.5,204.6,128.9,206.6,125.5,206.6z M125.6,199.3c-0.4,0-0.8,0-1.1,0.1v6c0.4,0.1,0.7,0.1,1.2,0.1c2.2,0,3.2-1.3,3.2-3.1
			C128.9,200.5,127.8,199.3,125.6,199.3z"/>
		<path id="XMLID_139_" d="M138.5,206.7c-2.5,0-4.3-1.9-4.3-4.4c0-2.5,1.9-4.4,4.4-4.4c2.5,0,4.3,1.9,4.3,4.4
			C142.9,204.8,141,206.7,138.5,206.7z M138.6,199.2c-1.6,0-2.8,1.3-2.8,3.1c0,1.8,1.1,3.1,2.8,3.1c1.6,0,2.7-1.3,2.7-3.1
			C141.3,200.5,140.2,199.2,138.6,199.2z"/>
		<path id="XMLID_137_" d="M147.8,206.7c-2.1,0-3.4-1.2-3.4-3.4V198h1.5v5.2c0,1.5,0.7,2.2,2,2.2c1.2,0,2-0.7,2-2.2V198h1.5v5.3
			C151.2,205.5,149.8,206.7,147.8,206.7z"/>
		<path id="XMLID_135_" d="M156.5,199.4v7.2H155v-7.2h-2.7V198h6.9v1.3H156.5z"/>
		<path id="XMLID_133_" d="M170,206.6l-0.1-5.1l-2.7,4.1H167l-2.7-4.1l-0.1,5.1h-1.4l0.4-8.6l0.2,0l3.8,5.7l3.7-5.7l0.2,0l0.4,8.6
			H170z"/>
		<path id="XMLID_130_" d="M177.2,206.7c-2.5,0-4.3-1.9-4.3-4.4c0-2.5,1.9-4.4,4.4-4.4c2.5,0,4.3,1.9,4.3,4.4
			C181.5,204.8,179.6,206.7,177.2,206.7z M177.2,199.2c-1.6,0-2.8,1.3-2.8,3.1c0,1.8,1.1,3.1,2.8,3.1c1.6,0,2.7-1.3,2.7-3.1
			C180,200.5,178.8,199.2,177.2,199.2z"/>
		<path id="XMLID_127_" d="M187.7,206.6l-1.9-3.1c-0.2,0-0.3,0-0.5,0c-0.3,0-0.6,0-0.9,0v3.1h-1.5v-8.5c0.7-0.1,1.4-0.1,2.2-0.1
			c2.4,0,3.5,1.2,3.5,2.7c0,1.1-0.6,2-1.7,2.5l2.2,3.4H187.7z M185.6,199.3c-0.3,0-0.7,0-1,0.1v2.9c0.3,0,0.6,0,0.8,0
			c1.3,0,1.9-0.6,1.9-1.6C187.3,199.9,186.7,199.3,185.6,199.3z"/>
		<path id="XMLID_125_" d="M190.5,206.6V198h5.2v1.3h-3.8v2.2h3.4v1.3h-3.4v2.4h3.8v1.3H190.5z"/>
	</g>
</g>
</svg>
