<?xml version="1.0" encoding="utf-8"?>
<!-- Generator: Adobe Illustrator 25.0.1, SVG Export Plug-In . SVG Version: 6.00 Build 0)  -->
<svg version="1.1" id="Layer_1" xmlns="http://www.w3.org/2000/svg" xmlns:xlink="http://www.w3.org/1999/xlink" x="0px" y="0px"
	 viewBox="0 0 41 42" style="enable-background:new 0 0 41 42;" xml:space="preserve">
<style type="text/css">
	.st0{fill:none;}
	.st1{fill:none;stroke:#231F20;stroke-width:0.85;stroke-linecap:round;stroke-linejoin:round;}
</style>
<g id="Designs">
	<g id="XL---Home" transform="translate(-958.000000, -2141.000000)">
		<g id="Brain-Icon" transform="translate(958.000000, 2142.000000)">
			<rect id="Invisible-Rectangle-41x41" y="0" class="st0" width="41" height="41"/>
			<g id="Group-43" transform="translate(1.000000, 0.000000)">
				<path id="Stroke-3" class="st1" d="M25.3,34.1c0,0,1.9,2.8,4.2,2.1c3.2-1,2.6-3.8,2.6-3.8"/>
				<path id="Stroke-5" class="st1" d="M31,32.5c0,0,4.8-0.1,5.3-4.4c0.5-4.3-2.9-6.7-2.9-6.7"/>
				<path id="Stroke-7" class="st1" d="M35.4,23.8c0,0,3.6-0.4,3.6-4.2c0-4.1-2.8-4.4-2.8-4.4"/>
				<path id="Stroke-9" class="st1" d="M25.9,4c0,0,0.8-2.7-1.5-3.5c-2.1-0.8-3.5,1-3.5,2.2v32.7c0,2.3,1.5,2.8,2.7,2.8
					c2.4,0,3.1-2.5,3.1-2.5"/>
				<path id="Stroke-11" class="st1" d="M35.1,16.3c0,0,2.7-2,2.2-5.1c-0.8-4.4-5.6-3.8-5.6-3.8s0.5-2.6-2-4.1
					C28.2,2.5,26,3.2,26,3.2"/>
				<path id="Stroke-13" class="st1" d="M26.3,12c0,0,1.3-0.8,2.9,0c1.6,0.8,1.7,2.2,1.7,2.2"/>
				<path id="Stroke-15" class="st1" d="M30.3,24.1c0,0,0.5,1.2-0.1,2.4c-0.6,1.2-1.5,1.5-1.5,1.5"/>
				<path id="Stroke-17" class="st1" d="M20.9,28.6c0,0,0.5-1.2,1.8-2c1.5-1,2.6-0.7,2.6-0.7"/>
				<path id="Stroke-19" class="st1" d="M20.9,15.9c0,0,1.8-0.4,3.3,0.4c1.4,0.8,1.5,2.2,1.5,2.2"/>
				<path id="Stroke-21" class="st1" d="M20.9,7.5c0,0,0.8-0.3,1.8,0c0.9,0.3,1.3,1,1.3,1"/>
				<path id="Stroke-23" class="st1" d="M14,34.1c0,0-1.9,2.8-4.2,2.1c-3.2-1-2.6-3.8-2.6-3.8"/>
				<path id="Stroke-25" class="st1" d="M8.3,32.5c0,0-4.8-0.1-5.3-4.4c-0.5-4.3,2.9-6.7,2.9-6.7"/>
				<path id="Stroke-27" class="st1" d="M3.9,23.8c0,0-3.6-0.4-3.6-4.2c0-4.1,2.8-4.4,2.8-4.4"/>
				<path id="Stroke-29" class="st1" d="M13.4,4c0,0-0.8-2.7,1.5-3.5c2.1-0.8,3.5,1,3.5,2.2v32.7c0,2.3-1.5,2.8-2.7,2.8
					c-2.4,0-3.1-2.5-3.1-2.5"/>
				<path id="Stroke-31" class="st1" d="M4.2,16.3c0,0-2.7-2-2.2-5.1c0.8-4.4,5.6-3.8,5.6-3.8s-0.5-2.6,2-4.1
					c1.4-0.8,3.5-0.2,3.5-0.2"/>
				<path id="Stroke-33" class="st1" d="M13,12c0,0-1.3-0.8-2.9,0c-1.6,0.8-1.7,2.2-1.7,2.2"/>
				<path id="Stroke-35" class="st1" d="M9,24.1c0,0-0.5,1.2,0.1,2.4c0.6,1.2,1.5,1.5,1.5,1.5"/>
				<path id="Stroke-37" class="st1" d="M18.4,28.6c0,0-0.5-1.2-1.8-2c-1.5-1-2.6-0.7-2.6-0.7"/>
				<path id="Stroke-39" class="st1" d="M18.4,15.9c0,0-1.8-0.4-3.3,0.4c-1.4,0.8-1.5,2.2-1.5,2.2"/>
				<path id="Stroke-41" class="st1" d="M18.4,7.5c0,0-0.8-0.3-1.8,0c-0.9,0.3-1.3,1-1.3,1"/>
			</g>
		</g>
	</g>
</g>
</svg>
