<?xml version="1.0" encoding="utf-8"?>
<!-- Generator: Adobe Illustrator 25.0.1, SVG Export Plug-In . SVG Version: 6.00 Build 0)  -->
<svg version="1.1" id="Layer_1" xmlns="http://www.w3.org/2000/svg" xmlns:xlink="http://www.w3.org/1999/xlink" x="0px" y="0px"
	 viewBox="0 0 41 42" style="enable-background:new 0 0 41 42;" xml:space="preserve">
<style type="text/css">
	.st0{fill:none;}
	.st1{fill-rule:evenodd;clip-rule:evenodd;fill:#FFFFFF;}
	.st2{fill:none;stroke:#010101;stroke-width:0.85;stroke-linecap:round;stroke-linejoin:round;}
	.st3{fill:none;stroke:#221F1F;stroke-width:0.85;stroke-linecap:round;stroke-linejoin:round;}
	.st4{fill:none;stroke:#231F20;stroke-width:0.72;stroke-linecap:round;stroke-linejoin:round;}
	.st5{fill:none;stroke:#231F20;stroke-width:0.85;stroke-linecap:round;stroke-linejoin:round;}
</style>
<g id="Designs">
	<g id="XL---Home" transform="translate(-578.000000, -2145.000000)">
		<g id="Clipboard" transform="translate(578.000000, 2146.000000)">
			<rect id="Invisible-Rectangle-41x41" y="0" class="st0" width="41" height="41"/>
			<path id="Rectangle" class="st1" d="M2,6h23c0.6,0,1,0.4,1,1v28c0,0.5-0.4,1-1,1L2.6,36.7c-0.6,0-1-0.4-1-1c0,0,0,0,0,0L1,7
				C1,6.5,1.4,6,2,6C2,6,2,6,2,6z"/>
			<g transform="translate(1.000000, 0.000000)">
				<path id="Stroke-3" class="st2" d="M23.8,36.4l-22,0.3c-0.8,0-1.4-0.6-1.5-1.3L0,7.4c0-0.7,0.6-1.4,1.4-1.4l22-0.3
					c0.8,0,1.4,0.6,1.5,1.3l0.4,28C25.2,35.8,24.6,36.4,23.8,36.4z"/>
				<polygon id="Fill-5" class="st1" points="22.3,32.9 3.9,33.1 3.6,8.9 22,8.6 				"/>
				<polygon id="Stroke-7" class="st3" points="22.3,32.9 3.9,33.1 3.6,8.9 22,8.6 				"/>
				<line id="Stroke-9" class="st3" x1="7.9" y1="20.9" x2="17.3" y2="20.8"/>
				<line id="Stroke-11" class="st3" x1="7.9" y1="15.2" x2="17.3" y2="15.1"/>
				<line id="Stroke-13" class="st3" x1="7.9" y1="27.4" x2="17.3" y2="27.3"/>
				<path id="Fill-15" class="st1" d="M18.7,7l0-3.1l-2.6,0c0-2.7-1.4-4-3.2-3.9l-0.8,0l-0.8,0c-1.7,0-3.1,1.4-3,4L5,4.1l0,3.1
					L18.7,7z"/>
				<path id="Stroke-17" class="st3" d="M18.7,7l0-3.1l-2.6,0c0-2.7-1.4-4-3.2-3.9l-0.8,0l-0.8,0c-1.7,0-3.1,1.4-3,4L5,4.1l0,3.1
					L18.7,7z"/>
				<g id="Group-22" transform="translate(32.400000, 35.280000)">
					<path id="Fill-19" class="st1" d="M2.9,0.1l1.8,1.6c1,0.9,1.2,2.2,0.4,2.9C4.3,5.2,2.9,5.1,1.9,4.2L0,2.6"/>
					<path id="Stroke-21" class="st4" d="M2.9,0.1l1.8,1.6c1,0.9,1.2,2.2,0.4,2.9C4.3,5.2,2.9,5.1,1.9,4.2L0,2.6"/>
				</g>
				<polygon id="Fill-23" class="st1" points="22.2,27.6 19.4,22.3 24.8,25.1 35.3,35.6 32.7,38.2 				"/>
				<polygon id="Stroke-25" class="st5" points="22.2,27.6 19.4,22.3 24.8,25.1 35.3,35.6 32.7,38.2 				"/>
				<g id="Group-30" transform="translate(23.040000, 25.200000)">
					<line id="Fill-27" class="st0" x1="2.8" y1="0.8" x2="0.1" y2="3.3"/>
					<line id="Stroke-29" class="st5" x1="2.5" y1="1.1" x2="0.1" y2="3.3"/>
				</g>
			</g>
		</g>
	</g>
</g>
</svg>
