<?xml version="1.0" encoding="utf-8"?>
<!-- Generator: Adobe Illustrator 25.0.1, SVG Export Plug-In . SVG Version: 6.00 Build 0)  -->
<svg version="1.1" id="Layer_1" xmlns="http://www.w3.org/2000/svg" xmlns:xlink="http://www.w3.org/1999/xlink" x="0px" y="0px"
	 viewBox="0 0 2823 471" style="enable-background:new 0 0 2823 471;" xml:space="preserve">
<style type="text/css">
	.st0{fill-rule:evenodd;clip-rule:evenodd;}
</style>
<g>
	<rect x="1544" y="53.8" width="4.5" height="407.6"/>
	<path class="st0" d="M566.9,154.6h-22.5l-2.7,6.2c-0.9,2.1-1.3,3.8-1.3,5.1c0,1.8,0.7,3.1,2.2,3.9c0.8,0.5,2.9,0.9,6.3,1.1v1.7
		h-21.2V171c2.3-0.3,4.2-1.3,5.6-2.8c1.5-1.5,3.3-4.8,5.5-9.6l22.8-50.9h0.9l23,52.3c2.2,5,4,8.1,5.4,9.4c1.1,1,2.6,1.6,4.5,1.7v1.7
		h-30.8V171h1.3c2.5,0,4.2-0.3,5.2-1c0.7-0.5,1-1.2,1-2.2c0-0.6-0.1-1.2-0.3-1.7c-0.1-0.3-0.5-1.5-1.4-3.5L566.9,154.6z
		 M565.3,151.1l-9.5-21.9l-9.8,21.9H565.3z"/>
	<path d="M634.4,128.8v34.4c0,3.4,0.3,5.5,0.9,6.3c0.6,0.8,1.9,1.3,3.8,1.5v1.7h-17.9v-5.8c-2.1,2.5-4.2,4.3-6.3,5.5
		c-2.1,1.1-4.4,1.7-7,1.7c-2.5,0-4.7-0.8-6.6-2.2c-1.9-1.6-3.2-3.3-3.9-5.4c-0.7-2-1-5.6-1-10.7v-17.4c0-3.3-0.3-5.4-0.9-6.2
		c-0.6-0.8-1.9-1.4-3.8-1.6v-1.7h17.9v30c0,3.1,0.1,5.1,0.4,6c0.3,0.9,0.8,1.6,1.4,2.1c0.7,0.5,1.4,0.7,2.3,0.7
		c1.1,0,2.2-0.3,3.1-0.9c1.2-0.8,2.8-2.5,4.5-4.9v-23.5c0-3.3-0.3-5.4-0.9-6.2c-0.6-0.8-1.9-1.4-3.8-1.6v-1.7H634.4z"/>
	<path d="M669.9,127.5l0.7,15H669c-1.9-4.4-3.9-7.5-6-9.1c-2-1.6-4.1-2.5-6.1-2.5c-1.3,0-2.4,0.5-3.3,1.3c-0.9,0.9-1.4,1.8-1.4,2.9
		c0,0.9,0.3,1.7,0.9,2.5c1,1.3,3.8,3.5,8.4,6.6c4.6,3.1,7.6,5.7,9.1,7.9c1.5,2.2,2.2,4.6,2.2,7.3c0,2.4-0.6,4.8-1.8,7.2
		c-1.2,2.3-2.9,4.2-5.2,5.4c-2.2,1.2-4.7,1.9-7.4,1.9c-2.1,0-4.9-0.7-8.4-2c-0.9-0.4-1.6-0.5-1.9-0.5c-1,0-1.9,0.8-2.6,2.4H644
		l-0.7-15.8h1.6c1.4,4.1,3.3,7.2,5.8,9.3c2.5,2.1,4.8,3.1,7,3.1c1.5,0,2.7-0.5,3.7-1.4c1-0.9,1.5-2.1,1.5-3.4c0-1.5-0.5-2.8-1.4-3.9
		c-0.9-1.1-3-2.8-6.3-5c-4.8-3.3-7.9-5.8-9.3-7.6c-2.1-2.6-3.1-5.4-3.1-8.5c0-3.4,1.2-6.5,3.5-9.2c2.4-2.8,5.7-4.2,10.2-4.2
		c2.4,0,4.7,0.6,6.9,1.8c0.8,0.5,1.5,0.7,2.1,0.7c0.6,0,1-0.1,1.4-0.3c0.3-0.3,0.9-0.9,1.6-2.1H669.9z"/>
	<path d="M693.1,112.7v16.1h10.4v4.6h-10.4v27.1c0,2.6,0.1,4.2,0.3,4.9c0.2,0.7,0.7,1.3,1.3,1.8c0.6,0.5,1.1,0.7,1.6,0.7
		c2,0,4-1.6,5.8-4.7l1.4,1.1c-2.5,6-6.7,9-12.4,9c-2.8,0-5.2-0.8-7.1-2.3c-1.9-1.6-3.1-3.3-3.7-5.2c-0.3-1.1-0.5-4-0.5-8.6v-23.7
		h-5.7v-1.7c3.9-2.8,7.3-5.7,10-8.8c2.8-3.1,5.2-6.5,7.3-10.3H693.1z"/>
	<path d="M725,128.8v9.9c2.9-4.5,5.5-7.5,7.7-9c2.2-1.5,4.3-2.3,6.4-2.3c1.7,0,3.2,0.6,4.2,1.7c1.1,1.1,1.6,2.6,1.6,4.6
		c0,2.1-0.5,3.7-1.6,4.9c-1,1.2-2.2,1.8-3.7,1.8c-1.7,0-3.1-0.5-4.3-1.6c-1.2-1.1-1.9-1.7-2.2-1.8c-0.3-0.2-0.7-0.3-1.1-0.3
		c-0.9,0-1.8,0.3-2.6,1c-1.3,1.1-2.3,2.6-2.9,4.5c-1,3.1-1.5,6.4-1.5,10.1v10.1l0,2.6c0,1.8,0.1,2.9,0.3,3.4
		c0.4,0.8,0.9,1.5,1.7,1.9c0.8,0.4,2,0.6,3.8,0.7v1.7h-23.7V171c1.9-0.2,3.2-0.7,3.8-1.5c0.7-0.9,1-3.3,1-7.1v-24.3
		c0-2.5-0.1-4.1-0.4-4.8c-0.3-0.9-0.8-1.5-1.4-1.9c-0.6-0.4-1.6-0.7-3.1-0.9v-1.7H725z"/>
	<path class="st0" d="M768.9,166.2c-5.3,4.7-10.2,7.1-14.4,7.1c-2.5,0-4.6-0.8-6.2-2.4c-1.7-1.7-2.5-3.7-2.5-6.2
		c0-3.3,1.5-6.4,4.3-9c2.9-2.7,9.2-6.3,18.8-10.7v-4.4c0-3.3-0.2-5.4-0.6-6.2c-0.3-0.9-1-1.6-2-2.3c-1-0.6-2.1-1-3.4-1
		c-2,0-3.7,0.4-5,1.3c-0.8,0.6-1.2,1.2-1.2,2c0,0.6,0.4,1.5,1.3,2.4c1.2,1.4,1.8,2.7,1.8,3.9c0,1.6-0.6,2.8-1.8,3.9
		c-1.1,1.1-2.6,1.6-4.4,1.6c-2,0-3.6-0.6-5-1.8c-1.3-1.2-2-2.6-2-4.2c0-2.3,0.9-4.4,2.7-6.5c1.8-2.1,4.3-3.6,7.5-4.7
		c3.2-1.1,6.5-1.7,10-1.7c4.2,0,7.5,0.9,9.9,2.7c2.4,1.7,4,3.6,4.7,5.7c0.4,1.3,0.6,4.3,0.6,9.1V162c0,2,0.1,3.3,0.2,3.8
		c0.2,0.5,0.4,0.9,0.7,1.2c0.3,0.2,0.7,0.3,1.1,0.3c0.8,0,1.6-0.6,2.5-1.7l1.4,1.1c-1.6,2.3-3.2,4-4.9,5.1c-1.7,1-3.5,1.5-5.7,1.5
		c-2.5,0-4.5-0.6-5.9-1.7C770.1,170.4,769.2,168.6,768.9,166.2 M768.9,162.8v-14.7c-3.8,2.2-6.6,4.6-8.4,7.1
		c-1.2,1.7-1.8,3.4-1.8,5.1c0,1.4,0.5,2.7,1.6,3.8c0.8,0.9,1.9,1.3,3.3,1.3C765,165.4,766.9,164.6,768.9,162.8"/>
	<path d="M807.1,109v54.6c0,3.1,0.3,5.1,1.1,6c0.7,0.8,2.1,1.3,4.2,1.5v1.7h-23.7V171c1.9-0.1,3.4-0.6,4.3-1.7
		c0.6-0.7,0.9-2.6,0.9-5.7v-45.5c0-3.1-0.4-5-1.1-5.9c-0.7-0.9-2.1-1.4-4.2-1.5V109H807.1z"/>
	<path class="st0" d="M827.2,107.5c2,0,3.8,0.7,5.2,2.1c1.4,1.4,2.1,3.1,2.1,5.1c0,2-0.7,3.7-2.2,5.1c-1.4,1.4-3.1,2.1-5.1,2.1
		s-3.7-0.7-5.1-2.1c-1.4-1.4-2.1-3.1-2.1-5.1c0-2,0.7-3.7,2.1-5.1C823.5,108.2,825.2,107.5,827.2,107.5 M833.8,128.8v34.8
		c0,3.1,0.4,5.1,1.1,6c0.7,0.8,2.1,1.3,4.2,1.4v1.7h-23.7V171c1.9-0.1,3.4-0.6,4.3-1.7c0.6-0.7,0.9-2.6,0.9-5.8V138
		c0-3.1-0.4-5.1-1.1-5.9c-0.7-0.9-2.1-1.4-4.2-1.5v-1.7H833.8z"/>
	<path class="st0" d="M864.8,166.2c-5.4,4.7-10.2,7.1-14.4,7.1c-2.5,0-4.6-0.8-6.2-2.4c-1.7-1.7-2.5-3.7-2.5-6.2
		c0-3.3,1.4-6.4,4.3-9c2.9-2.7,9.2-6.3,18.8-10.7v-4.4c0-3.3-0.2-5.4-0.6-6.2c-0.3-0.9-1-1.6-2-2.3c-1-0.6-2.1-1-3.4-1
		c-2,0-3.7,0.4-5,1.3c-0.8,0.6-1.2,1.2-1.2,2c0,0.6,0.4,1.5,1.3,2.4c1.2,1.4,1.8,2.7,1.8,3.9c0,1.6-0.6,2.8-1.7,3.9
		c-1.1,1.1-2.6,1.6-4.5,1.6c-2,0-3.6-0.6-5-1.8c-1.3-1.2-2-2.6-2-4.2c0-2.3,0.9-4.4,2.7-6.5c1.8-2.1,4.3-3.6,7.5-4.7
		c3.2-1.1,6.5-1.7,10-1.7c4.2,0,7.5,0.9,9.9,2.7c2.5,1.7,4,3.6,4.8,5.7c0.4,1.3,0.7,4.3,0.7,9.1V162c0,2,0.1,3.3,0.2,3.8
		c0.2,0.5,0.4,0.9,0.7,1.2c0.3,0.2,0.7,0.3,1.1,0.3c0.8,0,1.7-0.6,2.5-1.7l1.4,1.1c-1.6,2.3-3.2,4-4.9,5.1c-1.7,1-3.6,1.5-5.7,1.5
		c-2.5,0-4.5-0.6-5.9-1.7C865.9,170.4,865.1,168.6,864.8,166.2 M864.8,162.8v-14.7c-3.8,2.2-6.6,4.6-8.5,7.1
		c-1.2,1.7-1.8,3.4-1.8,5.1c0,1.4,0.5,2.7,1.6,3.8c0.8,0.9,1.9,1.3,3.3,1.3C860.9,165.4,862.7,164.6,864.8,162.8"/>
	<path d="M902.8,128.8v5.7c2.3-2.4,4.4-4.2,6.5-5.3c2.1-1.1,4.3-1.7,6.7-1.7c2.9,0,5.2,0.8,7.1,2.4c1.9,1.6,3.1,3.5,3.8,5.9
		c0.5,1.8,0.7,5.2,0.7,10.3v17.1c0,3.4,0.3,5.5,0.9,6.4c0.6,0.8,1.9,1.3,3.9,1.5v1.7H910V171c1.7-0.2,2.8-0.9,3.6-2.1
		c0.5-0.8,0.8-2.7,0.8-5.8v-19.6c0-3.6-0.1-5.9-0.4-6.8c-0.3-0.9-0.8-1.7-1.5-2.1c-0.7-0.5-1.4-0.8-2.2-0.8c-2.7,0-5.2,1.9-7.5,5.8
		v23.5c0,3.3,0.3,5.4,0.9,6.2c0.6,0.9,1.8,1.4,3.4,1.7v1.7h-22.2V171c1.9-0.2,3.2-0.8,3.9-1.8c0.5-0.7,0.8-2.7,0.8-6.1v-24.8
		c0-3.3-0.3-5.4-0.9-6.2c-0.6-0.8-1.9-1.4-3.8-1.6v-1.7H902.8z"/>
	<path d="M1018.8,107.5V130h-1.7c-2.1-6.1-5.3-10.8-9.4-14c-4.2-3.2-8.8-4.8-13.8-4.8c-4.8,0-8.7,1.3-11.9,4
		c-3.2,2.6-5.4,6.4-6.7,11.2c-1.3,4.8-2,9.7-2,14.7c0,6.1,0.7,11.5,2.2,16.1c1.4,4.6,3.8,8,7,10.1c3.2,2.2,7,3.2,11.5,3.2
		c1.5,0,3.1-0.2,4.7-0.5c1.6-0.3,3.3-0.8,5-1.5v-13.2c0-2.5-0.2-4.1-0.5-4.8c-0.3-0.8-1.1-1.4-2.2-2c-1.1-0.6-2.4-0.9-3.9-0.9h-1.6
		V146h31v1.8c-2.4,0.2-4,0.5-4.9,1c-0.9,0.5-1.6,1.3-2.1,2.4c-0.3,0.6-0.4,2.1-0.4,4.4v13.2c-4,1.8-8.3,3.2-12.7,4.1
		c-4.4,1-8.9,1.4-13.7,1.4c-6.1,0-11.1-0.8-15.1-2.4c-4-1.7-7.5-3.8-10.6-6.5c-3-2.7-5.4-5.7-7.1-9.1c-2.2-4.3-3.3-9.2-3.3-14.5
		c0-9.6,3.4-17.7,10.1-24.3c6.8-6.6,15.2-9.9,25.4-9.9c3.2,0,6,0.2,8.5,0.7c1.4,0.3,3.6,1,6.7,2.2c3.1,1.2,4.9,1.7,5.5,1.7
		c0.9,0,1.7-0.3,2.4-0.9c0.8-0.7,1.4-1.9,2.1-3.7H1018.8z"/>
	<path class="st0" d="M1049.3,127.4c3.8,0,7.4,1,10.6,3c3.3,2,5.8,4.8,7.5,8.4c1.7,3.6,2.6,7.6,2.6,11.9c0,6.2-1.6,11.5-4.8,15.7
		c-3.8,5.1-9.1,7.6-15.8,7.6c-6.6,0-11.7-2.3-15.3-6.9c-3.6-4.7-5.4-10-5.4-16.1c0-6.3,1.8-11.8,5.5-16.5
		C1038,129.8,1043,127.4,1049.3,127.4 M1049.5,130.8c-1.6,0-3,0.6-4.2,1.8c-1.1,1.2-1.9,3.6-2.2,7.2c-0.4,3.5-0.5,8.5-0.5,14.8
		c0,3.4,0.2,6.5,0.7,9.4c0.3,2.2,1.1,3.9,2.2,5.1c1.1,1.2,2.4,1.8,3.9,1.8c1.4,0,2.6-0.4,3.5-1.2c1.2-1.1,2-2.5,2.4-4.5
		c0.6-3,0.9-9,0.9-18c0-5.3-0.3-9-0.9-11c-0.6-2-1.5-3.5-2.6-4.4C1051.9,131.1,1050.8,130.8,1049.5,130.8"/>
	<path d="M1090.8,174L1076,140c-1.8-4.1-3.2-6.7-4.2-7.8c-0.7-0.8-1.8-1.4-3.2-1.7v-1.7h23.4v1.7c-1.5,0-2.5,0.3-3,0.8
		c-0.8,0.7-1.1,1.5-1.1,2.4c0,1.2,0.7,3.3,2.1,6.6l7.2,16.5l5.8-14.3c1.7-4.1,2.5-6.9,2.5-8.6c0-1-0.4-1.8-1.1-2.3
		c-0.7-0.6-1.9-1-3.7-1v-1.7h14.4v1.7c-1.4,0.2-2.5,0.7-3.4,1.6c-0.9,0.9-2.2,3.4-3.9,7.5L1093,174H1090.8z"/>
	<path class="st0" d="M1149.6,149.2h-24.1c0.3,5.8,1.8,10.4,4.6,13.8c2.2,2.6,4.8,3.9,7.8,3.9c1.9,0,3.6-0.5,5.1-1.5
		c1.5-1.1,3.2-3,4.9-5.7l1.6,1c-2.4,4.9-5,8.3-7.9,10.3c-2.9,2-6.2,3-10,3c-6.5,0-11.5-2.5-14.8-7.5c-2.7-4.1-4-9.1-4-15.1
		c0-7.3,1.9-13.1,5.9-17.5c4-4.4,8.6-6.6,14-6.6c4.5,0,8.3,1.9,11.6,5.5C1147.6,136.6,1149.3,142,1149.6,149.2 M1138,146
		c0-5-0.3-8.5-0.9-10.4c-0.5-1.9-1.4-3.3-2.6-4.3c-0.6-0.6-1.5-0.9-2.6-0.9c-1.6,0-2.9,0.8-4,2.4c-1.9,2.8-2.8,6.6-2.8,11.5v1.6
		H1138z"/>
	<path d="M1170.4,128.8v9.9c2.9-4.5,5.5-7.5,7.6-9c2.2-1.5,4.3-2.3,6.4-2.3c1.8,0,3.1,0.6,4.2,1.7c1.1,1.1,1.6,2.6,1.6,4.6
		c0,2.1-0.5,3.7-1.6,4.9c-1,1.2-2.2,1.8-3.7,1.8c-1.7,0-3.1-0.5-4.3-1.6c-1.2-1.1-1.9-1.7-2.2-1.8c-0.3-0.2-0.7-0.3-1.1-0.3
		c-0.9,0-1.8,0.3-2.6,1c-1.3,1.1-2.2,2.6-2.9,4.5c-1,3.1-1.5,6.4-1.5,10.1v10.1l0.1,2.6c0,1.8,0.1,2.9,0.3,3.4
		c0.4,0.8,0.9,1.5,1.7,1.9c0.8,0.4,2,0.6,3.8,0.7v1.7h-23.7V171c1.9-0.2,3.2-0.7,3.8-1.5c0.7-0.9,1.1-3.3,1.1-7.1v-24.3
		c0-2.5-0.2-4.1-0.4-4.8c-0.3-0.9-0.7-1.5-1.3-1.9c-0.6-0.4-1.7-0.7-3.2-0.9v-1.7H1170.4z"/>
	<path d="M1211,128.8v5.7c2.2-2.4,4.4-4.2,6.5-5.3c2.1-1.1,4.3-1.7,6.7-1.7c2.9,0,5.2,0.8,7.1,2.4c1.9,1.6,3.1,3.5,3.8,5.9
		c0.5,1.8,0.7,5.2,0.7,10.3v17.1c0,3.4,0.3,5.5,0.9,6.4c0.6,0.8,1.9,1.3,3.9,1.5v1.7h-22.2V171c1.7-0.2,2.8-0.9,3.6-2.1
		c0.5-0.8,0.7-2.7,0.7-5.8v-19.6c0-3.6-0.1-5.9-0.4-6.8c-0.3-0.9-0.8-1.7-1.5-2.1c-0.7-0.5-1.4-0.8-2.2-0.8c-2.7,0-5.2,1.9-7.5,5.8
		v23.5c0,3.3,0.3,5.4,0.9,6.2c0.6,0.9,1.8,1.4,3.4,1.7v1.7H1193V171c1.8-0.2,3.2-0.8,3.9-1.8c0.5-0.7,0.8-2.7,0.8-6.1v-24.8
		c0-3.3-0.3-5.4-0.9-6.2c-0.6-0.8-1.9-1.4-3.8-1.6v-1.7H1211z"/>
	<path d="M1261.9,128.8v5.8c2.4-2.7,4.6-4.5,6.7-5.5c2.1-1.1,4.3-1.6,6.8-1.6c2.8,0,5.2,0.7,7.1,2c1.9,1.3,3.4,3.3,4.4,6
		c2.5-2.8,4.9-4.9,7.2-6.1c2.3-1.3,4.7-1.9,7.2-1.9c3,0,5.5,0.7,7.2,2.2c1.8,1.4,3.1,3.1,3.8,5.3c0.7,2.1,1.1,5.6,1.1,10.3v18
		c0,3.4,0.3,5.5,0.9,6.3c0.6,0.8,1.9,1.4,3.9,1.6v1.7h-22.7V171c1.8-0.2,3.1-0.9,3.9-2.1c0.6-0.9,0.8-2.8,0.8-5.8v-18.9
		c0-3.9-0.1-6.4-0.4-7.5c-0.3-1.1-0.8-1.8-1.5-2.4c-0.6-0.5-1.4-0.8-2.4-0.8c-1.3,0-2.7,0.5-4.1,1.5c-1.4,1-2.8,2.5-4.2,4.4v23.6
		c0,3.2,0.3,5.1,0.8,6c0.7,1.2,2.1,1.8,4.1,1.9v1.7h-22.7V171c1.2-0.1,2.2-0.4,2.8-0.9c0.7-0.6,1.2-1.2,1.4-2c0.3-0.8,0.4-2.5,0.4-5
		v-18.9c0-4-0.1-6.5-0.5-7.5c-0.3-1-0.9-1.8-1.6-2.4c-0.7-0.6-1.5-0.8-2.4-0.8c-1.2,0-2.4,0.3-3.4,1c-1.5,1-3,2.6-4.7,5v23.6
		c0,3.1,0.3,5.1,0.9,6.2c0.6,1,1.9,1.6,3.8,1.7v1.7H1244V171c1.8-0.2,3.2-0.8,3.9-1.8c0.5-0.7,0.8-2.7,0.8-6.1v-24.8
		c0-3.3-0.3-5.4-0.9-6.2c-0.6-0.8-1.9-1.4-3.8-1.6v-1.7H1261.9z"/>
	<path class="st0" d="M1357.2,149.2h-24.1c0.3,5.8,1.8,10.4,4.6,13.8c2.2,2.6,4.8,3.9,7.8,3.9c1.9,0,3.6-0.5,5.1-1.5
		c1.5-1.1,3.2-3,5-5.7l1.6,1c-2.4,4.9-5,8.3-7.9,10.3c-2.9,2-6.2,3-10,3c-6.5,0-11.5-2.5-14.8-7.5c-2.7-4.1-4.1-9.1-4.1-15.1
		c0-7.3,2-13.1,5.9-17.5c4-4.4,8.6-6.6,14-6.6c4.5,0,8.3,1.9,11.6,5.5C1355.2,136.6,1356.9,142,1357.2,149.2 M1345.6,146
		c0-5-0.3-8.5-0.9-10.4c-0.6-1.9-1.4-3.3-2.5-4.3c-0.7-0.6-1.5-0.9-2.7-0.9c-1.6,0-2.9,0.8-4,2.4c-1.8,2.8-2.8,6.6-2.8,11.5v1.6
		H1345.6z"/>
	<path d="M1376.8,128.8v5.7c2.3-2.4,4.4-4.2,6.5-5.3c2.1-1.1,4.3-1.7,6.7-1.7c2.9,0,5.2,0.8,7.1,2.4c1.9,1.6,3.2,3.5,3.8,5.9
		c0.5,1.8,0.7,5.2,0.7,10.3v17.1c0,3.4,0.3,5.5,0.9,6.4c0.6,0.8,1.9,1.3,3.9,1.5v1.7h-22.2V171c1.6-0.2,2.8-0.9,3.6-2.1
		c0.5-0.8,0.8-2.7,0.8-5.8v-19.6c0-3.6-0.1-5.9-0.4-6.8c-0.3-0.9-0.8-1.7-1.5-2.1c-0.7-0.5-1.4-0.8-2.2-0.8c-2.7,0-5.2,1.9-7.5,5.8
		v23.5c0,3.3,0.3,5.4,0.9,6.2c0.6,0.9,1.8,1.4,3.4,1.7v1.7h-22.2V171c1.8-0.2,3.2-0.8,3.9-1.8c0.5-0.7,0.8-2.7,0.8-6.1v-24.8
		c0-3.3-0.3-5.4-0.9-6.2c-0.6-0.8-1.9-1.4-3.8-1.6v-1.7H1376.8z"/>
	<path d="M1425,112.7v16.1h10.5v4.6H1425v27.1c0,2.6,0.1,4.2,0.3,4.9c0.3,0.7,0.7,1.3,1.3,1.8c0.6,0.5,1.1,0.7,1.6,0.7
		c2,0,4-1.6,5.8-4.7l1.4,1.1c-2.6,6-6.7,9-12.4,9c-2.8,0-5.2-0.8-7.1-2.3c-1.9-1.6-3.1-3.3-3.7-5.2c-0.3-1.1-0.5-4-0.5-8.6v-23.7
		h-5.7v-1.7c3.9-2.8,7.3-5.7,10-8.8c2.8-3.1,5.2-6.5,7.3-10.3H1425z"/>
	<path d="M175.2,279.6c-0.3,0.5-0.7,0.9-1.2,1.2"/>
	<path d="M186.2,193.5c1.3,0,2.3-1,2.3-2.3c0-1.3-1-2.3-2.3-2.3c-1.3,0-2.3,1.1-2.3,2.3C183.9,192.5,184.9,193.5,186.2,193.5"/>
	<path d="M292.9,96.3L292.9,96.3l-82.9,0v0h0l0.1,67c0,6.5,2.7,12.1,6.5,13.8l31.9,19.1c0.7,0.8,1.7,1.3,2.9,1.3c1,0,1.9-0.4,2.6-1
		l32.4-19.4c3.8-1.7,6.5-7.4,6.5-13.8L292.9,96.3L292.9,96.3z M237.5,115.7h-7.2V98.5h7.2V115.7z M232.3,121.6l1-1l-0.6-1.2l1.3,0.1
		l0.8-1.4l0.8,1.4l1.4-0.1l-0.6,1.2l1,1l-1.3,0.3v1.5l-1.3-0.9l-1.2,0.9v-1.5L232.3,121.6z M212.3,126.7h8.7V143h-8.7V126.7z
		 M213.7,119.4l1.3,0.1l0.8-1.4l0.8,1.4l1.4-0.1l-0.6,1.2l1,1l-1.3,0.3v1.5l-1.2-0.9l-1.2,0.9v-1.5l-1.3-0.3l1-1L213.7,119.4z
		 M223.5,135.9l1.3,0.2l0.8-1.4l0.8,1.4l1.4-0.1l-0.6,1.2l1,1.1l-1.3,0.2v1.5l-1.2-0.9l-1.2,0.9v-1.5l-1.3-0.2l1-1.1L223.5,135.9z
		 M229.3,122.9c-0.1-0.4-0.6-0.5-0.9-0.5c-0.8,0-1.1,1.3-1.7,1.3c-0.5,0-0.8,0.1-0.8-0.5c0-0.4,1-0.8,1.4-1.1
		c-5.4,0-5.5,2.4-6.3,2.4c-1.4,0,1.2-2.6,1.9-3.3c-1.1-0.2-1.7-1.5-2.9-2.2c0.6-0.8,0.9-0.5,1.6,0.1c0-0.6,0.4-1.2,1.7-1.2
		c2.4,0,1.7,2.3,2.1,2.3c0.4,0,0-2.3,1.6-2.3c2.4,0,5.4,6.1,2.7,6.1C228.4,123.9,229.3,123.1,229.3,122.9 M223.2,104.9l1-1.1
		l-0.6-1.2l1.3,0.1l0.8-1.4l0.8,1.4l1.4-0.1l-0.6,1.2l1,1.1l-1.3,0.3v1.4l-1.2-0.9l-1.2,0.9v-1.4L223.2,104.9z M221,115.7h-8.7V98.5
		h8.7V115.7z M237.5,187l-19.8-11.8c-3.3-2.3-5-6.3-5.4-11.1v-18.8h25.2V187z M230.3,126.7h7.2V143h-7.2V126.7z M263,188.3l-9.1,5.5
		h-0.2c-0.7,0.5-1.5,0.8-2.4,0.8c-1,0-1.8-0.3-2.5-0.9l-9.1-5.5v-43.1H263V188.3z M263,143h-23.3V98.5H263V143z M290.5,164.1
		c-0.4,4.8-2.1,8.8-5.4,11.1L265.3,187v-41.8h25.2V164.1z M290.5,143h-25.2V98.5h25.2V143z"/>
	<path d="M236.1,160.6c-0.1-0.3-3.2,1-2.3,0.9c0.1-0.9,1.8-2.7,2.5-3.4c-0.1-1.1-1.5-0.1-2.9,0.6c4.7-6.8,1.7-4-0.9-3.5
		c4.2-4.6,3.1-4.5,0-3.1c2.4-1.9,3-4.2,2.6-4.9c-2.3,3-4.4,2.6-4.4,5.4c0,1.9-0.7,4.9-1.6,6c-1.2,1.3-0.3-5-3.5-5
		c-1,0-3.5-0.1-4.2,1.2c0.7,0,1.6,1.7,1.6,2.3c0,0.7,0.6,2.5-0.5,2.5s-2.4-2.3-2.4-3.4c0-1.1-0.1-0.9-0.1-2.5c0-2.7-4.3-6.4-6.1-6.4
		c0,1.9,2.4,2.3,2.4,4.7c-1,0-2.5-1.9-2.5-0.7c0,1.2,1.6,1.4,1.6,2.5c0,1-1.8-0.4-1.8,0.8c0,1,1,0.8,1.2,1.8
		c-0.7-0.2-1.4-0.1-1.5,0.2c-0.1,0.3,0.2,0.8,0.7,1.1c-0.3,0.2-0.5,0.8-0.5,2.4c0,5.3,3.3,7.7,5.8,7.7c1.7,0,1.5-1.2,1.7-1.8
		c0.1,0.9,0.9-0.5,0.9,1.1c0,1.7-1.7,0.9-1.7,2.3c0,1.9,2.7,0,2.7,2c0,2.6-0.3,2.5-0.3,3.5c0,0.7,2.8-0.9,2.6-1.2
		c0.7,0.2,0.6,2.2,1.9,2.2c0.8,0,1-2,1.6-2.2c-0.4,0.1,2.5,1.9,2.5,1c0-2.5-1-1.4-1-3.1c0-1.6,3.4-1.3,2.9-2.1
		c-0.4-0.7-0.8-0.3-1.1-1.4c0.1,0.2-2.7-3.9,0.6-1.8C235.9,168.4,236.3,161,236.1,160.6"/>
	<path d="M324.6,178.1c1.5,0,2.7-1.1,2.7-2.4c0-1.3-1.2-2.4-2.7-2.4c-1.5,0-2.7,1.1-2.7,2.4C321.9,177,323.1,178.1,324.6,178.1"/>
	<path d="M313.6,184.7c1.5,0,2.7-1.1,2.7-2.4c0-1.3-1.2-2.4-2.7-2.4c-1.5,0-2.7,1.1-2.7,2.4C310.8,183.6,312.1,184.7,313.6,184.7"/>
	<path d="M182.5,199.8c1.5,0,2.7-1.1,2.7-2.4c0-1.3-1.2-2.4-2.7-2.4c-1.5,0-2.7,1.1-2.7,2.4C179.8,198.7,181,199.8,182.5,199.8"/>
	<path d="M191,200.5c1.5,0,2.7-1.1,2.7-2.4c0-1.3-1.2-2.4-2.7-2.4c-1.5,0-2.7,1.1-2.7,2.4C188.3,199.4,189.5,200.5,191,200.5"/>
	<path d="M427,86.1c4.1,4.8,4.9,12.5,2,18.1c-1.6-0.1-1.3-2.2-1.6-3.4c-2.9-5.4-5.2-12.2-2.6-18.3C426.7,82.8,425.9,85.1,427,86.1"
		/>
	<path d="M80.7,92.7c-0.9,3.5-0.9,8.3,0,11.5c-0.7,0.7-0.6-0.8-1.3-0.6c-5.6-4.1-3-12.1-4.5-17.8c0.3-0.4,1-0.6,1.5-0.3
		C79,87.3,80.1,89.8,80.7,92.7"/>
	<path d="M439.4,93.1c0.9,1.6-0.7,3.2-1.9,3.9c-1.3,0.3-2.7-0.4-3.6-1.6c-0.4-1.6,0.4-3.1,1.7-3.8C437.1,91.5,438.5,91.8,439.4,93.1
		"/>
	<path d="M71.9,99.5c-0.3,1.3-0.7,2.6-1.9,3.2c-0.9,0-2.2,0-2.7-0.7c-0.9-0.7-1-2-0.6-3c0.6-1,1.8-1.2,2.8-1.3
		C70.5,98.1,71.5,98.4,71.9,99.5"/>
	<path d="M445,102c0.3,0.9,0.3,1.4,0,2.3c-1,1.3-2.5,1.9-3.9,1.3c-1-0.6-1.3-1.6-1.6-2.5c0.3-1.2,1.4-2.2,2.4-2.6
		C443.3,100.6,444.2,101.3,445,102"/>
	<path d="M436.8,102.2c1.1,0.6,0.3,2.1,0.1,2.9c-0.7,0.7-1.7,1.9-3,1.4c-0.7-0.7-1.6-0.7-1.9-1.7c0-1.5,0.6-2.9,2-3.3
		C435.2,101.2,435.9,101.7,436.8,102.2"/>
	<path d="M426.3,104.3c0,1.6,0.1,3.6-1.8,3.9c-1.7,0.6-2.9-0.9-3.3-2.1c-0.1-1.5,0.7-2.9,2.2-3.5
		C424.5,102.7,425.5,103.4,426.3,104.3"/>
	<path d="M87.7,105.1c0.4,1.4-1,2.3-1.9,3.1c-1,0.3-2.3-0.6-2.9-1.6c-1-1,0.3-1.9,0.6-2.8C84.9,102.4,87.1,103.4,87.7,105.1"/>
	<path d="M79,105.5c0,1.2-0.6,2.3-1.6,2.8c-1.2,0.4-2.3-0.5-2.9-1.3c-0.7-1.4,0.2-2.7,1.3-3.3C77.4,103,78.4,104.5,79,105.5"/>
	<path d="M391.2,106.1c1.5,3.1,2.6,6.7,2.9,10.5c-0.6,2.8,0.4,6.4-1.6,8.3c-2-0.7-2.2-3.2-3.5-4.5c-2.6-5.1-0.3-11.1,0.6-16
		C390.8,103.9,390.8,105.4,391.2,106.1"/>
	<path d="M72.2,107.8c0.4,1.8-0.9,2.6-1.9,3.7c-1.7,0.4-2.9-0.9-3.6-2c-0.1-1.5,0.7-2.9,1.9-3.5C70,105.8,71.5,106.5,72.2,107.8"/>
	<path d="M414.1,112c1.9,4.3,2.1,9.3,0.7,14l-0.9,0.7c-2-3.9-4.9-7.6-5.9-11.8c0-3,0.6-5.8,1.7-8.3c1-0.7,1.6,0.1,2,1
		C411.9,109.3,412.6,111.2,414.1,112"/>
	<path d="M432.3,109.5c-0.2,1.5-0.7,3-2.2,3.5c-1.5,0.3-2.9-0.1-3.3-1.8c-0.4-1.5,0.4-2.8,1.6-3.5
		C430,106.8,431.6,108.3,432.3,109.5"/>
	<path d="M79.1,114c0,1.2-1,2.5-2.2,2.8c-1.2,0.9-2-0.6-3-1c-0.4-1.2-0.7-2.2,0-3.4c0.4-0.9,1.5-0.9,2.3-1.2
		C77.5,111.9,78.9,112.5,79.1,114"/>
	<path d="M85.5,113.2c0.6,1.5-1,2.2-1.6,2.9c-1.7,0.6-2.6-0.7-3.3-1.7c-0.3-1.5,0.6-2.4,1.6-3.2C83.9,110.7,84.8,111.9,85.5,113.2"
		/>
	<path d="M436.4,112.8c-0.2,1.9-3.1,3.8-3.3,5.7c-1.6,3.9-5.1,6.8-9,8.2c-0.9,0.7-2,1.8-3.3,1.9c-0.3-2.9,2.4-5.5,3.9-8.2
		C427.7,116.4,431.9,113.9,436.4,112.8"/>
	<path d="M76.2,118.9c2.2,2.5,3.3,4.6,5.9,6.8c0.1,0.6-0.3,1.5-1,1.5c-7.1-0.4-11.9-7.7-15.3-12.8c0.4-1.6,2.3-0.3,3.3-0.5
		C71.6,115.8,74.4,116.4,76.2,118.9"/>
	<path d="M438.4,120.9c-0.3,6.3-3.3,12.7-9,15.7c-1.6,0.6-3.3,2.2-4.9,1.2c3.1-6.3,7.7-11.4,12.7-16.9H438.4z"/>
	<path d="M410.6,125.2c0.4,2.2-0.8,3.5-2.5,4.2c-1.6,0.1-2.6-1.2-3.3-2.3c-0.1-1.5,0.7-2.8,2-3.2c0.4-0.4,1.2-0.4,1.7-0.4
		C409.5,123.7,409.9,124.4,410.6,125.2"/>
	<path d="M68.3,126.5c2.7,1.9,5.2,4.5,7.8,6.8c-1.9,1.3-4.2,0.1-6.4,0.1c-4.9-1.7-8.2-5.9-13.3-7.4c0.1-1.6,2-1,3-1.5
		C62.7,124.3,65.3,125.8,68.3,126.5"/>
	<path d="M223.2,83.4c-8.1-3.2-13.4,5.3-21.7,4.2c-1,0.6-0.7,1.6-1.3,2.3c-0.4,0.4-1.2,0.2-1.6-0.1c-0.4-3.5-1.6-6.7-2-10.1
		c-0.9-1.4-0.4-3.5-1.2-5c-4.6-12.7,11.3-3,14.5-10.5c2.8-6.4-5.3-7.1-7.8-11.7v-1.9c-2.3-2.3-4.8-3.1-6.2-6.1
		c1-3.6,1.5-7.6,0.4-11.2c-0.1-0.9-0.7-2-2-1.6c-2.7,3.8-4.8,6.8-7.4,10.5c-2.8-2-5.3-4.6-8.5-6.4c-2.2-0.3-4.2-2.5-6.6-1.6
		c-0.4,0.9,0,1.6,0.4,2.2c0.1,5.7,3,10.2,7.1,14.3l0.4,2.2c-2.6,6-1.9,12.8-2.6,19.2c-6.5,16.6-17.1,32.6-31.4,44.1
		c-8.2,9.3-18.1,18.3-19.4,31.1c-0.4,2.1,0.3,4.5-1.3,6c-4.8-1.7-9.5-4.1-13.5-7.1c-6.7-4.7-16.2-4.1-20.5-12.5
		c-1.7-3.4,0.4-6.7,2-9.2c4.9-4.7,4.2-13,1.6-18.7c-0.6-0.1-0.7,0.6-1.2,0.7c-0.4,8.6-7.2,14.6-4.6,24c0.6,2.8,2,4.5,2.7,7.2
		c-1-0.3-2.5-0.3-3.3-0.7c-3.2-0.4-6.4-1.8-9.7-1.3c-6.7,3-15.7-0.8-21.1,5.4c-0.9,0.1-2,0.3-1.7,1.6c3.2,0,6.2,0.9,9.4,0.7
		c5.1,0.9,8.4-3.4,11.9-5.3h0.9c1.5-1.5,3.9-0.6,5.8-0.9c9.1,1,16.2,5.4,23.7,9.9v0.6c-2.9,1.3-6.2,2.2-9.1,3.8
		c-3.3,2.5-7.1,5.7-8.1,9.8c-2.3,3.6,0.7,6.9,2.2,9.9c0.1,1.5,0.3,3.2,1.6,3.8c4.6-5,0.3-11.1,1-16.8c1.2-4.4,5.2-6.4,9.4-7.6
		c8.2-3.5,14.2,3.2,20.8,7c-0.1,6.7,0.7,13.1-0.7,19.7c-2,0.7-4.6,1.2-6.8,1c-11.4,0.9-20.4,7.1-30.7,10.6
		c-4.6,1.6-10.1,1.5-14.7,3.2c3.6,1,7.4-0.3,11.1-0.4c14.2-2.1,25-13,40.3-11.1l0.3,0.5c-1.7,3.6-4,6.7-6.8,9.4
		c-0.4-1.6-0.6-2.9-2-3.8c-1.2-0.6-2.5,0-3.3,1.2c-0.4,0.7-0.4,1.6,0,2.2c0.7,1.3,1.9,1.6,3.2,2c-0.3,1.3-1.9,1.9-2.7,3
		c-4,6.8-12.3,4.1-17.1,8.9c-0.7,1-3.3,1.6-2.2,3.2c5.5,0.6,10.8-0.9,14.9-3.8c5.3-6,11-11.7,16.3-17.4c0.9,4.7-0.4,9.5-3.2,13.3
		c-1.3-0.7-2.3-1.8-3.9-2.2c-1.5,0.3-2.5,1.8-2.6,2.9c0.6,1,1.1,2.2,2.2,2.9c-4.9,3.5-11.1,3.8-16.8,5.4
		c-10.6,1.3-20.8,2.2-31.5,2.3c-5.1-0.3-10.9,1.5-15.6,0c-5.5,1-11.4-0.7-15.9,2.3c-0.6,0.7,0.1,1.5,0.1,2.2
		c6.7,4.4,15.8,0.9,23.3,2.2h57c4.2-0.1,8.4-0.3,11.7-2.2c7.4-4.2,11.4-11.8,15.2-19.2c1.5-2.7,2.5-5.7,3-8.7
		c1.4-5,5.9-8.5,10.8-8.9c0.7,7.6-0.7,15.2-2.4,22.1c-0.9,4.7-3.9,9.2-2,14.1c0.4,2.3,2.9,2.3,4.8,2.6c17.5-0.3,35-1,53.5,0.3
		c3.3,0.6,6.2,1.6,9.8,1.5c0.3-0.4,1.3-0.6,0.9-1.5c-0.4-1.6-1.6-3.6-3.5-4.1c-0.3-0.9-1.6-0.6-2-1.2c-9.2-5.2-20.4-2.5-31.2-2.3
		c-5.6,0.6-11.3,1.6-16.1-1.6c-2.2-2.6-0.6-10.9-0.6-10.9c0-3.3,7.9-26.2,8.9-28.1c0.3-2.2,1.2-4.2,0.9-6.7c1.2-2.9,0.9-6.7,0.9-9.9
		c0.6-4.6,2.9-9,4.5-13.5c0.9-2.2,1.6-4.5,2.5-6.7c0.9-2.8,1.2-5.4,2.9-7.6c4.7,3,9.3,2.9,11.6,8.3l2,12.1c0,0.7,0.6,2.2,1.6,1.3
		c3.8-2.5,2.6-8,2.6-11.8c0.9-4.5-2.3-6.7-3.6-10.6c-1-0.7-2.7-4.2-2.7-4.2c-0.6-3.2-7.6-5.4-6-9.3c0.9-3.4,1.7-6.4,4.9-8.3
		c0.5,0.3,0.7,0.7,0.7,1l1.7-1.2l0.2-12.2c4.7,0,11.7,0.6,16.5,0.6c1.3,0.4,2.3,1.5,3.8,1.6l1.2-1.6l11.7-2.3
		C230.9,89.1,227.9,83.4,223.2,83.4"/>
	<path d="M235.9,88.5c0.4,0,0.7-0.1,1.1-0.2L235.9,88.5z"/>
	<path d="M109.9,129.1c0.1,1.8-0.9,2.8-2.2,3.4c-1.2-0.4-2-0.6-2.7-1.8c-0.6-1.6,0.9-2.7,2-3.3C108.2,127.6,109.7,127.8,109.9,129.1
		"/>
	<path d="M100.6,129.1c0.9,0.9,1,2.4,0.6,3.4c-1,0.9-2.6,1.6-3.5,0.4c-0.9-0.9-1.7-1.9-1-3.1C97.6,128.8,99.4,127.9,100.6,129.1"/>
	<path d="M301.9,130.7c0.1,0.1,0.1,0.2,0.1,0.2"/>
	<path d="M412.1,133.2c0.6,1.6-0.7,2.7-1.9,3.3c-1.4-0.5-3.3-0.7-3.3-2.6c0.1-1.2,1.2-1.9,2.2-2.2
		C410.3,131.3,411.5,132.3,412.1,133.2"/>
	<path d="M419.7,132.9c0.4,0.7,1.4,1.9,0.3,2.6c-0.6,0.4-1,0.6-1.4,1.2c-1.6,0.3-3-0.3-3.5-1.8c-0.3-1.6,1-2.3,2.2-3
		C418.3,131.6,419,132.3,419.7,132.9"/>
	<path d="M64.2,134.6c-0.6,1.7-2,2.5-3.9,1.9c-0.5-0.5-0.9-1.2-1.2-1.9c0.2-1,0.4-2,1.6-2.5C62.5,132.3,63.8,133,64.2,134.6"/>
	<path d="M113,137.1c-0.1,1.2-1.4,2.2-2.4,2.8c-1.5,0.2-2.4-1-3.2-2c0-1.2,0.6-2.6,1.7-2.9C110.7,134.4,112.4,135.5,113,137.1"/>
	<path d="M104.5,136.1c0.4,0.5,0.9,1.6,0.4,2.4c-0.9,0.7-2.2,2-3.6,1.2c-0.9-0.7-1.9-1.3-1.6-2.8c0.6-0.6,1.3-1.4,2.2-1.8
		C103,134.8,103.6,135.5,104.5,136.1"/>
	<path d="M441.9,137.9c0,1.2-1.2,2.3-1.9,2.8c-1.2,0.4-2.5,0.1-3.2-0.7c-0.9-0.3-0.6-1.5-0.6-2.2c0.7-1,1.7-1.6,2.7-1.9
		C440.3,136.1,441.1,137,441.9,137.9"/>
	<path d="M451.1,139.2c-0.5,1.3-1.4,2.5-2.8,2.6c-0.9-0.1-2.4-0.4-2.2-1.7c0-1,0.6-2,1.3-2.3C448.9,137,450.7,137.7,451.1,139.2"/>
	<path d="M80.7,141.2c0.3,1.7-0.3,2.9-1.7,3.5c-1,0.6-2-0.1-2.7-0.7c-0.7-0.7-1.3-1.9-0.7-2.9c0.3-1.3,1.6-1,2.5-1.6
		C79.3,139.6,80,140.2,80.7,141.2"/>
	<path d="M87.8,142.5c0.4,1.2-0.9,1.6-1.2,2.5c-0.7,0.4-1.7,0.9-2.6,0.3c-1-0.9-2.2-2.2-1.2-3.5C84.1,139.6,87.1,140.8,87.8,142.5"
		/>
	<path d="M433.3,141.8c0.1,1.5-1.2,2.5-2,3.3c-1.3,0.3-2.6-0.6-2.9-1.7c-0.1-1.2,0.6-2.1,1.6-2.8
		C431.3,140.5,432.6,140.6,433.3,141.8"/>
	<path d="M445.2,144.1c-0.3,1.3-0.1,2.8-1.6,3.7c-1.2,0.3-2.6,0.2-3.5-0.6c-0.9-0.7-1-2-0.6-3.1c0.7-1.2,2-2,3.4-1.7
		C444,142.9,444.3,143.7,445.2,144.1"/>
	<path d="M75.2,147.2c0.6,1.2-0.7,1.5-1.2,2.1c-1,0.6-2,0.1-2.9-0.3c-1-0.6-0.6-2-0.4-2.8C72,143.7,74.7,145.4,75.2,147.2"/>
	<path d="M436.1,149.9c0.6,0.1,0.3,1,0.1,1.3c-3.5,1.8-8.7,2.2-11.7-0.6c-1.7-1.5-3.9-2.1-5.8-3.2c0.7-1.9,3.3-1.8,5.2-2.2
		C428.1,145.9,431.4,149.8,436.1,149.9"/>
	<path d="M82.2,148.6c0.3,1.2-0.6,1.6-0.9,2.5c-0.6,0.9-1.7,0.6-2.4,0.3c-1.3-0.9-1.9-2.5-1-3.6C79.4,146.1,81.3,147,82.2,148.6"/>
	<path d="M94.9,149.5c0.6,1.3-0.3,2.5-1.4,3.2c-1,0.6-1.9-0.3-2.7-0.4c-0.7-1-2-2.2-0.7-3.4C91.3,146.7,93.9,147.9,94.9,149.5"/>
	<path d="M262.1,155.7c-0.3,2.9-5.1-0.4-4.4,3.5c0.7,2.8,1.2,6.1,2.9,8.2c1.3,1.9,0.7,5,0.5,7.3c-1.2,2.1-3.3,3.6-5.5,4.7
		c-4.1-0.4-10.2,2.1-12.1-3.1c-0.9-2.2-2.4-4.4-2.4-6.9c0.4-0.3,1-0.3,1.4-0.7c0-1-1.1-1.5-1-2.5c4.7-0.8-1.9-5,2.1-5.3
		c3.3,3.5,8.7,2.4,11.5,6.1c0.7,0.6,1.2,1.4,2.1,1.8c-0.6-3.5-2.2-6.9-2.8-10.7c-0.4-1.9,0.3-3.7,1.6-4.8
		C258.7,151.4,260.7,154.1,262.1,155.7"/>
	<path d="M107.6,154.7c0.4,1.5-0.7,2.4-1.6,3.1c-1.3,0.6-2-0.9-2.6-1.6c-0.4-1.5,0.6-2.2,1.5-2.9
		C105.9,153.3,107.1,153.7,107.6,154.7"/>
	<path d="M196.9,156.2c1.7,5.7,1.2,11.5-1.8,16.3c-0.1,1.2,0.3,3.1-1.3,2.9c-3.9-5.4-1-13,0.6-18.7
		C194.7,155.3,196.4,154.7,196.9,156.2"/>
	<path d="M320.6,159c2,4.1,2.2,9.5,0.3,13.6l-1.1,1.2c-1.6-3.4-2.9-6.7-3.3-10.3c0.7-2.6,1.6-5,1.7-7.7
		C320.2,155.2,320.1,157.8,320.6,159"/>
	<path d="M118.9,160.6c-0.9,1.7-3.3,2.2-4.9,3.3c-3.5,2.6-8.5,3.2-12.9,2.5c3.8-5.2,9.5-8.3,16.5-6.8
		C117.9,160.1,118.6,159.9,118.9,160.6"/>
	<path d="M59.5,165.8c5.4,3.8,6.8,9,10,14.3c0.4,0.6,1.9,0.7,1.3,1.9c-1.2,0.9-2.3-0.9-3.9-0.6c-5.5-2.5-9-8.6-8.8-15
		C58,165.8,58.9,165.8,59.5,165.8"/>
	<path d="M315,170.3c0.1,1.5-0.2,2.9-1.3,3.4c-1.6,0.4-2.9-0.4-3.3-1.7c-0.5-1,0.4-1.6,0.7-2.3C312.3,168.4,314.3,169,315,170.3"/>
	<path d="M376,178c0-2.8,0.7-5.4,1-8c0.5-0.9,0.7-1.9,0.6-3.1c3.5-4.7,10.5-3.2,16-2.8c2.2,1.2,4.9,1,7.3,1.6c1-0.7,2.4-0.9,3.6-0.7
		c4.6-2.5,1.6-7.9,1.9-12.1l-1.7-4.4c-0.5-0.9-0.9-1.9-1.2-2.9c-0.9-1-1.5-2.9-2.3-3.9c-2.5-6.4-7.2-10-11.3-15.1
		c-7.4-9.6-19-15-30.5-18.8c-11.4-3.9-23,1.2-33.2,4.8c-3.2-0.9-4.8-3.3-5.6-6.1c-0.6-5.5,0.6-10.9,2.8-15.4
		c0.4-3.7,2.9-6.4,3.9-9.7c2.6-8.2,5.3-16.2,5.9-25.1c0.3-5.4-3.8-9.2-7.8-11.5c-2.7-0.7-5.9-0.6-7.9,1.6c-1.9,3.9-5.9,6.5-9.4,8.4
		c-0.3,2.5,2.8,0.9,3.8,1.8c3.2,0.6,6.8-0.4,9.4,1.6c0.3,5.8-3,10.6-6.1,15c-4.9,7.3-10.1,14.7-13.2,22.7l-0.6-0.6l0.7,35.6
		c4.6,7.7,10.3,16.4,18.9,19.3c4.7,3.8,10.4,8.3,16.6,5c3.4-1,3.6,3.6,5.2,5.5c1.8,5.4-2.1,9.2-2.4,14.1l-3.8,8
		c-4.3,8.5-8.2,17.5-14.9,24.6c-2.2,0-3.5,2.3-5.6,2.5c-1.2,1.6-3.5,0.4-4.9,1c-4.5,1.9-10.8,0.7-13.9,5c0.3,0.4,0.7,0.6,1.2,0.7
		c8.8,0.2,18.7,0.7,28.1,0.3c1.2-0.5,2.1-1.5,2.3-2.8c-1.3-2.5,0.4-4.7,1.6-6.5c0.7-3.5,3-5.7,4.1-9c3-6,6.5-11.8,9.8-17.8l4.5-7.3
		c1-2.5,2.8-5.5,4.5-8.2c1.2-1.2,1.8-2.5,2.6-3.9c0.2-1.5-0.6-2-1.5-3.1c1-1,2.6-0.7,3.9-1c3.6,2.2,7.4,5.7,8.1,9.6l1.3,3.8l0.6,1.8
		l-0.3,4.8l0.6,4.5c0.7,7-0.6,14.1-1.3,21.1c-2.5,8.4-12.2,7.6-19.1,9.5c-1.7,1.2-5.1,0.6-5.1,3.5c8.4,1.8,18.2,0.7,27.2,0.6
		c1.5-0.6,1.8-1.9,2.5-3.2c0.3-1.9,2.2-3.5,1.6-5.5c-1.6-2.1-0.1-5.2-0.6-8c0.3-0.7,0.3-1.7,0-2.8c1.1-4.2,0.8-9.3,1.7-13.4L376,178
		z"/>
	<path d="M447.2,172.4c-4.6,6.5-9.5,14-17.6,16.3c-0.6,0-1.2,0.3-1.4-0.4c4.9-5.3,7.5-13.4,15.2-15.3
		C444.4,172.4,446.1,171.8,447.2,172.4"/>
	<path d="M52.4,179.5c-0.7,0.6-0.1,1.9-1.4,2c-1.2,0.6-2.4-0.1-3-1.3c-0.6-1.4,0.7-2.9,1.9-3.2C50.9,177.6,52.1,178,52.4,179.5"/>
	<path d="M94,181.5c0.4,1.3-1,1.3-1.7,1.6c-6.1,2.2-12.3,0.1-16.6-4.2c0-0.6,0-1.2,0.6-1.3C82.2,179.1,89.1,177.9,94,181.5"/>
	<path d="M60.3,179.6c0.3,0.6,0.4,1.6,0.3,2.2c-0.9,1.3-2.2,1.6-3.6,1.3c-0.9-0.4-1.3-1-1.9-1.9c0.2-1.5,1.3-2.3,2.5-2.8
		C58.8,178.6,59.6,178.9,60.3,179.6"/>
	<path d="M195.8,180.4c0.3,1.3-0.9,2.2-1.7,2.8c-1.3,0.3-2.5-0.3-3-1.2c-0.4-1,0-2.5,1-2.8C193.4,178.9,195.4,179.1,195.8,180.4"/>
	<path d="M452.7,181c0.4,1.5-0.9,2.2-1.9,3.1c-0.9,0.4-1.9,0-2.8-0.4c-0.1-0.7-1-1.3-0.7-2.3c0.6-1.3,1.9-1.9,3.3-1.8
		C451.4,180.1,452,180.3,452.7,181"/>
	<path d="M462.2,180.4c0.9,1.3,0.2,2.3-0.6,3.3c-0.6,1-1.8,1.3-2.6,0.9c-0.9-0.9-2-1.3-2.1-2.6c0-1.2,1.3-2,2.1-2.5
		C460.5,178.9,461.1,180.4,462.2,180.4"/>
	<path d="M46.3,184.6c0.1,1-0.7,1.6-1,2.5c-0.7,0.3-1.5,0.9-2.3,0.6c-1-0.4-1.7-1.3-2.2-2.3c0.3-1.3,1.2-2.5,2.6-2.9
		C44.6,182.7,45.9,183.3,46.3,184.6"/>
	<path d="M350.9,184.6c0.3,0.6,0.1,1.3,0.1,1.9c-0.9,1.2-2,2.2-3.5,1.5c-0.9-0.9-1.9-1.7-1.5-3.1
		C347.3,183.3,349.7,182.7,350.9,184.6"/>
	<path d="M69.6,186.8c-0.3,1-0.7,2.1-2,2.2c-1.3,0.1-1.7-1-2.5-1.6c0-1.3-0.1-2.6,1.2-3.3C68,183.4,69.6,184.9,69.6,186.8"/>
	<path d="M55.7,187.1c0.4,1.5-0.6,2.5-1.5,3.2c-1.7,0.6-3.2-0.7-3.9-2.1c0.1-1.3,1.2-2.9,2.6-3.4C54.3,184.9,55,186.3,55.7,187.1"/>
	<path d="M360.4,186.8c0.3,1.5-0.1,2.9-1.6,3.5c-1.8,0.6-3.2-0.9-3.9-2c0.7-1.2,0.9-2.8,2.6-3.1
		C358.9,185.2,359.7,185.8,360.4,186.8"/>
	<path d="M62.5,187.4c0.4,1.1-0.4,1.5-0.7,2.2c-0.7,0-1.2,0.9-2,0.6c-0.6-0.7-1.7-1-1.9-2c-0.1-1.5,0.9-2.2,1.9-2.8
		C61.2,185.2,62.1,186.2,62.5,187.4"/>
	<path d="M444.8,188.5c-0.4,1.2-1.3,1.8-2.5,2.3c-1.1,0.3-1.9-0.7-2.7-1.2c-0.7-0.6-0.4-1.9-0.2-2.6
		C440.9,184.6,444.8,185.8,444.8,188.5"/>
	<path d="M455.7,189.1c-0.4,1.6-2,2.3-3.5,2.5c-1.3-0.6-2.7-1.6-1.7-3.3c0.6-0.6,0.9-1.2,1.7-1.3C454,186.3,455.3,187.7,455.7,189.1
		"/>
	<path d="M387,190.1c0.7,1.9-1,2.5-2.2,3.4c-1-0.1-1.9-0.6-2.7-1.2c-0.3-1.6,0.4-3.1,2.1-3.8C385.5,188.5,386.2,189.1,387,190.1"/>
	<path d="M347.3,191.9c0.7,0.3,0.4,1.3,0.3,1.7c-0.9,0.6-2,2-3.3,1.2c-1-0.6-1.8-1.4-1.5-2.8C343.5,190.4,346.5,190.3,347.3,191.9"
		/>
	<path d="M355.4,192.9c0.1,1.2-0.1,1.7-1.2,2.4c-1,1-2.2-0.2-3.2-0.5c-0.3-0.6-0.6-1.4-0.1-2.2c0.4-0.6,1.2-1,1.9-1.2
		C353.8,191.7,354.9,191.7,355.4,192.9"/>
	<path d="M109.9,193c0.9,0.9-0.1,1.9-0.3,2.8c-0.7,0.9-2.3,1.6-3.6,0.7c-1.5-0.6-1.3-2.5-1-3.6c0.9-0.3,0.9-1.3,2-1.3
		C108.3,191.7,109.1,192.3,109.9,193"/>
	<path d="M402.5,193.6c0.3,1.5-1.1,2-2.2,2.3c-1.7,0.6-2.6-0.7-3.3-1.9c0-0.9,0.9-1.5,1.2-2.2C400.2,191,401.5,192.5,402.5,193.6"/>
	<path d="M394.7,193.6c0.6,1.5-1,2.2-1.6,2.9c-1,0.4-2.3,0.3-3.2-0.6c-0.7-0.4-0.7-1.3-0.7-2.2c0.9-0.7,1.3-1.6,2.3-1.9
		C392.8,191.9,394.1,192.6,394.7,193.6"/>
	<path d="M459.9,195.4c0.3,2-2.3,1-3.3,1.6c-6.1,3.7-13.9,0.9-19.7-1.3c0.4-1.9,2.6-1.2,3.8-1.9c6.2-4,12.6,0.9,18.8,1.2
		L459.9,195.4z"/>
	<path d="M64.1,193.6l-0.6,1c-5.4,3.2-12.3,5.4-18.7,3.4l-0.6-0.9c5.4-4,12.4-5,19.4-4L64.1,193.6z"/>
	<path d="M417.3,194.6c0,1.2-0.6,2.2-1.5,2.8c-1.4,0.5-3.3,0-3.8-1.6c-0.4-1.2,0.7-2.3,1.9-2.8C415,193.1,416.7,193.2,417.3,194.6"
		/>
	<path d="M90,195.3c-0.6,1.1-0.3,2.3-1.7,2.9c-1.4,0.6-3.2-0.8-3.6-1.9c-0.4-1.6,0.7-2.1,1.5-2.8C87.8,192.6,89.1,193.9,90,195.3"/>
	<path d="M79.7,196c0.4,1-0.4,1.6-0.7,2.3c-0.7,0.9-2,0.7-2.9,0.4c-1-0.9-2-1.9-1.6-3.5c0.9-0.7,1.3-1.2,2.3-1.6
		C78.1,193.9,79.4,194.5,79.7,196"/>
	<path d="M427.4,199.3c-0.1,1.3-1.1,2.3-2.3,2.6c-1.2,0.2-2.2-0.7-2.7-1.5c-0.4-0.9-0.3-2,0.5-2.8c0.3-0.4,1.3-0.4,1.9-0.8
		C426.1,197.1,427.1,198.2,427.4,199.3"/>
	<path d="M69,197.7c0.4,1.2-0.6,1.6-0.7,2.5c-0.4,2.5-2,4.1-3.2,6.3c-2.7,3.3-6.6,3.3-10.6,4.4l-0.6-1.2c4.2-5.4,8.7-9.6,14.6-12.2
		L69,197.7z"/>
	<path d="M420.2,200.9c0.3,1.8-1.1,2.1-2.2,2.8c-1.3,0-2.3-0.7-2.9-1.8c-0.4-1.6,1-2.2,1.9-2.9C418.4,198.7,419.7,199.8,420.2,200.9
		"/>
	<path d="M85.6,200.9c-0.1,0.3,0.2,0.6,0.4,0.7c-0.1,1.6-1.3,2.1-2.2,2.8c-1.3,0-2.3-0.4-3.2-1.4c-0.6-1.3,0-2.9,1.4-3.4
		C83.5,199.5,85.2,199.6,85.6,200.9"/>
	<path d="M446.8,205.3c1.4-0.1,1.7-1.9,3.3-2.2c1.4-0.3,2.7,0.6,3.5,1.6c0.6,1.8-0.7,2.6-1.9,3.3c-1,0.7-3.2-0.9-3,1
		c1,0.7,1.9,1.8,2,2.9c-0.3,0.6-1.3,0.4-1.7,0.1c-4.2-1.7-8.6-4.6-10.4-9c-0.6-1.3-3.3-2.3-1.7-3.5
		C441,199.3,444.5,202.7,446.8,205.3"/>
	<path d="M460.7,200.8c0.7,0.7,0.5,2-0.1,2.8c-0.7,1.5-2.9,0.9-4.2,0.7c-0.7-0.7-1.5-1.4-1.2-2.6c0.6-0.9,1.2-1.5,2.1-1.9
		C458.6,199.5,459.6,200.1,460.7,200.8"/>
	<path d="M408.2,208.6c1.3,1.6,2.6,4.1,3.2,5.8c-0.3,0.4-1,0.3-1.3,0.3c-4.9-2.8-11.3-5.8-13.1-11.6c-0.4-0.6-1.6-1.3-1.5-2.3
		c3.8-0.7,7.4,2,10,4.1C406.4,206.3,407.6,207,408.2,208.6"/>
	<path d="M77.6,203.1c0.6,1.3-0.6,2.3-1.3,2.9c-1.6,0.3-2.5-0.3-3.3-1.2c-1-1.6,0.9-2.9,2-3.5C76.1,201.2,76.8,202.4,77.6,203.1"/>
	<path d="M426.3,206.5c0.1,0.9-1,1.5-1.5,2c-1.2,0.1-2.3,0.6-3.3-0.4c-0.3-0.7-1-1.9-0.1-2.6C422.9,203.4,425.2,205,426.3,206.5"/>
	<path d="M462.2,208.5c0.4,1.8-0.9,2.9-2,3.6c-1.5,0.4-2.6-0.6-3.5-1.3c-0.7-0.9-0.2-1.7,0-2.8c1-0.9,2.3-1.6,3.8-1
		C461.1,207.5,461.7,207.8,462.2,208.5"/>
	<path d="M362.2,228.6c0,1.8-3.2,1.3-4.5,2.7c-4.5,2.3-9.8,2.3-15.2,2.2v-0.9C347.7,228.1,355.2,226.5,362.2,228.6"/>
	<path d="M151.2,234.9c-0.1,1.3-0.9,2.1-2.2,2.5c-1,0-2-0.6-2.5-1.5c-0.6-1.7,0.9-2.5,1.9-3.2C149.7,232.8,150.9,233.8,151.2,234.9"
		/>
	<path d="M359.7,236.5c-0.3,1.3-0.7,2.7-2.2,3.3c-1.3,0.3-2.2-0.4-3.2-1c-0.7-0.6-0.3-1.6-0.4-2.3
		C354.9,233.8,358.7,233.8,359.7,236.5"/>
	<path d="M388.5,237c-3.6,2.4-7.6,5.1-12.4,5.1l-7.8-0.1l-0.7-0.6c4.8-5.8,13.4-5.8,20.9-5.3V237z"/>
	<path d="M111.5,240.5c0,1.3-0.6,2.3-1.9,2.8c-1.4,0.3-2.5-0.3-3-1.3c-0.6-1.3,0-2.6,1.1-3.3C109.4,237.6,111,239.4,111.5,240.5"/>
	<path d="M118.8,242c0.4,0.7-0.3,1.2-0.6,1.9c-0.9,0.4-2,0.7-2.7,0c-1-0.6-1.3-1.6-0.9-2.5c0.4-0.9,1.3-0.8,1.7-1.3
		C117.3,240.5,118.3,241,118.8,242"/>
	<path d="M63.4,256.7c-1.5,1.7-3.8-0.4-5.3-1.3c-5.1-2.9-4.9-8.6-10-12c0.6-1.8,1.9,0.1,2.9-0.1c0.9,0.6,2,1.2,3,1.6
		C58.9,247.7,60,252.3,63.4,256.7"/>
	<path d="M485,200.2c-2.3-4.2-6.2-5.9-10.9-5.9c-3.7,0.3-6.5,2.7-8.1,5.9c-0.9,3.2,0.3,6.1,2.7,8c1,0.4,2.3,0.3,2.9-0.7
		c0.7-1.9-1.3-1.9-1.6-3.4c-0.6-2,0.2-3.8,1.6-5.1c1.4-1.4,3.9-0.7,5.6-0.7c1.7,1.2,3.5,2.2,4.3,4.2c0.9,2.5,0.9,5.3,0,7.7
		c-1.6,3.6-5.2,6.6-9,7.3c-12,1.7-143.8,1.2-143.8,1.2c-15.4,1.5-33.1-2.9-46.4,5.2c-6.1,2.9-9.1,9.6-10.7,15.6
		c-3.9,3.5-8.1,7.6-11.3,11.5l-0.4-0.4c0.7-3.5,2.3-6.6,3-10.1c2.2-2.9,2.2-6.8,3.8-10c5.5-8.9,10.7-17.9,19.2-24.2
		c3.6-4.8,10-3.9,15.5-3.9c5.9,2.8,12.9,3.7,20.1,2.9c0.3-0.3,0.4-0.6,0.4-1c-2-1.9-5.3-2.6-7.6-4.5c-5.8-2.8-11.3,0.9-17.3,0.4
		c-0.3-0.3-0.6-0.4-0.4-0.9c5.5-4.1,11.7-7,17.9-9.6c5.1-2.8,10.4-4.2,15.8-6.2c2.2,0,4.2-1.9,6.2-0.6l7.7-2
		c0.3,0.1,0.6,0.6,1.2,0.5c6.5-2.2,14.7-0.2,22.1-0.3l1,0.9l7,1.8c2.6,0.3,3.8,3.3,6.5,3.5c1.4-2.1-1.6-2.9-2.3-4.2
		c3.2-0.7,6.8,0.1,9.7,1.5l-1.4,1.6c-0.9,1.6,0.4,2.8,1.8,3.4c1,0.3,1.7-0.4,2.4-0.7c1.9-1.3-0.2-2.6,0.4-3.8
		c10.7,1.9,21,4.5,30.8,8.7c2.8,0.9,5.3,2.9,8.4,2.8c-3-2.8-7.2-4.2-11-5.8c-2.4-1.5-5.9-1.6-7.8-3.7c0.4-0.7,1.4-0.4,1.9-1
		c4.9-0.6,9.1-4.2,12.6-8.2c0.3-0.9,1.9-0.6,1.7-1.7c-1.3-1.5-3.5,0.4-5.2,0.3c-6,1.2-8.7,8.3-14.7,9.6c-7.4-1.7-14.9-3.5-22.3-5.4
		c-3.6-0.6-7.5-0.9-10.8-2.3l-8.1-0.7h-14.8c-0.1-0.3-0.6-0.4-0.4-0.9c5.2-1.3,9.7-4.4,14.9-5.7l38.8-17.8c4-3.6,7.6-7.7,11-11.9
		c0.1-1.2-0.6-2.3-1.6-2.8c-1-0.4-2.2-0.3-2.9,0.6c-1.8,1.3,0,2.9,0,4.5c-1.8,2.3-4.5,4.4-6.7,5.7c-0.6-0.1-39.9,17.9-39.9,17.9
		c-5.8,2.5-11.6,5.2-17.6,6.6l-8.4,1.3c-0.6,1.8-2,2.8-3.6,3.3c-2.3,0.4-4.2,1.9-6.7,1.9c-18.8,7.3-38.3,15-53.2,29.9
		c0.9-1.8,1.3-3.9,1.4-6.1c-0.3-2.2-0.1-4.6-1.6-6.4c-0.3-0.8-1.4-3.1-1.1-4l-2.1,1.4c-1.3,3.2-2.4,9-1.2,12.4
		c0.4,2.6,2.6,5.7,0.6,8c-6.9,8.4-10.9,18.6-15.5,28.2c-1.7-0.3-2.6-1.9-3.3-3.5c4.9-6.3,8.8-13.2,10.3-21.3c1-0.8,0.3-2.6,1.3-3.5
		c-0.3-2.4,1.3-4.7,0.2-6.6c0.9-3.2-4.2-6.1-0.9-8.2l-2.7,1.3c-6.2,8.2,3.2,20.4-3.8,28.3v0.6c-2,2.6-3.1,5.2-5.8,7
		c-3.5-1.5-4.8-5.4-6.8-8.3c-3.2-3-3.2-9.3-1.3-13.5c1.3-4.2-0.9-7.9-1.3-11.7l-1.4-0.9c-3.5,4.5-4.8,11.7-2,17
		c1.5,2.6,1.6,6.3,3.8,8.5c1.3,4.2,3.9,7,6.2,10.8c0.6,1.5-0.9,1.8-1.6,2.5c-1.6-1-1.3-3.3-2.8-4.4c-4.8-10.2-11-18.4-18.5-26.7
		c-0.3-1.3-1.6-2.5-0.9-3.9c2.8-2.6,3.3-7.7,1.9-11.1c-0.3-0.7-1.2-1.6-1-2.3l-2.2-1.7c0.3,5.1-3,9.6-1.6,15v0.3
		c-14.9-11.2-31.4-21.2-48.2-29.1l-1.3,3.7c4.2,1.1,15.5,7.9,15.5,7.9c5.1,1.9,9.7,4.9,14.5,7.7c19.7,10.9,32.7,29,41.5,49.1
		c0.2,1.6,1.6,3.3,0.6,4.9c-3-4.7-7.4-7.3-11-11.1c-1-6.8-5.1-13.4-11-16.2c-2.2-3.2-6.8-3.5-10.4-4.5l-52.6-0.3
		c-42.8-0.6-81.9,1.3-124.4,0.6c-5.9-0.6-13.2-2.6-14.9-8.9c-1.2-2.2-1.2-6,0-8c1.6-2.8,4.5-3.7,7.4-3.9c2.3,0.3,3.9,2.5,4.9,4.1
		c0,1.9-1.6,3.7-2.3,5.2c0.1,0.6,0.7,1.8,1.7,1.3c1.9-0.7,3.3-2.8,3.8-4.6c0.1-1,0.6-2.5-0.4-3.2c-0.9-3.1-4-5.2-6.8-6
		c-3.6-0.3-7.4,0.7-9.8,3.4c-3.5,2.9-3.3,8.2-2.3,12.2c2.3,6.4,9.1,10.8,15.6,11.6l140.7,0.6c13.7,0.7,29.2-1.6,43.1,1.2
		c5.1,1.6,10.4,5.4,11.7,11.1c-0.1,0.3-0.6,0.1-1,0.1c-11.4-7.4-26.5-10.2-41.1-8.4c-5.8-0.3-11,1.9-16.2,3.4
		c-2.7,0.6-5.3-0.7-7.1-2.3c-5.2-4.7-14.3-4.4-21-2.6c0,0.4-0.1,0.9,0.1,1c7.1-0.6,11.3,5.6,17.6,6.3c1.5,0.3,2.6-1.3,3.9-0.1
		c-6.7,3.2-13,7-20.1,9c-2.2-0.4-3.3-2.5-5.1-3.6c-2.7-3.1-7.8-1.7-11.6-2.1c-1.3,0.3-2.5-0.6-3.3,0c1.2,2.3,3.8,3.6,6.2,4.8
		c3.6,1.6,7.8-0.1,11.1,2c-0.9,1-2,1.3-3,2.1c-6.8,2.6-12.4,8.7-20,8.3c-7.9,0.9-16-1.4-21.4-7c-2.3-5.7-8.2-8.7-14.6-8.4
		c-0.4,0.3-1,0.3-0.9,1c3.2,1.9,5.6,5.6,8.8,7.9c2,2.5,5.9,0,7.8,2.8c2.8,1.9,6.2,3.5,9.4,4.1c2.3,1,4.9,1.5,7.5,2l-1,0.6
		c-13.1,4.4-28.3,4.8-43.1,4.2c-4.4-0.1-8.5-1.5-12.9-1.3c0.7,0.9,2.2,1.6,3.5,2.1c-1.2,0.7-2.5,1-3.9,1.2c-1.7,0.5-3.8,0.6-5.5,1.5
		c-2.3-0.1-4.3,0.7-6.2,1.5c-2.5,2.6-5.4,5.4-8.2,6.7c0,0.6-0.1,1.5,0.6,1.5c2.7-1.2,6.2-0.3,9-1.5c4.7-0.4,7.5-5.7,11.3-7.9
		c4-3.2,9.8-2.5,14.7-1.8c2.9,0.7-0.3,1.9,0.6,3.8c1.2,1,2.2,2.2,3.8,1.7c0.3-0.3,0.6-0.6,1-0.7c0.9-1.2,0.7-2.5,0.1-3.7
		c2-1.3,4.8,0.2,7-0.7c5.5-0.2,11-1.3,16.3-1.5c0.9-0.2,1.9-1,2.7-0.2c-0.4,1.2-1.9,1.3-1.3,2.9c0.3,1.3,1.7,1.9,2.9,2.2
		c1.5-0.6,2.7-1.6,2.2-3.5c-0.3-1-1.4-1.2-2.2-1.6c3-1.5,6.5-1.9,9.5-3.3c2.2-0.5,4.2-1.2,6.1-2.1c1.9-0.1,3.5-1.9,5.2-1.2
		c-0.7,2.5-1.7,4.8-3,7c-2.3,7.7-4,17.9,0,25.3c0.4,0.2,0.6-0.1,0.9-0.3c-3-7.7-1.3-16.6,1.3-23.9c2-12.4,14.8-16,23.9-20.7l0.4,0.6
		c-2.5,6.4-6.1,12.5-5.5,20.2c0.3,1.3-0.6,2.6,0,3.5c2.4-1.3,4-4.2,5.3-6.7c1-6.6-2.8-14.7,3.9-19.5c11.9-4.6,23-10.8,36.7-10.9
		c0.4,0.4,1.4-0.3,1.6,0.6c-2.9,3.2-7.1,6.3-8.4,10.2c-4.6,6.4-4.5,17.3-2.5,25.2c1.3,4.5-2.6,7-4.5,10.5c-0.9,1.2-1.2,3.3-2,4.8
		l2.9,0.3c2.5-2.6,4.8-5.8,4.9-9.6c0.3,1.5,1.6,2.6,2.7,2.9c1-1.6-0.9-2.7-1-4.4c2.3-1.3,3.3,1.6,5.2,2.2c3,0.7,5.6,2,8.8,2l1-1
		c-3.2-4.9-9.5-5.8-15-6.1c-2.9-4.8-2.9-10.8-2.6-16.6c0.6-3.1,1.2-6.3,2.9-9.1c0.7-2,2.7-3.9,4-5.5c2.6-2.5,5.9-4.2,9.1-4.9h0.4
		c0,0.3,0.1,0.4,0.1,0.4c-3.9,3.1-4.4,7.3-6.6,11.1c-2.5,3.6-3.6,8.6-1.3,12.7c0.9,1.9,0.4,4.8,2.5,6.1c1.9-2.6,2-6,3-8.9
		c-0.4-4.8-3.3-9.3-0.6-14c1.5-3.7,4.5-5.1,7.8-6.4c7.9-0.7,14.9,3.3,21.8,6.4c1.5,1,3.9,1.9,4.2,3.9c-0.1,4-2.3,7.9-5.3,9.8
		c-3.9,2.3-9.5,2.6-13.2-0.2c-2.2-2.2-3-5.9-2.3-8.9c1.6-1.7,3.8-3.2,6.4-2.3c1.4,0.7,2.8,2.2,4.6,1.3c0.7-0.4,1-1.6,0.6-2.3
		c-1.6-0.9-2.2-3-4.3-3.4c-2.8-0.4-6.1-0.3-8,1.6c-3,2.6-4.2,6.6-3.3,10.2c1,4.7,4.5,8,9,9.3c6.7,1.6,13.6-0.4,17.8-6.1
		c1.7-1.9,2.2-3.9,3.2-6.3c6.9,4.2,12.1,11.7,14.9,19.2c0,2.5,0.7,5.1,0.1,7.3l5.1,0.4c-0.4-1.2,0-2.5,0.4-3.5
		c1.9-9.6,7.8-17.6,14.9-23.9c2.5-1.5,1.9,1.9,2.5,2.9c2.1,5.6,7.2,9.5,12.6,11.1c6.1,1,11.9-0.4,15.6-5.1c1.9-3.5,4.2-8.6,1-12.2
		c-2-2.5-4.7-3.8-7.9-3.8c-3.8,0-6.1,2.6-8,5.4c0,1.2-0.1,2.5,0.9,3.1c0.6,0,1.7,0.1,2.1-0.7c0.3-2.2,2.2-3.2,3.9-4.4
		c1.6-0.9,3.3,0,4.6,0.9c1.6,1.3,1.9,3.5,2,5.7c-0.3,2.7-2.2,5.7-4.8,6.8c-4.2,2.2-10.3,1.2-13.9-1.3c-1.7-1.9-2.8-4.1-4.1-6.4
		c-0.3-2.3-1.2-4.4,0-6.7c6.3-3.8,13-6.5,20.7-7.3c3,0.6,5.6,2.6,7.6,4.8c6.6,6.8-1.4,16.6,3.2,24.2c1.7-0.3,1.7-2.6,2.5-4.1
		c2.2-5.3-0.6-10.9-1.9-16c-1.7-3.2-2.8-6-5.5-8.6c0.7-0.3,1-0.3,1.7-0.3c3,2,6.4,4.4,8.8,7.6c4.2,6.8,6.4,15,5.6,23.9
		c-1.1,4.4-5.7,6.4-9.4,8c-1.5,1.2-3.2,2.9-3.9,4.6c1.7,1,4.2,0,5.9-0.7c2.7-1,4.3-4.5,6.2-6.1c0.3,0.1,0.1,0.6,0.3,0.9
		c0.1,1.6-0.7,3.8,0.7,4.2c0.7-2,0.9-5,1.3-7.4c1.9,2,2.2,4.7,2.8,7.3c1.3,2.6,3.4,6.1,6.9,6.5c0.9-1.3-0.2-2.6-0.4-3.8
		c-0.4-3.7-3.5-5.5-5.5-8.2c-5-7-2.7-17.9-6.6-25.8c-1.5-4.2-4.5-7.3-7.8-10.8l0.6-0.6c7.1-0.2,13,2.2,19.5,3.5
		c7.9,3.9,19.6,3,23.3,13.4c1.6,5.8,4.2,11.2,8.3,15.7l0.4-0.3c0.9-1.5,0.9-3.9,0-5.4c-0.9-7.3-7.2-9-10.5-15.1l0.4-0.6
		c3.5,1,7.1,1.9,10.6,3.3c11.6,3.2,19.7,14.6,21.1,26.3c0,9.3-1.7,17.1-5.4,24.9c-0.4,1.2-2.4,2.5-1.2,3.5c1.6-1.2,1.9-3.1,2.8-4.4
		c4.7-8,7.2-19.1,4.7-29.3c-0.1-1.9-2.3-3.3-1.3-5.2c0.7,0.9,1.6,1,2.5,1.3c0.8-0.6,2.1-0.6,2.7-1.6c0.2-0.9,0.7-1.9,0-2.6
		c-0.9-1.3-2.7-1.3-4.2-1c-0.7,0.9-1.6,2-1.7,3.2c-1.5-2.5-2.9-5.7-5.2-7.7l0.3-0.4c6.5,2.2,12.4,5.4,19.1,7.1
		c1.5,0.9,3.1,1.6,5.1,1.6c5.6,2.2,11.8,3.1,17.7,4.5c4.3-0.4,8,1.6,12.3,0.6v-0.3l-0.2,0.1c-1.6-2-5.1-0.1-6.9-1.6
		c-10-1-19.5-3.6-28.5-7.1c0.2-0.4,0.7-0.3,1.2-0.3c1.5-0.7,2.5-2.1,2.3-3.7c-0.8-1-1.9-1.6-3.3-1.6c-0.9,0.4-2,1.5-2.2,2.5
		c0.1,1.2,1.2,2.5,2.2,2.8c-0.3,0.3-0.9,0.1-1.3,0.1c-4.5-2-8.8-3.9-13.1-6c-1.6-0.3-2.9-1.6-4.5-1.9c-3.3-1.6-6.7-3.2-10-4.5
		c-9.3-4.8-19.6-7.4-29.4-10.9c-2.1-0.6-4.2-1.2-6.2-1.8c-3.6-1-7.2-1.9-10.8-2.9c-12.3-3-28.8-3.3-39.5,3.4
		c-1.8-0.6-2.8,2.2-3.6,0.4c3-8,11.9-10.6,19.8-10.9c58-0.6,112.4-1,169.5-1.9c6.6,0,13.2-2.3,16.6-8.3
		C486.4,210.1,486.8,204.1,485,200.2 M255,253.9c-0.6,1.7-1.7,3.2-1.6,5.1l-0.6,0.3c0.4-2.2-1.7-3.5-1.2-5.8
		c-1.2-1.8-1.2-3.9-2.2-5.8c-1.3-2.3,1.2-3.4,2.2-5c2,0.9,2.7,2.8,4.2,4.5C256.7,249.7,254.9,251.6,255,253.9"/>
	<path d="M411.9,244.8c0,0.4,0.9,0.6,0.6,1.3c-5.1,4.5-12.2,5.8-19.4,6.1c-0.6,0.2-1.2,0.6-1.9,0.4c-0.4-0.3-0.6-0.7-0.3-1
		C396.2,245.9,404.1,243,411.9,244.8"/>
	<path d="M388.6,247.1c0.6,2-0.7,3.2-2.3,3.9c-1.6-0.1-2.4-1.2-3.2-2.3c-0.4-1.2,0.6-1.8,1-2.5C385.3,245,388,245,388.6,247.1"/>
	<path d="M113.7,247.4c0.3,1,0.1,2.3-0.7,3.1c-0.6,0.8-1.9,0.9-2.6,0.8c-1-0.2-1.6-1.3-1.9-2.2c0-1.3,0.7-2,1.9-2.8
		C111.5,246.2,112.8,246.1,113.7,247.4"/>
	<path d="M87.8,256.9v1c-3.5,0.7-6.8-0.1-9.4-2.2c-2-2.9-4.3-5.8-7.7-7.3c0-0.4-0.9-1,0-1.3C78,247.1,82.3,252.9,87.8,256.9"/>
	<path d="M433.9,247.2c-3.3,4.9-6.2,11.1-12.2,13.3c-1,0-1.9,1.5-2.7,0.4c2.3-5.5,7.2-11.5,12.9-13.8
		C432.4,247.1,433.3,246.9,433.9,247.2"/>
	<path d="M122.1,249c0.1,1.6-1,1.9-2,2.8c-1.2,0.1-1.7-0.7-2.4-1.6c-0.6-1.5,0.7-2.1,1.4-2.8C120.2,247.1,121.5,248,122.1,249"/>
	<path d="M452.1,249.9c-1.3,1.9-0.7,4.7-2,6.7c-2.9,3.3-5.4,7.1-10,7.9c-0.7-1.5,1-2.9,1.7-4.2c2-4.4,4.9-9.3,9.5-11.2L452.1,249.9z
		"/>
	<path d="M43,251.2c0.4,1,0.9,2,0,3.2c-0.9,0.7-2.2,1-3.3,0.6c-1.3-0.7-1.8-2.4-1.2-3.5C39.4,250.2,42,249.4,43,251.2"/>
	<path d="M34.7,252.9c0.1,0.7,0.6,1.3,0.4,2.1c-0.4,0.7-1.1,1.6-2,1.7c-1.6,0.3-2.6-0.6-3.3-1.9c-0.1-1.3,0.3-2.5,1.4-3.1
		C32.6,251.2,34,251.9,34.7,252.9"/>
	<path d="M51.8,253.8c0.3,1.2,0.6,3.2-1.1,3.5c-2,0.9-3.2-0.6-4.3-1.8c0-1.3,0.7-2.3,1.7-2.9C49.5,252.5,50.8,252.6,51.8,253.8"/>
	<path d="M75.5,255.7c-0.1,1,0.2,2.5-1,2.8c-0.7,0.8-2,0.4-2.7,0.3c-0.3-0.9-1.9-1.6-1-2.6c0.6-0.7,1.1-1.2,2-1.6
		C73.6,255,74.9,254.5,75.5,255.7"/>
	<path d="M466,256.7c-0.4,1-1,2.3-2.2,2.3c-1.3-0.2-2.6-0.3-3.3-1.6c-0.6-1.6,0.7-2.5,1.9-2.9C463.8,254.5,465.7,255.1,466,256.7"/>
	<path d="M439.6,257.4c0.1,1.2-1.2,2-1.8,2.5c-2,0.9-3.8-0.6-4.5-2.2c0.3-1.3,1.3-2.2,2.5-2.6C437.7,255,438.7,256,439.6,257.4"/>
	<path d="M457.5,257.1c0,1-0.6,2.1-1.3,2.5c-1.2,0.4-2.6,0.3-3.5-0.6c-1.3-1.2-0.3-2.2,0.6-3.1C454.6,255.3,457,255.4,457.5,257.1"
		/>
	<path d="M39.2,259.6c0.3,1.6-0.3,3.1-1.7,3.7c-1.3,0-2.7-0.8-3.2-2.1c-0.2-1.3,0.3-2.6,1.5-3.1C37.2,257.7,38.4,258.6,39.2,259.6"
		/>
	<path d="M432.3,261.2c0.4,1.6-0.4,3.1-2,3.8c-1.2,0.3-1.9-0.3-2.7-1c-0.6-0.7-1.3-2.3-0.1-3.1C428.5,258.8,431.4,259.6,432.3,261.2
		"/>
	<path d="M117,262.8c0.6,1.6-1.2,1.9-1.6,2.8c-0.6,0.3-1.7,0.4-2.2-0.2c-0.7-0.9-1.6-1.8-1.2-3.1c0.7-0.6,1-1.2,1.9-1.5
		C115.6,260.5,116.2,262,117,262.8"/>
	<path d="M463.4,263.8c0.3,1-0.6,1.5-0.7,2.2c-0.9,0.7-2.3,0.9-3.3,0.6c-1.3-0.7-1.3-1.9-1.3-3.2c0.9-0.6,1-1.3,2.1-1.6
		C461.4,261.8,463,262.4,463.4,263.8"/>
	<path d="M454.5,264.3c0.6,1.8-1,2.6-2.2,3c-0.6,0.2-1.4-0.3-1.6,0.6c3.8,1.9,6.1,5,9,7.7v1.2c-5.2-0.1-10.6-1.5-14.3-5.5
		c-1-0.7-2.7-0.7-3.9-1.8c1.9-1.9,5.4-1.2,8-1.3c1.9-2-2.2-3.5,0.3-5.2c0.8-0.2,1.4-1,2.6-0.7C453.3,262.7,453.9,263.4,454.5,264.3"
		/>
	<path d="M395.3,264.4c0.3,0.7-0.6,1.6-0.7,2.3c-0.9,0.9-2.2,1-3.2,0.6c-0.7-1-1.9-1.9-1.4-3.3C391.1,261.8,394.9,262.3,395.3,264.4
		"/>
	<path d="M71.9,269.5c-0.4,1.3-1,2.2-2.4,2.3c-1.2-0.2-2.2-0.6-2.6-1.8c-0.2-1,0.6-1.6,0.7-2.3C69.2,266.5,72,267.3,71.9,269.5"/>
	<path d="M83.6,267.6c0,2-2.2,3.2-2.9,5.2c-2.2,4.8-6.1,9.2-11.6,9.6c-0.6-1.3,1.9-2.9,2.5-4.2c2.3-5,6.9-7.6,11.1-10.6H83.6z"/>
	<path d="M391.8,269.7c0.1,1.6-1.3,2.8-2.5,3.4c-1.3,0.4-2.3-0.6-3-1.2c-1.2-1.2-0.4-2.3,0.1-3.5
		C388.2,266.6,390.6,268.1,391.8,269.7"/>
	<path d="M400.8,270.7c-0.2,1.6-1.2,2.8-2.6,3.2c-0.3-0.5-1-0.2-1.5-0.3c-1-0.6-1.8-1.4-1.8-2.6c0.7-0.7,1-1.9,2-2
		C398.2,268.8,400.3,268.9,400.8,270.7"/>
	<path d="M106,270.5c0.1,1.6-1,2.5-2.2,3.1c-1.3,0.2-2.2-0.7-2.7-1.7c-0.3-1.3,1-2.2,1.7-2.9C104.6,268.4,105,269.7,106,270.5"/>
	<path d="M116,271.1c-0.4,1.3-1.3,2.2-2.7,2.5c-1-0.3-2.2-0.6-2.6-1.7c-0.1-1.5,1-2.2,2-2.9C114.1,269,115.7,269.5,116,271.1"/>
	<path d="M431.9,281.3c0.7,0.6,2,1.3,1.7,2.3c-2.3,1-4.2-1.6-6.3-2c-3.5-3.5-6.1-7.3-7.5-11.6c1.3-1.3,2.8,0.3,3.9,0.7
		C427,273.5,430.1,277.1,431.9,281.3"/>
	<path d="M437.2,271.1c0.5,1,0.3,2.2-0.3,3.2c-0.8,1.5-2.8,1.2-4.1,0.9c-0.7-0.9-2-2.1-1.2-3.3c0.4-1.2,1.7-1.5,2.7-1.9
		C435.5,269.8,436.2,270.7,437.2,271.1"/>
	<path d="M129.3,274.9c0.1,1.2,0.4,2.9-1,3.6c-1.3,0.3-3-0.1-3.5-1.7c-0.7-1.8,0.9-2,1.7-2.9C127.7,273.6,128.5,274.2,129.3,274.9"
		/>
	<path d="M400.3,284.4c2.1,2.9,3.5,6.6,3.8,10.4c-0.4,1,0.7,2.1-0.1,2.8h-0.6c-6.5-4.7-8-11.2-10.4-17.8c-0.6-0.3-0.7-0.9-0.6-1.5
		c1.5-1.3,2.5,1.3,3.9,1.7L400.3,284.4z"/>
	<path d="M148.1,279.4c-0.1,0.1,0,0.3,0.1,0.3c-5.8,4.1-13.9,6.5-20.5,2.6c-0.2-0.4,0.1-1.2,0.7-1.3c4.2-1.3,8.2-3.3,12.7-2.8
		L148.1,279.4z"/>
	<path d="M115.2,280.2c-4.9,3.1-9.4,9-15.5,10.5c-1.2,0.5-1.9,2.1-3.3,1.2c2.6-7.9,11.1-12.1,18.8-12.8V280.2z"/>
	<path d="M391.8,286.7c0.4,1.2,0,2.8-1.2,3.1c-0.7,0.7-2.2,0.7-2.7,0c-1.3-0.6-1.3-1.9-1.3-2.9c0.4-1,1.5-1.2,2.2-1.6
		C390.1,285.6,391.1,285.6,391.8,286.7"/>
	<path d="M379.8,287.4c-0.9,2.1-3.3,3.2-5.2,3.8c-4.9,1.8-9.4-0.6-13.7-1.7c0.1-1.2,1.6-0.7,2.3-1.5c4.8-1,9.7-2,14.7-0.7
		C378.4,287,379.4,286.9,379.8,287.4"/>
	<path d="M115.2,291.7c-0.4,0.6-0.6,1.9-1.7,2.3c-1,0.4-2,0-2.9-0.6c-0.3-0.9-1.3-1.6-0.6-2.6c0.3-1,1.5-1.3,2.3-1.6
		C113.7,289.4,114.9,290.2,115.2,291.7"/>
	<path d="M123.7,293c-0.4,0.9-0.9,2.2-2,2.8c-1.2,0.3-2-0.3-2.9-1c-0.4-0.9-0.9-1.9-0.4-2.9c0.3-0.7,1.3-0.9,2-1.3
		C121.8,290.4,123.1,291.8,123.7,293"/>
	<path d="M389.1,294.4c0.1,1.2-0.4,1.9-1,2.8c-0.7,1-2.2,1.2-3.2,0.6c-1-0.1-1.3-1.3-1.7-2.1c-0.8-1.2,0.6-1.9,1-2.9
		C385.8,291.5,388.3,292.2,389.1,294.4"/>
	<path d="M395.4,294.2c0.1,0.7,0.6,1.5,0.3,2c-0.8,0.7-1.4,2.6-3.2,1.9c-0.9,0.3-1.3-0.9-1.7-1.2c-0.6-1.5-0.2-3.6,1.7-3.9
		C393.9,292.5,394.7,293.7,395.4,294.2"/>
	<path d="M118.5,298.4c0.3,1.6-0.3,3.1-1.5,3.9c-1.6,0.3-3.6,0.3-4.2-1.6c-0.1-1.4,0-3.3,1.8-4.2C116,296.3,117.8,296.6,118.5,298.4
		"/>
	<path d="M126.7,297.8c-0.3,4.1-1.2,9-5.2,11.4c-2.3,0.4-4.6,2.6-6.9,1.1v-0.7C117.6,305.2,123.1,301.9,126.7,297.8"/>
	<path d="M366.4,301.1c0.6,0.9-0.5,1.6-0.9,2.3c-0.8,1-2.4,0.6-3.5,0.1c-1-0.5-1.1-1.9-0.7-2.9c0.3-0.9,1.2-1.3,1.9-1.6
		C364.5,299,365.6,300.1,366.4,301.1"/>
	<path d="M141.2,307.8c2,3.4,0.9,7.9,2,11.5c-2.5,0.3-3.5-2.5-5.1-3.9c-3.2-4.4-2.7-10.2-4.2-15.3c0.3-0.4,0.7-0.4,1-0.3
		c2.2,1.5,3.8,4.2,5.5,6.1C140.2,307,141.3,307,141.2,307.8"/>
	<path d="M373.6,302.3c0,1.2-1.3,1.5-2,2.2c-1-0.1-1.9-0.6-2.8-1.3c-0.4-1.5,0.7-1.9,1.5-2.6C371.7,300,373.2,300.7,373.6,302.3"/>
	<path d="M390.8,315.3c0,0.4-0.2,1.3-0.9,1h-0.6c-4.2-3.8-8.4-8-7.8-13.8l0.9-0.2C386.3,305.6,390.7,309.3,390.8,315.3"/>
	<path d="M379.9,310.6c0.1,1.2-0.6,2-1.3,2.8c-1.6,0.4-4.1,0.3-4.4-1.9c-0.1-1.5,1.5-2.2,2.2-2.9
		C378.2,308.1,379.4,309.3,379.9,310.6"/>
	<path d="M370.4,313.7c-2,5.4-7.5,8.2-11.3,12.2c-0.7-0.4-0.4-1.6-0.3-2.2c1.4-5.5,5.8-10.9,11.1-13.1
		C372.3,310.9,370,312.5,370.4,313.7"/>
	<path d="M381.3,318c0,1.3-1.3,1.9-2,2.6c-1.2-0.1-2.3-0.4-3.2-1.6c-0.1-1.5,1-1.9,1.9-2.6C379.4,316.1,380.7,316.9,381.3,318"/>
	<path d="M273.6,53.6c2,0,3.6,1.6,3.6,3.6c0,2-1.6,3.6-3.6,3.6h-42.9c-2,0-3.6-1.6-3.6-3.6c0-2,1.6-3.6,3.6-3.6H273.6z M243.3,59.8
		c4.2,0,0.2-5.1-2-5.1h-4.2c-4.2,0-0.2,5.1,2,5.1H243.3z M260.9,59.8c4.2,0,0.2-5.1-2-5.1h-4.2c-4.2,0-0.2,5.1,2,5.1H260.9z
		 M273.9,54.7h-1.6c-4.2,0-0.6,5.1,1.6,5.1C276.7,59.8,276.9,54.7,273.9,54.7"/>
	<path d="M269.9,102.8l8.2,3.1l8-3.1l-3.1,12.1l6.4-1.3l-2.2,7.3l2.2,7l-5.7-1.5l2.4,13l-8-3.1l-8.2,3.1l3.3-13l-6.5,1.8l1.8-7.3
		l-1.8-7l6.2,1L269.9,102.8z M282,124.5c1.9,0,2-2.5,2-4.7c0-5-3.9,0-5.9-4.7c-1.5,4-5.5,0.3-5.5,4.5c0,2.9,0,4.9,2.9,4.9H282z
		 M273.9,120.1c0,1.9,2.5,0.6,4.4,0.6c1.9,0,4.4,1.3,4.4-0.6c0-2.7-2.5-1.7-4.4-1.7C276.5,118.3,273.9,117.4,273.9,120.1"/>
	<polygon points="250.7,120.6 250.7,119 249.3,118.7 250.4,117.6 249.7,116.4 251.1,116.5 252,115 252.8,116.5 254.3,116.4 
		253.6,117.6 254.7,118.7 253.3,119 253.3,120.6 252,119.5 	"/>
	<polygon points="244.4,128.7 244.4,127.2 243,126.9 244.1,125.8 243.4,124.6 244.8,124.7 245.6,123.2 246.5,124.7 247.9,124.6 
		247.2,125.8 248.3,126.9 246.9,127.2 246.9,128.7 245.6,127.7 	"/>
	<polygon points="255.1,127.7 255.1,126.1 253.8,125.9 254.8,124.8 254.2,123.5 255.6,123.7 256.4,122.2 257.3,123.7 258.7,123.5 
		258,124.8 259.1,125.9 257.7,126.1 257.7,127.7 256.4,126.7 	"/>
	<polygon points="256.4,133.8 256.4,132.9 255.6,132.8 256.2,132.2 255.9,131.5 256.7,131.5 257.1,130.7 257.6,131.5 258.4,131.5 
		258,132.2 258.7,132.8 257.9,132.9 257.9,133.8 257.1,133.2 	"/>
	<polygon points="246.4,140.8 246.4,138.2 244,137.7 245.9,135.8 244.7,133.7 247.1,133.9 248.6,131.4 250,133.9 252.5,133.7 
		251.3,135.8 253.2,137.7 250.8,138.2 250.8,140.8 248.6,139.1 	"/>
	<polygon points="251.5,3.4 256.6,15.9 269.5,12.1 262.9,23.9 273.9,31.7 260.7,33.9 261.5,47.5 251.5,38.4 241.5,47.5 242.3,33.9 
		229.1,31.7 240,23.9 233.5,12.1 246.4,15.9 	"/>
	<path d="M204.8,284.3c-1.5,0.6-2.1,1-1.8,2.6l1.8,7.7c0.3,1.5,0.4,3.7-0.5,5c-1.1,1.6-3.5,2.7-5.2,3.1c-1.2,0.3-4,0.8-6.2-0.1
		c-1.4-0.6-2.4-1.3-3-3.9l-1.9-8c-0.5-2-1.2-1.9-2.9-1.6l-0.2-0.6l9.7-2.3l0.2,0.6c-1.9,0.5-2.8,0.8-2.3,2.9l1.9,8
		c0.3,1.4,1.1,4.7,5.2,3.7c5.1-1.2,4.2-4.9,3.9-6.5l-1.7-7.3c-0.4-1.5-0.9-2.2-3.4-1.7l-0.1-0.6l6.3-1.5L204.8,284.3z"/>
	<path d="M219.2,285.9c-0.9-1.6-3.2-4-6.6-3.2c-1.5,0.3-2.9,1.4-2.6,3c0.3,1.3,1,1.7,3.6,2.2l4.6,0.8c1.1,0.2,3.6,1.1,4.2,3.8
		c0.5,2.1-0.7,5.5-6,6.6c-2.7,0.6-4.2,0.1-5.1,0.3c-0.6,0.2-0.7,0.6-0.7,1l-0.8,0.2l-1.3-6l0.8-0.2c1.1,2.3,3.4,4.7,7.1,3.9
		c3.4-0.8,3.1-3.2,3-3.5c-0.4-1.6-1.8-1.9-3.9-2.2l-2.1-0.3c-5.4-0.9-5.8-3-6.1-4.1c-0.3-1.5-0.2-5,5.3-6.2c2.3-0.5,3.8,0,4.7-0.2
		c0.7-0.1,0.7-0.6,0.8-1l0.9-0.2l1.2,5.2L219.2,285.9z"/>
	<path d="M238.3,295.4l-10.5,1l-0.1-0.6c2.1-0.4,2.8-0.5,2.6-2.5l-1.2-13c-2,0.3-5,0.7-5.3,4.7l-0.9,0.1l-0.4-5l17.6-1.7l0.5,5
		l-0.9,0.1c-1-3.9-4-3.7-6-3.6l1.2,13c0.2,2.1,0.9,2.1,3.1,2L238.3,295.4z"/>
	<path d="M262.8,295.4l-6.1-0.1l-5.9-7.9l-0.8,0l-0.1,4.9c0,2,0.6,2,2.5,2.3l0,0.6l-10-0.2v-0.6c2-0.1,2.6-0.2,2.6-2.2l0.2-10.9
		c0-2.1-0.9-2.2-2.5-2.3l0-0.6l9.5,0.2c2.1,0,8.3,0.4,8.2,4.5c-0.1,3-3.1,3.8-4.7,4.1l5.8,7.2c0.4,0.4,0.8,0.5,1.2,0.5L262.8,295.4z
		 M250,286.6c3.9,0.1,5.4-0.5,5.5-3.7c0-2.5-1.1-3.6-3.5-3.6c-1.6,0-1.7,0.3-1.9,1L250,286.6z"/>
	<path d="M282.2,297.9l-9.5-1.2l0.1-0.6c1.8,0.1,2.4,0.1,2.4-0.7c0.1-0.7-0.6-2.6-0.9-3.4l-6.6-0.8c-1,1.7-1.6,2.6-1.7,3
		c-0.1,0.9,1.3,1.2,2.3,1.4l-0.1,0.6l-6-0.8l0.1-0.6c1.6,0,2.1-0.8,3.2-2.5l8.2-12.7l0.8,0.1l4.9,13.7c1,2.8,1.4,3.7,2.8,3.8
		L282.2,297.9z M273.9,291l-2.2-6.3l-3.5,5.6L273.9,291z"/>
	<path d="M299.3,301.4l-16.8-3.1l0.1-0.6c1.6,0.1,2.5,0.2,2.8-1.3l2.1-11.8c0.3-1.6-0.9-1.9-2.2-2.2l0.1-0.6l10.1,1.9l-0.1,0.6
		c-2-0.3-2.9-0.4-3.3,1.7l-2.1,11.5c-0.2,1.2,0.4,1.5,2.4,1.8c4.4,0.8,6.3-0.9,8.2-3.4l0.8,0.2L299.3,301.4z"/>
	<path d="M310.5,303.9l-10.1-2.1l0.1-0.6c1.6,0.2,2.7,0.3,3-1.2l2.4-11.7c0.3-1.6-1-1.9-2.4-2.3l0.2-0.6l10.1,2.1l-0.1,0.6
		c-1.4-0.2-2.8-0.5-3.1,1.2l-2.4,11.7c-0.3,1.5,0.8,1.9,2.4,2.3L310.5,303.9z"/>
	<path d="M331,306.5l-9.5-1l0-0.6c1.8,0.1,2.4,0.1,2.5-0.7c0.1-0.6-0.7-2.6-1-3.4l-6.6-0.7c-1,1.7-1.6,2.6-1.6,3
		c-0.1,0.9,1.3,1.2,2.3,1.3l-0.1,0.6l-6-0.6l0.1-0.6c1.6,0,2.1-0.8,3.2-2.6l7.9-12.8l0.9,0.1l5.2,13.6c1,2.8,1.4,3.7,2.8,3.8
		L331,306.5z M322.6,299.8l-2.4-6.3l-3.4,5.7L322.6,299.8z"/>
	<path d="M255.6,106.8c0-5.9-3.4-0.4-5.2-5.4c-1.3,4.3-5.4,0.7-5.4,5.3c0,1.8,0.5,2.8,1.3,3.3v1.8c0,0.5,0.4,0.8,0.8,0.8h6.3
		c0.5,0,0.8-0.4,0.8-0.8v-1.9C255,109.2,255.6,108.1,255.6,106.8 M250.4,107.9c-1.7,0-4.1,1.2-4.1-0.9c0-2.9,2-2.3,3.7-2.3
		c1.7,0,4.4-0.6,4.4,2.3C254.5,109.1,252.1,107.9,250.4,107.9"/>
	<path d="M307.3,179.8c1.5,0,2.7-1.1,2.7-2.4c0-1.3-1.2-2.4-2.7-2.4c-1.5,0-2.7,1.1-2.7,2.4C304.6,178.7,305.8,179.8,307.3,179.8"/>
	<path d="M294.5,91.7c0,0-1.3,2.1-1.3,2.6c0,0.8,0.6,1.4,1.3,1.4c0.7,0,1.3-0.6,1.3-1.4C295.8,94.2,294.5,91.7,294.5,91.7"/>
	<path d="M207.1,91.7c0,0-1.3,2.1-1.3,2.6c0,0.8,0.6,1.4,1.3,1.4c0.7,0,1.3-0.6,1.3-1.4C208.5,94.2,207.1,91.7,207.1,91.7"/>
	<path d="M229,91.7c0,0-1.3,2.1-1.3,2.6c0,0.8,0.6,1.4,1.3,1.4c0.7,0,1.3-0.6,1.3-1.4C230.3,94.2,229,91.7,229,91.7"/>
	<path d="M250.8,91.7c0,0-1.3,2.1-1.3,2.6c0,0.8,0.6,1.4,1.3,1.4c0.7,0,1.3-0.6,1.3-1.4C252.1,94.2,250.8,91.7,250.8,91.7"/>
	<path d="M272.6,91.7c0,0-1.3,2.1-1.3,2.6c0,0.8,0.6,1.4,1.3,1.4c0.7,0,1.3-0.6,1.3-1.4C274,94.2,272.6,91.7,272.6,91.7"/>
	<path d="M207.2,121.7c0,0,1.3,2.1,1.3,2.5c0,0.8-0.6,1.4-1.3,1.4c-0.7,0-1.3-0.6-1.3-1.4C205.9,124.2,207.2,121.7,207.2,121.7"/>
	<path d="M207.2,150.8c0,0,1.3,2.1,1.3,2.5c0,0.8-0.6,1.4-1.3,1.4c-0.7,0-1.3-0.6-1.3-1.4C205.9,153.3,207.2,150.8,207.2,150.8"/>
	<path d="M210.7,173.9c0,0,1.3,2.1,1.3,2.6c0,0.8-0.6,1.4-1.3,1.4c-0.7,0-1.3-0.7-1.3-1.4C209.4,176.4,210.7,173.9,210.7,173.9"/>
	<path d="M229,186.1c0,0,1.3,2.2,1.3,2.6c0,0.8-0.6,1.4-1.3,1.4c-0.7,0-1.3-0.6-1.3-1.4C227.7,188.6,229,186.1,229,186.1"/>
	<path d="M295.6,121.7c0,0-1.3,2.1-1.3,2.5c0,0.8,0.6,1.4,1.3,1.4c0.7,0,1.3-0.6,1.3-1.4C296.9,124.2,295.6,121.7,295.6,121.7"/>
	<path d="M295.6,150.8c0,0-1.3,2.1-1.3,2.5c0,0.8,0.6,1.4,1.3,1.4c0.7,0,1.3-0.6,1.3-1.4C296.9,153.3,295.6,150.8,295.6,150.8"/>
	<path d="M292.1,173.9c0,0-1.3,2.1-1.3,2.6c0,0.8,0.6,1.4,1.3,1.4c0.7,0,1.3-0.7,1.3-1.4C293.4,176.4,292.1,173.9,292.1,173.9"/>
	<path d="M273.8,186.1c0,0-1.3,2.2-1.3,2.6c0,0.8,0.6,1.4,1.3,1.4c0.7,0,1.3-0.6,1.3-1.4C275.1,188.6,273.8,186.1,273.8,186.1"/>
	<path d="M251.5,199.1c0,0-1.3,2.2-1.3,2.6c0,0.8,0.6,1.4,1.3,1.4c0.7,0,1.3-0.7,1.3-1.4C252.8,201.6,251.5,199.1,251.5,199.1"/>
	<path d="M287,155.7c0.3,0.4,1,0.5,1.8,0.3l0.8-2.3c0.1-0.2-0.9-1.1-1.5-0.9c-2.4,0.6-4.8,0.8-6.2,3c0,1.5,1.1,2.9,2.2,3.6
		c0.8-0.3,1,0.6,1.5,1c0.1,0.7-0.3,1.3-1,1.3c-1.7-1.7-4.5,0.6-5.8-1.5c0.5-2.1,1.6-4.4-0.1-6.4c0.1-0.4,0.9-0.8,0.4-1.2
		c-0.7-1.9-2.8-0.4-4-0.4c-2.1-0.3-3.7,0.9-5,2.5c0.1,0.7,0.4,1.4,1.1,2.1c0.6-0.1,0.9,0,1,0.6l-1.4,0.8c0.4,0.4,0.4,1,0.6,1.5
		c-1,0.4-1.9-1-2.3-1.7c0-1.1,0.1-3.1-1.4-3.3c-0.3,0-1.2,0.4-1.2,0.4c-0.3,0.4-0.6,1.3-0.6,2.3c0,1,0.6,2.5,0.6,2.5
		s4.2,3.1,5.2,5.1c-1.2,2.5-1.2,5.9-4.1,7.3c-0.8,0.5-0.8,1.4-0.8,2.2l0.7,0.6c1.8-1,5.2-1.2,5-4.3c0.7-1.3,1.4-2.6,2.6-3.6
		c1.3-0.3,2.6,0.4,3.1,1.5c-0.4,2.1-1.8,3.5-3.7,4.1c-0.3,0.3-0.1,0.7-0.1,1.1c0.6,1,2,0.6,2.9,0.4c2.4-1.5,3.3-4.3,5.4-5.1
		c0.3,1.4-2.8,1.8-0.8,3.2c1.2-0.3,2.9,0.1,3.7-1.5c-1-2.4,3.3-3.5,0.7-5.5c0-2.1,2.2-2.9,2-5.1c-0.8-2.2-3.4-2.2-4.1-4.3
		C285,155.1,286.2,155.2,287,155.7"/>
	<path d="M186.7,180.8c1.5,0,2.7-1.1,2.7-2.4c0-1.3-1.2-2.4-2.7-2.4c-1.5,0-2.7,1.1-2.7,2.4C183.9,179.8,185.2,180.8,186.7,180.8"/>
	<path d="M45,263.6c1.5,0,2.7-1.2,2.7-2.6c0-1.4-1.2-2.6-2.7-2.6c-1.5,0-2.7,1.2-2.7,2.6C42.3,262.4,43.5,263.6,45,263.6"/>
	<path d="M135.2,283.7H135l-0.2-0.2h0v0.1c0,0.1,0,0.1,0.1,0.1h-0.3c0.1,0,0.1,0,0.1-0.1v-0.3c0-0.1,0-0.1-0.1-0.1v0h0.3
		c0.1,0,0.3,0,0.3,0.1c0,0.1-0.1,0.1-0.1,0.1L135.2,283.7C135.2,283.7,135.2,283.7,135.2,283.7L135.2,283.7z M134.8,283.4
		c0.1,0,0.2,0,0.2-0.1c0-0.1,0-0.1-0.1-0.1c0,0,0,0,0,0V283.4z"/>
	<path d="M135.5,283.3c0,0-0.1-0.1-0.2-0.1c0,0-0.1,0-0.1,0.1c0,0,0,0,0.1,0.1L135.5,283.3c0,0.1,0.1,0.1,0.1,0.2
		c0,0.1-0.1,0.1-0.2,0.1c-0.1,0-0.1,0-0.1,0c0,0,0,0,0,0h0v-0.2h0c0,0.1,0.1,0.2,0.2,0.2c0.1,0,0.1-0.1,0.1-0.1c0,0,0,0-0.1-0.1
		l-0.1,0c-0.2,0-0.2-0.1-0.2-0.2c0,0,0-0.1,0.2-0.1c0.1,0,0.1,0,0.1,0c0,0,0,0,0,0h0L135.5,283.3L135.5,283.3z"/>
	<path d="M136.5,283.2C136.4,283.2,136.4,283.2,136.5,283.2l-0.2,0.5h0l-0.1-0.3l-0.2,0.3h0l-0.2-0.4c0,0,0,0-0.1,0v0h0.3v0
		c0,0-0.1,0-0.1,0v0l0.1,0.3l0.1-0.2l0-0.1c0,0,0,0-0.1,0v0h0.3v0c0,0-0.1,0-0.1,0v0l0.1,0.2l0.1-0.3L136.5,283.2
		c-0.1,0-0.1,0-0.2,0v0L136.5,283.2L136.5,283.2z"/>
	<path d="M136.5,283.7c0.1,0,0.2,0,0.2-0.2c0,0,0,0,0,0h0c0,0-0.2,0-0.2-0.2c0,0,0-0.2,0.2-0.2c0.1,0,0.2,0,0.2,0.2
		C136.9,283.5,136.7,283.7,136.5,283.7L136.5,283.7z M136.7,283.5C136.7,283.5,136.7,283.5,136.7,283.5
		C136.7,283.4,136.7,283.4,136.7,283.5c0.1-0.2,0-0.3,0-0.3c-0.1,0-0.1,0.1-0.1,0.1C136.6,283.4,136.6,283.5,136.7,283.5"/>
	<path d="M137,283.3c0.1,0,0.1,0,0.2,0c0,0,0.1,0.1,0.1,0.1c0,0.1-0.1,0.2-0.3,0.2c-0.1,0-0.1,0-0.1,0c0,0,0-0.1,0-0.1
		c0.1,0,0.1,0.1,0.2,0.1c0,0,0.1,0,0.1-0.1c0,0-0.1-0.1-0.1-0.1c-0.1,0-0.1,0-0.2,0l0.1-0.3h0.3l0,0.1L137,283.3L137,283.3z"/>
	<path d="M301.7,88.2L301.7,88.2l-100.8,0v0h0l0.1,77c0,7.9,3.3,14.7,7.9,16.9l38.8,24.6c0.9,1,2.1,1.6,3.6,1.6
		c1.2,0,2.3-0.5,3.1-1.2l39.4-25c4.6-2.1,7.9-9,7.9-16.9L301.7,88.2L301.7,88.2z M298.9,166.3c-0.5,5.8-2.5,10.7-6.5,13.4l-38,24.1
		h-0.2c-0.8,0.6-1.8,1-2.9,1c-1.2,0-2.2-0.4-3-1.1l-37.9-24.1c-4-2.7-6-7.6-6.5-13.4V90.9h95.1V166.3z"/>
	<path d="M264.9,200.5l1.2-0.6C265.6,200.1,265.3,200.3,264.9,200.5"/>
	<path d="M188.9,305.8l-9.5,1.1l-0.1-0.6c1.8-0.4,2.3-0.4,2.2-1.3c-0.1-0.7-1.2-2.4-1.7-3.1l-6.6,0.8c-0.6,1.9-1,2.9-0.9,3.3
		c0.1,0.9,1.5,0.8,2.5,0.8l0.1,0.6l-5.9,0.7l-0.1-0.6c1.5-0.4,1.9-1.3,2.5-3.2l5-14.2l0.8-0.1l8,12.2c1.6,2.5,2.2,3.3,3.6,3.1
		L188.9,305.8z M179.3,301l-3.6-5.6l-2.1,6.3L179.3,301z"/>
	<path d="M355.8,269.7c-1.7-4.5-5.3-7.6-9.8-9c-4.7-1-9.6-0.3-12.6,3.2c-5.2,4.2-1.6,11.2-1.4,16.9c0,1.2,0.1,2-1,2.6
		c-21-1.9-40.5-7.1-61.3-9.3c-4.8-0.9-9.6-0.6-14.1-1.6l-5.8-0.6c-18.1,0.6-36.2,1.6-53.1,6c-3.6,1.1-7.7,1.5-11.3,2.8
		c-2.6-0.4-4.8,1.5-7.2,0.7l-4.8,1.1c-0.4,0.1-1,0.1-1.6-0.1c-2.3-6,4.6-9.6,2.5-15.4c-1.9-3.3-5.6-6.5-10-6
		c-4.9-0.6-9.3,2.2-11.6,6c-3.3,7.3,0.9,14.9,2.2,22c-0.3,2.3,2.3,4.9,0,6.8c-4.6-3.2-10.7-4.9-16.3-3.4c-1.7,0.9-4.9-0.3-5.8,1.8
		c6.2,3.3,14.2,2.9,21.1,2.6c0.9-0.3,1.4-0.5,2.2,0.1c0.6,3.8-0.7,8.9,1.6,12.3c2.6,3.5,6.9,4.4,11.1,4.8
		c13.3-0.4,25.2-4.4,37.3-7.4c1.9-0.1,3.3-1.1,5.3-1.1c6.5-1.5,13.6-2.6,20.5-2.8c-3,3.9-4.8,8.3-6.1,13.1c-1.7,3.9,3,4.5,4.5,6.7
		c-4.5,1.3-7.7,4.4-11.9,6.1c-9.2-0.3-17.1,3.2-25.7,4.2c-0.1,1.9,3,1.3,3.3,3.2c-0.4,1.3-1.7,1.5-2.8,2.2c-0.1,0.9,0,1,0.9,1.2
		c0.9-1,2.7-0.3,3.6-1.3c2.9,0,5.3-0.9,8.1-1c2.5-1,5.2-1.2,7.4-2.9c3-0.9,4.9-2.9,8-3.8c4.3,0,8.2-1.4,12.3-1.7v0.9
		c-3.3,5.4-6.8,10.9-10.3,16c-0.6,1,0.1,2.1,1,2.3c2,0.6,4,0,5.6-0.9c3.1-5.2,5.8-10.2,8.2-15.6c1-5,4.6-7.6,8.2-10.9
		c0.6-0.3,1.5-1.2,2-0.3c-2.9,3.3-4.8,6.6-6.9,10.2c-1.2,4.1-1.5,9.3,2.2,12.7c1.7,1.5,4.3,1,6.7,1.2c5.6-2.9,12.9,1.7,17.2-3.8
		c2.6-0.5,3,2.6,4.5,4.1c2.4,0.7,5,3.2,7.5,1.5c-0.1-1.6-1.9-3-2.7-4.5c-1.7-3-3.9-5.5-5.5-8.3c-0.7-2-2-3.4-2.3-5.4
		c2.6,0.9,4.9,2.6,7.8,3.1c2.5,1,5.5,0.9,7.8,2.3c1.9,2.5,4.8,3.9,7.2,5.5c3.6,1.8,7.7,2,11.4,3.5c1.5,0.2,3.6,1.3,4.6,0
		c-0.6-0.7-1.3-1.2-2.2-1.6c-0.5-1.9,2.6-0.9,3.6-2.3c-0.4-0.7-1-1-1.7-1.1c-2.1-1.1-7.2-1.5-8.6-2.3c-1.7-0.3-3.3-1-5.1-1.6
		c-8.7,0-13.4-7.9-20.4-10.8c1.6-1.5,4.1-2.6,5.1-4.8c1.3-2,1.7-5.4,0.4-7.7c-1.3-4.5-7.1-3.9-10.4-6.4l0.4-0.4
		c5.6-0.3,10.6,1,15.6,2c13.9,1.9,26.8,7.2,41.2,7.4c7.9,0,17.9,0.4,21.8-7.3c0.7-4.5,1.6-9,2.3-13.5
		C351.8,284.4,356.5,277.7,355.8,269.7 M199.6,336.1l-2-1.9c1-1.3,3.2-0.6,4.8-1.4c3.8-1.2,8.1-2.6,12.3-1.8
		C210.3,334.5,204.7,334.9,199.6,336.1 M289.9,333.8c3.4,1.6,10.4,3.1,15.4,3.7c-0.5,2-4,0.1-3.6,2.9c-4.5-1.8-9.7-2.7-13-6.1
		C289,334.1,289.3,333.6,289.9,333.8 M154.2,271.9c0.4-2.6,1-5.4,3.5-7.3c3.5-1.9,8.2-1.5,11.4,0.4c1,0.6,1.7,1.5,2.3,2.7
		c0.7,2.5-0.4,5.1-2.2,6.6h-1.5c0-2.3,0-4.7,0.9-6.6c-0.1-1.7-1.6-1.9-2.7-2.6c-2.5-0.7-4.6,0.5-6.5,1.4c-1.5,1.8-2.7,3.9-1.9,6.4
		c1,1.6,0.1,3.8,0.7,5.5l-0.4,0.6C156.1,277.2,153.8,275.2,154.2,271.9 M161,276c2.2,1.6,5.2,0.9,7.8,1.3c0.4,1.6,0.4,3.6-0.7,4.9
		c-2.5-0.6-5.6-0.3-6.9-2.6C161.4,278.7,160.7,277.2,161,276 M160.6,271.1c0.4-1.2,0-2.9,1.6-3.2c1-0.3,2.6-0.3,2.7,0.9
		c-0.2,1.7-0.3,3.5-0.7,5.1C162.2,274,161.1,272.9,160.6,271.1 M228.4,317.9c-0.7-5.1,1.3-9.5,4.6-13.1c2-0.4,4.3-0.9,6.2,0.3
		c-3.8,1-8.5,1.9-9.4,6.7c0.2,1.9-0.4,2.9,0.4,4.5c1.6,2.8,5.2,1.6,7.2,3.8c0,0.7-0.6,1.6-1.3,1.8
		C233.7,320.4,230.7,319.8,228.4,317.9 M223.2,327.9c3.5-1.4,7.1-4.5,11-3.2C231.4,326.9,227,327.8,223.2,327.9 M236.9,329.4
		c-2,4.7-4.3,9.2-7.1,13.7c-0.3,0.7-1.5,0.9-2.3,1c0-2.1,2-3.7,2.9-5.4c3-3.9,3.9-8.1,7.4-11.9C238.7,327.6,236.9,328.2,236.9,329.4
		 M240.5,321v0.6h-0.3V321v-0.1h0.6c-0.2,0-0.4,0-0.6,0.1H240.5z M239.2,317c-2.5-0.3-4.8-1-7-1.8c-1.4-1.5,0-3,0-4.6
		c2-3.2,7.8-4.8,10.6-1.9C242.4,311.9,241.3,314.7,239.2,317 M242.4,317c0.4-1.9,1.3-4.4,2.3-6.1C244.6,312.8,243.7,315.4,242.4,317
		 M244,305.2c-1.9-0.4-2.9-2.6-4.9-2.6c1.7-0.6,3.5-0.4,5.5-0.1C245.3,303.5,244.2,304.3,244,305.2 M245.7,309.6h-0.1V308h0.1V309.6
		z M245.9,316.3c-0.1-0.6,0.3-1.3,0.4-2c0.7-0.7,1.5,0.6,1.8,1C247.6,316,246.8,316.4,245.9,316.3 M248.1,307.3
		c0.7-2,0.9-3.8,2.2-5.4c1.4,0,2.7,0,3.9,0.6c0.3,2.9,3.9,6.8,0,9.3c-1.3,0.6-3.2,1.9-4.6,0.6C247.6,310.7,247.3,309.3,248.1,307.3
		 M258.6,303.2c-0.3-1.3,1.3-0.3,1.9-0.9l4.5,0.3C262.7,302.3,259.8,307.7,258.6,303.2 M265.8,305.1c-1.7,0.6-3,2.6-4.8,3.1
		C261.9,306.5,264.1,304.9,265.8,305.1 M259.8,314.5h-0.1v-0.4h0.1V314.5z M260.1,323c-0.1,0.3,0.1,0.7-0.3,1l-3.3-2.6
		C258,321.1,259.2,321.8,260.1,323 M256.2,318.5c0.3-0.3,1-0.3,1.3,0H256.2z M254.1,316.3c0.6-0.9,1.3-2.2,2.3-2.2
		c0,0.2,0.1,0.3,0.3,0.4C255.9,315.3,255.1,316,254.1,316.3 M250.8,316h-0.6l0.9-0.9C251.5,315.4,251,315.7,250.8,316 M251.3,321.5
		c1.8-2,3.6,1.2,4.3,2.8c2.2,3.2,7.8,6.1,5.6,10.5c-2.7,2.5-7.1,0.2-10.1,2.1c-1.6-0.2-4.4,0.3-5.2-1.3
		C247.5,330.9,248.9,325.6,251.3,321.5 M247.2,324.3l0.7-1.2c-1.2,3.5-2.9,7.1-4.8,10.5C242.3,330.1,245.9,327.4,247.2,324.3
		 M253.6,341.6c-2.8,0.1-7,1.7-9.6-0.6c0.2-1.2-1.2-1.7-1-2.9c2.3-0.9,4.3,1.9,6.5-0.1c3.3,0.1,6.8-0.4,10.1,0.3
		c1.6,0.4,4-2.6,4.3,0.4C262.8,343.5,257,340.2,253.6,341.6 M261.9,320.2h0.3v0.4h-0.3V320.2z M262.8,329.8c0.1,1.5,1.6,2.1,0.7,3.4
		C263.3,332.6,262.4,331.3,262.8,329.8 M266.9,338.6l-0.7,0.3c-0.7-0.6-0.4-2.2-0.3-3.1C266.7,336.5,267.4,337.6,266.9,338.6
		 M274.1,342c-0.2,0.4-0.9,0.4-1.2,0.2c-4.3-5.6-6.4-11.4-9.1-17.5l0.6-0.2C267.9,330.3,270.6,336.5,274.1,342 M279.4,328.7
		c-0.3,0.1-0.3,0.4-0.3,0.6c-4.2,0.1-6.9-2.3-10.1-4.5l-0.1-0.8C272.8,324.3,276,326.8,279.4,328.7 M275.7,309.3
		c1.7,0.4,1.9,2.3,2,3.8c-0.1,3.2-1.9,6-4.9,7.1c-1.6,0.9-4,1.2-5.6,0.6c3.5-0.2,7.2-1.5,8.7-5L275.7,309.3z M272.5,308.7
		c0.7,2,2,3.9,1.3,6.4c-1.5,2.8-4.4,2.8-7,3.4c-1.3,0.1-2.3-0.3-3.3-1c0.1-0.6-0.2-1-0.6-1.5c0.4-1.9-3.3-3.8-0.7-5.4
		C264.5,308.4,270,303.5,272.5,308.7 M346,298.1c-1.2,1.5-0.2,3.8-1.6,5.1c0,2.6-2.1,3.9-4,5c-17.2,3.8-34.1-2.1-50.8-5
		c-23.3-5.1-50.5-6.5-74.2-1.2c-11.1,2-22,4.7-32.7,7.7c-6.7,0.9-13.9,1.9-20.3-0.1c-5.2-2.5-3-9.2-4.6-13.8c0.3-3.7-1-6.6-1.1-10.1
		c-0.4-1.2-0.7-2.6-0.6-3.8c2.2,0.3,4.3,1.9,6.7,2.5c12.1,2.3,23-1.6,34.3-3.6c10.8-2.3,22-4.2,33.4-5.1c13-0.1,26.3-0.9,38.8,1.3
		c4.1,0.2,7.5,1.2,11.4,1.5c8.1,1,15.6,3.2,23.9,3.8c1.3,0.4,2.9,0.4,4.3,0.7c13,2,27.6,5.7,40.1,0C348.9,288.2,346.7,293,346,298.1
		 M341.9,280.3c0.1,2.3-2,1.8-3.2,2.6h-3.5c-0.7-1.2-0.4-2.9-0.4-4.1C337.1,279.3,339.7,279.3,341.9,280.3 M340.3,276.7
		c1.6-1.6-0.5-10.8,4-4.8c0,1.2,0.1,2.9-1,3.8C342.6,276.2,341.5,277.4,340.3,276.7 M352,275.2c-1.3,2.6-3.3,4.5-6.2,4.9
		c0.2-3.5,3.3-6,2.2-9.9c-1.9-2.8-5.6-3.7-9.1-2.9c-1.3,0.9-0.7,2.3-1.2,3.6l-0.6,4.8c-2.9,0-3-2.6-3.9-4.7c0.2-3.1,1.5-6.1,4.5-7.6
		c2.3-1.2,6.1-1,8.4,0.3c1.9,0.4,4.1,1.3,4.8,3.1C353,268.9,352.5,272.6,352,275.2"/>
	<rect x="528" y="217.5" width="907" height="4.5"/>
	<path d="M527.8,322.7v-1.6h1.9c1.7,0,3-0.3,3.9-0.8c0.9-0.5,1.6-1.3,2-2.2c0.3-0.6,0.4-2.4,0.4-5.4v-38.3c0-3-0.2-4.8-0.5-5.6
		c-0.3-0.7-1-1.4-1.9-2c-1-0.6-2.3-0.8-3.9-0.8h-1.9v-1.6h26.1c7,0,12.6,0.9,16.8,2.8c5.2,2.3,9.1,5.8,11.8,10.5
		c2.7,4.7,4,10,4,15.9c0,4.1-0.7,7.9-2,11.3c-1.3,3.4-3,6.3-5.1,8.5c-2.1,2.2-4.5,4.1-7.2,5.4c-2.7,1.4-6.1,2.4-10,3.2
		c-1.8,0.3-4.5,0.5-8.2,0.5H527.8z M550,267.7v45.5c0,2.4,0.1,3.9,0.3,4.4c0.2,0.6,0.6,1,1.2,1.2c0.8,0.4,1.9,0.6,3.3,0.6
		c4.8,0,8.4-1.6,11-4.9c3.4-4.4,5.2-11.3,5.2-20.5c0-7.5-1.2-13.5-3.5-17.9c-1.9-3.5-4.3-5.9-7.2-7.1
		C558.2,268.1,554.8,267.7,550,267.7"/>
	<path d="M625.4,301.1h-22.1c0.3,5.3,1.7,9.5,4.3,12.6c2,2.4,4.4,3.6,7.1,3.6c1.7,0,3.3-0.5,4.7-1.4c1.4-1,2.9-2.7,4.5-5.2l1.5,0.9
		c-2.2,4.4-4.6,7.6-7.2,9.4c-2.6,1.8-5.7,2.8-9.2,2.8c-6,0-10.5-2.3-13.5-6.9c-2.5-3.7-3.7-8.3-3.7-13.8c0-6.7,1.8-12,5.4-16
		c3.6-4,7.9-6,12.7-6c4.1,0,7.6,1.7,10.6,5C623.6,289.6,625.2,294.6,625.4,301.1 M614.8,298.2c0-4.6-0.3-7.8-0.8-9.5
		c-0.5-1.7-1.3-3-2.3-3.9c-0.6-0.5-1.4-0.8-2.4-0.8c-1.5,0-2.7,0.7-3.7,2.2c-1.7,2.5-2.5,6-2.5,10.5v1.5H614.8z"/>
	<path d="M644.2,318.6v15c0,2.1,0.2,3.5,0.5,4.2c0.3,0.8,0.8,1.3,1.5,1.6c0.7,0.3,2,0.5,4,0.5v1.6h-22.9v-1.6
		c1.8-0.1,3.1-0.6,3.9-1.5c0.6-0.7,0.9-2.4,0.9-5.1v-42.4c0-2.8-0.3-4.6-1-5.4c-0.7-0.8-1.9-1.2-3.8-1.4v-1.6h16.8v5.3
		c1.4-2.1,2.8-3.5,4.3-4.5c2.1-1.3,4.4-2,6.8-2c2.9,0,5.6,0.9,8.1,2.8c2.4,1.9,4.3,4.4,5.5,7.7c1.3,3.3,1.9,6.8,1.9,10.6
		c0,4.1-0.6,7.8-2,11.1c-1.3,3.4-3.2,5.9-5.7,7.7c-2.5,1.8-5.2,2.6-8.3,2.6c-2.2,0-4.3-0.5-6.2-1.5
		C647.3,321.7,645.8,320.4,644.2,318.6 M644.2,314.2c2.5,3.5,5.1,5.2,7.9,5.2c1.5,0,2.8-0.8,3.8-2.5c1.5-2.4,2.2-7,2.2-13.7
		c0-6.9-0.8-11.7-2.5-14.2c-1.1-1.7-2.5-2.5-4.4-2.5c-2.9,0-5.3,2.1-7.1,6.3V314.2z"/>
	<path d="M698,316.7c-4.9,4.3-9.3,6.5-13.2,6.5c-2.3,0-4.2-0.8-5.7-2.3c-1.5-1.5-2.3-3.4-2.3-5.7c0-3.1,1.3-5.8,3.9-8.3
		c2.6-2.5,8.4-5.7,17.2-9.8v-4c0-3-0.2-5-0.5-5.7c-0.3-0.8-1-1.5-1.9-2.1c-0.9-0.6-1.9-0.9-3.1-0.9c-1.9,0-3.4,0.4-4.6,1.2
		c-0.7,0.5-1.1,1.1-1.1,1.8c0,0.6,0.4,1.3,1.2,2.2c1.1,1.2,1.6,2.4,1.6,3.6c0,1.4-0.5,2.6-1.6,3.6c-1,1-2.4,1.5-4.1,1.5
		c-1.8,0-3.3-0.5-4.5-1.6c-1.2-1.1-1.8-2.4-1.8-3.8c0-2.1,0.8-4,2.5-5.9c1.6-1.9,3.9-3.3,6.8-4.3c2.9-1,6-1.5,9.1-1.5
		c3.8,0,6.8,0.8,9,2.4c2.2,1.6,3.7,3.4,4.3,5.3c0.4,1.2,0.6,4,0.6,8.3v15.6c0,1.8,0.1,3,0.2,3.5c0.1,0.5,0.4,0.8,0.6,1.1
		c0.3,0.2,0.6,0.3,1,0.3c0.7,0,1.5-0.5,2.3-1.6l1.3,1c-1.4,2.1-2.9,3.7-4.4,4.6c-1.5,1-3.3,1.4-5.2,1.4c-2.3,0-4.1-0.5-5.4-1.6
		C699.1,320.5,698.3,318.9,698,316.7 M698,313.6v-13.5c-3.5,2-6,4.2-7.7,6.5c-1.1,1.5-1.7,3.1-1.7,4.7c0,1.3,0.5,2.5,1.4,3.5
		c0.7,0.8,1.7,1.2,3,1.2C694.5,316,696.1,315.2,698,313.6"/>
	<path d="M734.8,282.5v9.1c2.7-4.2,5-6.9,7-8.3c2-1.4,3.9-2,5.8-2c1.6,0,2.9,0.5,3.8,1.5c1,1,1.4,2.4,1.4,4.2c0,1.9-0.5,3.4-1.4,4.5
		c-0.9,1.1-2.1,1.6-3.4,1.6c-1.5,0-2.8-0.5-4-1.5c-1.1-1-1.8-1.5-2-1.6c-0.3-0.2-0.6-0.3-1-0.3c-0.8,0-1.6,0.3-2.4,0.9
		c-1.2,1-2.1,2.4-2.7,4.2c-0.9,2.8-1.4,5.9-1.4,9.2v9.2l0,2.4c0,1.6,0.1,2.7,0.3,3.1c0.3,0.8,0.8,1.3,1.5,1.7
		c0.7,0.4,1.8,0.6,3.4,0.7v1.5h-21.7v-1.5c1.8-0.1,2.9-0.6,3.5-1.4c0.6-0.8,0.9-3,0.9-6.5V291c0-2.3-0.1-3.8-0.3-4.4
		c-0.3-0.8-0.7-1.4-1.2-1.8c-0.5-0.4-1.5-0.6-2.9-0.8v-1.6H734.8z"/>
	<path d="M771.3,267.8v14.7h9.5v4.3h-9.5v24.8c0,2.3,0.1,3.8,0.3,4.5c0.2,0.7,0.6,1.2,1.1,1.6c0.5,0.4,1,0.6,1.5,0.6
		c1.9,0,3.6-1.4,5.3-4.3l1.3,0.9c-2.3,5.5-6.1,8.3-11.3,8.3c-2.6,0-4.7-0.7-6.5-2.1c-1.8-1.4-2.9-3-3.4-4.7c-0.3-1-0.4-3.6-0.4-7.9
		v-21.7h-5.3v-1.5c3.6-2.6,6.7-5.2,9.2-8c2.5-2.8,4.7-5.9,6.6-9.4H771.3z"/>
	<path d="M799.6,282.5v5.3c2.2-2.4,4.2-4.1,6.1-5c1.9-1,3.9-1.4,6.2-1.4c2.6,0,4.7,0.6,6.5,1.8c1.8,1.2,3.1,3,4,5.5
		c2.3-2.6,4.5-4.4,6.6-5.6c2.1-1.2,4.3-1.7,6.6-1.7c2.8,0,5,0.6,6.6,1.9c1.6,1.3,2.8,2.9,3.4,4.9c0.6,2,1,5.1,1,9.4v16.5
		c0,3.1,0.3,5,0.8,5.8c0.6,0.7,1.7,1.2,3.5,1.5v1.5h-20.8v-1.5c1.6-0.1,2.8-0.8,3.6-1.9c0.5-0.8,0.8-2.6,0.8-5.3v-17.3
		c0-3.6-0.1-5.9-0.4-6.8c-0.3-1-0.7-1.7-1.4-2.2c-0.6-0.5-1.3-0.7-2.2-0.7c-1.2,0-2.5,0.5-3.7,1.4c-1.3,0.9-2.5,2.3-3.8,4.1v21.6
		c0,2.9,0.2,4.7,0.7,5.5c0.7,1.1,1.9,1.7,3.8,1.8v1.5h-20.8v-1.5c1.1-0.1,2-0.3,2.6-0.8c0.6-0.5,1.1-1.1,1.3-1.8
		c0.2-0.7,0.3-2.2,0.3-4.6v-17.3c0-3.6-0.1-5.9-0.4-6.8c-0.3-0.9-0.8-1.6-1.4-2.1c-0.7-0.5-1.4-0.8-2.2-0.8c-1.2,0-2.2,0.3-3.1,0.9
		c-1.4,0.9-2.8,2.4-4.3,4.6v21.6c0,2.8,0.3,4.7,0.8,5.6c0.6,0.9,1.7,1.4,3.5,1.6v1.5h-20.7v-1.5c1.7-0.2,2.9-0.7,3.6-1.6
		c0.5-0.6,0.7-2.5,0.7-5.6v-22.7c0-3-0.3-4.9-0.8-5.7c-0.6-0.7-1.7-1.2-3.5-1.5v-1.6H799.6z"/>
	<path d="M888.5,301.1h-22.1c0.3,5.3,1.7,9.5,4.3,12.6c2,2.4,4.4,3.6,7.1,3.6c1.7,0,3.3-0.5,4.7-1.4c1.4-1,2.9-2.7,4.5-5.2l1.5,0.9
		c-2.2,4.4-4.6,7.6-7.2,9.4c-2.6,1.8-5.7,2.8-9.2,2.8c-5.9,0-10.5-2.3-13.5-6.9c-2.5-3.7-3.7-8.3-3.7-13.8c0-6.7,1.8-12,5.4-16
		c3.6-4,7.9-6,12.7-6c4.1,0,7.6,1.7,10.6,5C886.7,289.6,888.3,294.6,888.5,301.1 M878,298.2c0-4.6-0.2-7.8-0.7-9.5
		c-0.5-1.7-1.3-3-2.3-3.9c-0.6-0.5-1.4-0.8-2.4-0.8c-1.5,0-2.7,0.7-3.7,2.2c-1.7,2.5-2.5,6-2.5,10.5v1.5H878z"/>
	<path d="M908.2,282.5v5.2c2.1-2.2,4-3.9,5.9-4.9c1.9-1,3.9-1.5,6.1-1.5c2.6,0,4.8,0.7,6.5,2.2c1.7,1.5,2.9,3.2,3.4,5.4
		c0.5,1.6,0.7,4.8,0.7,9.4v15.6c0,3.1,0.3,5,0.8,5.8c0.6,0.8,1.7,1.2,3.5,1.4v1.5h-20.3v-1.5c1.5-0.2,2.6-0.8,3.3-1.9
		c0.5-0.7,0.7-2.5,0.7-5.3V296c0-3.3-0.1-5.4-0.4-6.2c-0.3-0.9-0.7-1.5-1.3-2c-0.6-0.5-1.3-0.7-2-0.7c-2.5,0-4.8,1.8-6.9,5.3v21.5
		c0,3,0.3,4.9,0.8,5.7c0.6,0.8,1.6,1.3,3.1,1.5v1.5h-20.3v-1.5c1.7-0.2,2.9-0.7,3.6-1.6c0.5-0.6,0.7-2.5,0.7-5.6v-22.7
		c0-3-0.3-4.9-0.8-5.7c-0.6-0.7-1.7-1.2-3.5-1.5v-1.6H908.2z"/>
	<path d="M954.9,267.8v14.7h9.5v4.3h-9.5v24.8c0,2.3,0.1,3.8,0.3,4.5c0.2,0.7,0.6,1.2,1.1,1.6c0.5,0.4,1,0.6,1.5,0.6
		c1.9,0,3.6-1.4,5.3-4.3l1.3,0.9c-2.3,5.5-6.1,8.3-11.3,8.3c-2.6,0-4.7-0.7-6.5-2.1c-1.8-1.4-2.9-3-3.4-4.7c-0.3-1-0.4-3.6-0.4-7.9
		v-21.7h-5.2v-1.5c3.6-2.6,6.7-5.2,9.2-8c2.5-2.8,4.7-5.9,6.6-9.4H954.9z"/>
	<path d="M1005.7,281.3c3.5,0,6.7,0.9,9.8,2.7c3,1.8,5.3,4.4,6.9,7.7c1.6,3.3,2.3,7,2.3,10.9c0,5.7-1.4,10.5-4.3,14.3
		c-3.5,4.6-8.3,7-14.5,7c-6,0-10.7-2.1-14-6.4c-3.3-4.2-4.9-9.2-4.9-14.7c0-5.8,1.7-10.8,5-15.1
		C995.3,283.4,999.9,281.3,1005.7,281.3 M1005.9,284.3c-1.5,0-2.7,0.6-3.8,1.7c-1.1,1.1-1.7,3.3-2.1,6.5c-0.3,3.2-0.5,7.8-0.5,13.6
		c0,3.1,0.2,5.9,0.6,8.6c0.3,2,1,3.6,2,4.6c1,1.1,2.2,1.6,3.5,1.6c1.3,0,2.4-0.4,3.2-1.1c1.1-1,1.9-2.3,2.2-4.1
		c0.6-2.7,0.9-8.2,0.9-16.5c0-4.9-0.3-8.2-0.8-10c-0.5-1.8-1.3-3.1-2.4-4C1008.1,284.6,1007.1,284.3,1005.9,284.3"/>
	<path d="M1046.6,286.7v27.9c0,2.7,0.3,4.4,0.9,5.1c0.9,1.1,2.6,1.5,5.1,1.5v1.5h-23.7v-1.5c1.8,0,3.1-0.2,3.8-0.6
		c0.8-0.4,1.3-0.9,1.6-1.6c0.3-0.7,0.4-2.1,0.4-4.3v-27.9h-5.8v-4.2h5.8v-3l0-2c0-4.1,1.5-7.6,4.5-10.3c3-2.7,7.1-4.1,12.3-4.1
		c3.5,0,6.1,0.7,7.8,2c1.7,1.3,2.6,2.8,2.6,4.4c0,1.3-0.5,2.4-1.6,3.4c-1.1,0.9-2.5,1.4-4.2,1.4c-1.5,0-2.7-0.4-3.5-1.2
		c-0.9-0.8-1.3-1.6-1.3-2.6c0-0.3,0.1-0.8,0.3-1.6c0.1-0.5,0.2-0.9,0.2-1.4c0-0.6-0.2-1-0.5-1.3c-0.5-0.4-1-0.6-1.7-0.6
		c-0.8,0-1.5,0.3-2.1,1c-0.6,0.7-0.8,1.8-0.8,3.3l0.1,7.5v5.1h5.9v4.2H1046.6z"/>
	<path d="M1106.1,321.1v1.6h-30.5v-1.6h1.9c1.7,0,3-0.3,4.1-0.9c0.8-0.4,1.3-1.1,1.7-2.1c0.3-0.7,0.5-2.5,0.5-5.4v-38.3
		c0-3-0.2-4.8-0.5-5.6c-0.3-0.7-1-1.4-1.9-2c-1-0.6-2.3-0.8-3.9-0.8h-1.9v-1.6h30.5v1.6h-1.9c-1.7,0-3,0.3-4.1,0.9
		c-0.7,0.4-1.3,1.1-1.8,2.1c-0.3,0.7-0.5,2.5-0.5,5.4v38.3c0,3,0.2,4.8,0.5,5.6c0.3,0.7,1,1.4,1.9,2c1,0.6,2.3,0.8,3.9,0.8H1106.1z"
		/>
	<path d="M1125.7,282.5v5.2c2.1-2.2,4-3.9,5.9-4.9c1.9-1,3.9-1.5,6.1-1.5c2.6,0,4.8,0.7,6.5,2.2c1.7,1.5,2.9,3.2,3.4,5.4
		c0.5,1.6,0.7,4.8,0.7,9.4v15.6c0,3.1,0.3,5,0.8,5.8c0.6,0.8,1.7,1.2,3.5,1.4v1.5h-20.3v-1.5c1.5-0.2,2.6-0.8,3.3-1.9
		c0.5-0.7,0.7-2.5,0.7-5.3V296c0-3.3-0.1-5.4-0.4-6.2c-0.3-0.9-0.7-1.5-1.3-2c-0.6-0.5-1.3-0.7-2-0.7c-2.5,0-4.8,1.8-6.9,5.3v21.5
		c0,3,0.3,4.9,0.8,5.7c0.6,0.8,1.6,1.3,3.1,1.5v1.5h-20.3v-1.5c1.7-0.2,2.9-0.7,3.6-1.6c0.5-0.6,0.7-2.5,0.7-5.6v-22.7
		c0-3-0.3-4.9-0.8-5.7c-0.6-0.7-1.7-1.2-3.5-1.5v-1.6H1125.7z"/>
	<path d="M1195.5,264.4v46.2c0,3.1,0.1,5,0.3,5.5c0.2,0.9,0.7,1.6,1.3,2.1c0.6,0.5,1.8,0.7,3.4,0.9v1.4l-17,3.3v-6.4
		c-2,2.5-3.8,4.1-5.4,5c-1.6,0.9-3.4,1.3-5.4,1.3c-5.1,0-9.2-2.3-12.2-6.9c-2.4-3.7-3.6-8.3-3.6-13.7c0-4.3,0.7-8.2,2.2-11.6
		c1.5-3.4,3.5-6,6.1-7.8c2.6-1.8,5.4-2.6,8.4-2.6c1.9,0,3.6,0.4,5.1,1.1c1.5,0.7,3.1,2.1,4.8,3.9v-12.1c0-3.1-0.1-4.9-0.4-5.5
		c-0.3-0.8-0.9-1.4-1.5-1.8c-0.7-0.4-2-0.6-3.9-0.6v-1.8H1195.5z M1183.5,291.6c-2.1-4.1-4.7-6.1-7.8-6.1c-1.1,0-1.9,0.3-2.6,0.9
		c-1.1,0.9-1.9,2.5-2.6,4.7c-0.7,2.2-1,5.6-1,10.3c0,5.1,0.4,8.8,1.1,11.3c0.7,2.4,1.8,4.2,3,5.3c0.7,0.5,1.6,0.8,2.7,0.8
		c2.5,0,4.9-2,7.1-5.9V291.6z"/>
	<path d="M1242.5,282.5v31.5c0,3.1,0.3,5,0.9,5.7c0.6,0.8,1.7,1.2,3.5,1.4v1.5h-16.4v-5.4c-1.9,2.3-3.8,4-5.8,5
		c-1.9,1-4.1,1.6-6.5,1.6c-2.3,0-4.3-0.7-6-2.1c-1.8-1.4-2.9-3-3.5-4.9c-0.6-1.9-0.9-5.1-0.9-9.7v-15.9c0-3-0.3-4.9-0.8-5.7
		c-0.6-0.7-1.7-1.2-3.5-1.5v-1.6h16.4v27.5c0,2.9,0.1,4.7,0.4,5.6c0.3,0.8,0.7,1.5,1.3,1.9c0.6,0.4,1.3,0.6,2.1,0.6
		c1,0,2-0.3,2.8-0.8c1.2-0.7,2.5-2.2,4.1-4.5v-21.5c0-3-0.3-4.9-0.8-5.7c-0.6-0.7-1.7-1.2-3.5-1.5v-1.6H1242.5z"/>
	<path d="M1276.2,281.4l0.6,13.7h-1.5c-1.7-4.1-3.6-6.8-5.4-8.3c-1.9-1.5-3.8-2.2-5.6-2.2c-1.2,0-2.2,0.4-3,1.2
		c-0.8,0.8-1.2,1.7-1.2,2.7c0,0.8,0.3,1.5,0.9,2.2c0.9,1.2,3.5,3.2,7.7,6c4.2,2.9,7,5.3,8.3,7.3c1.3,2,2,4.2,2,6.7
		c0,2.2-0.6,4.4-1.7,6.6c-1.1,2.1-2.7,3.8-4.7,4.9c-2,1.2-4.3,1.7-6.8,1.7c-1.9,0-4.5-0.6-7.7-1.8c-0.9-0.3-1.5-0.5-1.8-0.5
		c-0.9,0-1.7,0.7-2.4,2.1h-1.4l-0.7-14.4h1.5c1.3,3.8,3.1,6.6,5.3,8.5c2.3,1.9,4.4,2.8,6.4,2.8c1.4,0,2.5-0.4,3.4-1.3
		c0.9-0.8,1.3-1.9,1.3-3.1c0-1.4-0.4-2.6-1.3-3.6c-0.9-1-2.8-2.5-5.8-4.6c-4.4-3-7.2-5.4-8.5-7c-1.9-2.3-2.8-4.9-2.8-7.8
		c0-3.1,1.1-5.9,3.2-8.4c2.1-2.5,5.2-3.8,9.3-3.8c2.2,0,4.3,0.5,6.3,1.6c0.8,0.4,1.4,0.6,1.9,0.6c0.5,0,0.9-0.1,1.2-0.3
		c0.3-0.2,0.8-0.8,1.5-1.8H1276.2z"/>
	<path d="M1299.3,267.8v14.7h9.5v4.3h-9.5v24.8c0,2.3,0.1,3.8,0.3,4.5c0.2,0.7,0.6,1.2,1.1,1.6c0.5,0.4,1,0.6,1.5,0.6
		c1.9,0,3.6-1.4,5.3-4.3l1.3,0.9c-2.3,5.5-6.1,8.3-11.3,8.3c-2.6,0-4.7-0.7-6.5-2.1c-1.8-1.4-2.9-3-3.4-4.7c-0.3-1-0.4-3.6-0.4-7.9
		v-21.7h-5.2v-1.5c3.6-2.6,6.7-5.2,9.2-8c2.5-2.8,4.7-5.9,6.6-9.4H1299.3z"/>
	<path d="M1327.6,282.5v9.1c2.7-4.2,5-6.9,7-8.3c2-1.4,3.9-2,5.8-2c1.6,0,2.9,0.5,3.8,1.5c1,1,1.4,2.4,1.4,4.2
		c0,1.9-0.5,3.4-1.4,4.5c-0.9,1.1-2.1,1.6-3.4,1.6c-1.5,0-2.8-0.5-3.9-1.5s-1.8-1.5-2-1.6c-0.3-0.2-0.6-0.3-1-0.3
		c-0.8,0-1.6,0.3-2.4,0.9c-1.2,1-2.1,2.4-2.7,4.2c-0.9,2.8-1.4,5.9-1.4,9.2v9.2l0,2.4c0,1.6,0.1,2.7,0.3,3.1
		c0.3,0.8,0.8,1.3,1.5,1.7c0.7,0.4,1.8,0.6,3.4,0.7v1.5h-21.7v-1.5c1.8-0.1,2.9-0.6,3.5-1.4c0.6-0.8,0.9-3,0.9-6.5V291
		c0-2.3-0.1-3.8-0.3-4.4c-0.3-0.8-0.7-1.4-1.3-1.8c-0.5-0.4-1.5-0.6-2.9-0.8v-1.6H1327.6z"/>
	<path d="M1366.6,324.3l-13-29.8c-1.9-4.5-3.4-7.3-4.3-8.3c-0.9-1-2.1-1.7-3.4-2.1v-1.6h21.4v1.6c-1.4,0.1-2.4,0.3-3,0.8
		c-0.6,0.5-0.9,1.1-0.9,1.8c0,1.1,0.7,3.2,2.1,6.4l6.9,15.7l4.7-12.2c1.7-4.3,2.5-7.3,2.5-9c0-1.1-0.4-1.9-1.1-2.5
		c-0.7-0.6-1.9-1-3.7-1v-1.6h13.4v1.6c-1.3,0.1-2.4,0.6-3.2,1.5c-0.8,0.9-2.2,3.8-4.2,8.9l-11.5,29.8c-2.9,7.4-5,12-6.5,13.8
		c-2,2.4-4.5,3.6-7.4,3.6c-2.4,0-4.3-0.7-5.8-2c-1.5-1.4-2.2-3-2.2-4.9c0-1.7,0.5-3,1.5-4.1c1-1.1,2.3-1.6,3.8-1.6
		c1.4,0,2.6,0.5,3.5,1.4c0.9,0.9,1.3,2.3,1.4,4.3c0,1.1,0.2,1.8,0.4,2.1c0.2,0.3,0.6,0.5,1,0.5c0.7,0,1.4-0.4,2.2-1.2
		c1.2-1.2,2.5-4,4-8.3L1366.6,324.3z"/>
	<path d="M1387,338.1v-1.9c3.3-1.4,5.7-3.3,7.2-5.6s2.3-4.6,2.3-7c0-0.5-0.1-0.9-0.3-1.1c-0.2-0.2-0.4-0.3-0.6-0.3
		c-0.2,0-0.4,0.1-0.8,0.3c-0.8,0.5-1.9,0.7-3.1,0.7c-1.7,0-3.2-0.7-4.4-2c-1.2-1.3-1.9-2.9-1.9-4.6c0-1.9,0.7-3.5,2.1-5
		c1.4-1.4,3.2-2.2,5.2-2.2c2.5,0,4.6,1,6.3,2.9c1.8,1.9,2.6,4.5,2.6,7.8c0,4.1-1.2,7.7-3.7,10.9
		C1395.5,334.3,1391.9,336.6,1387,338.1"/>
	<path d="M558.8,426.7v1.6h-30.5v-1.6h1.9c1.7,0,3.1-0.3,4.1-0.9c0.7-0.4,1.3-1.1,1.7-2.1c0.3-0.7,0.5-2.5,0.5-5.4V380
		c0-3-0.2-4.8-0.5-5.6c-0.3-0.7-0.9-1.4-1.9-2c-1-0.6-2.3-0.8-3.9-0.8h-1.9V370h30.5v1.6h-1.9c-1.7,0-3,0.3-4.1,0.9
		c-0.7,0.4-1.3,1.1-1.8,2.1c-0.3,0.7-0.5,2.5-0.5,5.4v38.3c0,3,0.2,4.8,0.5,5.6c0.3,0.7,1,1.4,1.9,2c1,0.6,2.3,0.8,3.9,0.8H558.8z"
		/>
	<path d="M578.5,388.1v5.2c2.1-2.2,4-3.9,5.9-4.9c1.9-1,3.9-1.5,6.1-1.5c2.6,0,4.8,0.7,6.5,2.2c1.7,1.5,2.9,3.2,3.4,5.4
		c0.5,1.6,0.7,4.8,0.7,9.4v15.6c0,3.1,0.3,5,0.8,5.8c0.6,0.8,1.7,1.2,3.5,1.4v1.5h-20.3v-1.5c1.5-0.2,2.6-0.8,3.3-1.9
		c0.5-0.7,0.7-2.5,0.7-5.3v-17.9c0-3.3-0.1-5.4-0.4-6.2c-0.3-0.9-0.7-1.5-1.3-2c-0.6-0.5-1.3-0.7-2-0.7c-2.5,0-4.8,1.8-6.9,5.3v21.5
		c0,3,0.3,4.9,0.8,5.7c0.6,0.8,1.6,1.3,3.1,1.5v1.5h-20.3v-1.5c1.7-0.2,2.9-0.7,3.6-1.6c0.5-0.6,0.7-2.5,0.7-5.6v-22.7
		c0-3-0.3-4.9-0.8-5.7c-0.6-0.7-1.7-1.2-3.5-1.5v-1.6H578.5z"/>
	<path d="M625.7,388.1v5.2c2.1-2.2,4-3.9,5.9-4.9c1.9-1,3.9-1.5,6.1-1.5c2.6,0,4.8,0.7,6.5,2.2c1.7,1.5,2.9,3.2,3.4,5.4
		c0.5,1.6,0.7,4.8,0.7,9.4v15.6c0,3.1,0.3,5,0.8,5.8c0.6,0.8,1.7,1.2,3.5,1.4v1.5h-20.3v-1.5c1.5-0.2,2.6-0.8,3.3-1.9
		c0.5-0.7,0.7-2.5,0.7-5.3v-17.9c0-3.3-0.1-5.4-0.4-6.2c-0.3-0.9-0.7-1.5-1.3-2c-0.6-0.5-1.3-0.7-2-0.7c-2.5,0-4.8,1.8-6.9,5.3v21.5
		c0,3,0.3,4.9,0.8,5.7c0.6,0.8,1.6,1.3,3.1,1.5v1.5h-20.3v-1.5c1.7-0.2,2.9-0.7,3.6-1.6c0.5-0.6,0.7-2.5,0.7-5.6v-22.7
		c0-3-0.3-4.9-0.8-5.7c-0.6-0.7-1.7-1.2-3.5-1.5v-1.6H625.7z"/>
	<path d="M675.4,386.9c3.5,0,6.7,0.9,9.8,2.7c3,1.8,5.3,4.4,6.8,7.7c1.6,3.3,2.3,7,2.3,10.9c0,5.7-1.4,10.5-4.3,14.3
		c-3.5,4.6-8.3,7-14.5,7c-6,0-10.7-2.1-14-6.4c-3.3-4.2-4.9-9.2-4.9-14.7c0-5.8,1.7-10.8,5-15.1C665,389,669.6,386.9,675.4,386.9
		 M675.6,389.9c-1.5,0-2.7,0.6-3.8,1.7c-1,1.1-1.7,3.3-2.1,6.5c-0.3,3.2-0.5,7.8-0.5,13.6c0,3.1,0.2,5.9,0.6,8.6c0.3,2,1,3.6,2,4.6
		c1,1.1,2.2,1.6,3.5,1.6c1.3,0,2.4-0.4,3.2-1.1c1.1-1,1.9-2.3,2.2-4.1c0.6-2.7,0.9-8.2,0.9-16.5c0-4.9-0.3-8.2-0.8-10
		c-0.5-1.8-1.4-3.1-2.4-4C677.7,390.2,676.8,389.9,675.6,389.9"/>
	<path d="M716.8,429.5l-13.5-31.2c-1.6-3.8-2.9-6.1-3.8-7.1c-0.7-0.7-1.6-1.2-2.9-1.5v-1.6h21.4v1.6c-1.3,0-2.3,0.2-2.7,0.7
		c-0.7,0.6-1,1.4-1,2.2c0,1.1,0.6,3,1.9,6l6.6,15.1l5.3-13c1.5-3.7,2.3-6.4,2.3-7.9c0-0.9-0.3-1.6-1-2.2c-0.6-0.6-1.8-0.9-3.4-0.9
		v-1.6h13.2v1.6c-1.3,0.2-2.3,0.6-3.1,1.4c-0.8,0.8-2,3-3.6,6.8l-13.4,31.5H716.8z"/>
	<path d="M763.1,422.3c-4.9,4.3-9.3,6.5-13.2,6.5c-2.3,0-4.2-0.8-5.7-2.3c-1.5-1.5-2.3-3.4-2.3-5.7c0-3.1,1.3-5.8,3.9-8.3
		c2.6-2.5,8.4-5.7,17.2-9.8v-4c0-3-0.2-5-0.5-5.7c-0.3-0.8-1-1.5-1.9-2.1c-0.9-0.6-1.9-0.9-3.1-0.9c-1.9,0-3.4,0.4-4.6,1.2
		c-0.7,0.5-1.1,1.1-1.1,1.8c0,0.6,0.4,1.3,1.2,2.2c1.1,1.2,1.6,2.4,1.6,3.6c0,1.4-0.5,2.6-1.6,3.6c-1,1-2.4,1.5-4.1,1.5
		c-1.8,0-3.3-0.5-4.5-1.6c-1.2-1.1-1.8-2.4-1.8-3.8c0-2.1,0.8-4,2.5-5.9c1.6-1.9,3.9-3.3,6.8-4.3c2.9-1,6-1.5,9.1-1.5
		c3.8,0,6.8,0.8,9,2.4c2.2,1.6,3.7,3.4,4.3,5.3c0.4,1.2,0.6,4,0.6,8.3v15.6c0,1.8,0.1,3,0.2,3.5c0.1,0.5,0.4,0.8,0.6,1.1
		c0.3,0.2,0.6,0.3,1,0.3c0.7,0,1.5-0.5,2.3-1.6l1.3,1c-1.4,2.1-2.9,3.7-4.4,4.6c-1.5,1-3.3,1.4-5.2,1.4c-2.3,0-4.1-0.5-5.4-1.6
		C764.2,426.1,763.4,424.5,763.1,422.3 M763.1,419.2v-13.5c-3.5,2-6,4.2-7.7,6.5c-1.1,1.5-1.7,3.1-1.7,4.7c0,1.3,0.5,2.5,1.4,3.5
		c0.7,0.8,1.7,1.2,3,1.2C759.5,421.6,761.2,420.8,763.1,419.2"/>
	<path d="M799.1,373.4v14.7h9.5v4.2h-9.5v24.8c0,2.3,0.1,3.8,0.3,4.5c0.2,0.7,0.6,1.2,1.1,1.6c0.5,0.4,1,0.6,1.5,0.6
		c1.9,0,3.6-1.4,5.3-4.3l1.3,0.9c-2.3,5.5-6.1,8.3-11.3,8.3c-2.6,0-4.7-0.7-6.5-2.1c-1.8-1.4-2.9-3-3.4-4.7c-0.3-1-0.4-3.6-0.4-7.9
		v-21.7h-5.3v-1.5c3.6-2.6,6.7-5.2,9.2-8c2.5-2.8,4.7-5.9,6.6-9.4H799.1z"/>
	<path d="M826.4,388.1v31.8c0,2.8,0.3,4.6,1,5.4c0.7,0.8,1.9,1.2,3.9,1.3v1.5h-21.7v-1.5c1.8-0.1,3.1-0.6,4-1.5
		c0.6-0.7,0.9-2.4,0.9-5.2v-23.5c0-2.8-0.3-4.6-1-5.4c-0.7-0.8-1.9-1.2-3.8-1.3v-1.6H826.4z M820.4,368.6c1.9,0,3.4,0.7,4.7,2
		c1.3,1.3,1.9,2.9,1.9,4.7s-0.7,3.4-2,4.7c-1.3,1.3-2.9,1.9-4.7,1.9c-1.8,0-3.4-0.6-4.7-1.9c-1.3-1.3-1.9-2.9-1.9-4.7
		s0.6-3.4,1.9-4.7C817,369.3,818.5,368.6,820.4,368.6"/>
	<path d="M852.4,386.9c3.5,0,6.7,0.9,9.8,2.7c3,1.8,5.3,4.4,6.9,7.7c1.6,3.3,2.3,7,2.3,10.9c0,5.7-1.4,10.5-4.3,14.3
		c-3.5,4.6-8.3,7-14.5,7c-6,0-10.7-2.1-14-6.4c-3.3-4.2-4.9-9.2-4.9-14.7c0-5.8,1.7-10.8,5-15.1C842,389,846.5,386.9,852.4,386.9
		 M852.5,389.9c-1.5,0-2.7,0.6-3.8,1.7c-1,1.1-1.7,3.3-2.1,6.5c-0.3,3.2-0.5,7.8-0.5,13.6c0,3.1,0.2,5.9,0.6,8.6c0.3,2,1,3.6,2,4.6
		c1,1.1,2.2,1.6,3.5,1.6c1.3,0,2.4-0.4,3.2-1.1c1.1-1,1.9-2.3,2.2-4.1c0.6-2.7,0.9-8.2,0.9-16.5c0-4.9-0.3-8.2-0.8-10
		c-0.5-1.8-1.4-3.1-2.4-4C854.7,390.2,853.7,389.9,852.5,389.9"/>
	<path d="M892.1,388.1v5.2c2.1-2.2,4-3.9,5.9-4.9c1.9-1,3.9-1.5,6.1-1.5c2.6,0,4.8,0.7,6.5,2.2c1.7,1.5,2.9,3.2,3.4,5.4
		c0.5,1.6,0.7,4.8,0.7,9.4v15.6c0,3.1,0.3,5,0.8,5.8c0.6,0.8,1.7,1.2,3.5,1.4v1.5h-20.3v-1.5c1.5-0.2,2.6-0.8,3.3-1.9
		c0.5-0.7,0.7-2.5,0.7-5.3v-17.9c0-3.3-0.1-5.4-0.4-6.2c-0.3-0.9-0.7-1.5-1.3-2c-0.6-0.5-1.3-0.7-2-0.7c-2.5,0-4.8,1.8-6.9,5.3v21.5
		c0,3,0.3,4.9,0.8,5.7c0.6,0.8,1.6,1.3,3.1,1.5v1.5h-20.3v-1.5c1.7-0.2,2.9-0.7,3.6-1.6c0.5-0.6,0.7-2.5,0.7-5.6v-22.7
		c0-3-0.3-4.9-0.8-5.7c-0.6-0.7-1.7-1.2-3.5-1.5v-1.6H892.1z"/>
	<path d="M965.3,422.3c-4.9,4.3-9.3,6.5-13.2,6.5c-2.3,0-4.2-0.8-5.7-2.3c-1.5-1.5-2.3-3.4-2.3-5.7c0-3.1,1.3-5.8,4-8.3
		c2.6-2.5,8.4-5.7,17.2-9.8v-4c0-3-0.2-5-0.5-5.7c-0.3-0.8-1-1.5-1.9-2.1c-0.9-0.6-1.9-0.9-3.1-0.9c-1.9,0-3.4,0.4-4.6,1.2
		c-0.7,0.5-1.1,1.1-1.1,1.8c0,0.6,0.4,1.3,1.2,2.2c1.1,1.2,1.6,2.4,1.6,3.6c0,1.4-0.5,2.6-1.6,3.6c-1,1-2.4,1.5-4.1,1.5
		c-1.8,0-3.3-0.5-4.5-1.6c-1.2-1.1-1.8-2.4-1.8-3.8c0-2.1,0.8-4,2.5-5.9c1.6-1.9,3.9-3.3,6.8-4.3c2.9-1,6-1.5,9.1-1.5
		c3.8,0,6.8,0.8,9,2.4c2.2,1.6,3.7,3.4,4.3,5.3c0.4,1.2,0.6,4,0.6,8.3v15.6c0,1.8,0.1,3,0.2,3.5c0.2,0.5,0.4,0.8,0.6,1.1
		c0.3,0.2,0.6,0.3,1,0.3c0.7,0,1.5-0.5,2.3-1.6l1.3,1c-1.4,2.1-2.9,3.7-4.4,4.6c-1.5,1-3.3,1.4-5.2,1.4c-2.3,0-4.1-0.5-5.4-1.6
		C966.3,426.1,965.5,424.5,965.3,422.3 M965.3,419.2v-13.5c-3.5,2-6,4.2-7.7,6.5c-1.1,1.5-1.7,3.1-1.7,4.7c0,1.3,0.5,2.5,1.4,3.5
		c0.7,0.8,1.7,1.2,3,1.2C961.7,421.6,963.4,420.8,965.3,419.2"/>
	<path d="M1001.7,388.1v5.2c2.1-2.2,4-3.9,5.9-4.9c1.9-1,3.9-1.5,6.1-1.5c2.6,0,4.8,0.7,6.5,2.2c1.7,1.5,2.9,3.2,3.4,5.4
		c0.5,1.6,0.7,4.8,0.7,9.4v15.6c0,3.1,0.3,5,0.8,5.8c0.6,0.8,1.7,1.2,3.5,1.4v1.5h-20.3v-1.5c1.5-0.2,2.6-0.8,3.3-1.9
		c0.5-0.7,0.7-2.5,0.7-5.3v-17.9c0-3.3-0.1-5.4-0.4-6.2c-0.3-0.9-0.7-1.5-1.3-2c-0.6-0.5-1.3-0.7-2-0.7c-2.5,0-4.8,1.8-6.9,5.3v21.5
		c0,3,0.3,4.9,0.8,5.7c0.6,0.8,1.6,1.3,3.1,1.5v1.5h-20.3v-1.5c1.7-0.2,2.9-0.7,3.6-1.6c0.5-0.6,0.7-2.5,0.7-5.6v-22.7
		c0-3-0.3-4.9-0.8-5.7c-0.6-0.7-1.7-1.2-3.5-1.5v-1.6H1001.7z"/>
	<path d="M1071.6,370v46.2c0,3.1,0.1,5,0.3,5.5c0.2,0.9,0.7,1.6,1.3,2.1c0.6,0.5,1.8,0.7,3.4,0.9v1.4l-17,3.3v-6.4
		c-2,2.5-3.8,4.1-5.4,5c-1.6,0.9-3.4,1.3-5.4,1.3c-5.1,0-9.2-2.3-12.2-6.9c-2.4-3.7-3.6-8.3-3.6-13.7c0-4.3,0.7-8.2,2.2-11.6
		c1.5-3.4,3.5-6,6.1-7.8c2.6-1.8,5.4-2.6,8.4-2.6c1.9,0,3.6,0.4,5.1,1.1c1.5,0.7,3.1,2.1,4.8,3.9v-12.1c0-3.1-0.1-4.9-0.4-5.5
		c-0.3-0.8-0.9-1.4-1.5-1.8c-0.7-0.4-2-0.6-3.9-0.6V370H1071.6z M1059.5,397.2c-2.1-4.1-4.7-6.1-7.8-6.1c-1.1,0-1.9,0.3-2.6,0.9
		c-1.1,0.9-1.9,2.5-2.6,4.7c-0.7,2.2-1,5.7-1,10.3c0,5.1,0.4,8.8,1.1,11.3c0.8,2.4,1.8,4.2,3.1,5.3c0.7,0.5,1.6,0.8,2.7,0.8
		c2.5,0,4.9-2,7.1-5.9V397.2z"/>
	<path d="M1138.3,368.7l0.5,19.4h-1.8c-0.8-4.9-2.9-8.8-6.1-11.8c-3.2-3-6.8-4.4-10.5-4.4c-2.9,0-5.2,0.8-6.9,2.3
		c-1.7,1.6-2.6,3.4-2.6,5.4c0,1.3,0.3,2.4,0.9,3.4c0.8,1.4,2.2,2.7,4,4c1.4,0.9,4.5,2.6,9.3,5c6.8,3.4,11.4,6.5,13.8,9.5
		c2.4,3,3.5,6.4,3.5,10.2c0,4.9-1.9,9.1-5.7,12.6c-3.8,3.5-8.6,5.3-14.5,5.3c-1.8,0-3.6-0.2-5.2-0.6c-1.6-0.4-3.7-1.1-6.2-2.1
		c-1.4-0.6-2.5-0.9-3.4-0.9c-0.8,0-1.5,0.3-2.4,0.9c-0.8,0.6-1.5,1.4-2,2.6h-1.6v-22h1.6c1.3,6.2,3.7,10.9,7.3,14.1
		c3.6,3.3,7.5,4.9,11.6,4.9c3.2,0,5.8-0.9,7.7-2.6c1.9-1.8,2.9-3.8,2.9-6.1c0-1.4-0.4-2.7-1.1-4c-0.7-1.3-1.8-2.5-3.3-3.7
		c-1.5-1.2-4.1-2.7-7.9-4.5c-5.3-2.6-9.1-4.8-11.4-6.7c-2.3-1.8-4.1-3.9-5.3-6.1c-1.2-2.3-1.9-4.8-1.9-7.5c0-4.6,1.7-8.6,5.1-11.9
		c3.4-3.3,7.7-4.9,12.9-4.9c1.9,0,3.7,0.2,5.5,0.7c1.3,0.3,3,1,4.9,1.9c1.9,0.9,3.3,1.4,4.1,1.4c0.7,0,1.3-0.2,1.8-0.7
		c0.4-0.5,0.8-1.6,1.2-3.3H1138.3z"/>
	<path d="M1179.9,417.9l1.3,1c-1.9,3.6-4.2,6.2-7.1,7.9s-5.8,2.6-9,2.6c-5.4,0-9.6-2-12.9-6.1c-3.2-4-4.8-8.9-4.8-14.6
		c0-5.5,1.5-10.3,4.4-14.4c3.5-5,8.4-7.5,14.6-7.5c4.2,0,7.5,1.1,9.9,3.1c2.4,2.1,3.7,4.4,3.7,7c0,1.6-0.5,2.9-1.5,3.9
		c-1,1-2.3,1.5-3.9,1.5c-1.7,0-3.1-0.6-4.2-1.7c-1.1-1.1-1.8-3.1-2-6c-0.2-1.8-0.6-3.1-1.2-3.8c-0.7-0.7-1.4-1.1-2.3-1.1
		c-1.4,0-2.5,0.7-3.5,2.2c-1.5,2.2-2.2,5.6-2.2,10.1c0,3.8,0.6,7.4,1.8,10.9c1.2,3.4,2.9,6,5,7.7c1.6,1.2,3.4,1.8,5.6,1.8
		c1.4,0,2.7-0.3,4-1C1176.7,421,1178.2,419.7,1179.9,417.9"/>
	<path d="M1200.1,388.1v31.8c0,2.8,0.3,4.6,1,5.4c0.7,0.8,1.9,1.2,3.9,1.3v1.5h-21.7v-1.5c1.8-0.1,3.1-0.6,4-1.5
		c0.6-0.7,0.9-2.4,0.9-5.2v-23.5c0-2.8-0.3-4.6-1-5.4c-0.7-0.8-1.9-1.2-3.8-1.3v-1.6H1200.1z M1194.1,368.6c1.9,0,3.4,0.7,4.7,2
		c1.3,1.3,1.9,2.9,1.9,4.7s-0.6,3.4-2,4.7c-1.3,1.3-2.9,1.9-4.7,1.9c-1.8,0-3.4-0.6-4.7-1.9c-1.3-1.3-1.9-2.9-1.9-4.7
		s0.6-3.4,1.9-4.7C1190.7,369.3,1192.2,368.6,1194.1,368.6"/>
	<path d="M1241.1,406.7h-22.1c0.3,5.3,1.7,9.5,4.3,12.6c2,2.4,4.3,3.6,7.1,3.6c1.7,0,3.3-0.5,4.7-1.4c1.4-1,2.9-2.7,4.5-5.2l1.5,0.9
		c-2.2,4.4-4.6,7.6-7.2,9.4c-2.6,1.8-5.7,2.8-9.2,2.8c-6,0-10.5-2.3-13.5-6.9c-2.5-3.7-3.7-8.3-3.7-13.8c0-6.7,1.8-12,5.4-16
		c3.6-4,7.9-6,12.7-6c4.1,0,7.6,1.7,10.6,5C1239.3,395.2,1240.9,400.2,1241.1,406.7 M1230.6,403.9c0-4.6-0.2-7.8-0.7-9.5
		c-0.5-1.7-1.3-3-2.3-3.9c-0.6-0.5-1.4-0.8-2.4-0.8c-1.5,0-2.7,0.7-3.6,2.2c-1.7,2.5-2.5,6-2.5,10.5v1.5H1230.6z"/>
	<path d="M1260.8,388.1v5.2c2.1-2.2,4-3.9,5.9-4.9c1.9-1,3.9-1.5,6.1-1.5c2.6,0,4.8,0.7,6.5,2.2c1.7,1.5,2.9,3.2,3.4,5.4
		c0.5,1.6,0.7,4.8,0.7,9.4v15.6c0,3.1,0.3,5,0.8,5.8c0.6,0.8,1.7,1.2,3.5,1.4v1.5h-20.3v-1.5c1.5-0.2,2.6-0.8,3.3-1.9
		c0.5-0.7,0.7-2.5,0.7-5.3v-17.9c0-3.3-0.1-5.4-0.4-6.2c-0.3-0.9-0.7-1.5-1.3-2s-1.3-0.7-2-0.7c-2.5,0-4.8,1.8-6.9,5.3v21.5
		c0,3,0.3,4.9,0.8,5.7c0.6,0.8,1.6,1.3,3.1,1.5v1.5h-20.3v-1.5c1.7-0.2,2.9-0.7,3.6-1.6c0.5-0.6,0.7-2.5,0.7-5.6v-22.7
		c0-3-0.3-4.9-0.8-5.7c-0.6-0.7-1.7-1.2-3.5-1.5v-1.6H1260.8z"/>
	<path d="M1324.4,417.9l1.3,1c-1.9,3.6-4.3,6.2-7.1,7.9c-2.8,1.7-5.8,2.6-9,2.6c-5.4,0-9.7-2-12.9-6.1c-3.2-4-4.8-8.9-4.8-14.6
		c0-5.5,1.5-10.3,4.4-14.4c3.5-5,8.4-7.5,14.6-7.5c4.2,0,7.5,1.1,9.9,3.1c2.5,2.1,3.7,4.4,3.7,7c0,1.6-0.5,2.9-1.5,3.9
		c-1,1-2.3,1.5-3.9,1.5c-1.7,0-3.1-0.6-4.2-1.7s-1.8-3.1-2-6c-0.2-1.8-0.6-3.1-1.2-3.8c-0.7-0.7-1.4-1.1-2.3-1.1
		c-1.4,0-2.6,0.7-3.5,2.2c-1.5,2.2-2.2,5.6-2.2,10.1c0,3.8,0.6,7.4,1.8,10.9c1.2,3.4,2.9,6,4.9,7.7c1.6,1.2,3.4,1.8,5.6,1.8
		c1.4,0,2.7-0.3,4-1C1321.2,421,1322.7,419.7,1324.4,417.9"/>
	<path d="M1362.9,406.7h-22c0.3,5.3,1.7,9.5,4.3,12.6c2,2.4,4.4,3.6,7.1,3.6c1.7,0,3.3-0.5,4.7-1.4c1.4-1,2.9-2.7,4.5-5.2l1.5,0.9
		c-2.2,4.4-4.6,7.6-7.2,9.4c-2.6,1.8-5.7,2.8-9.2,2.8c-5.9,0-10.5-2.3-13.5-6.9c-2.5-3.7-3.7-8.3-3.7-13.8c0-6.7,1.8-12,5.4-16
		c3.6-4,7.9-6,12.7-6c4.1,0,7.6,1.7,10.6,5C1361.1,395.2,1362.7,400.2,1362.9,406.7 M1352.4,403.9c0-4.6-0.3-7.8-0.8-9.5
		c-0.5-1.7-1.3-3-2.3-3.9c-0.6-0.5-1.4-0.8-2.4-0.8c-1.5,0-2.7,0.7-3.7,2.2c-1.7,2.5-2.5,6-2.5,10.5v1.5H1352.4z"/>
	<path d="M1651.5,303.2V303c0-21.3,15.9-38.9,38-38.9c13.6,0,21.8,4.8,29.3,11.9l-5.8,6.2c-6.3-6-13.4-10.3-23.6-10.3
		c-16.7,0-29.1,13.5-29.1,30.8v0.2c0,17.4,12.6,31.1,29.1,31.1c10.3,0,17.1-4,24.3-10.9l5.6,5.5c-7.8,8-16.4,13.2-30.1,13.2
		C1667.5,341.9,1651.5,324.8,1651.5,303.2"/>
	<path d="M1728.3,313.1v-0.2c0-15.7,12.3-29,29-29c16.7,0,28.9,13.1,28.9,28.8v0.2c0,15.7-12.4,29-29.1,29
		C1740.4,341.9,1728.3,328.8,1728.3,313.1 M1777.7,313.1v-0.2c0-11.9-8.9-21.7-20.6-21.7c-12,0-20.3,9.8-20.3,21.5v0.2
		c0,11.9,8.8,21.6,20.5,21.6C1769.3,334.5,1777.7,324.8,1777.7,313.1"/>
	<path d="M1797.7,313.1v-0.2c0-15.7,12.2-29,29-29c16.7,0,28.9,13.1,28.9,28.8v0.2c0,15.7-12.4,29-29.1,29
		C1809.8,341.9,1797.7,328.8,1797.7,313.1 M1847.1,313.1v-0.2c0-11.9-8.9-21.7-20.6-21.7c-12,0-20.3,9.8-20.3,21.5v0.2
		c0,11.9,8.8,21.6,20.5,21.6C1838.7,334.5,1847.1,324.8,1847.1,313.1"/>
	<path d="M1870.6,285h8.3v11.2c4.5-6.7,11.1-12.3,21.3-12.3c13.3,0,26.5,10.5,26.5,28.8v0.2c0,18.2-13.1,28.9-26.5,28.9
		c-10.3,0-17-5.6-21.3-11.8v27.8h-8.3V285z M1918.2,313v-0.2c0-13.1-9-21.5-19.6-21.5c-10.3,0-20.1,8.7-20.1,21.4v0.2
		c0,12.9,9.8,21.5,20.1,21.5C1909.3,334.4,1918.2,326.4,1918.2,313"/>
	<path d="M1938.5,313v-0.2c0-16,11.3-28.9,26.6-28.9c16.4,0,25.9,13.1,25.9,29.3c0,1.1,0,1.7-0.1,2.7h-44.1
		c1.2,12,9.7,18.8,19.6,18.8c7.6,0,13-3.1,17.5-7.8l5.2,4.6c-5.6,6.2-12.4,10.4-22.9,10.4C1950.9,341.9,1938.5,330.2,1938.5,313
		 M1982.6,309.7c-0.9-10.1-6.7-18.9-17.7-18.9c-9.7,0-17,8.1-18.1,18.9H1982.6z"/>
	<path d="M2005.5,285h8.3v14.5c4.1-9.2,12.2-15.9,22.7-15.5v8.9h-0.6c-12.1,0-22,8.7-22,25.5v22.1h-8.3V285z"/>
	<path d="M2042.2,324.5v-0.2c0-11.7,9.7-17.9,23.7-17.9c7.1,0,12.1,1,17.1,2.4v-1.9c0-10-6.1-15.2-16.6-15.2
		c-6.6,0-11.7,1.7-16.9,4.1l-2.5-6.8c6.1-2.8,12.1-4.6,20.2-4.6c7.8,0,13.9,2,17.9,6.1c3.8,3.8,5.7,9.1,5.7,16.2v34h-7.9v-8.4
		c-3.9,5.1-10.3,9.6-20.1,9.6C2052.6,341.8,2042.2,335.9,2042.2,324.5 M2083.1,320.2v-5.4c-4.1-1.2-9.6-2.4-16.3-2.4
		c-10.4,0-16.2,4.5-16.2,11.5v0.2c0,7,6.5,11.1,14,11.1C2074.8,335.2,2083.1,329,2083.1,320.2"/>
	<path d="M2111,325.9v-33.5h-7.7V285h7.7v-16.8h8.3V285h17.6v7.3h-17.6v32.5c0,6.8,3.8,9.2,9.4,9.2c2.8,0,5.2-0.5,8.1-1.9v7.1
		c-2.9,1.5-6,2.4-10,2.4C2117.7,341.5,2111,337.1,2111,325.9"/>
	<path d="M2151.7,263.8h9.5v9.1h-9.5V263.8z M2152.3,285h8.3v55.6h-8.3V285z"/>
	<polygon points="2174.3,285 2183.4,285 2202.1,331.1 2220.9,285 2229.8,285 2205.7,341 2198.4,341 	"/>
	<path d="M2236.2,313v-0.2c0-16,11.3-28.9,26.7-28.9c16.4,0,25.9,13.1,25.9,29.3c0,1.1,0,1.7-0.1,2.7h-44c1.2,12,9.7,18.8,19.6,18.8
		c7.6,0,13-3.1,17.5-7.8l5.2,4.6c-5.6,6.2-12.4,10.4-22.9,10.4C2248.7,341.9,2236.2,330.2,2236.2,313 M2280.4,309.7
		c-0.9-10.1-6.7-18.9-17.7-18.9c-9.7,0-17,8.1-18,18.9H2280.4z"/>
	<path d="M2336.9,265.4h32.4c9.2,0,16.7,2.8,21.4,7.5c3.7,3.7,5.8,8.9,5.8,14.8v0.2c0,12.5-8.6,19.8-20.4,21.9l23.1,30.7h-10.4
		l-21.8-29.2h-21.5v29.2h-8.5V265.4z M2368.5,303.7c11.3,0,19.3-5.8,19.3-15.5V288c0-9.2-7.1-14.8-19.2-14.8h-23.2v30.5H2368.5z"/>
	<path d="M2408.7,313v-0.2c0-16,11.3-28.9,26.6-28.9c16.4,0,25.9,13.1,25.9,29.3c0,1.1,0,1.7-0.1,2.7h-44.1
		c1.2,12,9.7,18.8,19.6,18.8c7.6,0,13-3.1,17.5-7.8l5.2,4.6c-5.6,6.2-12.4,10.4-22.9,10.4C2421.1,341.9,2408.7,330.2,2408.7,313
		 M2452.9,309.7c-0.9-10.1-6.7-18.9-17.7-18.9c-9.7,0-17,8.1-18.1,18.9H2452.9z"/>
	<path d="M2471.1,333.5l4.2-5.9c6,4.5,12.7,7.1,19.2,7.1c6.7,0,11.5-3.4,11.5-8.8v-0.2c0-5.6-6.5-7.7-13.9-9.8
		c-8.7-2.5-18.4-5.5-18.4-15.7V300c0-9.6,7.9-15.9,18.9-15.9c6.8,0,14.3,2.4,20,6.1l-3.8,6.2c-5.2-3.3-11.1-5.4-16.4-5.4
		c-6.6,0-10.7,3.4-10.7,8.1v0.2c0,5.3,6.9,7.3,14.3,9.6c8.6,2.6,17.8,5.9,17.8,15.9v0.2c0,10.5-8.7,16.7-19.8,16.7
		C2486.2,341.7,2477.4,338.5,2471.1,333.5"/>
	<path d="M2525.8,313v-0.2c0-16,11.3-28.9,26.7-28.9c16.4,0,25.9,13.1,25.9,29.3c0,1.1,0,1.7-0.1,2.7h-44.1
		c1.2,12,9.7,18.8,19.6,18.8c7.6,0,13-3.1,17.5-7.8l5.2,4.6c-5.6,6.2-12.4,10.4-22.9,10.4C2538.3,341.9,2525.8,330.2,2525.8,313
		 M2570,309.7c-0.9-10.1-6.7-18.9-17.7-18.9c-9.7,0-17,8.1-18.1,18.9H2570z"/>
	<path d="M2588.7,324.5v-0.2c0-11.7,9.7-17.9,23.7-17.9c7.1,0,12.1,1,17.1,2.4v-1.9c0-10-6.1-15.2-16.5-15.2
		c-6.6,0-11.7,1.7-16.9,4.1l-2.5-6.8c6.1-2.8,12.1-4.6,20.2-4.6c7.8,0,13.8,2,17.9,6.1c3.8,3.8,5.7,9.1,5.7,16.2v34h-8v-8.4
		c-3.9,5.1-10.3,9.6-20.1,9.6C2599.1,341.8,2588.7,335.9,2588.7,324.5 M2629.7,320.2v-5.4c-4.1-1.2-9.6-2.4-16.3-2.4
		c-10.4,0-16.2,4.5-16.2,11.5v0.2c0,7,6.4,11.1,14,11.1C2621.3,335.2,2629.7,329,2629.7,320.2"/>
	<path d="M2655.1,285h8.3v14.5c4.1-9.2,12.1-15.9,22.7-15.5v8.9h-0.7c-12.1,0-22,8.7-22,25.5v22.1h-8.3V285z"/>
	<path d="M2692.9,313.1v-0.2c0-15.7,12.2-29,28.5-29c10.5,0,17.1,4.4,22.2,9.9l-5.5,5.8c-4.4-4.6-9.4-8.4-16.9-8.4
		c-11.3,0-19.9,9.6-19.9,21.5v0.2c0,12,8.8,21.6,20.4,21.6c7.1,0,12.6-3.5,17-8.3l5.3,4.9c-5.6,6.2-12.3,10.7-22.7,10.7
		C2705.1,341.9,2692.9,328.7,2692.9,313.1"/>
	<path d="M2757.7,262.1h8.3v32.6c3.7-6,9.4-10.9,19-10.9c13.4,0,21.3,9,21.3,22.2v34.5h-8.3v-32.4c0-10.3-5.6-16.8-15.4-16.8
		c-9.6,0-16.7,7-16.7,17.4v31.8h-8.3V262.1z"/>
	<path d="M1651.5,412.8v-0.2c0-21.3,15.9-38.9,38-38.9c13.6,0,21.8,4.8,29.3,11.9l-5.8,6.2c-6.3-6-13.4-10.3-23.6-10.3
		c-16.7,0-29.1,13.5-29.1,30.8v0.2c0,17.4,12.6,31.1,29.1,31.1c10.3,0,17.1-4,24.3-10.8l5.6,5.5c-7.8,8-16.4,13.2-30.1,13.2
		C1667.5,451.5,1651.5,434.4,1651.5,412.8"/>
	<path d="M1728.3,422.6v-0.2c0-16,11.3-28.9,26.7-28.9c16.4,0,25.9,13.1,25.9,29.3c0,1.1,0,1.7-0.1,2.7h-44
		c1.2,12,9.7,18.8,19.6,18.8c7.6,0,13-3.1,17.5-7.8l5.2,4.6c-5.6,6.2-12.4,10.4-22.9,10.4C1740.7,451.5,1728.3,439.8,1728.3,422.6
		 M1772.4,419.4c-0.9-10.1-6.7-18.9-17.7-18.9c-9.7,0-17,8.1-18,18.9H1772.4z"/>
	<path d="M1795.3,394.6h8.3v9.7c3.7-6,9.5-10.9,19-10.9c13.4,0,21.3,9,21.3,22.2v34.5h-8.3v-32.5c0-10.3-5.6-16.8-15.4-16.8
		c-9.6,0-16.7,7-16.7,17.4v31.8h-8.3V394.6z"/>
	<path d="M1864.4,435.5v-33.5h-7.7v-7.3h7.7v-16.8h8.3v16.8h17.6v7.3h-17.6v32.5c0,6.8,3.8,9.2,9.4,9.2c2.8,0,5.2-0.5,8.1-1.9v7.1
		c-2.9,1.5-6,2.4-10,2.4C1871.2,451.2,1864.4,446.8,1864.4,435.5"/>
	<path d="M1904.9,394.6h8.3v14.5c4.1-9.2,12.2-15.9,22.7-15.5v8.9h-0.6c-12.1,0-22,8.7-22,25.5v22.1h-8.3V394.6z"/>
	<path d="M1942.7,422.6v-0.2c0-16,11.3-28.9,26.7-28.9c16.4,0,25.9,13.1,25.9,29.3c0,1.1,0,1.7-0.1,2.7h-44.1
		c1.2,12,9.7,18.8,19.6,18.8c7.6,0,13-3.1,17.5-7.8l5.2,4.6c-5.6,6.2-12.4,10.4-22.9,10.4C1955.1,451.5,1942.7,439.8,1942.7,422.6
		 M1986.8,419.4c-0.9-10.1-6.7-18.9-17.7-18.9c-9.7,0-17,8.1-18.1,18.9H1986.8z"/>
	<path d="M2005.1,443.1l4.2-5.9c6,4.5,12.7,7.1,19.2,7.1c6.7,0,11.5-3.4,11.5-8.8v-0.2c0-5.6-6.5-7.7-13.9-9.8
		c-8.7-2.5-18.4-5.5-18.4-15.7v-0.2c0-9.6,7.9-15.9,18.9-15.9c6.8,0,14.3,2.4,20,6.1l-3.8,6.2c-5.2-3.3-11.1-5.4-16.4-5.4
		c-6.6,0-10.7,3.4-10.7,8.1v0.2c0,5.3,6.9,7.3,14.3,9.6c8.6,2.6,17.8,5.9,17.8,15.9v0.2c0,10.5-8.7,16.7-19.8,16.7
		C2020.2,451.3,2011.3,448.2,2005.1,443.1"/>
	<path d="M2096.9,375h28.2c17,0,28.2,9,28.2,23.8v0.2c0,16.2-13.5,24.6-29.6,24.6h-18.3v26.5h-8.5V375z M2124,415.9
		c12.5,0,20.6-6.7,20.6-16.5v-0.2c0-10.7-8.1-16.3-20.2-16.3h-19v33.1H2124z"/>
	<path d="M2167.3,394.6h8.3v14.5c4.1-9.2,12.1-15.9,22.7-15.5v8.9h-0.6c-12.1,0-22,8.7-22,25.5v22.1h-8.3V394.6z"/>
	<path d="M2205,422.7v-0.2c0-15.7,12.2-29,29-29c16.7,0,28.9,13.1,28.9,28.8v0.2c0,15.7-12.4,29-29.1,29
		C2217.2,451.5,2205,438.4,2205,422.7 M2254.4,422.7v-0.2c0-11.9-8.9-21.7-20.6-21.7c-12,0-20.3,9.8-20.3,21.5v0.2
		c0,11.9,8.8,21.6,20.5,21.6C2246.1,444.1,2254.4,434.4,2254.4,422.7"/>
	<path d="M2277.2,459.9l3.8-6.5c6.3,4.6,13.4,7.1,21.4,7.1c12.3,0,20.2-6.8,20.2-19.8v-6.6c-4.8,6.4-11.6,11.7-21.8,11.7
		c-13.3,0-26.1-10-26.1-26v-0.2c0-16.2,12.9-26.2,26.1-26.2c10.4,0,17.2,5.2,21.7,11.2v-10h8.3v45.9c0,8.6-2.6,15.2-7.1,19.7
		c-4.9,4.9-12.4,7.4-21.2,7.4C2293.3,467.6,2284.7,465,2277.2,459.9 M2322.8,419.8v-0.2c0-11.4-9.9-18.8-20.4-18.8
		c-10.5,0-19.2,7.3-19.2,18.7v0.2c0,11.2,8.9,18.9,19.2,18.9C2312.9,438.6,2322.8,431,2322.8,419.8"/>
	<path d="M2349.3,394.6h8.3v14.5c4.1-9.2,12.1-15.9,22.7-15.5v8.9h-0.7c-12.1,0-22,8.7-22,25.5v22.1h-8.3V394.6z"/>
	<path d="M2385.9,434.1v-0.2c0-11.7,9.7-17.9,23.8-17.9c7.1,0,12.1,1,17.1,2.4v-1.9c0-10-6.1-15.2-16.6-15.2
		c-6.6,0-11.7,1.7-16.9,4.1l-2.5-6.8c6.1-2.8,12.1-4.6,20.2-4.6c7.8,0,13.9,2,17.9,6.1c3.8,3.8,5.7,9.1,5.7,16.2v34h-7.9v-8.4
		c-3.9,5.1-10.3,9.6-20.1,9.6C2396.3,451.4,2385.9,445.5,2385.9,434.1 M2426.8,429.8v-5.4c-4.1-1.2-9.6-2.4-16.3-2.4
		c-10.4,0-16.2,4.5-16.2,11.5v0.2c0,7,6.5,11.1,14,11.1C2418.5,444.8,2426.8,438.6,2426.8,429.8"/>
	<path d="M2452.3,394.6h8.3v9.4c3.7-5.5,8.6-10.5,17.9-10.5c9,0,14.8,4.8,17.8,11.1c4-6.1,9.9-11.1,19.6-11.1
		c12.8,0,20.6,8.6,20.6,22.3v34.4h-8.3v-32.5c0-10.7-5.4-16.8-14.4-16.8c-8.4,0-15.3,6.2-15.3,17.2v32h-8.3v-32.7
		c0-10.4-5.5-16.5-14.3-16.5c-8.8,0-15.5,7.3-15.5,17.5v31.7h-8.3V394.6z"/>
	<path d="M1654.2,85.9h62.2c15.9,0,28.3,4.4,36.2,12.3c6.1,6.1,9.3,13.7,9.3,23v0.4c0,16.6-9.5,25.6-19.8,30.9
		c16.2,5.5,27.5,14.9,27.5,33.7v0.4c0,24.8-20.4,38-51.3,38h-64.2V85.9z M1737.6,125.1c0-10.9-8.7-17.6-24.4-17.6h-35.1v36.8h33.3
		c15.6,0,26.2-6.1,26.2-18.8V125.1z M1716.8,165h-38.6v38h40.4c16.6,0,26.7-6.5,26.7-19v-0.4C1745.3,171.9,1736,165,1716.8,165"/>
	<path d="M1786.9,186.5V120h24v59.4c0,16.2,8.1,25.4,22.4,25.4c13.9,0,23.6-9.5,23.6-25.8v-59h24.2v104.6h-24.2v-16.2
		c-6.7,9.9-16.5,18.4-32.7,18.4C1800.6,226.7,1786.9,210.9,1786.9,186.5"/>
	<path d="M1896.1,210.9l10.7-16.2c11.5,8.5,23.6,12.9,34.3,12.9c10.3,0,16.2-4.4,16.2-11.3v-0.4c0-8.1-11.1-10.9-23.4-14.7
		c-15.4-4.4-32.7-10.7-32.7-30.7v-0.4c0-19.8,16.4-31.9,37.2-31.9c13.1,0,27.3,4.6,38.4,11.9l-9.5,17c-10.1-6.1-20.8-9.9-29.5-9.9
		c-9.3,0-14.7,4.4-14.7,10.3v0.4c0,7.7,11.3,10.9,23.6,14.9c15.2,4.7,32.5,11.7,32.5,30.5v0.4c0,22-17,32.9-38.8,32.9
		C1925.6,226.6,1909.1,221.2,1896.1,210.9"/>
	<path d="M1997.9,81.2h25.7v22.8h-25.7V81.2z M1998.9,120h24v104.6h-24V120z"/>
	<path d="M2047.8,120h24v16c6.7-9.7,16.4-18.2,32.7-18.2c23.6,0,37.2,15.8,37.2,40v66.7h-24v-59.4c0-16.2-8.1-25.6-22.4-25.6
		c-13.9,0-23.6,9.7-23.6,25.9v59h-24V120z"/>
	<path d="M2158.5,172.7v-0.4c0-29.9,21.2-54.5,51.1-54.5c33.3,0,50.1,26.1,50.1,56.2c0,2.2-0.2,4.4-0.4,6.7h-76.8
		c2.6,17,14.7,26.5,30.1,26.5c11.7,0,20-4.4,28.3-12.5l14.1,12.5c-9.9,11.9-23.6,19.6-42.8,19.6
		C2181.9,226.9,2158.5,205,2158.5,172.7 M2235.9,165c-1.6-15.5-10.7-27.5-26.5-27.5c-14.7,0-25,11.3-27.1,27.5H2235.9z"/>
	<path d="M2269,210.9l10.7-16.2c11.5,8.5,23.6,12.9,34.3,12.9c10.3,0,16.2-4.4,16.2-11.3v-0.4c0-8.1-11.1-10.9-23.4-14.7
		c-15.4-4.4-32.7-10.7-32.7-30.7v-0.4c0-19.8,16.4-31.9,37.2-31.9c13.1,0,27.3,4.6,38.4,11.9l-9.5,17c-10.1-6.1-20.8-9.9-29.5-9.9
		c-9.3,0-14.7,4.4-14.7,10.3v0.4c0,7.7,11.3,10.9,23.6,14.9c15.2,4.7,32.5,11.7,32.5,30.5v0.4c0,22-17,32.9-38.8,32.9
		C2298.5,226.6,2282.1,221.2,2269,210.9"/>
	<path d="M2359.9,210.9l10.7-16.2c11.5,8.5,23.6,12.9,34.3,12.9c10.3,0,16.2-4.4,16.2-11.3v-0.4c0-8.1-11.1-10.9-23.4-14.7
		c-15.4-4.4-32.7-10.7-32.7-30.7v-0.4c0-19.8,16.4-31.9,37.2-31.9c13.1,0,27.3,4.6,38.4,11.9l-9.5,17c-10.1-6.1-20.8-9.9-29.5-9.9
		c-9.3,0-14.7,4.4-14.7,10.3v0.4c0,7.7,11.3,10.9,23.6,14.9c15.3,4.7,32.5,11.7,32.5,30.5v0.4c0,22-17,32.9-38.8,32.9
		C2389.4,226.6,2373,221.2,2359.9,210.9"/>
</g>
</svg>
