<?xml version="1.0" encoding="utf-8"?>
<!-- Generator: Adobe Illustrator 25.0.1, SVG Export Plug-In . SVG Version: 6.00 Build 0)  -->
<svg version="1.1" id="Layer_1" xmlns="http://www.w3.org/2000/svg" xmlns:xlink="http://www.w3.org/1999/xlink" x="0px" y="0px"
	 viewBox="0 0 143 138" style="enable-background:new 0 0 143 138;" xml:space="preserve">
<style type="text/css">
	.st0{fill:none;}
	.st1{fill-rule:evenodd;clip-rule:evenodd;fill:#9DDDCF;}
	.st2{fill:none;stroke:#231F20;stroke-width:2;stroke-linecap:round;stroke-linejoin:round;}
	.st3{fill-rule:evenodd;clip-rule:evenodd;fill:#FFFFFF;}
	.st4{fill:none;stroke:#000000;stroke-width:2;stroke-linecap:round;stroke-linejoin:round;}
	.st5{fill:none;stroke:#221F1F;stroke-width:2;stroke-linecap:round;stroke-linejoin:round;}
</style>
<g id="Designs">
	<g id="XL---Home" transform="translate(-1022.000000, -919.000000)">
		<g id="ForHealthcareIcon" transform="translate(1022.000000, 919.000000)">
			<rect id="Invisible-Rectangle" y="0" class="st0" width="143" height="136"/>
			<g id="Doctor" transform="translate(3.000000, 17.999300)">
				<path id="Fill-1" class="st1" d="M121.5,22.2c0-12.1-9.8-22.1-21.9-22.1c-8.8,0-16.4,5.2-19.9,12.7C76.3,5.3,68.7,0,59.8,0
					C47.7,0,37.9,10.1,37.9,22.2c0,5.6,3,11.7,5.5,14.8c2.5,3.2,0,0,0,0l36.3,40.2L116,37.1c0,0-2.8,3.2,0,0
					C118.7,33.9,121.5,27.8,121.5,22.2"/>
				<path id="Stroke-3" class="st2" d="M121.5,22.2c0-12.1-9.8-22.1-21.9-22.1c-8.8,0-16.4,5.2-19.9,12.7C76.3,5.3,68.7,0,59.8,0
					C47.7,0,37.9,10.1,37.9,22.2c0,5.6,3,11.7,5.5,14.8c2.5,3.2,0,0,0,0l36.3,40.2L116,37.1c0,0-2.8,3.2,0,0
					C118.7,33.9,121.5,27.8,121.5,22.2z"/>
				<path id="Fill-5" class="st3" d="M85.9,48c-0.1,0-0.1,0-0.2,0c-0.9-0.1-1.7-0.8-1.9-1.7L80.6,30l-4.3,10.7
					c-0.3,0.8-1.1,1.3-1.9,1.3H63.2c-1.1,0-2.1-0.9-2.1-2.1c0-1.1,0.9-2.1,2.1-2.1h9.7L79.3,22c0.3-0.9,1.2-1.4,2.1-1.3
					c0.9,0.1,1.7,0.8,1.8,1.7l3.3,16.2l2.9-7.3c0.3-0.7,0.9-1.2,1.7-1.3c0.8-0.1,1.5,0.2,1.9,0.9l4.4,6.2l4.1-6.6
					c0.4-0.7,1.2-1,1.9-1c0.8,0.1,1.4,0.5,1.8,1.3l4.5,10.7h12.9c1.1,0,2.1,0.9,2.1,2.1c0,1.2-0.9,2.1-2.1,2.1h-14.3
					c-0.8,0-1.6-0.5-1.9-1.3l-3.5-8.3l-3.6,5.8c-0.4,0.6-1,1-1.7,1c-0.7,0-1.4-0.3-1.8-0.9l-4-5.6l-4,10.3
					C87.6,47.5,86.8,48,85.9,48"/>
				<path id="Stroke-7" class="st2" d="M85.9,48c-0.1,0-0.1,0-0.2,0c-0.9-0.1-1.7-0.8-1.9-1.7L80.6,30l-4.3,10.7
					c-0.3,0.8-1.1,1.3-1.9,1.3H63.2c-1.1,0-2.1-0.9-2.1-2.1c0-1.1,0.9-2.1,2.1-2.1h9.7L79.3,22c0.3-0.9,1.2-1.4,2.1-1.3
					c0.9,0.1,1.7,0.8,1.8,1.7l3.3,16.2l2.9-7.3c0.3-0.7,0.9-1.2,1.7-1.3c0.8-0.1,1.5,0.2,1.9,0.9l4.4,6.2l4.1-6.6
					c0.4-0.7,1.2-1,1.9-1c0.8,0.1,1.4,0.5,1.8,1.3l4.5,10.7h12.9c1.1,0,2.1,0.9,2.1,2.1c0,1.2-0.9,2.1-2.1,2.1h-14.3
					c-0.8,0-1.6-0.5-1.9-1.3l-3.5-8.3l-3.6,5.8c-0.4,0.6-1,1-1.7,1c-0.7,0-1.4-0.3-1.8-0.9l-4-5.6l-4,10.3
					C87.6,47.5,86.8,48,85.9,48z"/>
				<g id="Group-12" transform="translate(5.000000, 10.684700)">
					<path id="Fill-9" class="st3" d="M4.9,36.4c0.3-0.9-8.1-3.1-3.1-18.6C6.8,2.2,23.5-0.7,30.1,0.5c11.5,2.2,22.8,10.7,22,23.4
						c-0.7,11.5-5.3,15-5.3,15"/>
					<path id="Stroke-11" class="st4" d="M4.9,36.4c0.3-0.9-8.1-3.1-3.1-18.6C6.8,2.2,23.5-0.7,30.1,0.5c11.5,2.2,22.8,10.7,22,23.4
						c-0.7,11.5-5.3,15-5.3,15"/>
				</g>
				<path id="Path-2" class="st3" d="M5.2,59.5c0,0-0.1-6.7,2.2-6.7s6.2,4.9,7,6.9c0.5,1.3,1.6,3.1,3.1,5.3
					c-3.7,0.7-6.5,0.4-8.5-0.9C5.9,62.2,5.2,59.5,5.2,59.5z"/>
				<path id="Fill-13" class="st3" d="M18.6,47.8c0,3.3-3.3,6.1-7.5,6.1c-4.1,0-7.5-2.7-7.5-6.1c0-3.3,3.3-6.1,7.5-6.1
					C15.3,41.8,18.6,44.5,18.6,47.8"/>
				<path id="Stroke-15" class="st4" d="M18.6,47.8c0,3.3-3.3,6.1-7.5,6.1c-4.1,0-7.5-2.7-7.5-6.1c0-3.3,3.3-6.1,7.5-6.1
					C15.3,41.8,18.6,44.5,18.6,47.8z"/>
				<path id="Fill-17" class="st3" d="M58.5,47.8c0,3.3-3.3,6.1-7.5,6.1s-7.5-2.7-7.5-6.1c0-3.3,3.3-6.1,7.5-6.1
					S58.5,44.5,58.5,47.8"/>
				<path id="Stroke-19" class="st4" d="M58.5,47.8c0,3.3-3.3,6.1-7.5,6.1s-7.5-2.7-7.5-6.1c0-3.3,3.3-6.1,7.5-6.1
					S58.5,44.5,58.5,47.8z"/>
				<path id="Fill-21" class="st3" d="M44.6,74H21.2C9.5,74,0,83.6,0,95.2v23.3h65.8V95.2C65.8,83.6,56.2,74,44.6,74"/>
				<path id="Stroke-23" class="st4" d="M44.6,74H21.2C9.5,74,0,83.6,0,95.2v23.3h65.8V95.2C65.8,83.6,56.2,74,44.6,74z"/>
				<path id="Fill-25" class="st3" d="M31.7,99.5c0,0-7.8-21.6-7.8-25.9v-10h15.5v10C39.4,77.9,31.7,99.5,31.7,99.5"/>
				<path id="Stroke-27" class="st4" d="M31.7,99.5c0,0-7.8-21.6-7.8-25.9v-10h15.5v10C39.4,77.9,31.7,99.5,31.7,99.5z"/>
				<path id="Fill-29" class="st3" d="M22.9,27.1c-6.9,3.1-11.7,9.7-11.7,17.3v5.3c0,10.5,9.2,19.1,20.3,19.1
					c11.2,0,20.3-8.6,20.3-19.1v-5.3c0-5.3-2.7-9.3-8.7-11.3c-6-2-10.6-8.2-16.5-7.1L22.9,27.1z"/>
				<path id="Stroke-31" class="st4" d="M22.9,27.1c-6.9,3.1-11.7,9.7-11.7,17.3v5.3c0,10.5,9.2,19.1,20.3,19.1
					c11.2,0,20.3-8.6,20.3-19.1v-5.3c0-5.3-2.7-9.3-8.7-11.3c-6-2-10.6-8.2-16.5-7.1L22.9,27.1z"/>
				<g id="Group-36" transform="translate(12.000000, 95.684700)">
					<line id="Fill-33" class="st0" x1="1.1" y1="22.4" x2="1.1" y2="0.3"/>
					<line id="Stroke-35" class="st4" x1="1.1" y1="22.4" x2="1.1" y2="0.3"/>
				</g>
				<g id="Group-40" transform="translate(51.000000, 95.684700)">
					<line id="Fill-37" class="st0" x1="1.4" y1="22.4" x2="1.4" y2="0.3"/>
					<line id="Stroke-39" class="st4" x1="1.4" y1="22.4" x2="1.4" y2="0.3"/>
				</g>
				<g id="Group-44" transform="translate(23.000000, 52.684700)">
					<path id="Fill-41" class="st3" d="M0.3,0.8c0.2,0.4,2.8,5,7.7,5.3c3.5,0.2,6.9-1.8,8.8-5.3"/>
					<path id="Stroke-43" class="st4" d="M0.3,0.8c0.2,0.4,2.8,5,7.7,5.3c3.5,0.2,6.9-1.8,8.8-5.3"/>
				</g>
				<g id="Group-48" transform="translate(27.000000, 21.684700)">
					<path id="Fill-45" class="st3" d="M0.2,0.2c0,0-0.2,9.9,10.9,12c9.9,1.9,13.9-2.5,13.9-2.5"/>
					<path id="Stroke-47" class="st4" d="M0.2,0.2c0,0-0.2,9.9,10.9,12c9.9,1.9,13.9-2.5,13.9-2.5"/>
				</g>
				<path id="Stroke-49" class="st4" d="M6.3,52.8c0,0-6.5,14.6,12.1,11.8"/>
				<path id="Fill-51" class="st3" d="M23.9,74c0,0-2.9-0.1-4.6,0.1c-2.3,0.3-4.2,0.8-4.2,0.8l5.4,9.5l-4.4,2.8l11.1,19.3
					c0,0-0.8-15.3-1.1-20.9C25.9,82.8,23.9,74,23.9,74"/>
				<path id="Stroke-53" class="st4" d="M23.9,74c0,0-2.9-0.1-4.6,0.1c-2.3,0.3-4.2,0.8-4.2,0.8l5.4,9.5l-4.4,2.8l11.1,19.3
					c0,0-0.8-15.3-1.1-20.9C25.9,82.8,23.9,74,23.9,74z"/>
				<path id="Fill-55" class="st3" d="M39.6,74c0,0,2.2-0.1,4.6,0c2.3,0.1,4.4,0.6,4.4,0.6L43,84.4l4.4,2.8l-10.7,19.2
					c0,0,0.4-15.2,0.7-20.8C37.5,82.8,39.6,74,39.6,74"/>
				<path id="Stroke-57" class="st4" d="M39.6,74c0,0,2.2-0.1,4.6,0c2.3,0.1,4.4,0.6,4.4,0.6L43,84.4l4.4,2.8l-10.7,19.2
					c0,0,0.4-15.2,0.7-20.8C37.5,82.8,39.6,74,39.6,74z"/>
				<polygon id="Fill-59" class="st1" points="25.8,81.7 31.7,81.7 37.4,81.7 36.3,118.4 27.9,118.4 				"/>
				<polygon id="Stroke-61" class="st2" points="25.8,81.7 31.7,81.7 37.4,81.7 36.3,118.4 27.9,118.4 				"/>
				<path id="Fill-63" class="st3" d="M44.5,64.4c18.6,2.8,12.1-12.5,12.1-12.5l-5.2,2c0,0-1.1,4.4-2.8,6.4
					C47,62.2,44.5,64.4,44.5,64.4"/>
				<path id="Stroke-65" class="st4" d="M44.5,64.4c18.6,2.8,12.1-12.5,12.1-12.5l-5.2,2c0,0-1.1,4.4-2.8,6.4
					C47,62.2,44.5,64.4,44.5,64.4z"/>
				<g id="Group" transform="translate(79.807461, 62.053454)">
					<path id="Fill-67" class="st1" d="M23.1,55L0.6,31.8c-0.8-0.8-0.8-2.1-0.1-2.9L29.9,0.5c0.8-0.8,2.1-0.7,2.9,0.1l22.5,23.2
						c0.8,0.8,0.8,2.1,0.1,2.9L26,55.1C25.2,55.9,23.9,55.8,23.1,55"/>
					<path id="Stroke-69" class="st2" d="M23.1,55L0.6,31.8c-0.8-0.8-0.8-2.1-0.1-2.9L29.9,0.5c0.8-0.8,2.1-0.7,2.9,0.1l22.5,23.2
						c0.8,0.8,0.8,2.1,0.1,2.9L26,55.1C25.2,55.9,23.9,55.8,23.1,55z"/>
					<polygon id="Fill-71" class="st3" points="24.5,49.2 6.4,30.5 31.3,6.4 49.4,25.1 					"/>
					<polygon id="Stroke-73" class="st5" points="24.5,49.2 6.4,30.5 31.3,6.4 49.4,25.1 					"/>
					<line id="Stroke-75" class="st5" x1="22.9" y1="23" x2="32.5" y2="33"/>
					<line id="Stroke-77" class="st5" x1="29.6" y1="16.8" x2="39.2" y2="26.7"/>
					<line id="Stroke-79" class="st5" x1="16.1" y1="29.2" x2="25.8" y2="39.2"/>
					<path id="Fill-81" class="st3" d="M50.5,21.2l3.1-3l-2.8-2.9c2.7-2.6,2.6-5.4,0.8-7.2l-0.8-0.8L50,6.4c-1.8-1.8-4.6-2-7.3,0.5
						l-3.4-3.5l-3.1,3L50.5,21.2z"/>
					<path id="Stroke-83" class="st5" d="M50.5,21.2l3.1-3l-2.8-2.9c2.7-2.6,2.6-5.4,0.8-7.2l-0.8-0.8L50,6.4
						c-1.8-1.8-4.6-2-7.3,0.5l-3.4-3.5l-3.1,3L50.5,21.2z"/>
				</g>
			</g>
		</g>
	</g>
</g>
</svg>
