<?xml version="1.0" encoding="utf-8"?>
<!-- Generator: Adobe Illustrator 25.0.1, SVG Export Plug-In . SVG Version: 6.00 Build 0)  -->
<svg version="1.1" id="Layer_1" xmlns="http://www.w3.org/2000/svg" xmlns:xlink="http://www.w3.org/1999/xlink" x="0px" y="0px"
	 viewBox="0 0 143 137" style="enable-background:new 0 0 143 137;" xml:space="preserve">
<style type="text/css">
	.st0{fill:none;}
	.st1{fill-rule:evenodd;clip-rule:evenodd;fill:#FFFFFF;}
	.st2{fill:none;stroke:#000000;stroke-width:2;stroke-linecap:round;stroke-linejoin:round;}
	.st3{fill-rule:evenodd;clip-rule:evenodd;fill:#F9D66A;}
	.st4{filter:url(#Adobe_OpacityMaskFilter);}
	.st5{mask:url(#mask-2_1_);fill-rule:evenodd;clip-rule:evenodd;fill:#FFFFFF;}
	.st6{filter:url(#Adobe_OpacityMaskFilter_1_);}
	.st7{mask:url(#mask-2_2_);fill:none;stroke:#000000;stroke-width:2;stroke-linecap:round;stroke-linejoin:round;}
	.st8{filter:url(#Adobe_OpacityMaskFilter_2_);}
	.st9{mask:url(#mask-2_3_);}
	.st10{filter:url(#Adobe_OpacityMaskFilter_3_);}
	.st11{mask:url(#mask-2_4_);}
	.st12{filter:url(#Adobe_OpacityMaskFilter_4_);}
	.st13{mask:url(#mask-2_5_);}
	.st14{filter:url(#Adobe_OpacityMaskFilter_5_);}
	.st15{mask:url(#mask-2_6_);fill:none;stroke:#000000;stroke-width:2;stroke-linecap:round;stroke-linejoin:round;}
	.st16{filter:url(#Adobe_OpacityMaskFilter_6_);}
	.st17{mask:url(#mask-2_7_);fill-rule:evenodd;clip-rule:evenodd;fill:#F9D66A;}
	.st18{filter:url(#Adobe_OpacityMaskFilter_7_);}
	.st19{mask:url(#mask-2_8_);fill:none;stroke:#000000;stroke-width:2;stroke-linecap:round;stroke-linejoin:round;}
	.st20{filter:url(#Adobe_OpacityMaskFilter_8_);}
	.st21{mask:url(#mask-2_9_);fill-rule:evenodd;clip-rule:evenodd;fill:#FFFFFF;}
	.st22{filter:url(#Adobe_OpacityMaskFilter_9_);}
	.st23{mask:url(#mask-2_10_);fill:none;stroke:#000000;stroke-width:2;stroke-linecap:round;stroke-linejoin:round;}
	.st24{filter:url(#Adobe_OpacityMaskFilter_10_);}
	.st25{mask:url(#mask-2_11_);}
	.st26{filter:url(#Adobe_OpacityMaskFilter_11_);}
	.st27{mask:url(#mask-2_12_);}
	.st28{filter:url(#Adobe_OpacityMaskFilter_12_);}
	.st29{mask:url(#mask-2_13_);fill-rule:evenodd;clip-rule:evenodd;fill:#FFFFFF;}
	.st30{filter:url(#Adobe_OpacityMaskFilter_13_);}
	.st31{mask:url(#mask-2_14_);fill:none;stroke:#000000;stroke-width:2;stroke-linecap:round;stroke-linejoin:round;}
	.st32{filter:url(#Adobe_OpacityMaskFilter_14_);}
	.st33{mask:url(#mask-2_15_);}
	.st34{filter:url(#Adobe_OpacityMaskFilter_15_);}
	.st35{mask:url(#mask-2_16_);}
	.st36{filter:url(#Adobe_OpacityMaskFilter_16_);}
	.st37{mask:url(#mask-2_17_);}
	.st38{filter:url(#Adobe_OpacityMaskFilter_17_);}
	.st39{mask:url(#mask-2_18_);fill-rule:evenodd;clip-rule:evenodd;fill:#FFFFFF;}
	.st40{filter:url(#Adobe_OpacityMaskFilter_18_);}
	.st41{mask:url(#mask-2_19_);fill:none;stroke:#000000;stroke-width:2;stroke-linecap:round;stroke-linejoin:round;}
	.st42{filter:url(#Adobe_OpacityMaskFilter_19_);}
	.st43{mask:url(#mask-2_20_);fill-rule:evenodd;clip-rule:evenodd;fill:#FFFFFF;}
	.st44{filter:url(#Adobe_OpacityMaskFilter_20_);}
	.st45{mask:url(#mask-2_21_);fill:none;stroke:#000000;stroke-width:2;stroke-linecap:round;stroke-linejoin:round;}
	.st46{filter:url(#Adobe_OpacityMaskFilter_21_);}
	.st47{mask:url(#mask-2_22_);fill-rule:evenodd;clip-rule:evenodd;fill:#F9D66A;}
	.st48{filter:url(#Adobe_OpacityMaskFilter_22_);}
	.st49{mask:url(#mask-2_23_);fill:none;stroke:#000000;stroke-width:2;stroke-linecap:round;stroke-linejoin:round;}
	.st50{filter:url(#Adobe_OpacityMaskFilter_23_);}
	.st51{mask:url(#mask-2_24_);}
	.st52{filter:url(#Adobe_OpacityMaskFilter_24_);}
	.st53{mask:url(#mask-2_25_);}
	.st54{filter:url(#Adobe_OpacityMaskFilter_25_);}
	.st55{mask:url(#mask-2_26_);fill-rule:evenodd;clip-rule:evenodd;fill:#FFFFFF;}
	.st56{filter:url(#Adobe_OpacityMaskFilter_26_);}
	.st57{mask:url(#mask-2_27_);fill:none;stroke:#000000;stroke-width:2;stroke-linecap:round;stroke-linejoin:round;}
</style>
<g id="Designs">
	<g id="XL---Home" transform="translate(-267.000000, -919.000000)">
		<g id="ForParentsIcon" transform="translate(267.000000, 919.000000)">
			<rect id="Invisible-Rectangle" y="0" class="st0" width="143" height="136"/>
			<g id="Family" transform="translate(0.000000, 11.000000)">
				<g id="Group-4" transform="translate(6.000000, 0.000000)">
					<path id="Fill-1" class="st1" d="M5.2,39.7c0.3-1-8.7-3.3-3.3-20S25.2-0.2,32.3,1.1C44.6,3.5,56.8,12.6,56,26.3
						c-0.8,12.4-5.7,16.2-5.7,16.2"/>
					<path id="Stroke-3" class="st2" d="M5.2,39.7c0.3-1-8.7-3.3-3.3-20S25.2-0.2,32.3,1.1C44.6,3.5,56.8,12.6,56,26.3
						c-0.8,12.4-5.7,16.2-5.7,16.2"/>
				</g>
				<path id="Path-24" class="st1" d="M71,57.5c-0.1-6.2,0-11.2,0.5-15c0.7-5.8,4.4-10.8,4.4-12.4S75.6,19.3,76.8,17S84.4,2,102,2
					c2.8,0,3.1,1.2,5.6,1.6c6.7,1.2,13.6,0.9,18.4,3.4c5,2.6,7.7,8,8.1,10c0.9,4.7-2,19,0,23.5s6.8,10.4,7.8,18.3
					s-4.6,21.8-6.2,22.8c-1.1,0.6-21.1,1.7-59.9,3.2L71,57.5z"/>
				<path id="Fill-5" class="st1" d="M20,41.5c0,3.6-3.6,6.5-8,6.5s-8-2.9-8-6.5S7.6,35,12,35S20,37.9,20,41.5"/>
				<path id="Stroke-7" class="st2" d="M20,41.5c0,3.6-3.6,6.5-8,6.5s-8-2.9-8-6.5S7.6,35,12,35S20,37.9,20,41.5z"/>
				<path id="Fill-9" class="st1" d="M63,41.5c0,3.6-3.6,6.5-8,6.5c-4.4,0-8-2.9-8-6.5s3.6-6.5,8-6.5C59.4,35,63,37.9,63,41.5"/>
				<path id="Stroke-11" class="st2" d="M63,41.5c0,3.6-3.6,6.5-8,6.5c-4.4,0-8-2.9-8-6.5s3.6-6.5,8-6.5C59.4,35,63,37.9,63,41.5z"
					/>
				<path id="Fill-13" class="st3" d="M43,70H24C11.4,70,1,80.3,1,92.8V125h65V92.8C66,80.3,55.6,70,43,70"/>
				<path id="Stroke-15" class="st2" d="M43,70H24C11.4,70,1,80.3,1,92.8V125h65V92.8C66,80.3,55.6,70,43,70z"/>
				<path id="Fill-17" class="st1" d="M42.1,69l4.9,1.3L43.7,89L33,77.1c0,0,3.4,0.5,6.6-2.3C40.8,73.8,42.1,69,42.1,69"/>
				<path id="Stroke-19" class="st2" d="M42.1,69l4.9,1.3L43.7,89L33,77.1c0,0,3.4,0.5,6.6-2.3C40.8,73.8,42.1,69,42.1,69z"/>
				<path id="Fill-21" class="st1" d="M34.5,77L34.5,77c-4.7,0-8.5-3.7-8.5-8.3V58h17v10.7C43,73.3,39.2,77,34.5,77"/>
				<path id="Stroke-23" class="st2" d="M34.5,77L34.5,77c-4.7,0-8.5-3.7-8.5-8.3V58h17v10.7C43,73.3,39.2,77,34.5,77z"/>
				<path id="Fill-25" class="st1" d="M24.7,18.4C17.2,21.7,12,29,12,37.3v5.8C12,54.6,21.9,64,34,64h0c12.1,0,22-9.4,22-20.9v-5.8
					c0-5.8-2.9-10.2-9.4-12.4c-6.5-2.2-11.5-8.9-17.8-7.8L24.7,18.4z"/>
				<path id="Stroke-27" class="st2" d="M24.7,18.4C17.2,21.7,12,29,12,37.3v5.8C12,54.6,21.9,64,34,64h0c12.1,0,22-9.4,22-20.9
					v-5.8c0-5.8-2.9-10.2-9.4-12.4c-6.5-2.2-11.5-8.9-17.8-7.8L24.7,18.4z"/>
				<g id="Clip-30">
				</g>
				<defs>
					<filter id="Adobe_OpacityMaskFilter" filterUnits="userSpaceOnUse" x="1" y="106" width="14" height="19">
						<feColorMatrix  type="matrix" values="1 0 0 0 0  0 1 0 0 0  0 0 1 0 0  0 0 0 1 0"/>
					</filter>
				</defs>
				<mask maskUnits="userSpaceOnUse" x="1" y="106" width="14" height="19" id="mask-2_1_">
					<g class="st4">
						<polygon id="path-1_1_" class="st1" points="0,126 143,126 143,0 0,0 						"/>
					</g>
				</mask>
				<polygon id="Fill-29" class="st5" points="1,125 15,125 15,106 1,106 				"/>
				<defs>
					<filter id="Adobe_OpacityMaskFilter_1_" filterUnits="userSpaceOnUse" x="0" y="105" width="16" height="21">
						<feColorMatrix  type="matrix" values="1 0 0 0 0  0 1 0 0 0  0 0 1 0 0  0 0 0 1 0"/>
					</filter>
				</defs>
				<mask maskUnits="userSpaceOnUse" x="0" y="105" width="16" height="21" id="mask-2_2_">
					<g class="st6">
						<polygon id="path-1_2_" class="st1" points="0,126 143,126 143,0 0,0 						"/>
					</g>
				</mask>
				<polygon id="Stroke-31" class="st7" points="1,125 15,125 15,106 1,106 				"/>
				<defs>
					<filter id="Adobe_OpacityMaskFilter_2_" filterUnits="userSpaceOnUse" x="14" y="96" width="2" height="14">
						<feColorMatrix  type="matrix" values="1 0 0 0 0  0 1 0 0 0  0 0 1 0 0  0 0 0 1 0"/>
					</filter>
				</defs>
				<mask maskUnits="userSpaceOnUse" x="14" y="96" width="2" height="14" id="mask-2_3_">
					<g class="st8">
						<polygon id="path-1_3_" class="st1" points="0,126 143,126 143,0 0,0 						"/>
					</g>
				</mask>
				<g id="Group-34" class="st9">
					<g transform="translate(14.000000, 97.000000)">
						<line id="Fill-32" class="st0" x1="1" y1="12" x2="1" y2="0"/>
						<line id="Stroke-33" class="st2" x1="1" y1="12" x2="1" y2="0"/>
					</g>
				</g>
				<defs>
					<filter id="Adobe_OpacityMaskFilter_3_" filterUnits="userSpaceOnUse" x="24.2" y="46.4" width="19.4" height="8.2">
						<feColorMatrix  type="matrix" values="1 0 0 0 0  0 1 0 0 0  0 0 1 0 0  0 0 0 1 0"/>
					</filter>
				</defs>
				<mask maskUnits="userSpaceOnUse" x="24.2" y="46.4" width="19.4" height="8.2" id="mask-2_4_">
					<g class="st10">
						<polygon id="path-1_4_" class="st1" points="0,126 143,126 143,0 0,0 						"/>
					</g>
				</mask>
				<g id="Group-37" class="st11">
					<g transform="translate(25.000000, 47.000000)">
						<path id="Fill-35" class="st1" d="M0.2,0.4c0.2,0.5,2.9,5.8,8.1,6.2c3.7,0.3,7.3-2.1,9.3-6.2"/>
						<path id="Stroke-36" class="st2" d="M0.2,0.4c0.2,0.5,2.9,5.8,8.1,6.2c3.7,0.3,7.3-2.1,9.3-6.2"/>
					</g>
				</g>
				<defs>
					<filter id="Adobe_OpacityMaskFilter_4_" filterUnits="userSpaceOnUse" x="20.6" y="10.9" width="35.8" height="23.3">
						<feColorMatrix  type="matrix" values="1 0 0 0 0  0 1 0 0 0  0 0 1 0 0  0 0 0 1 0"/>
					</filter>
				</defs>
				<mask maskUnits="userSpaceOnUse" x="20.6" y="10.9" width="35.8" height="23.3" id="mask-2_5_">
					<g class="st12">
						<polygon id="path-1_5_" class="st1" points="0,126 143,126 143,0 0,0 						"/>
					</g>
				</mask>
				<g id="Group-40" class="st13">
					<g transform="translate(21.000000, 11.000000)">
						<path id="Fill-38" class="st1" d="M3.2,0.9c0,0-8.2,10.9,4.4,16c5.8,2.3,12.6-3.1,12.6-3.1s1.7,7.2,5.8,8.2
							c7.5,1.7,8.5-7.1,8.5-7.1"/>
						<path id="Stroke-39" class="st2" d="M3.2,0.9c0,0-8.2,10.9,4.4,16c5.8,2.3,12.6-3.1,12.6-3.1s1.7,7.2,5.8,8.2
							c7.5,1.7,8.5-7.1,8.5-7.1"/>
					</g>
				</g>
				<defs>
					<filter id="Adobe_OpacityMaskFilter_5_" filterUnits="userSpaceOnUse" x="70" y="1" width="73" height="88">
						<feColorMatrix  type="matrix" values="1 0 0 0 0  0 1 0 0 0  0 0 1 0 0  0 0 0 1 0"/>
					</filter>
				</defs>
				<mask maskUnits="userSpaceOnUse" x="70" y="1" width="73" height="88" id="mask-2_6_">
					<g class="st14">
						<polygon id="path-1_6_" class="st1" points="0,126 143,126 143,0 0,0 						"/>
					</g>
				</mask>
				<path id="Stroke-41" class="st15" d="M91.5,82.8L73,75.7c0,0-5.4-30.5,1.4-42.9c3.3-6-2.5-14.9,8.1-24.3
					c12.3-10.9,25.1-5,25.1-5s18.5-1.5,24.5,9.3c6.1,10.8-1,24.4,5,33.2c6.1,8.8,5.1,19.1,3.8,24.2c-2.9,10.8-12.9,21.3-19.9,16.6"
					/>
				<defs>
					<filter id="Adobe_OpacityMaskFilter_6_" filterUnits="userSpaceOnUse" x="73" y="70" width="65" height="55">
						<feColorMatrix  type="matrix" values="1 0 0 0 0  0 1 0 0 0  0 0 1 0 0  0 0 0 1 0"/>
					</filter>
				</defs>
				<mask maskUnits="userSpaceOnUse" x="73" y="70" width="65" height="55" id="mask-2_7_">
					<g class="st16">
						<polygon id="path-1_7_" class="st1" points="0,126 143,126 143,0 0,0 						"/>
					</g>
				</mask>
				<path id="Fill-42" class="st17" d="M115,70H96c-12.7,0-23,10.3-23,22.8V125h65V92.8C138,80.3,127.6,70,115,70"/>
				<defs>
					<filter id="Adobe_OpacityMaskFilter_7_" filterUnits="userSpaceOnUse" x="72" y="69" width="67" height="57">
						<feColorMatrix  type="matrix" values="1 0 0 0 0  0 1 0 0 0  0 0 1 0 0  0 0 0 1 0"/>
					</filter>
				</defs>
				<mask maskUnits="userSpaceOnUse" x="72" y="69" width="67" height="57" id="mask-2_8_">
					<g class="st18">
						<polygon id="path-1_8_" class="st1" points="0,126 143,126 143,0 0,0 						"/>
					</g>
				</mask>
				<path id="Stroke-43" class="st19" d="M115,70H96c-12.7,0-23,10.3-23,22.8V125h65V92.8C138,80.3,127.6,70,115,70z"/>
				<defs>
					<filter id="Adobe_OpacityMaskFilter_8_" filterUnits="userSpaceOnUse" x="98" y="58" width="17" height="19">
						<feColorMatrix  type="matrix" values="1 0 0 0 0  0 1 0 0 0  0 0 1 0 0  0 0 0 1 0"/>
					</filter>
				</defs>
				<mask maskUnits="userSpaceOnUse" x="98" y="58" width="17" height="19" id="mask-2_9_">
					<g class="st20">
						<polygon id="path-1_9_" class="st1" points="0,126 143,126 143,0 0,0 						"/>
					</g>
				</mask>
				<path id="Fill-44" class="st21" d="M106.5,77L106.5,77c-4.7,0-8.5-3.7-8.5-8.3V58h17v10.7C115,73.3,111.2,77,106.5,77"/>
				<defs>
					<filter id="Adobe_OpacityMaskFilter_9_" filterUnits="userSpaceOnUse" x="97" y="57" width="19" height="21">
						<feColorMatrix  type="matrix" values="1 0 0 0 0  0 1 0 0 0  0 0 1 0 0  0 0 0 1 0"/>
					</filter>
				</defs>
				<mask maskUnits="userSpaceOnUse" x="97" y="57" width="19" height="21" id="mask-2_10_">
					<g class="st22">
						<polygon id="path-1_10_" class="st1" points="0,126 143,126 143,0 0,0 						"/>
					</g>
				</mask>
				<path id="Stroke-45" class="st23" d="M106.5,77L106.5,77c-4.7,0-8.5-3.7-8.5-8.3V58h17v10.7C115,73.3,111.2,77,106.5,77z"/>
				<defs>
					<filter id="Adobe_OpacityMaskFilter_10_" filterUnits="userSpaceOnUse" x="83.4" y="11.1" width="45.6" height="53.6">
						<feColorMatrix  type="matrix" values="1 0 0 0 0  0 1 0 0 0  0 0 1 0 0  0 0 0 1 0"/>
					</filter>
				</defs>
				<mask maskUnits="userSpaceOnUse" x="83.4" y="11.1" width="45.6" height="53.6" id="mask-2_11_">
					<g class="st24">
						<polygon id="path-1_11_" class="st1" points="0,126 143,126 143,0 0,0 						"/>
					</g>
				</mask>
				<g id="Group-48" class="st25">
					<g transform="translate(84.000000, 12.000000)">
						<path id="Fill-46" class="st1" d="M17.1,0.1c-2.4,1.5-4.1,3.8-3.1,7.3c3.4,11,16.6,3.2,23,5.4c6.4,2.1,7,6.8,7,12.5v5.7
							c0,11.4-9.8,20.7-21.8,20.7c-12,0-21.8-9.3-21.8-20.7v-5.7C0.4,16.9,5.6,9.7,13,6.4"/>
						<path id="Stroke-47" class="st2" d="M17.1,0.1c-2.4,1.5-4.1,3.8-3.1,7.3c3.4,11,16.6,3.2,23,5.4c6.4,2.1,7,6.8,7,12.5v5.7
							c0,11.4-9.8,20.7-21.8,20.7c-12,0-21.8-9.3-21.8-20.7v-5.7C0.4,16.9,5.6,9.7,13,6.4"/>
					</g>
				</g>
				<defs>
					<filter id="Adobe_OpacityMaskFilter_11_" filterUnits="userSpaceOnUse" x="97.1" y="48" width="19.4" height="8.1">
						<feColorMatrix  type="matrix" values="1 0 0 0 0  0 1 0 0 0  0 0 1 0 0  0 0 0 1 0"/>
					</filter>
				</defs>
				<mask maskUnits="userSpaceOnUse" x="97.1" y="48" width="19.4" height="8.1" id="mask-2_12_">
					<g class="st26">
						<polygon id="path-1_12_" class="st1" points="0,126 143,126 143,0 0,0 						"/>
					</g>
				</mask>
				<g id="Group-51" class="st27">
					<g transform="translate(98.000000, 49.000000)">
						<path id="Fill-49" class="st1" d="M0.1,0c0.2,0.5,2.9,5.7,8.1,6C12,6.3,15.6,4,17.6,0"/>
						<path id="Stroke-50" class="st2" d="M0.1,0c0.2,0.5,2.9,5.7,8.1,6C12,6.3,15.6,4,17.6,0"/>
					</g>
				</g>
				<defs>
					<filter id="Adobe_OpacityMaskFilter_12_" filterUnits="userSpaceOnUse" x="124" y="106" width="14" height="19">
						<feColorMatrix  type="matrix" values="1 0 0 0 0  0 1 0 0 0  0 0 1 0 0  0 0 0 1 0"/>
					</filter>
				</defs>
				<mask maskUnits="userSpaceOnUse" x="124" y="106" width="14" height="19" id="mask-2_13_">
					<g class="st28">
						<polygon id="path-1_13_" class="st1" points="0,126 143,126 143,0 0,0 						"/>
					</g>
				</mask>
				<polygon id="Fill-52" class="st29" points="124,125 138,125 138,106 124,106 				"/>
				<defs>
					<filter id="Adobe_OpacityMaskFilter_13_" filterUnits="userSpaceOnUse" x="123" y="105" width="16" height="21">
						<feColorMatrix  type="matrix" values="1 0 0 0 0  0 1 0 0 0  0 0 1 0 0  0 0 0 1 0"/>
					</filter>
				</defs>
				<mask maskUnits="userSpaceOnUse" x="123" y="105" width="16" height="21" id="mask-2_14_">
					<g class="st30">
						<polygon id="path-1_14_" class="st1" points="0,126 143,126 143,0 0,0 						"/>
					</g>
				</mask>
				<polygon id="Stroke-53" class="st31" points="124,125 138,125 138,106 124,106 				"/>
				<defs>
					<filter id="Adobe_OpacityMaskFilter_14_" filterUnits="userSpaceOnUse" x="123" y="93" width="2" height="14">
						<feColorMatrix  type="matrix" values="1 0 0 0 0  0 1 0 0 0  0 0 1 0 0  0 0 0 1 0"/>
					</filter>
				</defs>
				<mask maskUnits="userSpaceOnUse" x="123" y="93" width="2" height="14" id="mask-2_15_">
					<g class="st32">
						<polygon id="path-1_15_" class="st1" points="0,126 143,126 143,0 0,0 						"/>
					</g>
				</mask>
				<g id="Group-56" class="st33">
					<g transform="translate(123.000000, 94.000000)">
						<line id="Fill-54" class="st0" x1="1" y1="12" x2="1" y2="0"/>
						<line id="Stroke-55" class="st2" x1="1" y1="12" x2="1" y2="0"/>
					</g>
				</g>
				<defs>
					<filter id="Adobe_OpacityMaskFilter_15_" filterUnits="userSpaceOnUse" x="85.1" y="90.9" width="22.1" height="12.5">
						<feColorMatrix  type="matrix" values="1 0 0 0 0  0 1 0 0 0  0 0 1 0 0  0 0 0 1 0"/>
					</filter>
				</defs>
				<mask maskUnits="userSpaceOnUse" x="85.1" y="90.9" width="22.1" height="12.5" id="mask-2_16_">
					<g class="st34">
						<polygon id="path-1_16_" class="st1" points="0,126 143,126 143,0 0,0 						"/>
					</g>
				</mask>
				<g id="Group-59" class="st35">
					<g transform="translate(86.000000, 91.000000)">
						<path id="Fill-57" class="st1" d="M3.3,1C3.3,1,8,0.3,12,2.5c4,2.2,8.1,6.5,8.1,6.5S12.6,11.7,8,11.4
							c-5.6-0.3-7.9-3.5-7.9-3.5"/>
						<path id="Stroke-58" class="st2" d="M3.3,1C3.3,1,8,0.3,12,2.5c4,2.2,8.1,6.5,8.1,6.5S12.6,11.7,8,11.4
							c-5.6-0.3-7.9-3.5-7.9-3.5"/>
					</g>
				</g>
				<defs>
					<filter id="Adobe_OpacityMaskFilter_16_" filterUnits="userSpaceOnUse" x="29.9" y="91.8" width="22.4" height="12.5">
						<feColorMatrix  type="matrix" values="1 0 0 0 0  0 1 0 0 0  0 0 1 0 0  0 0 0 1 0"/>
					</filter>
				</defs>
				<mask maskUnits="userSpaceOnUse" x="29.9" y="91.8" width="22.4" height="12.5" id="mask-2_17_">
					<g class="st36">
						<polygon id="path-1_17_" class="st1" points="0,126 143,126 143,0 0,0 						"/>
					</g>
				</mask>
				<g id="Group-62" class="st37">
					<g transform="translate(30.000000, 92.000000)">
						<path id="Fill-60" class="st1" d="M17.6,0.9c0,0-4.6-0.6-8.7,1.5c-4,2.2-8.1,6.5-8.1,6.5s7.5,2.7,12.1,2.5
							c5.6-0.3,8.3-4.1,8.3-4.1"/>
						<path id="Stroke-61" class="st2" d="M17.6,0.9c0,0-4.6-0.6-8.7,1.5c-4,2.2-8.1,6.5-8.1,6.5s7.5,2.7,12.1,2.5
							c5.6-0.3,8.3-4.1,8.3-4.1"/>
					</g>
				</g>
				<defs>
					<filter id="Adobe_OpacityMaskFilter_17_" filterUnits="userSpaceOnUse" x="43" y="58" width="53" height="49">
						<feColorMatrix  type="matrix" values="1 0 0 0 0  0 1 0 0 0  0 0 1 0 0  0 0 0 1 0"/>
					</filter>
				</defs>
				<mask maskUnits="userSpaceOnUse" x="43" y="58" width="53" height="49" id="mask-2_18_">
					<g class="st38">
						<polygon id="path-1_18_" class="st1" points="0,126 143,126 143,0 0,0 						"/>
					</g>
				</mask>
				<path id="Fill-63" class="st39" d="M96,82.5C96,96,84.1,107,69.5,107S43,96,43,82.5S54.9,58,69.5,58S96,69,96,82.5"/>
				<defs>
					<filter id="Adobe_OpacityMaskFilter_18_" filterUnits="userSpaceOnUse" x="42" y="57" width="55" height="51">
						<feColorMatrix  type="matrix" values="1 0 0 0 0  0 1 0 0 0  0 0 1 0 0  0 0 0 1 0"/>
					</filter>
				</defs>
				<mask maskUnits="userSpaceOnUse" x="42" y="57" width="55" height="51" id="mask-2_19_">
					<g class="st40">
						<polygon id="path-1_19_" class="st1" points="0,126 143,126 143,0 0,0 						"/>
					</g>
				</mask>
				<path id="Stroke-64" class="st41" d="M96,82.5C96,96,84.1,107,69.5,107S43,96,43,82.5S54.9,58,69.5,58S96,69,96,82.5z"/>
				<defs>
					<filter id="Adobe_OpacityMaskFilter_19_" filterUnits="userSpaceOnUse" x="38" y="104" width="64" height="21">
						<feColorMatrix  type="matrix" values="1 0 0 0 0  0 1 0 0 0  0 0 1 0 0  0 0 0 1 0"/>
					</filter>
				</defs>
				<mask maskUnits="userSpaceOnUse" x="38" y="104" width="64" height="21" id="mask-2_20_">
					<g class="st42">
						<polygon id="path-1_20_" class="st1" points="0,126 143,126 143,0 0,0 						"/>
					</g>
				</mask>
				<path id="Fill-65" class="st43" d="M70,104L70,104c-13.6,0-32,0.8-32,21h64C102,104.8,84.1,104,70,104"/>
				<defs>
					<filter id="Adobe_OpacityMaskFilter_20_" filterUnits="userSpaceOnUse" x="37" y="103" width="66" height="23">
						<feColorMatrix  type="matrix" values="1 0 0 0 0  0 1 0 0 0  0 0 1 0 0  0 0 0 1 0"/>
					</filter>
				</defs>
				<mask maskUnits="userSpaceOnUse" x="37" y="103" width="66" height="23" id="mask-2_21_">
					<g class="st44">
						<polygon id="path-1_21_" class="st1" points="0,126 143,126 143,0 0,0 						"/>
					</g>
				</mask>
				<path id="Stroke-66" class="st45" d="M70,104L70,104c-13.6,0-32,0.8-32,21h64C102,104.8,84.1,104,70,104z"/>
				<defs>
					<filter id="Adobe_OpacityMaskFilter_21_" filterUnits="userSpaceOnUse" x="48" y="105" width="42" height="20">
						<feColorMatrix  type="matrix" values="1 0 0 0 0  0 1 0 0 0  0 0 1 0 0  0 0 0 1 0"/>
					</filter>
				</defs>
				<mask maskUnits="userSpaceOnUse" x="48" y="105" width="42" height="20" id="mask-2_22_">
					<g class="st46">
						<polygon id="path-1_22_" class="st1" points="0,126 143,126 143,0 0,0 						"/>
					</g>
				</mask>
				<path id="Fill-67" class="st47" d="M69.3,116.3c-11.8,0-14.8-11.2-14.8-11.2s-1.4,0-2.8,0.5C50.9,106,48,107,48,107l0.2,17.9
					l41.6,0.1l0.2-17.9c0,0-1.7-1.1-2.8-1.4c-0.9-0.3-3.1-0.8-3.1-0.8S80.4,116.3,69.3,116.3"/>
				<defs>
					<filter id="Adobe_OpacityMaskFilter_22_" filterUnits="userSpaceOnUse" x="47" y="104" width="44" height="22">
						<feColorMatrix  type="matrix" values="1 0 0 0 0  0 1 0 0 0  0 0 1 0 0  0 0 0 1 0"/>
					</filter>
				</defs>
				<mask maskUnits="userSpaceOnUse" x="47" y="104" width="44" height="22" id="mask-2_23_">
					<g class="st48">
						<polygon id="path-1_23_" class="st1" points="0,126 143,126 143,0 0,0 						"/>
					</g>
				</mask>
				<path id="Stroke-68" class="st49" d="M69.3,116.3c-11.8,0-14.8-11.2-14.8-11.2s-1.4,0-2.8,0.5c-0.9,0.3-3.7,1.9-3.7,1.9
					l0.2,17.4l41.6,0.1l0.2-17.9c0,0-1.7-1.1-2.8-1.4c-0.9-0.3-3.1-0.8-3.1-0.8S80.4,116.3,69.3,116.3z"/>
				<defs>
					<filter id="Adobe_OpacityMaskFilter_23_" filterUnits="userSpaceOnUse" x="48.7" y="64.1" width="41.8" height="46.3">
						<feColorMatrix  type="matrix" values="1 0 0 0 0  0 1 0 0 0  0 0 1 0 0  0 0 0 1 0"/>
					</filter>
				</defs>
				<mask maskUnits="userSpaceOnUse" x="48.7" y="64.1" width="41.8" height="46.3" id="mask-2_24_">
					<g class="st50">
						<polygon id="path-1_24_" class="st1" points="0,126 143,126 143,0 0,0 						"/>
					</g>
				</mask>
				<g id="Group-71" class="st51">
					<g transform="translate(49.000000, 65.000000)">
						<path id="Fill-69" class="st1" d="M19.6,0.1c-3.6,1.1-7.9,3.2-6.4,7.5c3.1,9.2,15.1,2.7,21,4.5c5.8,1.8,6.4,5.6,6.4,10.4v4.7
							c0,9.5-9,17.2-19.9,17.2c-10.9,0-19.9-7.7-19.9-17.2v-4.7c0-6.9,4.7-12.8,11.5-15.6"/>
						<path id="Stroke-70" class="st2" d="M19.6,0.1c-3.6,1.1-7.9,3.2-6.4,7.5c3.1,9.2,15.1,2.7,21,4.5c5.8,1.8,6.4,5.6,6.4,10.4
							v4.7c0,9.5-9,17.2-19.9,17.2c-10.9,0-19.9-7.7-19.9-17.2v-4.7c0-6.9,4.7-12.8,11.5-15.6"/>
					</g>
				</g>
				<defs>
					<filter id="Adobe_OpacityMaskFilter_24_" filterUnits="userSpaceOnUse" x="61" y="93" width="17.9" height="7.6">
						<feColorMatrix  type="matrix" values="1 0 0 0 0  0 1 0 0 0  0 0 1 0 0  0 0 0 1 0"/>
					</filter>
				</defs>
				<mask maskUnits="userSpaceOnUse" x="61" y="93" width="17.9" height="7.6" id="mask-2_25_">
					<g class="st52">
						<polygon id="path-1_25_" class="st1" points="0,126 143,126 143,0 0,0 						"/>
					</g>
				</mask>
				<g id="Group-74" class="st53">
					<g transform="translate(62.000000, 94.000000)">
						<path id="Fill-72" class="st1" d="M0,0c0.2,0.4,2.7,5.3,7.4,5.6c3.4,0.2,6.6-1.9,8.5-5.6"/>
						<path id="Stroke-73" class="st2" d="M0,0c0.2,0.4,2.7,5.3,7.4,5.6c3.4,0.2,6.6-1.9,8.5-5.6"/>
					</g>
				</g>
				<defs>
					<filter id="Adobe_OpacityMaskFilter_25_" filterUnits="userSpaceOnUse" x="19" y="69" width="14" height="20">
						<feColorMatrix  type="matrix" values="1 0 0 0 0  0 1 0 0 0  0 0 1 0 0  0 0 0 1 0"/>
					</filter>
				</defs>
				<mask maskUnits="userSpaceOnUse" x="19" y="69" width="14" height="20" id="mask-2_26_">
					<g class="st54">
						<polygon id="path-1_26_" class="st1" points="0,126 143,126 143,0 0,0 						"/>
					</g>
				</mask>
				<path id="Fill-75" class="st55" d="M25.8,69c0,0-3.7,0.1-4.3,0.2c-0.6,0.1-2.5,0.5-2.5,0.5L22.6,89L33,77.1c0,0-3.2-0.7-4.9-2.6
					C25.9,72.1,25.8,69,25.8,69"/>
				<defs>
					<filter id="Adobe_OpacityMaskFilter_26_" filterUnits="userSpaceOnUse" x="17.4" y="68" width="16.6" height="22">
						<feColorMatrix  type="matrix" values="1 0 0 0 0  0 1 0 0 0  0 0 1 0 0  0 0 0 1 0"/>
					</filter>
				</defs>
				<mask maskUnits="userSpaceOnUse" x="17.4" y="68" width="16.6" height="22" id="mask-2_27_">
					<g class="st56">
						<polygon id="path-1_27_" class="st1" points="0,126 143,126 143,0 0,0 						"/>
					</g>
				</mask>
				<path id="Stroke-76" class="st57" d="M25.8,69c0,0-3,0.4-4.2,0.7s-3.2,1-3.2,1L22.6,89L33,77.1c0,0-3.2-0.7-4.9-2.6
					C25.9,72.1,25.8,69,25.8,69z"/>
			</g>
		</g>
	</g>
</g>
</svg>
