<?xml version="1.0" encoding="utf-8"?>
<!-- Generator: Adobe Illustrator 25.0.1, SVG Export Plug-In . SVG Version: 6.00 Build 0)  -->
<svg version="1.1" id="Layer_1" xmlns="http://www.w3.org/2000/svg" xmlns:xlink="http://www.w3.org/1999/xlink" x="0px" y="0px"
	 viewBox="0 0 143 137" style="enable-background:new 0 0 143 137;" xml:space="preserve">
<style type="text/css">
	.st0{fill:none;}
	.st1{fill-rule:evenodd;clip-rule:evenodd;fill:#FFFFFF;}
	.st2{fill:none;stroke:#000000;stroke-width:2;stroke-linecap:round;stroke-linejoin:round;}
	.st3{fill-rule:evenodd;clip-rule:evenodd;fill:#96C5FF;}
	.st4{filter:url(#Adobe_OpacityMaskFilter);}
	.st5{mask:url(#mask-2_1_);fill-rule:evenodd;clip-rule:evenodd;fill:#FFFFFF;}
	.st6{filter:url(#Adobe_OpacityMaskFilter_1_);}
	.st7{mask:url(#mask-2_2_);fill:none;stroke:#000000;stroke-width:2;stroke-linecap:round;stroke-linejoin:round;}
	.st8{filter:url(#Adobe_OpacityMaskFilter_2_);}
	.st9{mask:url(#mask-2_3_);fill-rule:evenodd;clip-rule:evenodd;fill:#FFFFFF;}
	.st10{filter:url(#Adobe_OpacityMaskFilter_3_);}
	.st11{mask:url(#mask-2_4_);fill-rule:evenodd;clip-rule:evenodd;}
	.st12{filter:url(#Adobe_OpacityMaskFilter_4_);}
	.st13{mask:url(#mask-2_5_);fill-rule:evenodd;clip-rule:evenodd;fill:#FFFFFF;}
	.st14{filter:url(#Adobe_OpacityMaskFilter_5_);}
	.st15{mask:url(#mask-2_6_);fill-rule:evenodd;clip-rule:evenodd;}
	.st16{filter:url(#Adobe_OpacityMaskFilter_6_);}
	.st17{mask:url(#mask-2_7_);fill-rule:evenodd;clip-rule:evenodd;fill:#FFFFFF;}
	.st18{filter:url(#Adobe_OpacityMaskFilter_7_);}
	.st19{mask:url(#mask-2_8_);fill-rule:evenodd;clip-rule:evenodd;}
	.st20{filter:url(#Adobe_OpacityMaskFilter_8_);}
	.st21{mask:url(#mask-2_9_);fill-rule:evenodd;clip-rule:evenodd;fill:#FFFFFF;}
	.st22{filter:url(#Adobe_OpacityMaskFilter_9_);}
	.st23{mask:url(#mask-2_10_);fill:none;stroke:#000000;stroke-width:2;stroke-linecap:round;stroke-linejoin:round;}
	.st24{filter:url(#Adobe_OpacityMaskFilter_10_);}
	.st25{mask:url(#mask-2_11_);}
	.st26{filter:url(#Adobe_OpacityMaskFilter_11_);}
	.st27{mask:url(#mask-2_12_);fill:none;}
	.st28{filter:url(#Adobe_OpacityMaskFilter_12_);}
	.st29{mask:url(#mask-2_13_);fill:none;stroke:#000000;stroke-width:2;stroke-linecap:round;stroke-linejoin:round;}
	.st30{filter:url(#Adobe_OpacityMaskFilter_13_);}
	.st31{mask:url(#mask-2_14_);}
	.st32{filter:url(#Adobe_OpacityMaskFilter_14_);}
	.st33{mask:url(#mask-2_15_);}
	.st34{filter:url(#Adobe_OpacityMaskFilter_15_);}
	.st35{mask:url(#mask-2_16_);fill-rule:evenodd;clip-rule:evenodd;fill:#FFFFFF;}
	.st36{filter:url(#Adobe_OpacityMaskFilter_16_);}
	.st37{mask:url(#mask-2_17_);fill:none;stroke:#000000;stroke-width:2;stroke-linecap:round;stroke-linejoin:round;}
	.st38{filter:url(#Adobe_OpacityMaskFilter_17_);}
	.st39{mask:url(#mask-2_18_);fill-rule:evenodd;clip-rule:evenodd;fill:#FFFFFF;}
	.st40{filter:url(#Adobe_OpacityMaskFilter_18_);}
	.st41{mask:url(#mask-2_19_);fill:none;stroke:#000000;stroke-width:2;stroke-linecap:round;stroke-linejoin:round;}
	.st42{filter:url(#Adobe_OpacityMaskFilter_19_);}
	.st43{mask:url(#mask-2_20_);fill-rule:evenodd;clip-rule:evenodd;fill:#FFFFFF;}
	.st44{filter:url(#Adobe_OpacityMaskFilter_20_);}
	.st45{mask:url(#mask-2_21_);fill:none;stroke:#000000;stroke-width:2;stroke-linecap:round;stroke-linejoin:round;}
	.st46{filter:url(#Adobe_OpacityMaskFilter_21_);}
	.st47{mask:url(#mask-2_22_);}
	.st48{filter:url(#Adobe_OpacityMaskFilter_22_);}
	.st49{mask:url(#mask-2_23_);}
	.st50{filter:url(#Adobe_OpacityMaskFilter_23_);}
	.st51{mask:url(#mask-2_24_);}
	.st52{filter:url(#Adobe_OpacityMaskFilter_24_);}
	.st53{mask:url(#mask-2_25_);}
	.st54{filter:url(#Adobe_OpacityMaskFilter_25_);}
	.st55{mask:url(#mask-2_26_);fill-rule:evenodd;clip-rule:evenodd;fill:#FFFFFF;}
	.st56{filter:url(#Adobe_OpacityMaskFilter_26_);}
	.st57{mask:url(#mask-2_27_);fill:none;stroke:#000000;stroke-width:2;stroke-linecap:round;stroke-linejoin:round;}
	.st58{filter:url(#Adobe_OpacityMaskFilter_27_);}
	.st59{mask:url(#mask-2_28_);fill-rule:evenodd;clip-rule:evenodd;fill:#FFFFFF;}
	.st60{filter:url(#Adobe_OpacityMaskFilter_28_);}
	.st61{mask:url(#mask-2_29_);fill:none;stroke:#000000;stroke-width:2;stroke-linecap:round;stroke-linejoin:round;}
	.st62{filter:url(#Adobe_OpacityMaskFilter_29_);}
	.st63{mask:url(#mask-2_30_);fill:none;stroke:#000000;stroke-width:2;stroke-linecap:round;stroke-linejoin:round;}
	.st64{filter:url(#Adobe_OpacityMaskFilter_30_);}
	.st65{mask:url(#mask-2_31_);fill:none;stroke:#000000;stroke-width:2;stroke-linecap:round;stroke-linejoin:round;}
	.st66{filter:url(#Adobe_OpacityMaskFilter_31_);}
	.st67{mask:url(#mask-2_32_);fill-rule:evenodd;clip-rule:evenodd;fill:#96C5FF;}
	.st68{filter:url(#Adobe_OpacityMaskFilter_32_);}
	.st69{mask:url(#mask-2_33_);fill:none;stroke:#000000;stroke-width:2;stroke-linecap:round;stroke-linejoin:round;}
	.st70{filter:url(#Adobe_OpacityMaskFilter_33_);}
	.st71{mask:url(#mask-2_34_);fill-rule:evenodd;clip-rule:evenodd;fill:#96C5FF;}
	.st72{filter:url(#Adobe_OpacityMaskFilter_34_);}
	.st73{mask:url(#mask-2_35_);fill:none;stroke:#000000;stroke-width:2;stroke-linecap:round;stroke-linejoin:round;}
	.st74{filter:url(#Adobe_OpacityMaskFilter_35_);}
	.st75{mask:url(#mask-2_36_);}
	.st76{fill:none;stroke:#231F20;stroke-width:2;stroke-linecap:round;stroke-linejoin:round;}
	.st77{filter:url(#Adobe_OpacityMaskFilter_36_);}
	.st78{mask:url(#mask-2_37_);fill-rule:evenodd;clip-rule:evenodd;fill:#FFFFFF;}
	.st79{filter:url(#Adobe_OpacityMaskFilter_37_);}
	.st80{mask:url(#mask-2_38_);fill:none;stroke:#000000;stroke-width:2;stroke-linecap:round;stroke-linejoin:round;}
	.st81{filter:url(#Adobe_OpacityMaskFilter_38_);}
	.st82{mask:url(#mask-2_39_);fill-rule:evenodd;clip-rule:evenodd;fill:#96C5FF;}
	.st83{filter:url(#Adobe_OpacityMaskFilter_39_);}
	.st84{mask:url(#mask-2_40_);fill:none;stroke:#000000;stroke-width:2;stroke-linecap:round;stroke-linejoin:round;}
	.st85{filter:url(#Adobe_OpacityMaskFilter_40_);}
	.st86{mask:url(#mask-2_41_);fill-rule:evenodd;clip-rule:evenodd;fill:#FFFFFF;}
	.st87{filter:url(#Adobe_OpacityMaskFilter_41_);}
	.st88{mask:url(#mask-2_42_);fill:none;stroke:#000000;stroke-width:2;stroke-linecap:round;stroke-linejoin:round;}
	.st89{filter:url(#Adobe_OpacityMaskFilter_42_);}
	.st90{mask:url(#mask-2_43_);}
	.st91{filter:url(#Adobe_OpacityMaskFilter_43_);}
	.st92{mask:url(#mask-2_44_);}
	.st93{filter:url(#Adobe_OpacityMaskFilter_44_);}
	.st94{mask:url(#mask-2_45_);}
	.st95{filter:url(#Adobe_OpacityMaskFilter_45_);}
	.st96{mask:url(#mask-2_46_);}
	.st97{filter:url(#Adobe_OpacityMaskFilter_46_);}
	.st98{mask:url(#mask-2_47_);}
	.st99{filter:url(#Adobe_OpacityMaskFilter_47_);}
	.st100{mask:url(#mask-2_48_);}
	.st101{filter:url(#Adobe_OpacityMaskFilter_48_);}
	.st102{mask:url(#mask-2_49_);fill-rule:evenodd;clip-rule:evenodd;fill:#96C5FF;}
	.st103{filter:url(#Adobe_OpacityMaskFilter_49_);}
	.st104{mask:url(#mask-2_50_);fill:none;stroke:#000000;stroke-width:2;stroke-linecap:round;stroke-linejoin:round;}
	.st105{filter:url(#Adobe_OpacityMaskFilter_50_);}
	.st106{mask:url(#mask-2_51_);}
	.st107{filter:url(#Adobe_OpacityMaskFilter_51_);}
	.st108{mask:url(#mask-2_52_);}
</style>
<g id="Designs">
	<g id="XL---Home" transform="translate(-648.000000, -920.000000)">
		<g id="ForSchoolsIcon" transform="translate(648.000000, 920.000000)">
			<rect id="Invisible-Rectange" y="0" class="st0" width="143" height="136"/>
			<g id="Teacher" transform="translate(1.852800, 9.468500)">
				<path id="Fill-1" class="st1" d="M130,74.3H51.4c-4.1,0-7.4-3.3-7.4-7.4V9c0-4.1,3.3-7.4,7.4-7.4H130c4.1,0,7.4,3.3,7.4,7.4
					v57.9C137.4,71,134.1,74.3,130,74.3"/>
				<path id="Stroke-3" class="st2" d="M130,74.3H51.4c-4.1,0-7.4-3.3-7.4-7.4V9c0-4.1,3.3-7.4,7.4-7.4H130c4.1,0,7.4,3.3,7.4,7.4
					v57.9C137.4,71,134.1,74.3,130,74.3z"/>
				<path id="Fill-5" class="st3" d="M128.1,68.7H53.3c-2.1,0-3.7-1.7-3.7-3.7V10.8c0-2.1,1.7-3.7,3.7-3.7h74.9
					c2.1,0,3.7,1.7,3.7,3.7V65C131.8,67.1,130.2,68.7,128.1,68.7"/>
				<path id="Stroke-7" class="st2" d="M128.1,68.7H53.3c-2.1,0-3.7-1.7-3.7-3.7V10.8c0-2.1,1.7-3.7,3.7-3.7h74.9
					c2.1,0,3.7,1.7,3.7,3.7V65C131.8,67.1,130.2,68.7,128.1,68.7z"/>
				<g id="Clip-10">
				</g>
				<defs>
					<filter id="Adobe_OpacityMaskFilter" filterUnits="userSpaceOnUse" x="99.1" y="64.1" width="21" height="4.7">
						<feColorMatrix  type="matrix" values="1 0 0 0 0  0 1 0 0 0  0 0 1 0 0  0 0 0 1 0"/>
					</filter>
				</defs>
				<mask maskUnits="userSpaceOnUse" x="99.1" y="64.1" width="21" height="4.7" id="mask-2_1_">
					<g class="st4">
						<polygon id="path-1_1_" class="st1" points="0.1,126.3 138.4,126.3 138.4,0.5 0.1,0.5 						"/>
					</g>
				</mask>
				<polygon id="Fill-9" class="st5" points="99.1,68.7 120,68.7 120,64.1 99.1,64.1 				"/>
				<defs>
					<filter id="Adobe_OpacityMaskFilter_1_" filterUnits="userSpaceOnUse" x="98.1" y="63.1" width="23" height="6.7">
						<feColorMatrix  type="matrix" values="1 0 0 0 0  0 1 0 0 0  0 0 1 0 0  0 0 0 1 0"/>
					</filter>
				</defs>
				<mask maskUnits="userSpaceOnUse" x="98.1" y="63.1" width="23" height="6.7" id="mask-2_2_">
					<g class="st6">
						<polygon id="path-1_2_" class="st1" points="0.1,126.3 138.4,126.3 138.4,0.5 0.1,0.5 						"/>
					</g>
				</mask>
				<polygon id="Stroke-11" class="st7" points="99.1,68.7 120,68.7 120,64.1 99.1,64.1 				"/>
				<defs>
					<filter id="Adobe_OpacityMaskFilter_2_" filterUnits="userSpaceOnUse" x="62.9" y="33.6" width="15.8" height="15.5">
						<feColorMatrix  type="matrix" values="1 0 0 0 0  0 1 0 0 0  0 0 1 0 0  0 0 0 1 0"/>
					</filter>
				</defs>
				<mask maskUnits="userSpaceOnUse" x="62.9" y="33.6" width="15.8" height="15.5" id="mask-2_3_">
					<g class="st8">
						<polygon id="path-1_3_" class="st1" points="0.1,126.3 138.4,126.3 138.4,0.5 0.1,0.5 						"/>
					</g>
				</mask>
				<path id="Fill-12" class="st9" d="M70.7,38.9c-1.4,0-2.6,1.2-2.6,2.5c0,1.4,1.2,2.6,2.6,2.6c1.4,0,2.6-1.2,2.6-2.6
					C73.3,40,72.1,38.9,70.7,38.9 M70.7,49.2c-4.3,0-7.9-3.5-7.9-7.8c0-4.3,3.5-7.7,7.9-7.7c1,0,2,0.2,2.8,0.6
					c0.2-0.2,0.4-0.3,0.7-0.3h3.3c0.6,0,1,0.4,1,1v12.9c0,0.6-0.4,1-1,1h-3.3c-0.3,0-0.5-0.1-0.7-0.3C72.8,49,71.8,49.2,70.7,49.2"
					/>
				<defs>
					<filter id="Adobe_OpacityMaskFilter_3_" filterUnits="userSpaceOnUse" x="61.9" y="32.6" width="17.8" height="17.5">
						<feColorMatrix  type="matrix" values="1 0 0 0 0  0 1 0 0 0  0 0 1 0 0  0 0 0 1 0"/>
					</filter>
				</defs>
				<mask maskUnits="userSpaceOnUse" x="61.9" y="32.6" width="17.8" height="17.5" id="mask-2_4_">
					<g class="st10">
						<polygon id="path-1_4_" class="st1" points="0.1,126.3 138.4,126.3 138.4,0.5 0.1,0.5 						"/>
					</g>
				</mask>
				<path id="Fill-13" class="st11" d="M70.7,43c-0.8,0-1.6-0.7-1.6-1.6c0-0.8,0.7-1.5,1.6-1.5c0.8,0,1.6,0.7,1.6,1.5
					C72.3,42.2,71.6,43,70.7,43 M70.7,32.6c-4.9,0-8.9,3.9-8.9,8.7c0,4.8,4,8.8,8.9,8.8c1,0,2-0.2,2.9-0.5c0.2,0.1,0.5,0.1,0.7,0.1
					h3.3c1.1,0,2-0.9,2-2V34.9c0-1.1-0.9-2-2-2h-3.3c-0.3,0-0.6,0.1-0.9,0.2C72.6,32.8,71.7,32.6,70.7,32.6 M70.7,45
					c2,0,3.6-1.6,3.6-3.6c0-1.9-1.6-3.5-3.6-3.5c-2,0-3.6,1.6-3.6,3.5C67.2,43.3,68.8,45,70.7,45 M70.7,34.6c1.3,0,2.5,0.4,3.6,1.2
					v-1h3.3v12.9h-3.3V47c-1,0.8-2.3,1.2-3.6,1.2c-3.8,0-6.9-3-6.9-6.8C63.9,37.6,66.9,34.6,70.7,34.6"/>
				<defs>
					<filter id="Adobe_OpacityMaskFilter_4_" filterUnits="userSpaceOnUse" x="84.3" y="26.7" width="15.8" height="22.5">
						<feColorMatrix  type="matrix" values="1 0 0 0 0  0 1 0 0 0  0 0 1 0 0  0 0 0 1 0"/>
					</filter>
				</defs>
				<mask maskUnits="userSpaceOnUse" x="84.3" y="26.7" width="15.8" height="22.5" id="mask-2_5_">
					<g class="st12">
						<polygon id="path-1_5_" class="st1" points="0.1,126.3 138.4,126.3 138.4,0.5 0.1,0.5 						"/>
					</g>
				</mask>
				<path id="Fill-14" class="st13" d="M92.2,38.9c-1.3,0-2.5,1.1-2.6,2.4l0,0.3c0.1,1.3,1.2,2.4,2.6,2.4c1.4,0,2.6-1.2,2.6-2.6
					C94.8,40,93.6,38.9,92.2,38.9 M92.2,49.2c-1.1,0-2.1-0.2-2.9-0.6c-0.2,0.2-0.4,0.3-0.7,0.3h-3.3c-0.6,0-1-0.4-1-1V27.7
					c0-0.6,0.4-1,1-1h3.3c0.6,0,1,0.4,1,1v6.4c0.8-0.3,1.7-0.5,2.6-0.5c4.3,0,7.9,3.5,7.9,7.7C100.1,45.7,96.5,49.2,92.2,49.2"/>
				<defs>
					<filter id="Adobe_OpacityMaskFilter_5_" filterUnits="userSpaceOnUse" x="83.3" y="25.7" width="17.8" height="24.5">
						<feColorMatrix  type="matrix" values="1 0 0 0 0  0 1 0 0 0  0 0 1 0 0  0 0 0 1 0"/>
					</filter>
				</defs>
				<mask maskUnits="userSpaceOnUse" x="83.3" y="25.7" width="17.8" height="24.5" id="mask-2_6_">
					<g class="st14">
						<polygon id="path-1_6_" class="st1" points="0.1,126.3 138.4,126.3 138.4,0.5 0.1,0.5 						"/>
					</g>
				</mask>
				<path id="Fill-15" class="st15" d="M90.6,41.3c0.1-0.8,0.8-1.5,1.6-1.5c0.8,0,1.6,0.7,1.6,1.5c0,0.8-0.7,1.6-1.6,1.6
					c-0.8,0-1.5-0.7-1.6-1.5V41.3z M88.6,25.7h-3.3c-1.1,0-2,0.9-2,2v20.1c0,1.1,0.9,2,2,2h3.3c0.3,0,0.5,0,0.7-0.1
					c0.9,0.3,1.8,0.5,2.9,0.5c4.9,0,8.9-3.9,8.9-8.8c0-4.8-4-8.7-8.9-8.7c-0.6,0-1.1,0-1.6,0.1v-5.1C90.6,26.6,89.7,25.7,88.6,25.7
					L88.6,25.7z M92.2,45c2,0,3.6-1.6,3.6-3.6c0-1.9-1.6-3.5-3.6-3.5c-1.9,0-3.5,1.6-3.6,3.4v0.3C88.7,43.4,90.3,45,92.2,45L92.2,45
					z M88.6,27.7v8.2c1-0.8,2.3-1.2,3.6-1.2c3.8,0,6.9,3,6.9,6.7c0,3.7-3,6.8-6.9,6.8c-1.3,0-2.6-0.4-3.6-1.2v0.8h-3.3V27.7H88.6
					L88.6,27.7z"/>
				<defs>
					<filter id="Adobe_OpacityMaskFilter_6_" filterUnits="userSpaceOnUse" x="103.8" y="33.6" width="14.7" height="15.5">
						<feColorMatrix  type="matrix" values="1 0 0 0 0  0 1 0 0 0  0 0 1 0 0  0 0 0 1 0"/>
					</filter>
				</defs>
				<mask maskUnits="userSpaceOnUse" x="103.8" y="33.6" width="14.7" height="15.5" id="mask-2_7_">
					<g class="st16">
						<polygon id="path-1_7_" class="st1" points="0.1,126.3 138.4,126.3 138.4,0.5 0.1,0.5 						"/>
					</g>
				</mask>
				<path id="Fill-16" class="st17" d="M111.6,49.2c-4.3,0-7.9-3.5-7.9-7.8c0-4.3,3.5-7.7,7.9-7.7c2.7,0,5.2,1.3,6.6,3.5
					c0.2,0.2,0.2,0.5,0.1,0.8c-0.1,0.3-0.2,0.5-0.5,0.6l-2.9,1.7c-0.2,0.1-0.3,0.1-0.5,0.1c-0.3,0-0.6-0.1-0.8-0.4
					c-0.5-0.7-1.3-1.1-2.1-1.1c-1.4,0-2.6,1.2-2.6,2.5c0,1.4,1.2,2.6,2.6,2.6c0.9,0,1.7-0.4,2.2-1.2c0.2-0.3,0.5-0.5,0.9-0.5
					c0.2,0,0.3,0,0.5,0.1l2.8,1.7c0.2,0.1,0.4,0.4,0.5,0.6c0.1,0.3,0,0.5-0.1,0.8C116.9,47.8,114.3,49.2,111.6,49.2"/>
				<defs>
					<filter id="Adobe_OpacityMaskFilter_7_" filterUnits="userSpaceOnUse" x="102.8" y="32.6" width="16.7" height="17.5">
						<feColorMatrix  type="matrix" values="1 0 0 0 0  0 1 0 0 0  0 0 1 0 0  0 0 0 1 0"/>
					</filter>
				</defs>
				<mask maskUnits="userSpaceOnUse" x="102.8" y="32.6" width="16.7" height="17.5" id="mask-2_8_">
					<g class="st18">
						<polygon id="path-1_8_" class="st1" points="0.1,126.3 138.4,126.3 138.4,0.5 0.1,0.5 						"/>
					</g>
				</mask>
				<path id="Fill-17" class="st19" d="M111.6,43c-0.8,0-1.6-0.7-1.6-1.6c0-0.8,0.7-1.5,1.6-1.5c0.5,0,1,0.2,1.3,0.7
					c0.3,0.4,0.8,0.7,1.3,0.8c-0.5,0.1-1,0.4-1.3,0.9C112.7,42.7,112.2,43,111.6,43 M111.6,32.6c-4.9,0-8.9,3.9-8.9,8.7
					c0,4.8,4,8.8,8.9,8.8c3.1,0,5.9-1.6,7.5-4.1c0.3-0.5,0.4-1,0.3-1.5c-0.1-0.5-0.5-1-0.9-1.3l-2.8-1.7c-0.2-0.1-0.4-0.2-0.7-0.2
					c0.2,0,0.4-0.1,0.6-0.2l2.9-1.7c0.5-0.3,0.8-0.7,0.9-1.3c0.1-0.5,0-1.1-0.3-1.6C117.4,34.1,114.7,32.6,111.6,32.6 M111.6,34.6
					c2.4,0,4.6,1.2,5.8,3.1l-2.9,1.7c-0.7-0.9-1.7-1.5-2.9-1.5c-2,0-3.6,1.6-3.6,3.5c0,1.9,1.6,3.6,3.6,3.6c1.3,0,2.4-0.7,3-1.7
					l2.8,1.7c-1.2,1.9-3.4,3.2-5.8,3.2c-3.8,0-6.9-3-6.9-6.8C104.8,37.6,107.8,34.6,111.6,34.6"/>
				<defs>
					<filter id="Adobe_OpacityMaskFilter_8_" filterUnits="userSpaceOnUse" x="1.1" y="80.7" width="65.8" height="44.4">
						<feColorMatrix  type="matrix" values="1 0 0 0 0  0 1 0 0 0  0 0 1 0 0  0 0 0 1 0"/>
					</filter>
				</defs>
				<mask maskUnits="userSpaceOnUse" x="1.1" y="80.7" width="65.8" height="44.4" id="mask-2_9_">
					<g class="st20">
						<polygon id="path-1_9_" class="st1" points="0.1,126.3 138.4,126.3 138.4,0.5 0.1,0.5 						"/>
					</g>
				</mask>
				<path id="Fill-18" class="st21" d="M45.7,80.7H22.3c-11.7,0-21.2,9.5-21.2,21.2v23.3h65.8v-23.3C66.9,90.3,57.4,80.7,45.7,80.7"
					/>
				<defs>
					<filter id="Adobe_OpacityMaskFilter_9_" filterUnits="userSpaceOnUse" x="0.1" y="79.7" width="67.8" height="46.4">
						<feColorMatrix  type="matrix" values="1 0 0 0 0  0 1 0 0 0  0 0 1 0 0  0 0 0 1 0"/>
					</filter>
				</defs>
				<mask maskUnits="userSpaceOnUse" x="0.1" y="79.7" width="67.8" height="46.4" id="mask-2_10_">
					<g class="st22">
						<polygon id="path-1_10_" class="st1" points="0.1,126.3 138.4,126.3 138.4,0.5 0.1,0.5 						"/>
					</g>
				</mask>
				<path id="Stroke-19" class="st23" d="M45.7,80.7H22.3c-11.7,0-21.2,9.5-21.2,21.2v23.3h65.8v-23.3
					C66.9,90.3,57.4,80.7,45.7,80.7z"/>
				<defs>
					<filter id="Adobe_OpacityMaskFilter_10_" filterUnits="userSpaceOnUse" x="13.3" y="101.7" width="2" height="24">
						<feColorMatrix  type="matrix" values="1 0 0 0 0  0 1 0 0 0  0 0 1 0 0  0 0 0 1 0"/>
					</filter>
				</defs>
				<mask maskUnits="userSpaceOnUse" x="13.3" y="101.7" width="2" height="24" id="mask-2_11_">
					<g class="st24">
						<polygon id="path-1_11_" class="st1" points="0.1,126.3 138.4,126.3 138.4,0.5 0.1,0.5 						"/>
					</g>
				</mask>
				<g id="Group-22" class="st25">
					<g transform="translate(13.147200, 102.259500)">
						<line id="Fill-20" class="st0" x1="1.1" y1="22.5" x2="1.1" y2="0.5"/>
						<line id="Stroke-21" class="st2" x1="1.1" y1="22.5" x2="1.1" y2="0.5"/>
					</g>
				</g>
				<defs>
					<filter id="Adobe_OpacityMaskFilter_11_" filterUnits="userSpaceOnUse" x="53.5" y="102.7" width="0" height="22">
						<feColorMatrix  type="matrix" values="1 0 0 0 0  0 1 0 0 0  0 0 1 0 0  0 0 0 1 0"/>
					</filter>
				</defs>
				<mask maskUnits="userSpaceOnUse" x="53.5" y="102.7" width="0" height="22" id="mask-2_12_">
					<g class="st26">
						<polygon id="path-1_12_" class="st1" points="0.1,126.3 138.4,126.3 138.4,0.5 0.1,0.5 						"/>
					</g>
				</mask>
				<line id="Fill-23" class="st27" x1="53.5" y1="124.8" x2="53.5" y2="102.7"/>
				<defs>
					<filter id="Adobe_OpacityMaskFilter_12_" filterUnits="userSpaceOnUse" x="52.5" y="101.7" width="2" height="24">
						<feColorMatrix  type="matrix" values="1 0 0 0 0  0 1 0 0 0  0 0 1 0 0  0 0 0 1 0"/>
					</filter>
				</defs>
				<mask maskUnits="userSpaceOnUse" x="52.5" y="101.7" width="2" height="24" id="mask-2_13_">
					<g class="st28">
						<polygon id="path-1_13_" class="st1" points="0.1,126.3 138.4,126.3 138.4,0.5 0.1,0.5 						"/>
					</g>
				</mask>
				<line id="Stroke-24" class="st29" x1="53.5" y1="124.8" x2="53.5" y2="102.7"/>
				<defs>
					<filter id="Adobe_OpacityMaskFilter_13_" filterUnits="userSpaceOnUse" x="24.1" y="69.4" width="17.5" height="19.7">
						<feColorMatrix  type="matrix" values="1 0 0 0 0  0 1 0 0 0  0 0 1 0 0  0 0 0 1 0"/>
					</filter>
				</defs>
				<mask maskUnits="userSpaceOnUse" x="24.1" y="69.4" width="17.5" height="19.7" id="mask-2_14_">
					<g class="st30">
						<polygon id="path-1_14_" class="st1" points="0.1,126.3 138.4,126.3 138.4,0.5 0.1,0.5 						"/>
					</g>
				</mask>
				<g id="Group-28" class="st31">
					<g transform="translate(25.147200, 70.259500)">
						<path id="Fill-26" class="st1" d="M0,10v-10h15.5v10c0,4.3-3.5,7.8-7.8,7.8S0,14.3,0,10"/>
						<path id="Stroke-27" class="st2" d="M0,10v-10h15.5v10c0,4.3-3.5,7.8-7.8,7.8S0,14.3,0,10"/>
					</g>
				</g>
				<defs>
					<filter id="Adobe_OpacityMaskFilter_14_" filterUnits="userSpaceOnUse" x="5.4" y="16" width="53.9" height="41.4">
						<feColorMatrix  type="matrix" values="1 0 0 0 0  0 1 0 0 0  0 0 1 0 0  0 0 0 1 0"/>
					</filter>
				</defs>
				<mask maskUnits="userSpaceOnUse" x="5.4" y="16" width="53.9" height="41.4" id="mask-2_15_">
					<g class="st32">
						<polygon id="path-1_15_" class="st1" points="0.1,126.3 138.4,126.3 138.4,0.5 0.1,0.5 						"/>
					</g>
				</mask>
				<g id="Group-31" class="st33">
					<g transform="translate(6.147200, 16.259500)">
						<path id="Fill-29" class="st1" d="M4.9,37.5c0.3-0.9-8.1-3.1-3.1-18.6C3.7,13,7.2,9,11.2,6.3C17.9,1.7,28.5-1.6,32,2.9
							c5.1,6.5,8.6,0.2,14,2.3c8.6,3.4,2.6,11.2,2.6,11.2s3.8,5.2,3.6,8.7c-0.7,11.5-5.3,15-5.3,15"/>
						<path id="Stroke-30" class="st2" d="M4.9,37.5c0.3-0.9-8.1-3.1-3.1-18.6C3.7,13,7.2,9,11.2,6.3C17.9,1.7,28.5-1.6,32,2.9
							c5.1,6.5,8.6,0.2,14,2.3c8.6,3.4,2.6,11.2,2.6,11.2s3.8,5.2,3.6,8.7c-0.7,11.5-5.3,15-5.3,15"/>
					</g>
				</g>
				<defs>
					<filter id="Adobe_OpacityMaskFilter_15_" filterUnits="userSpaceOnUse" x="4.9" y="48.5" width="14.9" height="12.1">
						<feColorMatrix  type="matrix" values="1 0 0 0 0  0 1 0 0 0  0 0 1 0 0  0 0 0 1 0"/>
					</filter>
				</defs>
				<mask maskUnits="userSpaceOnUse" x="4.9" y="48.5" width="14.9" height="12.1" id="mask-2_16_">
					<g class="st34">
						<polygon id="path-1_16_" class="st1" points="0.1,126.3 138.4,126.3 138.4,0.5 0.1,0.5 						"/>
					</g>
				</mask>
				<path id="Fill-32" class="st35" d="M19.8,54.5c0,3.3-3.3,6.1-7.5,6.1c-4.1,0-7.5-2.7-7.5-6.1c0-3.3,3.3-6.1,7.5-6.1
					C16.4,48.5,19.8,51.2,19.8,54.5"/>
				<defs>
					<filter id="Adobe_OpacityMaskFilter_16_" filterUnits="userSpaceOnUse" x="3.9" y="47.5" width="16.9" height="14.1">
						<feColorMatrix  type="matrix" values="1 0 0 0 0  0 1 0 0 0  0 0 1 0 0  0 0 0 1 0"/>
					</filter>
				</defs>
				<mask maskUnits="userSpaceOnUse" x="3.9" y="47.5" width="16.9" height="14.1" id="mask-2_17_">
					<g class="st36">
						<polygon id="path-1_17_" class="st1" points="0.1,126.3 138.4,126.3 138.4,0.5 0.1,0.5 						"/>
					</g>
				</mask>
				<path id="Stroke-33" class="st37" d="M19.8,54.5c0,3.3-3.3,6.1-7.5,6.1c-4.1,0-7.5-2.7-7.5-6.1c0-3.3,3.3-6.1,7.5-6.1
					C16.4,48.5,19.8,51.2,19.8,54.5z"/>
				<defs>
					<filter id="Adobe_OpacityMaskFilter_17_" filterUnits="userSpaceOnUse" x="44.8" y="48.5" width="14.9" height="12.1">
						<feColorMatrix  type="matrix" values="1 0 0 0 0  0 1 0 0 0  0 0 1 0 0  0 0 0 1 0"/>
					</filter>
				</defs>
				<mask maskUnits="userSpaceOnUse" x="44.8" y="48.5" width="14.9" height="12.1" id="mask-2_18_">
					<g class="st38">
						<polygon id="path-1_18_" class="st1" points="0.1,126.3 138.4,126.3 138.4,0.5 0.1,0.5 						"/>
					</g>
				</mask>
				<path id="Fill-34" class="st39" d="M59.7,54.5c0,3.3-3.3,6.1-7.5,6.1s-7.5-2.7-7.5-6.1c0-3.3,3.3-6.1,7.5-6.1
					S59.7,51.2,59.7,54.5"/>
				<defs>
					<filter id="Adobe_OpacityMaskFilter_18_" filterUnits="userSpaceOnUse" x="43.8" y="47.5" width="16.9" height="14.1">
						<feColorMatrix  type="matrix" values="1 0 0 0 0  0 1 0 0 0  0 0 1 0 0  0 0 0 1 0"/>
					</filter>
				</defs>
				<mask maskUnits="userSpaceOnUse" x="43.8" y="47.5" width="16.9" height="14.1" id="mask-2_19_">
					<g class="st40">
						<polygon id="path-1_19_" class="st1" points="0.1,126.3 138.4,126.3 138.4,0.5 0.1,0.5 						"/>
					</g>
				</mask>
				<path id="Stroke-35" class="st41" d="M59.7,54.5c0,3.3-3.3,6.1-7.5,6.1s-7.5-2.7-7.5-6.1c0-3.3,3.3-6.1,7.5-6.1
					S59.7,51.2,59.7,54.5z"/>
				<defs>
					<filter id="Adobe_OpacityMaskFilter_19_" filterUnits="userSpaceOnUse" x="12.3" y="32.5" width="40.9" height="43">
						<feColorMatrix  type="matrix" values="1 0 0 0 0  0 1 0 0 0  0 0 1 0 0  0 0 0 1 0"/>
					</filter>
				</defs>
				<mask maskUnits="userSpaceOnUse" x="12.3" y="32.5" width="40.9" height="43" id="mask-2_20_">
					<g class="st42">
						<polygon id="path-1_20_" class="st1" points="0.1,126.3 138.4,126.3 138.4,0.5 0.1,0.5 						"/>
					</g>
				</mask>
				<path id="Fill-36" class="st43" d="M24,33.8c-6.9,3.1-11.7,9.7-11.7,17.3v5.3c0,10.5,9.2,19.1,20.3,19.1
					c11.2,0,20.3-8.6,20.3-19.1l0.2-6c0-5.3-7.4-4.1-13.4-8.1c-6.8-4.5-6.2-10.6-12-9.6L24,33.8z"/>
				<defs>
					<filter id="Adobe_OpacityMaskFilter_20_" filterUnits="userSpaceOnUse" x="11.3" y="31.5" width="42.9" height="45">
						<feColorMatrix  type="matrix" values="1 0 0 0 0  0 1 0 0 0  0 0 1 0 0  0 0 0 1 0"/>
					</filter>
				</defs>
				<mask maskUnits="userSpaceOnUse" x="11.3" y="31.5" width="42.9" height="45" id="mask-2_21_">
					<g class="st44">
						<polygon id="path-1_21_" class="st1" points="0.1,126.3 138.4,126.3 138.4,0.5 0.1,0.5 						"/>
					</g>
				</mask>
				<path id="Stroke-37" class="st45" d="M24,33.8c-6.9,3.1-11.7,9.7-11.7,17.3v5.3c0,10.5,9.2,19.1,20.3,19.1
					c11.2,0,20.3-8.6,20.3-19.1l0.2-6c0-5.3-7.4-4.1-13.4-8.1c-6.8-4.5-6.2-10.6-12-9.6L24,33.8z"/>
				<defs>
					<filter id="Adobe_OpacityMaskFilter_21_" filterUnits="userSpaceOnUse" x="23.4" y="60.6" width="18.5" height="7.3">
						<feColorMatrix  type="matrix" values="1 0 0 0 0  0 1 0 0 0  0 0 1 0 0  0 0 0 1 0"/>
					</filter>
				</defs>
				<mask maskUnits="userSpaceOnUse" x="23.4" y="60.6" width="18.5" height="7.3" id="mask-2_22_">
					<g class="st46">
						<polygon id="path-1_22_" class="st1" points="0.1,126.3 138.4,126.3 138.4,0.5 0.1,0.5 						"/>
					</g>
				</mask>
				<g id="Group-40" class="st47">
					<g transform="translate(24.147200, 61.259500)">
						<path id="Fill-38" class="st1" d="M0.3,0.3c0.2,0.4,2.8,5,7.7,5.3c3.5,0.2,6.9-1.8,8.8-5.3"/>
						<path id="Stroke-39" class="st2" d="M0.3,0.3c0.2,0.4,2.8,5,7.7,5.3c3.5,0.2,6.9-1.8,8.8-5.3"/>
					</g>
				</g>
				<defs>
					<filter id="Adobe_OpacityMaskFilter_22_" filterUnits="userSpaceOnUse" x="22.4" y="79.9" width="10.9" height="13.7">
						<feColorMatrix  type="matrix" values="1 0 0 0 0  0 1 0 0 0  0 0 1 0 0  0 0 0 1 0"/>
					</filter>
				</defs>
				<mask maskUnits="userSpaceOnUse" x="22.4" y="79.9" width="10.9" height="13.7" id="mask-2_23_">
					<g class="st48">
						<polygon id="path-1_23_" class="st1" points="0.1,126.3 138.4,126.3 138.4,0.5 0.1,0.5 						"/>
					</g>
				</mask>
				<g id="Group-43" class="st49">
					<g transform="translate(23.147200, 80.259500)">
						<polyline id="Fill-41" class="st1" points="0.3,12.3 9.2,8 0.7,0.6 						"/>
						<polyline id="Stroke-42" class="st2" points="0.3,12.3 9.2,8 0.7,0.6 						"/>
					</g>
				</g>
				<defs>
					<filter id="Adobe_OpacityMaskFilter_23_" filterUnits="userSpaceOnUse" x="32.4" y="79.9" width="10.9" height="14.1">
						<feColorMatrix  type="matrix" values="1 0 0 0 0  0 1 0 0 0  0 0 1 0 0  0 0 0 1 0"/>
					</filter>
				</defs>
				<mask maskUnits="userSpaceOnUse" x="32.4" y="79.9" width="10.9" height="14.1" id="mask-2_24_">
					<g class="st50">
						<polygon id="path-1_24_" class="st1" points="0.1,126.3 138.4,126.3 138.4,0.5 0.1,0.5 						"/>
					</g>
				</mask>
				<g id="Group-46" class="st51">
					<g transform="translate(33.147200, 80.259500)">
						<polyline id="Fill-44" class="st1" points="9.1,12.8 0.3,8 9.1,0.7 						"/>
						<polyline id="Stroke-45" class="st2" points="9.1,12.8 0.3,8 9.1,0.7 						"/>
					</g>
				</g>
				<defs>
					<filter id="Adobe_OpacityMaskFilter_24_" filterUnits="userSpaceOnUse" x="12.3" y="50.6" width="41.9" height="2">
						<feColorMatrix  type="matrix" values="1 0 0 0 0  0 1 0 0 0  0 0 1 0 0  0 0 0 1 0"/>
					</filter>
				</defs>
				<mask maskUnits="userSpaceOnUse" x="12.3" y="50.6" width="41.9" height="2" id="mask-2_25_">
					<g class="st52">
						<polygon id="path-1_25_" class="st1" points="0.1,126.3 138.4,126.3 138.4,0.5 0.1,0.5 						"/>
					</g>
				</mask>
				<g id="Group-49" class="st53">
					<g transform="translate(13.147200, 50.259500)">
						<line id="Fill-47" class="st0" x1="0.2" y1="1.3" x2="40.1" y2="1.3"/>
						<line id="Stroke-48" class="st2" x1="0.2" y1="1.3" x2="40.1" y2="1.3"/>
					</g>
				</g>
				<defs>
					<filter id="Adobe_OpacityMaskFilter_25_" filterUnits="userSpaceOnUse" x="17.7" y="46.1" width="11.2" height="11.2">
						<feColorMatrix  type="matrix" values="1 0 0 0 0  0 1 0 0 0  0 0 1 0 0  0 0 0 1 0"/>
					</filter>
				</defs>
				<mask maskUnits="userSpaceOnUse" x="17.7" y="46.1" width="11.2" height="11.2" id="mask-2_26_">
					<g class="st54">
						<polygon id="path-1_26_" class="st1" points="0.1,126.3 138.4,126.3 138.4,0.5 0.1,0.5 						"/>
					</g>
				</mask>
				<path id="Fill-50" class="st55" d="M28.9,51.7c0,3.1-2.5,5.6-5.6,5.6s-5.6-2.5-5.6-5.6c0-3.1,2.5-5.6,5.6-5.6
					S28.9,48.6,28.9,51.7"/>
				<defs>
					<filter id="Adobe_OpacityMaskFilter_26_" filterUnits="userSpaceOnUse" x="16.7" y="45.1" width="13.2" height="13.2">
						<feColorMatrix  type="matrix" values="1 0 0 0 0  0 1 0 0 0  0 0 1 0 0  0 0 0 1 0"/>
					</filter>
				</defs>
				<mask maskUnits="userSpaceOnUse" x="16.7" y="45.1" width="13.2" height="13.2" id="mask-2_27_">
					<g class="st56">
						<polygon id="path-1_27_" class="st1" points="0.1,126.3 138.4,126.3 138.4,0.5 0.1,0.5 						"/>
					</g>
				</mask>
				<path id="Stroke-51" class="st57" d="M28.9,51.7c0,3.1-2.5,5.6-5.6,5.6s-5.6-2.5-5.6-5.6c0-3.1,2.5-5.6,5.6-5.6
					S28.9,48.6,28.9,51.7z"/>
				<defs>
					<filter id="Adobe_OpacityMaskFilter_27_" filterUnits="userSpaceOnUse" x="36.3" y="46.1" width="11.2" height="11.2">
						<feColorMatrix  type="matrix" values="1 0 0 0 0  0 1 0 0 0  0 0 1 0 0  0 0 0 1 0"/>
					</filter>
				</defs>
				<mask maskUnits="userSpaceOnUse" x="36.3" y="46.1" width="11.2" height="11.2" id="mask-2_28_">
					<g class="st58">
						<polygon id="path-1_28_" class="st1" points="0.1,126.3 138.4,126.3 138.4,0.5 0.1,0.5 						"/>
					</g>
				</mask>
				<path id="Fill-52" class="st59" d="M47.5,51.7c0,3.1-2.5,5.6-5.6,5.6c-3.1,0-5.6-2.5-5.6-5.6c0-3.1,2.5-5.6,5.6-5.6
					C45,46.1,47.5,48.6,47.5,51.7"/>
				<defs>
					<filter id="Adobe_OpacityMaskFilter_28_" filterUnits="userSpaceOnUse" x="35.3" y="45.1" width="13.2" height="13.2">
						<feColorMatrix  type="matrix" values="1 0 0 0 0  0 1 0 0 0  0 0 1 0 0  0 0 0 1 0"/>
					</filter>
				</defs>
				<mask maskUnits="userSpaceOnUse" x="35.3" y="45.1" width="13.2" height="13.2" id="mask-2_29_">
					<g class="st60">
						<polygon id="path-1_29_" class="st1" points="0.1,126.3 138.4,126.3 138.4,0.5 0.1,0.5 						"/>
					</g>
				</mask>
				<path id="Stroke-53" class="st61" d="M47.5,51.7c0,3.1-2.5,5.6-5.6,5.6c-3.1,0-5.6-2.5-5.6-5.6c0-3.1,2.5-5.6,5.6-5.6
					C45,46.1,47.5,48.6,47.5,51.7z"/>
				<defs>
					<filter id="Adobe_OpacityMaskFilter_29_" filterUnits="userSpaceOnUse" x="15.9" y="80.7" width="33.7" height="24.2">
						<feColorMatrix  type="matrix" values="1 0 0 0 0  0 1 0 0 0  0 0 1 0 0  0 0 0 1 0"/>
					</filter>
				</defs>
				<mask maskUnits="userSpaceOnUse" x="15.9" y="80.7" width="33.7" height="24.2" id="mask-2_30_">
					<g class="st62">
						<polygon id="path-1_30_" class="st1" points="0.1,126.3 138.4,126.3 138.4,0.5 0.1,0.5 						"/>
					</g>
				</mask>
				<path id="Stroke-54" class="st63" d="M16.9,82.6c0,0,10.6,21.3,15.6,21.3s16.1-22.2,16.1-22.2"/>
				<defs>
					<filter id="Adobe_OpacityMaskFilter_30_" filterUnits="userSpaceOnUse" x="10.6" y="82.2" width="44.7" height="30">
						<feColorMatrix  type="matrix" values="1 0 0 0 0  0 1 0 0 0  0 0 1 0 0  0 0 0 1 0"/>
					</filter>
				</defs>
				<mask maskUnits="userSpaceOnUse" x="10.6" y="82.2" width="44.7" height="30" id="mask-2_31_">
					<g class="st64">
						<polygon id="path-1_31_" class="st1" points="0.1,126.3 138.4,126.3 138.4,0.5 0.1,0.5 						"/>
					</g>
				</mask>
				<path id="Stroke-55" class="st65" d="M11.6,84.2c0,0,4.2,8.3,6.1,11.3c2.2,3.6,8.4,15.3,15.2,15.7c9.2,0.5,21.4-27.9,21.4-27.9"
					/>
				<defs>
					<filter id="Adobe_OpacityMaskFilter_31_" filterUnits="userSpaceOnUse" x="28.6" y="88.1" width="8.2" height="6.7">
						<feColorMatrix  type="matrix" values="1 0 0 0 0  0 1 0 0 0  0 0 1 0 0  0 0 0 1 0"/>
					</filter>
				</defs>
				<mask maskUnits="userSpaceOnUse" x="28.6" y="88.1" width="8.2" height="6.7" id="mask-2_32_">
					<g class="st66">
						<polygon id="path-1_32_" class="st1" points="0.1,126.3 138.4,126.3 138.4,0.5 0.1,0.5 						"/>
					</g>
				</mask>
				<polygon id="Fill-56" class="st67" points="28.6,91.1 31.1,94.8 34.6,94.8 36.8,91.3 32.9,88.1 				"/>
				<defs>
					<filter id="Adobe_OpacityMaskFilter_32_" filterUnits="userSpaceOnUse" x="27.6" y="87.1" width="10.2" height="8.7">
						<feColorMatrix  type="matrix" values="1 0 0 0 0  0 1 0 0 0  0 0 1 0 0  0 0 0 1 0"/>
					</filter>
				</defs>
				<mask maskUnits="userSpaceOnUse" x="27.6" y="87.1" width="10.2" height="8.7" id="mask-2_33_">
					<g class="st68">
						<polygon id="path-1_33_" class="st1" points="0.1,126.3 138.4,126.3 138.4,0.5 0.1,0.5 						"/>
					</g>
				</mask>
				<polygon id="Stroke-57" class="st69" points="28.6,91.1 31.1,94.8 34.6,94.8 36.8,91.3 32.9,88.1 				"/>
				<defs>
					<filter id="Adobe_OpacityMaskFilter_33_" filterUnits="userSpaceOnUse" x="29" y="94.8" width="7.5" height="9.7">
						<feColorMatrix  type="matrix" values="1 0 0 0 0  0 1 0 0 0  0 0 1 0 0  0 0 0 1 0"/>
					</filter>
				</defs>
				<mask maskUnits="userSpaceOnUse" x="29" y="94.8" width="7.5" height="9.7" id="mask-2_34_">
					<g class="st70">
						<polygon id="path-1_34_" class="st1" points="0.1,126.3 138.4,126.3 138.4,0.5 0.1,0.5 						"/>
					</g>
				</mask>
				<path id="Fill-58" class="st71" d="M36.5,101.1l-1.9-6.3h-3.5l-2.1,6.9c0,0,2,2.6,3.7,2.8C34.5,104.7,36.5,101.1,36.5,101.1"/>
				<defs>
					<filter id="Adobe_OpacityMaskFilter_34_" filterUnits="userSpaceOnUse" x="28" y="93.8" width="9.5" height="11.7">
						<feColorMatrix  type="matrix" values="1 0 0 0 0  0 1 0 0 0  0 0 1 0 0  0 0 0 1 0"/>
					</filter>
				</defs>
				<mask maskUnits="userSpaceOnUse" x="28" y="93.8" width="9.5" height="11.7" id="mask-2_35_">
					<g class="st72">
						<polygon id="path-1_35_" class="st1" points="0.1,126.3 138.4,126.3 138.4,0.5 0.1,0.5 						"/>
					</g>
				</mask>
				<path id="Stroke-59" class="st73" d="M36.5,101.1l-1.9-6.3h-3.5l-2.1,6.9c0,0,2,2.6,3.7,2.8C34.5,104.7,36.5,101.1,36.5,101.1z"
					/>
				<defs>
					<filter id="Adobe_OpacityMaskFilter_35_" filterUnits="userSpaceOnUse" x="18.3" y="28.6" width="16.7" height="11.8">
						<feColorMatrix  type="matrix" values="1 0 0 0 0  0 1 0 0 0  0 0 1 0 0  0 0 0 1 0"/>
					</filter>
				</defs>
				<mask maskUnits="userSpaceOnUse" x="18.3" y="28.6" width="16.7" height="11.8" id="mask-2_36_">
					<g class="st74">
						<polygon id="path-1_36_" class="st1" points="0.1,126.3 138.4,126.3 138.4,0.5 0.1,0.5 						"/>
					</g>
				</mask>
				<g id="Group-62" class="st75">
					<g transform="translate(19.147200, 29.259500)">
						<path id="Fill-60" class="st1" d="M0.2,3.1c0,0,1.2,6.8,7.9,7c6.8,0.2,6.8-9.8,6.8-9.8"/>
						<path id="Stroke-61" class="st76" d="M0.2,3.1c0,0,1.2,6.8,7.9,7c6.8,0.2,6.8-9.8,6.8-9.8"/>
					</g>
				</g>
				<defs>
					<filter id="Adobe_OpacityMaskFilter_36_" filterUnits="userSpaceOnUse" x="75.3" y="112.8" width="40.1" height="12.4">
						<feColorMatrix  type="matrix" values="1 0 0 0 0  0 1 0 0 0  0 0 1 0 0  0 0 0 1 0"/>
					</filter>
				</defs>
				<mask maskUnits="userSpaceOnUse" x="75.3" y="112.8" width="40.1" height="12.4" id="mask-2_37_">
					<g class="st77">
						<polygon id="path-1_37_" class="st1" points="0.1,126.3 138.4,126.3 138.4,0.5 0.1,0.5 						"/>
					</g>
				</mask>
				<polygon id="Fill-63" class="st78" points="75.3,125.3 115.4,125.3 115.4,112.8 75.3,112.8 				"/>
				<defs>
					<filter id="Adobe_OpacityMaskFilter_37_" filterUnits="userSpaceOnUse" x="74.3" y="111.8" width="42.1" height="14.4">
						<feColorMatrix  type="matrix" values="1 0 0 0 0  0 1 0 0 0  0 0 1 0 0  0 0 0 1 0"/>
					</filter>
				</defs>
				<mask maskUnits="userSpaceOnUse" x="74.3" y="111.8" width="42.1" height="14.4" id="mask-2_38_">
					<g class="st79">
						<polygon id="path-1_38_" class="st1" points="0.1,126.3 138.4,126.3 138.4,0.5 0.1,0.5 						"/>
					</g>
				</mask>
				<polygon id="Stroke-64" class="st80" points="75.3,125.3 115.4,125.3 115.4,112.8 75.3,112.8 				"/>
				<defs>
					<filter id="Adobe_OpacityMaskFilter_38_" filterUnits="userSpaceOnUse" x="65.8" y="100.2" width="40.1" height="12.6">
						<feColorMatrix  type="matrix" values="1 0 0 0 0  0 1 0 0 0  0 0 1 0 0  0 0 0 1 0"/>
					</filter>
				</defs>
				<mask maskUnits="userSpaceOnUse" x="65.8" y="100.2" width="40.1" height="12.6" id="mask-2_39_">
					<g class="st81">
						<polygon id="path-1_39_" class="st1" points="0.1,126.3 138.4,126.3 138.4,0.5 0.1,0.5 						"/>
					</g>
				</mask>
				<polygon id="Fill-65" class="st82" points="65.8,112.8 105.9,112.8 105.9,100.2 65.8,100.2 				"/>
				<defs>
					<filter id="Adobe_OpacityMaskFilter_39_" filterUnits="userSpaceOnUse" x="64.8" y="99.2" width="42.1" height="14.6">
						<feColorMatrix  type="matrix" values="1 0 0 0 0  0 1 0 0 0  0 0 1 0 0  0 0 0 1 0"/>
					</filter>
				</defs>
				<mask maskUnits="userSpaceOnUse" x="64.8" y="99.2" width="42.1" height="14.6" id="mask-2_40_">
					<g class="st83">
						<polygon id="path-1_40_" class="st1" points="0.1,126.3 138.4,126.3 138.4,0.5 0.1,0.5 						"/>
					</g>
				</mask>
				<polygon id="Stroke-66" class="st84" points="65.8,112.8 105.9,112.8 105.9,100.2 65.8,100.2 				"/>
				<defs>
					<filter id="Adobe_OpacityMaskFilter_40_" filterUnits="userSpaceOnUse" x="75.3" y="92.2" width="40.1" height="8">
						<feColorMatrix  type="matrix" values="1 0 0 0 0  0 1 0 0 0  0 0 1 0 0  0 0 0 1 0"/>
					</filter>
				</defs>
				<mask maskUnits="userSpaceOnUse" x="75.3" y="92.2" width="40.1" height="8" id="mask-2_41_">
					<g class="st85">
						<polygon id="path-1_41_" class="st1" points="0.1,126.3 138.4,126.3 138.4,0.5 0.1,0.5 						"/>
					</g>
				</mask>
				<polygon id="Fill-67" class="st86" points="75.3,100.2 115.4,100.2 115.4,92.2 75.3,92.2 				"/>
				<defs>
					<filter id="Adobe_OpacityMaskFilter_41_" filterUnits="userSpaceOnUse" x="74.3" y="91.2" width="42.1" height="10">
						<feColorMatrix  type="matrix" values="1 0 0 0 0  0 1 0 0 0  0 0 1 0 0  0 0 0 1 0"/>
					</filter>
				</defs>
				<mask maskUnits="userSpaceOnUse" x="74.3" y="91.2" width="42.1" height="10" id="mask-2_42_">
					<g class="st87">
						<polygon id="path-1_42_" class="st1" points="0.1,126.3 138.4,126.3 138.4,0.5 0.1,0.5 						"/>
					</g>
				</mask>
				<polygon id="Stroke-68" class="st88" points="75.3,100.2 115.4,100.2 115.4,92.2 75.3,92.2 				"/>
				<defs>
					<filter id="Adobe_OpacityMaskFilter_42_" filterUnits="userSpaceOnUse" x="80.8" y="111.8" width="2" height="13.6">
						<feColorMatrix  type="matrix" values="1 0 0 0 0  0 1 0 0 0  0 0 1 0 0  0 0 0 1 0"/>
					</filter>
				</defs>
				<mask maskUnits="userSpaceOnUse" x="80.8" y="111.8" width="2" height="13.6" id="mask-2_43_">
					<g class="st89">
						<polygon id="path-1_43_" class="st1" points="0.1,126.3 138.4,126.3 138.4,0.5 0.1,0.5 						"/>
					</g>
				</mask>
				<g id="Group-71" class="st90">
					<g transform="translate(81.147200, 112.259500)">
						<line id="Fill-69" class="st0" x1="0.7" y1="0.6" x2="0.7" y2="12.2"/>
						<line id="Stroke-70" class="st2" x1="0.7" y1="0.6" x2="0.7" y2="12.2"/>
					</g>
				</g>
				<defs>
					<filter id="Adobe_OpacityMaskFilter_43_" filterUnits="userSpaceOnUse" x="107.9" y="111.8" width="2" height="13.6">
						<feColorMatrix  type="matrix" values="1 0 0 0 0  0 1 0 0 0  0 0 1 0 0  0 0 0 1 0"/>
					</filter>
				</defs>
				<mask maskUnits="userSpaceOnUse" x="107.9" y="111.8" width="2" height="13.6" id="mask-2_44_">
					<g class="st91">
						<polygon id="path-1_44_" class="st1" points="0.1,126.3 138.4,126.3 138.4,0.5 0.1,0.5 						"/>
					</g>
				</mask>
				<g id="Group-74" class="st92">
					<g transform="translate(108.147200, 112.259500)">
						<line id="Fill-72" class="st0" x1="0.8" y1="0.6" x2="0.8" y2="12.2"/>
						<line id="Stroke-73" class="st2" x1="0.8" y1="0.6" x2="0.8" y2="12.2"/>
					</g>
				</g>
				<defs>
					<filter id="Adobe_OpacityMaskFilter_44_" filterUnits="userSpaceOnUse" x="100" y="99.2" width="2" height="14.6">
						<feColorMatrix  type="matrix" values="1 0 0 0 0  0 1 0 0 0  0 0 1 0 0  0 0 0 1 0"/>
					</filter>
				</defs>
				<mask maskUnits="userSpaceOnUse" x="100" y="99.2" width="2" height="14.6" id="mask-2_45_">
					<g class="st93">
						<polygon id="path-1_45_" class="st1" points="0.1,126.3 138.4,126.3 138.4,0.5 0.1,0.5 						"/>
					</g>
				</mask>
				<g id="Group-77" class="st94">
					<g transform="translate(100.147200, 99.259500)">
						<line id="Fill-75" class="st0" x1="0.9" y1="1" x2="0.9" y2="13.6"/>
						<line id="Stroke-76" class="st2" x1="0.9" y1="1" x2="0.9" y2="13.6"/>
					</g>
				</g>
				<defs>
					<filter id="Adobe_OpacityMaskFilter_45_" filterUnits="userSpaceOnUse" x="69.7" y="99.2" width="2" height="14.6">
						<feColorMatrix  type="matrix" values="1 0 0 0 0  0 1 0 0 0  0 0 1 0 0  0 0 0 1 0"/>
					</filter>
				</defs>
				<mask maskUnits="userSpaceOnUse" x="69.7" y="99.2" width="2" height="14.6" id="mask-2_46_">
					<g class="st95">
						<polygon id="path-1_46_" class="st1" points="0.1,126.3 138.4,126.3 138.4,0.5 0.1,0.5 						"/>
					</g>
				</mask>
				<g id="Group-80" class="st96">
					<g transform="translate(70.147200, 99.259500)">
						<line id="Fill-78" class="st0" x1="0.5" y1="1" x2="0.5" y2="13.6"/>
						<line id="Stroke-79" class="st2" x1="0.5" y1="1" x2="0.5" y2="13.6"/>
					</g>
				</g>
				<defs>
					<filter id="Adobe_OpacityMaskFilter_46_" filterUnits="userSpaceOnUse" x="74.5" y="99.2" width="2" height="14.6">
						<feColorMatrix  type="matrix" values="1 0 0 0 0  0 1 0 0 0  0 0 1 0 0  0 0 0 1 0"/>
					</filter>
				</defs>
				<mask maskUnits="userSpaceOnUse" x="74.5" y="99.2" width="2" height="14.6" id="mask-2_47_">
					<g class="st97">
						<polygon id="path-1_47_" class="st1" points="0.1,126.3 138.4,126.3 138.4,0.5 0.1,0.5 						"/>
					</g>
				</mask>
				<g id="Group-83" class="st98">
					<g transform="translate(74.147200, 99.259500)">
						<line id="Fill-81" class="st0" x1="1.4" y1="1" x2="1.4" y2="13.6"/>
						<line id="Stroke-82" class="st2" x1="1.4" y1="1" x2="1.4" y2="13.6"/>
					</g>
				</g>
				<defs>
					<filter id="Adobe_OpacityMaskFilter_47_" filterUnits="userSpaceOnUse" x="95" y="99.2" width="2" height="14.6">
						<feColorMatrix  type="matrix" values="1 0 0 0 0  0 1 0 0 0  0 0 1 0 0  0 0 0 1 0"/>
					</filter>
				</defs>
				<mask maskUnits="userSpaceOnUse" x="95" y="99.2" width="2" height="14.6" id="mask-2_48_">
					<g class="st99">
						<polygon id="path-1_48_" class="st1" points="0.1,126.3 138.4,126.3 138.4,0.5 0.1,0.5 						"/>
					</g>
				</mask>
				<g id="Group-86" class="st100">
					<g transform="translate(95.147200, 99.259500)">
						<line id="Fill-84" class="st0" x1="0.8" y1="1" x2="0.8" y2="13.6"/>
						<line id="Stroke-85" class="st2" x1="0.8" y1="1" x2="0.8" y2="13.6"/>
					</g>
				</g>
				<defs>
					<filter id="Adobe_OpacityMaskFilter_48_" filterUnits="userSpaceOnUse" x="90.1" y="117.1" width="10.6" height="3.9">
						<feColorMatrix  type="matrix" values="1 0 0 0 0  0 1 0 0 0  0 0 1 0 0  0 0 0 1 0"/>
					</filter>
				</defs>
				<mask maskUnits="userSpaceOnUse" x="90.1" y="117.1" width="10.6" height="3.9" id="mask-2_49_">
					<g class="st101">
						<polygon id="path-1_49_" class="st1" points="0.1,126.3 138.4,126.3 138.4,0.5 0.1,0.5 						"/>
					</g>
				</mask>
				<polygon id="Fill-87" class="st102" points="90.1,121 100.7,121 100.7,117.1 90.1,117.1 				"/>
				<defs>
					<filter id="Adobe_OpacityMaskFilter_49_" filterUnits="userSpaceOnUse" x="89.1" y="116.1" width="12.6" height="5.9">
						<feColorMatrix  type="matrix" values="1 0 0 0 0  0 1 0 0 0  0 0 1 0 0  0 0 0 1 0"/>
					</filter>
				</defs>
				<mask maskUnits="userSpaceOnUse" x="89.1" y="116.1" width="12.6" height="5.9" id="mask-2_50_">
					<g class="st103">
						<polygon id="path-1_50_" class="st1" points="0.1,126.3 138.4,126.3 138.4,0.5 0.1,0.5 						"/>
					</g>
				</mask>
				<polygon id="Stroke-88" class="st104" points="90.1,121 100.7,121 100.7,117.1 90.1,117.1 				"/>
				<defs>
					<filter id="Adobe_OpacityMaskFilter_50_" filterUnits="userSpaceOnUse" x="79.7" y="91.4" width="2" height="9.2">
						<feColorMatrix  type="matrix" values="1 0 0 0 0  0 1 0 0 0  0 0 1 0 0  0 0 0 1 0"/>
					</filter>
				</defs>
				<mask maskUnits="userSpaceOnUse" x="79.7" y="91.4" width="2" height="9.2" id="mask-2_51_">
					<g class="st105">
						<polygon id="path-1_51_" class="st1" points="0.1,126.3 138.4,126.3 138.4,0.5 0.1,0.5 						"/>
					</g>
				</mask>
				<g id="Group-91" class="st106">
					<g transform="translate(80.147200, 92.259500)">
						<line id="Fill-89" class="st0" x1="0.5" y1="0.1" x2="0.5" y2="7.3"/>
						<line id="Stroke-90" class="st2" x1="0.5" y1="0.1" x2="0.5" y2="7.3"/>
					</g>
				</g>
				<defs>
					<filter id="Adobe_OpacityMaskFilter_51_" filterUnits="userSpaceOnUse" x="109.3" y="91.4" width="2" height="9.2">
						<feColorMatrix  type="matrix" values="1 0 0 0 0  0 1 0 0 0  0 0 1 0 0  0 0 0 1 0"/>
					</filter>
				</defs>
				<mask maskUnits="userSpaceOnUse" x="109.3" y="91.4" width="2" height="9.2" id="mask-2_52_">
					<g class="st107">
						<polygon id="path-1_52_" class="st1" points="0.1,126.3 138.4,126.3 138.4,0.5 0.1,0.5 						"/>
					</g>
				</mask>
				<g id="Group-94" class="st108">
					<g transform="translate(109.147200, 92.259500)">
						<line id="Fill-92" class="st0" x1="1.1" y1="0.1" x2="1.1" y2="7.3"/>
						<line id="Stroke-93" class="st2" x1="1.1" y1="0.1" x2="1.1" y2="7.3"/>
					</g>
				</g>
			</g>
		</g>
	</g>
</g>
</svg>
