<?xml version="1.0" encoding="utf-8"?>
<!-- Generator: Adobe Illustrator 25.0.1, SVG Export Plug-In . SVG Version: 6.00 Build 0)  -->
<svg version="1.1" id="Layer_1" xmlns="http://www.w3.org/2000/svg" xmlns:xlink="http://www.w3.org/1999/xlink" x="0px" y="0px"
	 width="198.6px" height="22.6px" viewBox="0 0 198.6 22.6" style="enable-background:new 0 0 198.6 22.6;" xml:space="preserve">
<style type="text/css">
	.st0{fill:#557EBF;}
	.st1{fill:#EA4535;}
	.st2{fill:#F8BB16;}
	.st3{fill:#36A852;}
	.st4{enable-background:new    ;}
	.st5{fill:#606469;}
</style>
<g>
	<g id="Logo">
		<g>
			<path class="st0" d="M8.9,17.6C4.1,17.6,0,13.7,0,8.8S4.1,0,8.9,0c2.7,0,4.6,1,6,2.4l-1.7,1.7c-1-0.9-2.4-1.7-4.3-1.7
				c-3.5,0-6.3,2.8-6.3,6.4c0,3.5,2.7,6.4,6.3,6.4c2.3,0,3.6-0.9,4.4-1.8c0.7-0.7,1.1-1.7,1.3-3H8.9V8H17c0.1,0.4,0.1,0.9,0.1,1.5
				c0,1.8-0.5,4-2.1,5.6C13.5,16.7,11.5,17.6,8.9,17.6z"/>
			<path class="st1" d="M29.2,11.9c0,3.3-2.6,5.7-5.7,5.7s-5.7-2.4-5.7-5.7s2.6-5.7,5.7-5.7C26.7,6.3,29.2,8.7,29.2,11.9z
				 M26.7,11.9c0-2-1.5-3.4-3.2-3.4s-3.2,1.4-3.2,3.4s1.5,3.4,3.2,3.4S26.7,13.9,26.7,11.9z"/>
			<path class="st2" d="M41.4,11.9c0,3.3-2.6,5.7-5.7,5.7c-3.1,0-5.7-2.4-5.7-5.7s2.6-5.7,5.7-5.7C38.9,6.3,41.4,8.7,41.4,11.9z
				 M39,11.9c0-2-1.5-3.4-3.2-3.4s-3.2,1.4-3.2,3.4s1.5,3.4,3.2,3.4S39,13.9,39,11.9L39,11.9z"/>
			<path class="st0" d="M53.2,6.6v10.1c0,4.2-2.4,5.9-5.3,5.9c-2.7,0-4.4-1.8-5-3.3l2.1-0.9c0.4,0.9,1.3,2,2.8,2c1.9,0,3-1.2,3-3.3
				v-0.8h-0.1c-0.6,0.7-1.6,1.3-3,1.3c-2.8,0-5.4-2.5-5.4-5.6c0-3.2,2.6-5.7,5.4-5.7c1.4,0,2.4,0.6,3,1.3h0.1v-1
				C50.8,6.6,53.2,6.6,53.2,6.6z M51,11.9c0-2-1.3-3.4-3-3.4s-3.2,1.5-3.2,3.4c0,2,1.4,3.4,3.2,3.4C49.7,15.4,51,13.9,51,11.9z"/>
			<path class="st3" d="M57.2,0.6v16.6h-2.5V0.6H57.2z"/>
			<path class="st1" d="M66.7,13.8l1.9,1.3c-0.6,0.9-2.1,2.5-4.7,2.5c-3.2,0-5.6-2.5-5.6-5.7c0-3.3,2.4-5.7,5.3-5.7
				c2.9,0,4.4,2.3,4.8,3.6l0.3,0.6l-7.5,3.1c0.6,1.1,1.5,1.7,2.7,1.7C65.2,15.3,66.1,14.7,66.7,13.8L66.7,13.8z M60.8,11.8l5.1-2.1
				c-0.3-0.7-1.1-1.2-2.1-1.2C62.4,8.5,60.7,9.6,60.8,11.8z"/>
		</g>
	</g>
	<g id="Product">
		<g class="st4">
			<path class="st5" d="M80.8,1.7c0.6,0,1.2,0.1,1.6,0.3l-0.7,1.7c-0.2-0.1-0.5-0.2-0.9-0.2c-0.5,0-0.9,0.2-1.3,0.5S79,4.8,79,5.4
				v1.3h2.8v1.8H79v8.8h-2V8.5h-2V6.6h2V5.2c0-1.1,0.3-2,1-2.6S79.7,1.7,80.8,1.7z"/>
			<path class="st5" d="M84,7.9c1-1.1,2.3-1.6,3.9-1.6s2.9,0.5,3.9,1.6s1.5,2.4,1.5,4s-0.5,3-1.5,4c-1,1.1-2.3,1.6-3.9,1.6
				S85,17,84,15.9s-1.5-2.4-1.5-4C82.4,10.3,83,9,84,7.9z M85.4,14.7c0.7,0.7,1.5,1,2.4,1s1.7-0.3,2.4-1c0.7-0.7,1-1.6,1-2.8
				c0-1.1-0.3-2.1-1-2.8s-1.5-1-2.4-1s-1.7,0.3-2.4,1c-0.7,0.7-1,1.6-1,2.8S84.8,14,85.4,14.7z"/>
			<path class="st5" d="M96.9,17.2h-2V6.6h1.9v1.7h0.1c0.2-0.6,0.6-1,1.2-1.4s1.2-0.6,1.8-0.6c0.6,0,1.1,0.1,1.5,0.3l-0.8,1.9
				c-0.3-0.1-0.6-0.2-1.1-0.2c-0.7,0-1.4,0.3-1.9,0.9c-0.6,0.6-0.8,1.3-0.8,2.2L96.9,17.2L96.9,17.2z"/>
			<path class="st5" d="M116.9,3.7h-7v4.9h6.3v1.9h-6.3v4.9h7v1.9h-9V1.7h9V3.7z"/>
			<path class="st5" d="M123.2,17.6c-1.4,0-2.6-0.5-3.5-1.6c-1-1.1-1.5-2.4-1.5-4s0.5-2.9,1.5-4s2.2-1.6,3.5-1.6
				c0.8,0,1.5,0.2,2.2,0.5c0.6,0.3,1.1,0.8,1.4,1.3h0.1l-0.1-1.5v-5h2v15.5h-1.9v-1.5h-0.1c-0.3,0.5-0.8,0.9-1.4,1.3
				C124.7,17.4,124,17.6,123.2,17.6z M123.5,15.8c0.9,0,1.7-0.3,2.4-1c0.7-0.7,1-1.6,1-2.8s-0.3-2.1-1-2.8s-1.5-1-2.4-1
				s-1.7,0.3-2.4,1c-0.7,0.7-1,1.6-1,2.8c0,1.1,0.3,2.1,1,2.8S122.6,15.8,123.5,15.8z"/>
			<path class="st5" d="M140.5,17.2h-1.9v-1.5h-0.1c-0.3,0.5-0.8,0.9-1.4,1.3c-0.6,0.3-1.3,0.5-2,0.5c-1.3,0-2.3-0.4-3-1.2
				c-0.7-0.8-1-1.9-1-3.3V6.6h2v6.2c0,2,0.9,3,2.6,3c0.8,0,1.5-0.3,2-1s0.8-1.4,0.8-2.3V6.6h2L140.5,17.2L140.5,17.2z"/>
			<path class="st5" d="M147.7,17.6c-1.6,0-2.9-0.5-3.9-1.6s-1.5-2.4-1.5-4s0.5-3,1.5-4c1-1.1,2.3-1.6,3.9-1.6
				c1.2,0,2.1,0.3,2.9,0.9c0.8,0.6,1.4,1.3,1.7,2.2l-1.8,0.8c-0.5-1.3-1.5-2-3-2c-0.9,0-1.6,0.3-2.3,1.1c-0.7,0.7-1,1.6-1,2.7
				s0.3,2,1,2.7s1.5,1.1,2.3,1.1c1.5,0,2.5-0.7,3.1-2l1.8,0.8c-0.3,0.9-0.9,1.6-1.7,2.2C149.9,17.2,148.9,17.6,147.7,17.6z"/>
			<path class="st5" d="M157.4,17.6c-1.1,0-2.1-0.3-2.8-1c-0.8-0.7-1.1-1.5-1.1-2.6s0.4-2.1,1.3-2.7c0.9-0.7,2-1,3.3-1
				c1.2,0,2.1,0.2,2.9,0.7v-0.3c0-0.8-0.3-1.4-0.8-1.9s-1.2-0.7-2-0.7c-0.6,0-1.1,0.1-1.6,0.4c-0.5,0.3-0.8,0.7-0.9,1.1l-1.8-0.8
				c0.3-0.6,0.7-1.2,1.5-1.8c0.7-0.5,1.7-0.8,2.8-0.8c1.4,0,2.5,0.4,3.4,1.2s1.3,1.9,1.3,3.3v6.4H161v-1.5h-0.1
				C160.1,17,158.9,17.6,157.4,17.6z M157.7,15.8c0.8,0,1.6-0.3,2.2-0.9c0.7-0.6,1-1.3,1-2.2c-0.6-0.5-1.4-0.7-2.5-0.7
				c-1,0-1.7,0.2-2.2,0.6c-0.5,0.4-0.7,0.9-0.7,1.5c0,0.5,0.2,0.9,0.7,1.2C156.6,15.6,157.1,15.8,157.7,15.8z"/>
			<path class="st5" d="M169.4,17.4c-1.1,0-2-0.3-2.5-0.9c-0.6-0.6-0.9-1.4-0.9-2.5V8.5h-1.9V6.6h1.9V3.4h2v3.3h2.6v1.8H168v5.4
				c0,1.1,0.5,1.7,1.4,1.7c0.3,0,0.7-0.1,0.9-0.2l0.7,1.7C170.6,17.3,170.1,17.4,169.4,17.4z"/>
			<path class="st5" d="M174.8,4c-0.3,0.3-0.6,0.4-1,0.4s-0.7-0.1-1-0.4s-0.4-0.6-0.4-1s0.1-0.7,0.4-1c0.3-0.3,0.6-0.4,1-0.4
				s0.7,0.1,1,0.4s0.4,0.6,0.4,1S175.1,3.7,174.8,4z M174.8,17.2h-2V6.6h2V17.2z"/>
			<path class="st5" d="M178.2,7.9c1-1.1,2.3-1.6,3.9-1.6c1.6,0,2.9,0.5,3.9,1.6s1.5,2.4,1.5,4s-0.5,3-1.5,4c-1,1.1-2.3,1.6-3.9,1.6
				c-1.6,0-2.9-0.5-3.9-1.6s-1.5-2.4-1.5-4S177.2,9,178.2,7.9z M179.7,14.7c0.7,0.7,1.5,1,2.4,1s1.7-0.3,2.4-1s1-1.6,1-2.8
				c0-1.1-0.3-2.1-1-2.8s-1.5-1-2.4-1s-1.7,0.3-2.4,1s-1,1.6-1,2.8C178.6,13.1,179,14,179.7,14.7z"/>
			<path class="st5" d="M191.1,6.6v1.5h0.1c0.3-0.5,0.7-0.9,1.4-1.3c0.6-0.3,1.3-0.5,2-0.5c1.3,0,2.3,0.4,3,1.2s1,1.9,1,3.3v6.5h-2
				v-6.2c0-2-0.9-2.9-2.6-2.9c-0.8,0-1.5,0.3-2,1s-0.8,1.4-0.8,2.3v5.8h-2V6.6H191.1z"/>
		</g>
	</g>
	<g id="Guides_1_">
	</g>
</g>
</svg>
