<svg id="Layer_1" data-name="Layer 1" xmlns="http://www.w3.org/2000/svg" viewBox="0 0 59.22 58.53"><defs><style>.cls-1,.cls-3,.cls-6{fill:#fff;}.cls-1,.cls-2{stroke:#010101;}.cls-1,.cls-2,.cls-3,.cls-4{stroke-linecap:round;stroke-linejoin:round;stroke-width:1.5px;}.cls-2,.cls-4{fill:none;}.cls-3,.cls-4{stroke:#221f1f;}.cls-5{fill:#010101;}</style></defs><polygon class="cls-1" points="45.25 53.51 9.33 53.51 9.33 17.58 9.33 6.15 45.25 6.15 45.25 53.51"/><line class="cls-2" x1="17.29" y1="29.36" x2="32.12" y2="29.36"/><line class="cls-2" x1="17.29" y1="36.67" x2="27.13" y2="36.67"/><line class="cls-2" x1="17.29" y1="43.99" x2="31.32" y2="43.99"/><circle class="cls-3" cx="45.25" cy="37.03" r="8.92"/><polyline class="cls-4" points="41.01 37.28 43.42 39.95 49.85 34.37"/><path class="cls-5" d="M27.79,22.47l-.16.15a2.4,2.4,0,0,1-1.14.53A2.93,2.93,0,0,1,24.94,23a2.52,2.52,0,0,1-1.35-1.22,4,4,0,0,1-.4-1.27,6,6,0,0,1,0-1.69,4.08,4.08,0,0,1,.57-1.7,2.56,2.56,0,0,1,1.7-1.2,2.53,2.53,0,0,1,1.71.19,1.92,1.92,0,0,1,.42.28s0,0,.08,0V13.18c0-.17,0-.19.19-.22l.44,0a6.58,6.58,0,0,1,.89,0,.45.45,0,0,1,.2,0c.08,0,.1.06.1.14v8.09a1.23,1.23,0,0,0,0,.19.24.24,0,0,0,.22.23l.16,0c.1,0,.13,0,.15.12A1.49,1.49,0,0,1,30,22a6.43,6.43,0,0,1,0,.76.44.44,0,0,1,0,.1.15.15,0,0,1-.12.13,2.19,2.19,0,0,1-.49.12,2.66,2.66,0,0,1-.69,0,1.09,1.09,0,0,1-.89-.61s0,0,0,0"/><path class="cls-5" d="M18.05,16.71l.14-.13a2.52,2.52,0,0,1,1.34-.65,2.91,2.91,0,0,1,1.46.12,2.07,2.07,0,0,1,1.34,1.47,3.83,3.83,0,0,1,.13,1c0,1.43,0,2.86,0,4.29,0,.15,0,.19-.17.21a.85.85,0,0,1-.23,0,9.37,9.37,0,0,1-1.06,0,.84.84,0,0,1-.27,0c-.07,0-.11-.06-.1-.13V22.8c0-1.27,0-2.54,0-3.81a4,4,0,0,0-.05-.69.83.83,0,0,0-.69-.73,2,2,0,0,0-1.07.06.82.82,0,0,0-.61.79c0,.26,0,.51,0,.77v3.67c0,.1,0,.13-.12.16a1.5,1.5,0,0,1-.37.05c-.32,0-.64,0-1,0l-.22,0c-.13,0-.15-.06-.15-.19,0-1.22,0-2.43,0-3.65,0-.55,0-1.11,0-1.67s0-.84-.06-1.26c0-.12,0-.17.14-.2a1.64,1.64,0,0,1,.38,0,8.77,8.77,0,0,1,.89,0h.07c.15,0,.21.07.24.23s.05.28.07.43"/><path class="cls-5" d="M36.05,15.89a3.94,3.94,0,0,1,1.68.36,2.92,2.92,0,0,1,.48.29.19.19,0,0,1,.08.25,1,1,0,0,1-.12.26l-.34.56a1,1,0,0,1-.13.16.15.15,0,0,1-.22,0l-.35-.19a2.38,2.38,0,0,0-1-.24,1.84,1.84,0,0,0-.7.12.81.81,0,0,0-.24.17.44.44,0,0,0,.06.66,1.33,1.33,0,0,0,.37.2c.27.11.54.18.81.27a5.3,5.3,0,0,1,1,.37,1.93,1.93,0,0,1,.65.48,1.6,1.6,0,0,1,.43,1,2.23,2.23,0,0,1-.58,1.76,2.27,2.27,0,0,1-1.14.68,3.83,3.83,0,0,1-1,.14,4.61,4.61,0,0,1-1.57-.2,3.15,3.15,0,0,1-1.06-.55.23.23,0,0,1-.1-.3l0-.06a6.53,6.53,0,0,1,.45-.82s0,0,.05-.05.17-.14.31,0a3.27,3.27,0,0,0,1.28.52,2.16,2.16,0,0,0,1-.06,1.14,1.14,0,0,0,.31-.16.45.45,0,0,0,0-.74,1.94,1.94,0,0,0-.57-.25c-.31-.11-.64-.19-.95-.29a3.41,3.41,0,0,1-1-.49,1.76,1.76,0,0,1-.71-1.28,2.28,2.28,0,0,1,.13-1.07,2.1,2.1,0,0,1,.9-1,3.31,3.31,0,0,1,1.22-.4,4.41,4.41,0,0,1,.52,0"/><path class="cls-5" d="M30.75,19.54V16.29c0-.18,0-.21.2-.24l.36,0c.33,0,.65,0,1,0l.19,0a.14.14,0,0,1,.11.14V22.8c0,.18,0,.22-.22.25l-.37,0a8.81,8.81,0,0,1-1,0h0c-.14,0-.17-.06-.17-.2v-3.3Z"/><path class="cls-5" d="M31.64,15.27a1.17,1.17,0,1,1,1.18-1.15,1.17,1.17,0,0,1-1.18,1.15"/><path class="cls-6" d="M27.65,19.48v1.08c0,.13,0,.26,0,.39a.67.67,0,0,1-.34.48,1.64,1.64,0,0,1-.6.2,1.77,1.77,0,0,1-.79-.08,1.19,1.19,0,0,1-.62-.57,2.18,2.18,0,0,1-.22-.74,4.27,4.27,0,0,1,0-1.47,1.9,1.9,0,0,1,.18-.57,1.22,1.22,0,0,1,1.18-.73,1.52,1.52,0,0,1,1.17.58.18.18,0,0,1,0,.12v1.31Z"/></svg>