<svg id="Layer_1" data-name="Layer 1" xmlns="http://www.w3.org/2000/svg" viewBox="0 0 59.22 58.53"><defs><style>.cls-1{fill:#fff;}.cls-1,.cls-2{stroke:#231f20;stroke-linecap:round;stroke-linejoin:round;stroke-width:1.5px;}.cls-2{fill:none;}</style></defs><path class="cls-1" d="M37.44,12V8H33.61c0-3.58-2-4.37-4.47-4.37H26.9c-2.47,0-4.47.79-4.47,4.37H17.75v4"/><path class="cls-1" d="M40.2,53.51H15a3.74,3.74,0,0,1-3.78-3.7V15.28A3.73,3.73,0,0,1,15,11.59H40.2A3.74,3.74,0,0,1,44,15.28V49.81A3.74,3.74,0,0,1,40.2,53.51Z"/><rect class="cls-1" x="15.88" y="16.31" width="23.42" height="32.47"/><line class="cls-2" x1="21.28" y1="23.11" x2="33.91" y2="23.11"/><line class="cls-2" x1="21.28" y1="29.38" x2="33.91" y2="29.38"/><line class="cls-2" x1="21.28" y1="35.65" x2="30.24" y2="35.65"/><path class="cls-1" d="M45.14,28.68l2-1.61a2.33,2.33,0,0,1,3.24,0h0a2.32,2.32,0,0,1-.72,3.16l-2,1.6"/><polygon class="cls-1" points="34.79 42.22 28.58 44.68 32.27 39.11 45.14 28.68 47.66 31.79 34.79 42.22"/><line class="cls-1" x1="33.26" y1="38.31" x2="35.78" y2="41.42"/></svg>