<?xml version="1.0" encoding="UTF-8"?>
<svg width="100px" height="28px" viewBox="0 0 100 28" version="1.1" xmlns="http://www.w3.org/2000/svg" xmlns:xlink="http://www.w3.org/1999/xlink">
    <title>468E31FC-D477-48FB-8958-96D501191ABC</title>
    <g id="Designs" stroke="none" stroke-width="1" fill="none" fill-rule="evenodd">
        <g id="Content-template" transform="translate(-165.000000, -22.000000)" fill="#222222">
            <g id="TALi-logo-black" transform="translate(165.000000, 22.793379)">
                <path d="M74,19.3272578 C73.993476,23.4531533 72.4733528,26.2126915 64.9920171,26.2021744 C59.7687013,26.193587 54.8814117,26.8375436 55.002193,15.5617425 L55.0065959,13.060308 C55.0198048,4.48267911 54.9254413,0.193816435 62.911917,0.20662054 C70.7292789,0.217166373 69.806858,7.65759534 69.7980521,13.2446953 C72.3921982,13.2488443 74.0064848,15.2650439 74,19.3272578" id="Fill-1"></path>
                <path d="M93.9936478,19.6519124 C93.9874765,23.1494781 93.8227497,26.2170864 88.2603954,26.2065937 C81.674836,26.1959505 81.9978334,23.4101549 82.0041946,19.8872067 L82.010366,15.6289398 C82.0166322,11.8009198 82.6272133,9.9007109 88.2229877,9.90907967 C93.3372091,9.91769687 94.0061804,11.5170804 93.9999573,15.3429772 L93.9936478,19.6519124 Z M87.5977854,0.206632228 L88.7481196,0.208670716 C91.5303412,0.21301372 93.9582339,1.36748063 93.9520744,4.73369458 C93.9498789,6.78648768 91.5824651,8.09585505 88.6396943,8.09152282 L87.7457072,8.0893888 C84.6445707,8.08514231 82.3438072,6.6297535 82.347979,4.19352142 C82.3521622,1.34856443 84.6238731,0.202397488 87.5977854,0.206632228 L87.5977854,0.206632228 Z" id="Fill-3"></path>
                <path d="M36.9496334,0.206629907 C28.1372795,0.193902922 26.0108027,13.1537337 26.0000301,20.7231873 C25.9936151,23.811177 27.0097341,26.1833251 31.7449168,26.191816 C37.2368421,26.2001139 36.8488516,22.0723737 36.9152582,22.1698262 C36.9152582,22.0723737 36.5788306,26.1980877 42.0064,26.2065996 C46.7738095,26.2150695 47.9934452,23.6502357 47.9999455,20.4331455 C48.0127813,12.6348233 45.7619874,0.21947214 36.9496334,0.206629907 L36.9496334,0.206629907 Z M38.2465253,11.8130383 C38.2443672,12.6876985 37.884209,13.4502402 36.831664,13.4502402 C36.1886917,13.448021 35.7792167,12.7045839 35.7792167,11.7791711 L35.7813652,11.4975238 C35.7813652,10.5231918 36.2379107,9.80107849 36.9989501,9.80107849 C37.8906543,9.80300824 38.2486641,10.5168236 38.2465253,11.4508238 L38.2465253,11.8130383 Z" id="Fill-6"></path>
                <path d="M16.4123957,0.223606199 L14.0798764,0.21945758 L7.93747297,0.210870903 L5.60495362,0.20662054 C2.5262184,0.202477186 0.00436957412,2.65064475 0,5.64517577 C-0.00435345944,8.15682685 1.76245734,10.2872874 4.14721576,10.9142112 C3.97741399,12.6613587 3.84250434,14.4423704 3.84032358,16.2211632 C3.83169968,22.1341029 4.02529155,26.1959867 10.3657474,26.2043804 L11.4014094,26.2066205 C17.8092706,26.2172122 18.1160636,22.2208379 18.1269674,16.2423886 C18.1291482,14.3259197 17.9964193,13.2860635 17.8005475,11.0771651 C17.8005475,11.0560361 17.9354572,10.9840624 18.1465943,10.8442636 C20.3746355,10.1283856 21.9956328,8.08060804 22,5.67904008 C22.0043558,2.68229003 19.4912301,0.227851297 16.4123957,0.223606199" id="Fill-8"></path>
                <path d="M98.5444848,23.735469 C98.5444848,23.4526811 98.3298182,23.4055296 98.0104242,23.4055296 L97.5969697,23.4055296 L97.5969697,24.0758327 L98.0104242,24.0758327 C98.2984242,24.0758327 98.5444848,24.0337721 98.5444848,23.735469 L98.5444848,23.735469 Z M97.9372121,24.4159539 L97.5969697,24.4159539 L97.5969697,25.3375296 L97.2146667,25.3375296 L97.2146667,23.0600751 L97.9110303,23.0600751 C98.4294545,23.0600751 98.9372121,23.1017721 98.9372121,23.7039539 C98.9372121,24.1017721 98.7173333,24.3060145 98.3716364,24.3845599 L98.9372121,25.3427418 L98.4815758,25.3427418 L97.9372121,24.4159539 Z M99.6230303,24.2067418 C99.6230303,23.3113478 98.905697,22.5626205 97.9947879,22.5626205 C97.0890909,22.5626205 96.3768485,23.3061357 96.3768485,24.2067418 C96.3768485,25.1069842 97.0890909,25.8504993 98.0001212,25.8504993 C98.905697,25.8504993 99.6230303,25.1069842 99.6230303,24.2067418 L99.6230303,24.2067418 Z M98.0001212,26.2066205 C96.9004848,26.2066205 96,25.3165599 96,24.2067418 C96,23.0965599 96.9004848,22.2066205 98.0053333,22.2066205 C99.1099394,22.2066205 100,23.1071054 100,24.2067418 C100,25.3061357 99.1047273,26.2066205 98.0001212,26.2066205 L98.0001212,26.2066205 Z" id="Fill-11"></path>
            </g>
        </g>
    </g>
</svg>