<svg id="Layer_1" data-name="Layer 1" xmlns="http://www.w3.org/2000/svg" viewBox="0 0 59.22 58.53"><defs><style>.cls-1,.cls-3{fill:#fff;}.cls-2{fill:none;}.cls-2,.cls-3{stroke:#000;stroke-linecap:round;stroke-linejoin:round;stroke-width:1.5px;}.cls-3{fill-rule:evenodd;}</style></defs><path class="cls-1" d="M38.52,32.35,38.08,35s1.05,2.32-2.54,2.47a18.49,18.49,0,0,0-6.21,1.33L24.17,41.7c-1.72,1-6.36,3.06-9.5,1.42s-5.84-4.49-6.14-6a8.57,8.57,0,0,0-.74-2.28L6.5,33.05S4.19,29.88,4,27.78l-.3-4.19c2-4.41,2.85-8.23,8.16-8.75l3.66-.75s.75-2.84,2.25-3.67,3-2,6.06-1.27A11.62,11.62,0,0,1,28.28,11S30,6.68,32.85,6.53s6.82,3.09,6.82,3.09S45,6.31,47.73,9.15a9.31,9.31,0,0,1,2.77,5.61s3.74-.22,4,4.49S53.2,28.08,48,30.62s-7.86,1.05-7.86,1.05"/><path class="cls-2" d="M17.54,14.31S7,13.18,3.8,22.23c-2.48,6.94,3.88,12,3.88,12"/><path class="cls-2" d="M14.79,14.15s1.94-5.63,7.29-5.42c6.6.25,7.25,3.8,7.25,3.8"/><path class="cls-2" d="M12.53,26.1A9.42,9.42,0,0,0,8,32.6c-.64,4.45,2.59,10.95,9.37,10.95s8.73-3.76,12-4.79,6-.47,8.08-2.39c4.84-4.45-1.07-8.23-1.07-8.23"/><path class="cls-2" d="M15.44,30.63a15.75,15.75,0,0,0,5.81,2.91c2.91.64,4.2-.65,4.2-.65"/><path class="cls-2" d="M18.34,19.32s3.88,2.58,7.76,2.26a7,7,0,0,0,5.49-3.88"/><path class="cls-2" d="M21.25,27.07a6,6,0,0,1,2.26-3.87,21.86,21.86,0,0,1,3.23-1.62"/><path class="cls-2" d="M39.35,18.67s2.9,2.26,5.49,2.26h3.88"/><path class="cls-2" d="M28.32,10.1a5.33,5.33,0,0,1,5.86-3.71,6.29,6.29,0,0,1,5.49,3.23,7.59,7.59,0,0,1,7.43-1,4.61,4.61,0,0,1,3.23,5.17"/><path class="cls-2" d="M44.19,14.51s12.28-2.58,10.67,7.72S39,31.6,39,31.6"/><path class="cls-3" d="M54.86,42a1.77,1.77,0,0,1-1.09-1.26V38.8c0-.89.65-.86,1.65-1.64a1.5,1.5,0,0,0,.73-1.66,14.61,14.61,0,0,0-.73-1.62c-.54-1.06-.88-1-1.54-1s-1.05.65-1.88.65-1.57-.92-2.3-1.62-.47-1.84-.1-2.66.16-1.09-.74-1.58a10.38,10.38,0,0,0-2-.81c-1.51-.58-1.53.4-1.85.81s-.94,1.73-1.48,1.86a8.19,8.19,0,0,1-2,.32c-.67,0-.89-.31-1.26-1S39.13,26.63,38.49,27s-1.94.75-2.84,1.24.6,3.31,0,4a13.76,13.76,0,0,1-1.51,1.46c-.4.37-1.79-.15-2.82-.15s-1.7,1.42-1.88,2.86.31,1.63,1.27,2,1.57.18,1.57.71.2,1.79.16,2.49c0,.46-.73,1.07-2.13,1.82a1.39,1.39,0,0,0-.68,1.31c.09.74.63,1.24,1.08,2.06a1.52,1.52,0,0,0,2.33.68,1.45,1.45,0,0,1,1.88,0,7.88,7.88,0,0,0,1.35,1.22c.61.41.31.94,0,2.18s0,1.24.84,1.75a8.44,8.44,0,0,0,2,.75A1.17,1.17,0,0,0,40.63,53a5.79,5.79,0,0,0,1-1.54c.36-.85,1.4-.6,2.31-.6.61,0,1,.2,1.13.6.72,1.27,1.3,1.9,1.74,1.9a8.45,8.45,0,0,0,2.82-1.06c.95-.49.68-1.63.29-2.68A1.28,1.28,0,0,1,50.28,48c.3-.36.65-.76,1.06-1.21.61-.68,2.21,0,3.28,0s.9-.84,1.53-2.54S55.74,42.36,54.86,42Zm-12,3.23A5.14,5.14,0,1,1,48,40.09,5.14,5.14,0,0,1,42.87,45.23Z"/></svg>