<?xml version="1.0" encoding="UTF-8"?>
<svg width="123px" height="32px" viewBox="0 0 123 32" version="1.1" xmlns="http://www.w3.org/2000/svg" xmlns:xlink="http://www.w3.org/1999/xlink">
    <title>9C141BDD-1BF4-465E-AC03-B360EAFB2544</title>
    <g id="Designs" stroke="none" stroke-width="1" fill="none" fill-rule="evenodd">
        <g id="Content-template" transform="translate(-165.000000, -1051.000000)" fill="#FFFFFF">
            <g id="XL---Footer-Copy" transform="translate(0.000000, 986.000000)">
                <g id="TALi-logo-white" transform="translate(165.000000, 65.000000)">
                    <path d="M91,23.5331064 C90.9921026,28.6111317 89.1519534,32.0074864 80.0955997,31.9945422 C73.7726384,31.9839731 67.8564457,32.7765351 68.0026546,18.898626 L68.0079845,15.8199374 C68.0239742,5.2628557 67.9097447,-0.0157445136 77.5775838,1.43851867e-05 C87.040706,0.0129938723 85.9240913,9.1704449 85.9134315,16.0468756 C89.0537136,16.051982 91.00785,18.5334585 91,23.5331064" id="Fill-1"></path>
                    <path d="M114.992113,23.9327024 C114.984399,28.237405 114.77849,32.0129285 107.825522,32.0000144 C99.5935435,31.986915 99.9972918,28.5582384 100.005243,24.2222958 L100.012957,18.9813442 C100.02079,14.2699279 100.784019,11.9312058 107.778762,11.9415059 C114.171562,11.9521117 115.007779,13.9205866 115,18.6293896 L114.992113,23.9327024 Z M106.997257,1.43851901e-05 L108.43518,0.00252329705 C111.912969,0.00786854035 114.947846,1.42875299 114.940146,5.57179168 C114.937402,8.09831002 111.978124,9.70984148 108.299647,9.7045095 L107.182159,9.70188301 C103.305725,9.69665655 100.429761,7.90540613 100.434975,4.9069622 C100.440204,1.40547149 103.279853,-0.00519760994 106.997257,1.43851901e-05 L106.997257,1.43851901e-05 Z" id="Fill-3"></path>
                    <path d="M45.4382012,1.43851915e-05 C34.6229979,-0.0156496145 32.013221,15.93493 32,25.2511914 C31.9921271,29.0517985 33.2391869,31.9713688 39.0505699,31.9818191 C45.7906859,31.992032 45.314514,26.9117304 45.3960133,27.031672 C45.3960133,26.9117304 44.9831232,31.9895381 51.6442568,32.0000144 C57.4951909,32.0104389 58.9920223,28.8537166 59,24.8942165 C59.015753,15.2962703 56.2534045,0.0158202296 45.4382012,1.43851915e-05 L45.4382012,1.43851915e-05 Z M47.0298474,14.2848413 C47.0271988,15.3613475 46.5851847,16.2998614 45.29342,16.2998614 C44.5043146,16.2971301 44.0017752,15.3821295 44.0017752,14.2431586 L44.0044119,13.8965153 C44.0044119,12.6973361 44.56472,11.8085802 45.4987265,11.8085802 C46.5930949,11.8109553 47.0324723,12.6894984 47.0298474,13.8390383 L47.0298474,14.2848413 Z" id="Fill-6"></path>
                    <path d="M20.1424856,0.0209198111 L17.2798483,0.0158138186 L9.7414441,0.00524560155 L6.87880672,1.43851867e-05 C3.10035895,-0.0050851275 0.00536265915,3.00804418 0,6.69362082 C-0.00534288204,9.78488369 2.16301582,12.406989 5.0897648,13.1785876 C4.88137171,15.3289229 4.71580078,17.5209373 4.7131244,19.7102207 C4.70254051,26.9876849 4.94013053,31.9869266 12.7215991,31.9972573 L13.9926388,32.0000144 C21.8568321,32.0130503 22.2333508,27.0944358 22.2467328,19.7363444 C22.2494091,17.3776133 22.0865146,16.0977903 21.8461265,13.3791462 C21.8461265,13.3531412 22.0116975,13.2645582 22.2708202,13.0924981 C25.0052344,12.2114176 26.9946403,9.69107592 27,6.73529997 C27.0053458,3.04699221 23.9210551,0.0261445477 20.1424856,0.0209198111" id="Fill-8"></path>
                    <path d="M121.544485,29.5288629 C121.544485,29.246075 121.329818,29.1989235 121.010424,29.1989235 L120.59697,29.1989235 L120.59697,29.8692265 L121.010424,29.8692265 C121.298424,29.8692265 121.544485,29.8271659 121.544485,29.5288629 L121.544485,29.5288629 Z M120.937212,30.2093477 L120.59697,30.2093477 L120.59697,31.1309235 L120.214667,31.1309235 L120.214667,28.8534689 L120.91103,28.8534689 C121.429455,28.8534689 121.937212,28.8951659 121.937212,29.4973477 C121.937212,29.8951659 121.717333,30.0994083 121.371636,30.1779538 L121.937212,31.1361356 L121.481576,31.1361356 L120.937212,30.2093477 Z M122.62303,30.0001356 C122.62303,29.1047417 121.905697,28.3560144 120.994788,28.3560144 C120.089091,28.3560144 119.376848,29.0995295 119.376848,30.0001356 C119.376848,30.900378 120.089091,31.6438932 121.000121,31.6438932 C121.905697,31.6438932 122.62303,30.900378 122.62303,30.0001356 L122.62303,30.0001356 Z M121.000121,32.0000144 C119.900485,32.0000144 119,31.1099538 119,30.0001356 C119,28.8899538 119.900485,28.0000144 121.005333,28.0000144 C122.109939,28.0000144 123,28.9004992 123,30.0001356 C123,31.0995295 122.104727,32.0000144 121.000121,32.0000144 L121.000121,32.0000144 Z" id="Fill-11"></path>
                </g>
            </g>
        </g>
    </g>
</svg>