<?xml version="1.0" encoding="utf-8"?>
<!-- Generator: Adobe Illustrator 25.0.1, SVG Export Plug-In . SVG Version: 6.00 Build 0)  -->
<svg version="1.1" id="Layer_1" xmlns="http://www.w3.org/2000/svg" xmlns:xlink="http://www.w3.org/1999/xlink" x="0px" y="0px"
	 viewBox="0 0 41 41" style="enable-background:new 0 0 41 41;" xml:space="preserve">
<style type="text/css">
	.st0{fill:none;}
	.st1{fill:none;stroke:#000000;stroke-width:0.85;stroke-linecap:round;stroke-linejoin:round;}
	.st2{fill:none;stroke:#000000;stroke-width:0.9;stroke-linecap:round;stroke-linejoin:round;}
	.st3{filter:url(#Adobe_OpacityMaskFilter);}
	.st4{fill-rule:evenodd;clip-rule:evenodd;fill:#FFFFFF;}
	.st5{mask:url(#mask-2_2_);fill:none;stroke:#000000;stroke-width:0.85;stroke-linecap:round;stroke-linejoin:round;}
	.st6{filter:url(#Adobe_OpacityMaskFilter_1_);}
	.st7{mask:url(#mask-2_3_);fill:none;stroke:#000000;stroke-width:0.85;stroke-linecap:round;stroke-linejoin:round;}
	.st8{filter:url(#Adobe_OpacityMaskFilter_2_);}
	.st9{mask:url(#mask-2_4_);fill:none;stroke:#000000;stroke-width:0.85;stroke-linecap:round;stroke-linejoin:round;}
	.st10{filter:url(#Adobe_OpacityMaskFilter_3_);}
	.st11{mask:url(#mask-2_6_);fill:none;stroke:#000000;stroke-width:0.85;stroke-linecap:round;stroke-linejoin:round;}
	.st12{filter:url(#Adobe_OpacityMaskFilter_4_);}
	.st13{mask:url(#mask-2_8_);fill:none;stroke:#000000;stroke-width:0.85;stroke-linecap:round;stroke-linejoin:round;}
	.st14{filter:url(#Adobe_OpacityMaskFilter_5_);}
	.st15{mask:url(#mask-2_9_);fill:none;stroke:#000000;stroke-width:0.85;stroke-linecap:round;stroke-linejoin:round;}
	.st16{filter:url(#Adobe_OpacityMaskFilter_6_);}
	.st17{mask:url(#mask-2_10_);fill:none;stroke:#000000;stroke-width:0.85;stroke-linecap:round;stroke-linejoin:round;}
	.st18{filter:url(#Adobe_OpacityMaskFilter_7_);}
	.st19{mask:url(#mask-2_11_);fill:none;stroke:#000000;stroke-width:0.85;stroke-linecap:round;stroke-linejoin:round;}
	.st20{filter:url(#Adobe_OpacityMaskFilter_8_);}
	.st21{mask:url(#mask-2_12_);fill:none;stroke:#000000;stroke-width:0.85;stroke-linecap:round;stroke-linejoin:round;}
	.st22{filter:url(#Adobe_OpacityMaskFilter_9_);}
	.st23{mask:url(#mask-2_13_);fill:none;stroke:#000000;stroke-width:0.85;stroke-linecap:round;stroke-linejoin:round;}
	.st24{filter:url(#Adobe_OpacityMaskFilter_10_);}
	.st25{mask:url(#mask-2_14_);fill:none;stroke:#000000;stroke-width:0.85;stroke-linecap:round;stroke-linejoin:round;}
	.st26{filter:url(#Adobe_OpacityMaskFilter_11_);}
	.st27{mask:url(#mask-2_15_);fill:none;stroke:#000000;stroke-width:0.85;stroke-linecap:round;stroke-linejoin:round;}
	.st28{filter:url(#Adobe_OpacityMaskFilter_12_);}
	.st29{mask:url(#mask-2_16_);fill:none;stroke:#000000;stroke-width:0.85;stroke-linecap:round;stroke-linejoin:round;}
</style>
<g id="Designs">
	<g id="XL---Home" transform="translate(-955.000000, -2344.000000)">
		<g id="Timer" transform="translate(955.000000, 2344.000000)">
			<rect id="Invisible-Rectangle-41x41" y="0" class="st0" width="41" height="41"/>
			<g id="Group-30" transform="translate(3.000000, 0.000000)">
				<path id="Stroke-3" class="st1" d="M32.9,22.6c0,9-7.3,16.2-16.2,16.2c-9,0-16.2-7.3-16.2-16.2S7.7,6.4,16.7,6.4
					C25.6,6.4,32.9,13.7,32.9,22.6z"/>
				<g id="Group-12" transform="translate(12.200000, 3.610800)">
					<line id="Fill-5" class="st0" x1="7.9" y1="0" x2="7.9" y2="2.4"/>
					<line id="Stroke-7" class="st2" x1="7.9" y1="0.4" x2="7.9" y2="3"/>
					<line id="Fill-9" class="st0" x1="1.3" y1="2.4" x2="1.3" y2="0"/>
					<line id="Stroke-11" class="st1" x1="1.3" y1="3" x2="1.3" y2="0.4"/>
				</g>
				<g id="Clip-14">
				</g>
				<defs>
					<filter id="Adobe_OpacityMaskFilter" filterUnits="userSpaceOnUse" x="11.1" y="0" width="11" height="4.1">
						<feColorMatrix  type="matrix" values="1 0 0 0 0  0 1 0 0 0  0 0 1 0 0  0 0 0 1 0"/>
					</filter>
				</defs>
				<mask maskUnits="userSpaceOnUse" x="11.1" y="0" width="11" height="4.1" id="mask-2_2_">
					<g class="st3">
						<polygon id="path-1_2_" class="st4" points="0,39.3 35.2,39.3 35.2,0 0,0 						"/>
					</g>
				</mask>
				<polygon id="Stroke-15" class="st5" points="11.5,3.7 21.6,3.7 21.6,0.4 11.5,0.4 				"/>
				<defs>
					<filter id="Adobe_OpacityMaskFilter_1_" filterUnits="userSpaceOnUse" x="26.8" y="7.8" width="5.5" height="5.5">
						<feColorMatrix  type="matrix" values="1 0 0 0 0  0 1 0 0 0  0 0 1 0 0  0 0 0 1 0"/>
					</filter>
				</defs>
				<mask maskUnits="userSpaceOnUse" x="26.8" y="7.8" width="5.5" height="5.5" id="mask-2_3_">
					<g class="st6">
						<polygon id="path-1_3_" class="st4" points="0,39.3 35.2,39.3 35.2,0 0,0 						"/>
					</g>
				</mask>
				<polygon id="Stroke-16" class="st7" points="30,12.9 27.3,10.2 29.2,8.3 31.9,11 				"/>
				<defs>
					<filter id="Adobe_OpacityMaskFilter_2_" filterUnits="userSpaceOnUse" x="27.7" y="5" width="7.5" height="7.5">
						<feColorMatrix  type="matrix" values="1 0 0 0 0  0 1 0 0 0  0 0 1 0 0  0 0 0 1 0"/>
					</filter>
				</defs>
				<mask maskUnits="userSpaceOnUse" x="27.7" y="5" width="7.5" height="7.5" id="mask-2_4_">
					<g class="st8">
						<polygon id="path-1_4_" class="st4" points="0,39.3 35.2,39.3 35.2,0 0,0 						"/>
					</g>
				</mask>
				<polygon id="Stroke-17" class="st9" points="33,12 28.2,7.2 30,5.4 34.8,10.2 				"/>
				<defs>
					<filter id="Adobe_OpacityMaskFilter_3_" filterUnits="userSpaceOnUse" x="12.5" y="15.5" width="11.8" height="12.5">
						<feColorMatrix  type="matrix" values="1 0 0 0 0  0 1 0 0 0  0 0 1 0 0  0 0 0 1 0"/>
					</filter>
				</defs>
				<mask maskUnits="userSpaceOnUse" x="12.5" y="15.5" width="11.8" height="12.5" id="mask-2_6_">
					<g class="st10">
						<polygon id="path-1_6_" class="st4" points="0,39.3 35.2,39.3 35.2,0 0,0 						"/>
					</g>
				</mask>
				<path id="Stroke-19" class="st11" d="M20.7,24.1l3.2-8.2c-8.9,4.3-9.1,4.6-9.6,5.1c-1.7,1.7-1.9,4.2-0.4,5.6
					c1.4,1.4,3.9,1.2,5.6-0.4C20.1,25.5,20.7,24.1,20.7,24.1z"/>
				<defs>
					<filter id="Adobe_OpacityMaskFilter_4_" filterUnits="userSpaceOnUse" x="14.6" y="21.9" width="3.9" height="3.9">
						<feColorMatrix  type="matrix" values="1 0 0 0 0  0 1 0 0 0  0 0 1 0 0  0 0 0 1 0"/>
					</filter>
				</defs>
				<mask maskUnits="userSpaceOnUse" x="14.6" y="21.9" width="3.9" height="3.9" id="mask-2_8_">
					<g class="st12">
						<polygon id="path-1_8_" class="st4" points="0,39.3 35.2,39.3 35.2,0 0,0 						"/>
					</g>
				</mask>
				<path id="Stroke-21" class="st13" d="M18,23.8c0,0.8-0.7,1.5-1.5,1.5c-0.8,0-1.5-0.7-1.5-1.5s0.7-1.5,1.5-1.5
					C17.3,22.3,18,23,18,23.8z"/>
				<defs>
					<filter id="Adobe_OpacityMaskFilter_5_" filterUnits="userSpaceOnUse" x="16.3" y="6" width="0.9" height="3.1">
						<feColorMatrix  type="matrix" values="1 0 0 0 0  0 1 0 0 0  0 0 1 0 0  0 0 0 1 0"/>
					</filter>
				</defs>
				<mask maskUnits="userSpaceOnUse" x="16.3" y="6" width="0.9" height="3.1" id="mask-2_9_">
					<g class="st14">
						<polygon id="path-1_9_" class="st4" points="0,39.3 35.2,39.3 35.2,0 0,0 						"/>
					</g>
				</mask>
				<line id="Stroke-22" class="st15" x1="16.7" y1="6.4" x2="16.7" y2="8.7"/>
				<defs>
					<filter id="Adobe_OpacityMaskFilter_6_" filterUnits="userSpaceOnUse" x="0.2" y="22.6" width="3.1" height="0.9">
						<feColorMatrix  type="matrix" values="1 0 0 0 0  0 1 0 0 0  0 0 1 0 0  0 0 0 1 0"/>
					</filter>
				</defs>
				<mask maskUnits="userSpaceOnUse" x="0.2" y="22.6" width="3.1" height="0.9" id="mask-2_10_">
					<g class="st16">
						<polygon id="path-1_10_" class="st4" points="0,39.3 35.2,39.3 35.2,0 0,0 						"/>
					</g>
				</mask>
				<line id="Stroke-23" class="st17" x1="2.9" y1="23" x2="0.6" y2="23"/>
				<defs>
					<filter id="Adobe_OpacityMaskFilter_7_" filterUnits="userSpaceOnUse" x="5" y="11.4" width="2.5" height="2.5">
						<feColorMatrix  type="matrix" values="1 0 0 0 0  0 1 0 0 0  0 0 1 0 0  0 0 0 1 0"/>
					</filter>
				</defs>
				<mask maskUnits="userSpaceOnUse" x="5" y="11.4" width="2.5" height="2.5" id="mask-2_11_">
					<g class="st18">
						<polygon id="path-1_11_" class="st4" points="0,39.3 35.2,39.3 35.2,0 0,0 						"/>
					</g>
				</mask>
				<line id="Stroke-24" class="st19" x1="7.1" y1="13.4" x2="5.5" y2="11.8"/>
				<defs>
					<filter id="Adobe_OpacityMaskFilter_8_" filterUnits="userSpaceOnUse" x="25.9" y="31.7" width="2.5" height="2.5">
						<feColorMatrix  type="matrix" values="1 0 0 0 0  0 1 0 0 0  0 0 1 0 0  0 0 0 1 0"/>
					</filter>
				</defs>
				<mask maskUnits="userSpaceOnUse" x="25.9" y="31.7" width="2.5" height="2.5" id="mask-2_12_">
					<g class="st20">
						<polygon id="path-1_12_" class="st4" points="0,39.3 35.2,39.3 35.2,0 0,0 						"/>
					</g>
				</mask>
				<line id="Stroke-25" class="st21" x1="27.9" y1="33.8" x2="26.3" y2="32.2"/>
				<defs>
					<filter id="Adobe_OpacityMaskFilter_9_" filterUnits="userSpaceOnUse" x="25.8" y="11.4" width="2.5" height="2.5">
						<feColorMatrix  type="matrix" values="1 0 0 0 0  0 1 0 0 0  0 0 1 0 0  0 0 0 1 0"/>
					</filter>
				</defs>
				<mask maskUnits="userSpaceOnUse" x="25.8" y="11.4" width="2.5" height="2.5" id="mask-2_13_">
					<g class="st22">
						<polygon id="path-1_13_" class="st4" points="0,39.3 35.2,39.3 35.2,0 0,0 						"/>
					</g>
				</mask>
				<line id="Stroke-26" class="st23" x1="26.3" y1="13.4" x2="27.9" y2="11.8"/>
				<defs>
					<filter id="Adobe_OpacityMaskFilter_10_" filterUnits="userSpaceOnUse" x="5" y="32.2" width="2.5" height="2.5">
						<feColorMatrix  type="matrix" values="1 0 0 0 0  0 1 0 0 0  0 0 1 0 0  0 0 0 1 0"/>
					</filter>
				</defs>
				<mask maskUnits="userSpaceOnUse" x="5" y="32.2" width="2.5" height="2.5" id="mask-2_14_">
					<g class="st24">
						<polygon id="path-1_14_" class="st4" points="0,39.3 35.2,39.3 35.2,0 0,0 						"/>
					</g>
				</mask>
				<line id="Stroke-27" class="st25" x1="5.5" y1="34.2" x2="7.1" y2="32.6"/>
				<defs>
					<filter id="Adobe_OpacityMaskFilter_11_" filterUnits="userSpaceOnUse" x="30.1" y="22.6" width="3.1" height="0.9">
						<feColorMatrix  type="matrix" values="1 0 0 0 0  0 1 0 0 0  0 0 1 0 0  0 0 0 1 0"/>
					</filter>
				</defs>
				<mask maskUnits="userSpaceOnUse" x="30.1" y="22.6" width="3.1" height="0.9" id="mask-2_15_">
					<g class="st26">
						<polygon id="path-1_15_" class="st4" points="0,39.3 35.2,39.3 35.2,0 0,0 						"/>
					</g>
				</mask>
				<line id="Stroke-28" class="st27" x1="32.8" y1="23" x2="30.5" y2="23"/>
				<defs>
					<filter id="Adobe_OpacityMaskFilter_12_" filterUnits="userSpaceOnUse" x="16.4" y="36" width="0.9" height="3.1">
						<feColorMatrix  type="matrix" values="1 0 0 0 0  0 1 0 0 0  0 0 1 0 0  0 0 0 1 0"/>
					</filter>
				</defs>
				<mask maskUnits="userSpaceOnUse" x="16.4" y="36" width="0.9" height="3.1" id="mask-2_16_">
					<g class="st28">
						<polygon id="path-1_16_" class="st4" points="0,39.3 35.2,39.3 35.2,0 0,0 						"/>
					</g>
				</mask>
				<line id="Stroke-29" class="st29" x1="16.8" y1="36.5" x2="16.8" y2="38.7"/>
			</g>
		</g>
	</g>
</g>
</svg>
