<?xml version="1.0" encoding="utf-8"?>
<!-- Generator: Adobe Illustrator 25.0.1, SVG Export Plug-In . SVG Version: 6.00 Build 0)  -->
<svg version="1.1" id="Layer_1" xmlns="http://www.w3.org/2000/svg" xmlns:xlink="http://www.w3.org/1999/xlink" x="0px" y="0px"
	 viewBox="0 0 41 41" style="enable-background:new 0 0 41 41;" xml:space="preserve">
<style type="text/css">
	.st0{fill:none;}
	.st1{fill:none;stroke:#231F20;stroke-width:0.8475;stroke-linecap:round;stroke-linejoin:round;}
</style>
<g id="Designs">
	<g id="XL---Home" transform="translate(-581.000000, -2337.000000)">
		<g id="TRAIN" transform="translate(581.000000, 2337.000000)">
			<rect id="Rectangle" x="4" y="0" class="st0" width="33" height="41"/>
			
				<g id="Group-19" transform="translate(20.500000, 22.000000) rotate(42.000000) translate(-20.500000, -22.000000) translate(1.000000, 14.000000)">
				<polygon id="Stroke-2" class="st1" points="28.9,15.3 32,15.3 32,0.1 28.9,0.1 				"/>
				<polygon id="Stroke-5" class="st1" points="32,13.4 35.1,13.4 35.1,2 32,2 				"/>
				<polygon id="Stroke-7" class="st1" points="35.1,10.8 38.2,10.8 38.2,4.6 35.1,4.6 				"/>
				<polygon id="Stroke-10" class="st1" points="6.4,15.3 9.5,15.3 9.5,0.1 6.4,0.1 				"/>
				<polygon id="Stroke-13" class="st1" points="3.2,13.4 6.4,13.4 6.4,2 3.2,2 				"/>
				<polygon id="Stroke-15" class="st1" points="0.1,10.8 3.2,10.8 3.2,4.6 0.1,4.6 				"/>
				<polygon id="Stroke-18" class="st1" points="9.5,9.7 28.9,9.7 28.9,6.1 9.5,6.1 				"/>
			</g>
		</g>
	</g>
</g>
</svg>
