<?xml version="1.0" encoding="utf-8"?>
<!-- Generator: Adobe Illustrator 23.0.3, SVG Export Plug-In . SVG Version: 6.00 Build 0)  -->
<svg version="1.1" id="Layer_1" xmlns="http://www.w3.org/2000/svg" xmlns:xlink="http://www.w3.org/1999/xlink" x="0px" y="0px"
	 viewBox="0 0 80 80" style="enable-background:new 0 0 80 80;" xml:space="preserve">
<style type="text/css">
	.st0{clip-path:url(#SVGID_2_);}
	.st1{fill:#41479B;}
	.st2{fill:#F5F5F5;}
	.st3{fill:#FF4B55;}
	.st4{clip-path:url(#SVGID_4_);}
	.st5{clip-path:url(#SVGID_6_);}
</style>
<g>
	<defs>
		<circle id="SVGID_3_" cx="40" cy="40" r="40"/>
	</defs>
	<clipPath id="SVGID_2_">
		<use xlink:href="#SVGID_3_"  style="overflow:visible;"/>
	</clipPath>
	<g class="st0">
		<path class="st1" d="M99.6,80.4H-19.6c-1.2,0-2.1-1-2.1-2.1V1.7c0-1.2,1-2.1,2.1-2.1H99.6c1.2,0,2.1,1,2.1,2.1v76.6
			C101.7,79.5,100.7,80.4,99.6,80.4z"/>
		<path class="st2" d="M34.2-0.4L14.5,12.5V-0.4H3.8v12.9L-15.9-0.4h-3.7c-1.2,0-2.1,1-2.1,2.1v1.7l16.9,11.1h-16.9v10.6h16.9
			l-16.9,11.1v1.7c0,1.2,1,2.1,2.1,2.1h3.7L3.8,27.1V40h10.6V27.1L34.2,40H40v-3.8L23.1,25.1H40V14.5H23.1L40,3.4v-3.8H34.2z"/>
		<g>
			<polygon class="st3" points="40,16.6 12.3,16.6 12.3,-0.4 6,-0.4 6,16.6 -21.7,16.6 -21.7,23 6,23 6,40 12.3,40 12.3,23 40,23 
							"/>
			<path class="st3" d="M1.7,14.5L-20.7-0.1c-0.6,0.4-1,1-1,1.8v0.1l19.5,12.7L1.7,14.5L1.7,14.5z"/>
			<path class="st3" d="M18.4,14.5L40,0.4l0-0.9h-2.6L14.5,14.5H18.4z"/>
			<path class="st3" d="M-0.1,25.1l-21.3,13.8c0.4,0.6,1,1.1,1.8,1.1h0.4L3.8,25.1L-0.1,25.1L-0.1,25.1z"/>
			<path class="st3" d="M40,38.1l-20-13h-3.9L39.1,40l0.9,0L40,38.1z"/>
		</g>
		<path class="st2" d="M9.4,54.3l0.9,2.9l2.8-1.1c0.2-0.1,0.5,0.2,0.3,0.4L11.7,59l2.7,1.5c0.2,0.1,0.1,0.5-0.1,0.5l-3.1,0.2l0.5,3
			c0,0.3-0.3,0.4-0.5,0.2l-2.1-2.3l-2.1,2.3c-0.2,0.2-0.5,0-0.5-0.2l0.5-3L4.1,61c-0.3,0-0.3-0.4-0.1-0.5L6.6,59l-1.7-2.5
			c-0.1-0.2,0.1-0.5,0.3-0.4L8,57.2l0.9-2.9C9,54,9.3,54,9.4,54.3z"/>
		<path class="st2" d="M67.8,15.7l0.5,1.7l1.7-0.7c0.1-0.1,0.3,0.1,0.2,0.2l-1,1.5l1.6,0.9c0.1,0.1,0.1,0.3-0.1,0.3l-1.8,0.1
			l0.3,1.8c0,0.2-0.2,0.2-0.3,0.1l-1.2-1.3l-1.2,1.3c-0.1,0.1-0.3,0-0.3-0.1l0.3-1.8l-1.8-0.1c-0.2,0-0.2-0.2-0.1-0.3l1.6-0.9
			l-1-1.5c-0.1-0.1,0-0.3,0.2-0.2l1.7,0.7l0.5-1.7C67.6,15.6,67.8,15.6,67.8,15.7z"/>
		<path class="st2" d="M55.3,32.6l0.5,1.7l1.7-0.7c0.1-0.1,0.3,0.1,0.2,0.2l-1,1.5l1.6,0.9c0.1,0.1,0.1,0.3-0.1,0.3l-1.8,0.1
			l0.3,1.8c0,0.2-0.2,0.2-0.3,0.1l-1.2-1.3l-1.2,1.3c-0.1,0.1-0.3,0-0.3-0.1l0.3-1.8l-1.8-0.1c-0.2,0-0.2-0.2-0.1-0.3l1.6-0.9
			l-1-1.5c-0.1-0.1,0-0.3,0.2-0.2l1.7,0.7l0.5-1.7C55,32.4,55.2,32.4,55.3,32.6z"/>
		<path class="st2" d="M78.4,28.6l0.5,1.7l1.7-0.7c0.1-0.1,0.3,0.1,0.2,0.2l-1,1.5l1.6,0.9c0.1,0.1,0.1,0.3-0.1,0.3l-1.8,0.1
			l0.3,1.8c0,0.2-0.2,0.2-0.3,0.1l-1.2-1.3L77,34.6c-0.1,0.1-0.3,0-0.3-0.1l0.3-1.8l-1.8-0.1c-0.2,0-0.2-0.2-0.1-0.3l1.6-0.9l-1-1.5
			c-0.1-0.1,0-0.3,0.2-0.2l1.7,0.7l0.5-1.7C78.2,28.4,78.4,28.4,78.4,28.6z"/>
		<path class="st2" d="M67.9,57.4l0.5,1.7l1.7-0.7c0.1-0.1,0.3,0.1,0.2,0.2l-1,1.5l1.6,0.9c0.1,0.1,0.1,0.3-0.1,0.3L69,61.5l0.3,1.8
			c0,0.2-0.2,0.2-0.3,0.1l-1.2-1.3l-1.2,1.3c-0.1,0.1-0.3,0-0.3-0.1l0.3-1.8l-1.8-0.1c-0.2,0-0.2-0.2-0.1-0.3l1.6-0.9l-1-1.5
			c-0.1-0.1,0-0.3,0.2-0.2l1.7,0.7l0.5-1.7C67.7,57.2,67.9,57.2,67.9,57.4z"/>
		<path class="st2" d="M72.8,39.9l-0.4,1.3l-1.3,0c-0.2,0-0.2,0.2-0.1,0.3l1.1,0.8l-0.4,1.3c-0.1,0.2,0.1,0.3,0.3,0.2l1.1-0.8
			l1.1,0.8c0.1,0.1,0.3,0,0.3-0.2l-0.4-1.3l1.1-0.8c0.1-0.1,0.1-0.3-0.1-0.3l-1.3,0l-0.4-1.3C73,39.7,72.8,39.7,72.8,39.9z"/>
	</g>
</g>
</svg>
